# Blender 4.5.2 LTS
# www.blender.org
mtllib awning.mtl
o awning
v 2.034662 2.329965 -3.112685
v 3.034662 2.925678 -3.296780
v 2.034662 2.925678 -3.296780
v 2.034662 2.756165 -3.127267
v 3.034662 2.987724 -3.528339
v 3.034662 2.329965 -3.065221
v 2.034662 2.329965 -3.065221
v 2.283620 2.987724 -3.881995
v 3.034662 2.987724 -3.881995
v 2.034662 2.632064 -3.112685
v 2.034662 2.847067 -3.881995
v 2.034662 2.847067 -3.281770
v 2.533967 2.987724 -3.881995
v 2.784315 2.987724 -3.881995
v 2.283620 2.329965 -3.065221
v 2.533968 2.329965 -3.065221
v 2.784315 2.329965 -3.065221
v 2.283620 2.987724 -3.528339
v 2.533967 2.987724 -3.528339
v 2.784315 2.987724 -3.528339
v 2.784315 2.925678 -3.296780
v 2.533967 2.925678 -3.296780
v 2.283620 2.925678 -3.296780
v 2.784315 2.756165 -3.127267
v 2.533967 2.756165 -3.127267
v 2.283620 2.756165 -3.127267
v 2.784315 2.524606 -3.065221
v 2.533967 2.524606 -3.065221
v 2.283620 2.524606 -3.065221
v 2.034662 2.987724 -3.881995
v 1.034662 2.987724 -3.881995
v 1.082126 2.329965 -3.881995
v 1.082126 2.329965 -3.112685
v 2.034662 2.987724 -3.528339
v 2.034662 2.524606 -3.065221
v 1.034662 2.524606 -3.065221
v 1.034662 2.987724 -3.528339
v 1.034662 2.756165 -3.127267
v 1.034662 2.925678 -3.296780
v 1.785705 2.987724 -3.881995
v 1.034662 2.329965 -3.881995
v 1.034662 2.329965 -3.065221
v 1.082126 2.847067 -3.881995
v 1.082126 2.632064 -3.112685
v 1.082126 2.847067 -3.281770
v 1.535357 2.987724 -3.881995
v 1.285010 2.987724 -3.881995
v 1.785705 2.329965 -3.065221
v 1.535357 2.329965 -3.065221
v 1.285010 2.329965 -3.065221
v 1.785705 2.987724 -3.528339
v 1.535357 2.987724 -3.528339
v 1.285010 2.987724 -3.528339
v 1.285010 2.925678 -3.296780
v 1.535357 2.925678 -3.296780
v 1.785705 2.925678 -3.296780
v 1.285010 2.756165 -3.127267
v 1.535357 2.756165 -3.127267
v 1.785705 2.756165 -3.127267
v 1.285010 2.524606 -3.065221
v 1.535357 2.524606 -3.065221
v 1.785705 2.524606 -3.065221
v 1.285010 2.329965 -3.112685
v 2.533968 2.329965 -3.112685
v 2.784315 2.329965 -3.112685
v 2.160766 2.288774 -3.075278
v 1.535357 2.329965 -3.112685
v 2.283620 2.329965 -3.112685
v 1.785705 2.329965 -3.112685
v 2.160766 2.288774 -3.122741
v 2.660766 2.288774 -3.075278
v 1.173327 2.288774 -3.075278
v 1.173327 2.288774 -3.122741
v 1.662156 2.288774 -3.075278
v 2.660766 2.288774 -3.122741
v 1.662156 2.288774 -3.122741
v 3.237546 2.847067 -3.281770
v 3.237546 2.632064 -3.112685
v 3.237546 2.847067 -3.881995
v 3.285010 2.329965 -3.065221
v 3.285010 2.329965 -3.881995
v 3.285010 2.925678 -3.296780
v 3.285010 2.756165 -3.127267
v 3.285010 2.987724 -3.528339
v 3.285010 2.524606 -3.065221
v 3.237546 2.329965 -3.112685
v 3.237546 2.329965 -3.881995
v 3.285010 2.987724 -3.881995
v 3.034662 2.756165 -3.127267
v 3.034662 2.524606 -3.065221
v 3.146345 2.288774 -3.122741
v 3.034662 2.329965 -3.112685
v 3.146345 2.288774 -3.075278
vn -0.0000 -0.2372 0.9715
vn -0.0000 -1.0000 -0.0000
vn -0.3460 -0.9382 -0.0000
vn 0.3457 -0.9223 -0.1728
vn -0.0000 0.9659 0.2588
vn -0.0000 0.7071 0.7071
vn -0.0000 0.2588 0.9659
vn -0.0000 1.0000 -0.0000
vn -0.0000 -0.0000 -1.0000
vn -0.0000 -0.6182 -0.7860
vn -0.0000 -0.0000 1.0000
vn 1.0000 -0.0000 -0.0000
vn -0.3090 -0.9511 -0.0000
vn -1.0000 -0.0000 -0.0000
vn -0.0000 0.2372 -0.9715
vn -0.3457 -0.9223 -0.1728
vn 0.3179 -0.9481 -0.0000
vn 0.3163 -0.9487 -0.0000
vn -0.3105 -0.9506 -0.0000
vn 0.3460 -0.9382 -0.0000
vt 0.112020 0.881313
vt 0.112020 0.881313
vt 0.224107 0.874647
vt 0.220000 0.874647
vt 0.220000 0.874647
vt 0.224107 0.874647
vt 0.115893 0.871313
vt 0.115353 0.871313
vt 0.115353 0.871313
vt 0.455353 0.874647
vt 0.455353 0.874647
vt 0.455893 0.874647
vt 0.460623 0.874647
vt 0.457988 0.874647
vt 0.460623 0.874647
vt 0.455708 0.874647
vt 0.455353 0.874647
vt 0.455353 0.874646
vt 0.115353 0.867980
vt 0.464647 0.874647
vt 0.464647 0.874647
vt 0.115353 0.874647
vt 0.115353 0.874647
vt 0.215893 0.874647
vt 0.215893 0.874647
vt 0.215893 0.874647
vt 0.115353 0.867980
vt 0.115353 0.871313
vt 0.115353 0.871313
vt 0.124647 0.867980
vt 0.120623 0.867980
vt 0.124647 0.871313
vt 0.120623 0.871313
vt 0.120623 0.871313
vt 0.124647 0.871313
vt 0.115708 0.867980
vt 0.115708 0.867980
vt 0.115708 0.871313
vt 0.115708 0.871313
vt 0.117988 0.867980
vt 0.117988 0.867980
vt 0.117988 0.871313
vt 0.117988 0.871313
vt 0.212560 0.874647
vt 0.220773 0.874647
vt 0.216667 0.874647
vt 0.117289 0.881313
vt 0.117289 0.881313
vt 0.114655 0.881313
vt 0.112374 0.881313
vt 0.115893 0.871313
vt 0.121313 0.881313
vt 0.121313 0.881313
vt 0.112020 0.864647
vt 0.112374 0.864647
vt 0.114655 0.864647
vt 0.117289 0.864647
vt 0.121313 0.864647
vt 0.112020 0.864647
vt 0.455893 0.874647
vt 0.130773 0.877980
vt 0.122560 0.877980
vt 0.122020 0.877980
vt 0.131313 0.877980
vt 0.215893 0.874647
vt 0.115353 0.874647
vt 0.115353 0.874646
vt 0.124647 0.874647
vt 0.124647 0.874647
vt 0.120623 0.874647
vt 0.120623 0.874647
vt 0.464647 0.874647
vt 0.460623 0.874647
vt 0.455708 0.874647
vt 0.115708 0.874647
vt 0.455708 0.874647
vt 0.457988 0.874647
vt 0.117988 0.874647
vt 0.457988 0.874647
vt 0.455893 0.874647
vt 0.455893 0.874647
s 0
usemtl palette1
f 6/1/1 93/1/1 80/2/1
f 11/3/2 12/4/2 45/5/2 43/6/2
f 92/7/3 91/7/3 93/8/3 6/8/3
f 80/9/4 93/9/4 91/7/4 86/7/4
f 6/10/2 17/11/2 65/12/2 92/12/2
f 11/3/2 79/6/2 77/5/2 12/4/2
f 20/13/5 21/14/5 2/14/5 5/15/5
f 21/14/6 24/16/6 89/16/6 2/14/6
f 24/16/7 27/17/7 90/18/7 89/16/7
f 15/19/1 7/19/1 66/19/1
f 14/20/8 20/13/8 5/15/8 9/21/8
f 48/22/1 49/23/1 74/22/1
f 1/24/9 10/25/9 78/25/9 86/25/9 65/26/9 64/26/9 68/26/9
f 12/4/10 77/5/10 78/25/10 10/25/10
f 35/27/11 7/19/11 15/19/11 29/27/11
f 29/17/11 15/11/11 16/10/11 28/18/11
f 28/28/11 16/29/11 17/8/11 27/8/11
f 30/30/8 34/31/8 18/31/8 8/30/8
f 8/20/8 18/13/8 19/15/8 13/21/8
f 13/32/8 19/33/8 20/34/8 14/35/8
f 4/36/7 35/27/7 29/27/7 26/37/7
f 26/16/7 29/17/7 28/18/7 25/16/7
f 25/38/7 28/28/7 27/8/7 24/39/7
f 3/40/6 4/36/6 26/37/6 23/41/6
f 23/14/6 26/16/6 25/16/6 22/14/6
f 22/42/6 25/38/6 24/39/6 21/43/6
f 34/31/5 3/40/5 23/41/5 18/31/5
f 18/13/5 23/14/5 22/14/5 19/15/5
f 19/33/5 22/42/5 21/43/5 20/34/5
f 33/44/12 32/45/12 43/45/12 45/46/12 44/44/12
f 53/47/5 37/48/5 39/49/5 54/49/5
f 54/49/6 39/49/6 38/50/6 57/50/6
f 57/50/7 38/50/7 36/1/7 60/1/7
f 16/29/13 64/51/13 75/51/13 71/29/13
f 47/52/8 31/53/8 37/48/8 53/47/8
f 60/1/11 36/1/11 42/2/11 50/1/11
f 36/54/14 38/55/14 39/56/14 37/57/14 31/58/14 41/58/14 42/59/14
f 48/11/2 69/60/2 1/12/2 7/11/2
f 32/61/2 33/62/2 42/63/2 41/64/2
f 64/12/15 65/12/15 75/12/15
f 33/60/15 63/60/15 73/60/15
f 1/25/9 69/65/9 67/65/9 63/25/9 33/25/9 44/25/9 10/25/9
f 12/4/10 10/25/10 44/25/10 45/5/10
f 35/17/11 62/17/11 48/11/11 7/11/11
f 62/66/11 61/67/11 49/23/11 48/22/11
f 61/18/11 60/17/11 50/17/11 49/10/11
f 30/20/8 40/20/8 51/13/8 34/13/8
f 40/68/8 46/69/8 52/70/8 51/71/8
f 46/21/8 47/72/8 53/73/8 52/15/8
f 4/74/7 59/16/7 62/17/7 35/17/7
f 59/75/7 58/75/7 61/67/7 62/66/7
f 58/16/7 57/76/7 60/17/7 61/18/7
f 3/77/6 56/14/6 59/16/6 4/74/6
f 56/78/6 55/78/6 58/75/6 59/75/6
f 55/14/6 54/79/6 57/76/6 58/16/6
f 34/13/5 51/13/5 56/14/5 3/77/5
f 51/71/5 52/70/5 55/78/5 56/78/5
f 52/15/5 53/73/5 54/79/5 55/14/5
f 27/17/11 17/11/11 6/10/11 90/18/11
f 49/10/2 50/17/2 63/60/2 67/60/2
f 42/9/16 33/7/16 73/7/16 72/9/16
f 68/51/17 15/9/17 66/9/17 70/51/17
f 16/10/2 15/11/2 68/12/2 64/12/2
f 65/51/18 17/8/18 71/8/18 75/51/18
f 69/7/18 48/9/18 74/9/18 76/7/18
f 17/8/1 16/29/1 71/8/1
f 7/9/19 1/51/19 70/51/19 66/9/19
f 49/29/13 67/7/13 76/7/13 74/29/13
f 63/7/20 50/8/20 72/8/20 73/7/20
f 1/80/15 68/12/15 70/80/15
f 67/81/15 69/81/15 76/81/15
f 50/1/1 42/2/1 72/1/1
f 90/1/11 6/1/11 80/2/11 85/1/11
f 5/47/5 2/49/5 82/49/5 84/48/5
f 86/44/14 78/44/14 77/46/14 79/45/14 87/45/14
f 89/50/7 90/1/7 85/1/7 83/50/7
f 86/60/15 91/60/15 92/60/15
f 2/49/6 89/50/6 83/50/6 82/49/6
f 87/61/2 81/64/2 80/63/2 86/62/2
f 85/54/12 80/59/12 81/58/12 88/58/12 84/57/12 82/56/12 83/55/12
f 9/52/8 5/47/8 84/48/8 88/53/8
