# Blender 4.5.2 LTS
# www.blender.org
mtllib cafe_sign_logo.mtl
o cafe_sign_logo
v -4.904386 2.124022 -2.962368
v -4.920794 2.104846 -2.962368
v -4.920048 2.076016 -2.962368
v -4.898971 2.057947 -2.962368
v -5.168567 2.035254 -2.962368
v -4.690600 2.033180 -2.962368
v -5.003435 2.061074 -2.962368
v -4.716980 1.884149 -2.962368
v -4.790199 1.824005 -2.962368
v -4.910970 1.802574 -2.962368
v -5.028466 1.817398 -2.962368
v -5.116008 1.868987 -2.962368
v -5.165457 1.948341 -2.962368
v -4.690660 2.002470 -2.962368
v -4.708037 1.908307 -2.962368
v -4.663505 2.017925 -2.962368
v -4.616524 2.024031 -2.962368
v -4.576276 2.012196 -2.962368
v -4.561701 1.975843 -2.962368
v -4.566853 1.913710 -2.962368
v -4.599258 1.871251 -2.962368
v -4.652078 1.863461 -2.962368
v -4.688065 1.879874 -2.962368
v -4.665966 1.985366 -2.962368
v -4.627657 1.998090 -2.962368
v -4.596124 1.983241 -2.962368
v -4.591608 1.946790 -2.962368
v -4.601115 1.908928 -2.962368
v -4.649268 1.892400 -2.962368
v -4.682269 1.912434 -2.962368
v -5.031363 2.085887 -2.962368
v -5.029428 2.124551 -2.962368
v -4.996422 2.157075 -2.962368
v -4.984131 2.198323 -2.962368
v -4.994985 2.237144 -2.962368
v -5.009586 2.267351 -2.962368
v -4.968373 2.249159 -2.962368
v -4.948818 2.217901 -2.962368
v -4.940659 2.161652 -2.962368
v -4.950609 2.130567 -2.962368
v -4.973274 2.111319 -2.962368
v -4.979673 2.084049 -2.962368
v -4.971342 2.057306 -2.962368
v -4.885832 2.144486 -2.962368
v -4.891277 2.186046 -2.962368
v -4.862973 2.162047 -2.962368
v -4.855401 2.133347 -2.962368
v -4.863367 2.110654 -2.962368
v -4.887759 2.086575 -2.962368
v -4.876380 2.058015 -2.962368
v -4.900000 2.410824 -2.973619
v -5.057215 2.379552 -2.973619
v -5.190496 2.290496 -2.973619
v -5.279552 2.157215 -2.973619
v -5.310824 2.000000 -2.973619
v -5.279552 1.842785 -2.973619
v -5.190496 1.709504 -2.973619
v -5.057215 1.620448 -2.973619
v -4.900000 1.589176 -2.973619
v -4.742785 1.620448 -2.973619
v -4.609504 1.709504 -2.973619
v -4.520449 1.842785 -2.973619
v -4.489176 2.000000 -2.973619
v -4.520449 2.157215 -2.973619
v -4.609504 2.290496 -2.973619
v -4.742785 2.379552 -2.973619
v -5.057215 2.379552 -3.126814
v -4.900000 2.410824 -3.126814
v -5.190496 2.290496 -3.126814
v -5.279552 2.157215 -3.126814
v -5.310824 2.000000 -3.126814
v -5.279552 1.842785 -3.126814
v -5.190496 1.709504 -3.126814
v -5.057215 1.620448 -3.126814
v -4.900000 1.589176 -3.126814
v -4.742785 1.620448 -3.126814
v -4.609504 1.709504 -3.126814
v -4.520449 1.842785 -3.126814
v -4.489176 2.000000 -3.126814
v -4.520449 2.157215 -3.126814
v -4.609504 2.290496 -3.126814
v -4.742785 2.379552 -3.126814
v -4.900000 2.460394 -3.012510
v -5.076185 2.425349 -3.012510
v -5.225548 2.325548 -3.012510
v -5.325348 2.176185 -3.012510
v -5.360394 2.000000 -3.012510
v -5.325348 1.823815 -3.012510
v -5.225548 1.674452 -3.012510
v -5.076185 1.574652 -3.012510
v -4.900000 1.539606 -3.012510
v -4.723815 1.574652 -3.012510
v -4.574452 1.674452 -3.012510
v -4.474652 1.823815 -3.012510
v -4.439606 2.000000 -3.012510
v -4.474652 2.176185 -3.012510
v -4.574452 2.325548 -3.012510
v -4.723815 2.425349 -3.012510
v -5.076185 2.425349 -3.087922
v -4.900000 2.460394 -3.087922
v -5.225548 2.325548 -3.087922
v -5.325348 2.176185 -3.087922
v -5.360394 2.000000 -3.087922
v -5.325348 1.823815 -3.087922
v -5.225548 1.674452 -3.087922
v -5.076185 1.574652 -3.087922
v -4.900000 1.539606 -3.087922
v -4.723815 1.574652 -3.087922
v -4.574452 1.674452 -3.087922
v -4.474652 1.823815 -3.087922
v -4.439606 2.000000 -3.087922
v -4.474652 2.176185 -3.087922
v -4.574452 2.325548 -3.087922
v -4.723815 2.425349 -3.087922
vn -0.0000 -0.0000 1.0000
vn 0.9808 0.1951 -0.0000
vn -0.8315 -0.5556 -0.0000
vn 0.8315 0.5556 -0.0000
vn -0.5556 -0.8315 -0.0000
vn 0.5556 0.8315 -0.0000
vn -0.1951 -0.9808 -0.0000
vn -0.1951 0.9808 -0.0000
vn 0.1951 0.9808 -0.0000
vn 0.1951 -0.9808 -0.0000
vn -0.5556 0.8315 -0.0000
vn 0.5556 -0.8315 -0.0000
vn -0.8315 0.5556 -0.0000
vn 0.8315 -0.5556 -0.0000
vn -0.9808 0.1951 -0.0000
vn 0.9808 -0.1951 -0.0000
vn -0.9808 -0.1951 -0.0000
vt 0.458333 0.957782
vt 0.458333 0.962152
vt 0.458333 0.959792
vt 0.458333 0.956991
vt 0.458333 0.957150
vt 0.458333 0.957451
vt 0.458333 0.960161
vt 0.458333 0.960364
vt 0.458333 0.959745
vt 0.458333 0.957279
vt 0.458333 0.957050
vt 0.458333 0.957111
vt 0.458333 0.959948
vt 0.458333 0.959937
vt 0.458333 0.959532
vt 0.458333 0.962165
vt 0.458333 0.961599
vt 0.458333 0.960803
vt 0.458333 0.958686
vt 0.458333 0.957793
vt 0.458333 0.957934
vt 0.458333 0.957998
vt 0.458333 0.957809
vt 0.458333 0.957767
vt 0.458333 0.957463
vt 0.458333 0.956686
vt 0.458333 0.956954
vt 0.458333 0.960330
vt 0.458333 0.960083
vt 0.458333 0.959790
vt 0.458333 0.959599
vt 0.458333 0.959476
vt 0.458333 0.959701
vt 0.458333 0.960072
vt 0.458333 0.957498
vt 0.458333 0.957399
vt 0.458333 0.957542
vt 0.458333 0.956623
vt 0.458333 0.956746
vt 0.129005 0.865000
vt 0.127168 0.865761
vt 0.125761 0.867168
vt 0.125000 0.869005
vt 0.125000 0.870995
vt 0.125761 0.872832
vt 0.127168 0.874239
vt 0.129005 0.875000
vt 0.130994 0.875000
vt 0.132832 0.874239
vt 0.134239 0.872832
vt 0.135000 0.870995
vt 0.135000 0.869005
vt 0.134239 0.867168
vt 0.132832 0.865761
vt 0.130994 0.865000
vt 0.459005 0.951667
vt 0.457168 0.952428
vt 0.455761 0.953834
vt 0.455000 0.955672
vt 0.455000 0.957661
vt 0.455761 0.959499
vt 0.457168 0.960905
vt 0.459005 0.961667
vt 0.460994 0.961667
vt 0.462832 0.960905
vt 0.464239 0.959499
vt 0.465000 0.957661
vt 0.465000 0.955672
vt 0.464239 0.953834
vt 0.462832 0.952428
vt 0.460994 0.951667
s 0
usemtl palette1
f 6/1/1 5/2/1 10/3/1
f 21/4/1 28/5/1 29/6/1
f 1/7/1 2/8/1 49/9/1
f 25/10/1 26/11/1 17/12/1
f 35/13/1 34/14/1 38/15/1
f 13/16/1 12/17/1 5/2/1
f 12/17/1 11/18/1 5/2/1
f 11/18/1 10/3/1 5/2/1
f 10/3/1 9/19/1 14/20/1
f 14/20/1 9/19/1 15/21/1
f 9/19/1 8/22/1 15/21/1
f 15/21/1 30/23/1 14/20/1
f 14/20/1 6/1/1 10/3/1
f 30/23/1 15/21/1 23/24/1
f 23/24/1 22/25/1 29/6/1
f 22/25/1 21/4/1 29/6/1
f 21/4/1 20/26/1 28/5/1
f 20/26/1 27/27/1 28/5/1
f 29/6/1 30/23/1 23/24/1
f 2/8/1 3/28/1 49/9/1
f 3/28/1 4/29/1 49/9/1
f 4/29/1 50/30/1 49/9/1
f 49/9/1 48/31/1 1/7/1
f 48/31/1 47/32/1 44/14/1
f 47/32/1 46/33/1 44/14/1
f 46/33/1 45/34/1 44/14/1
f 44/14/1 1/7/1 48/31/1
f 14/20/1 30/35/1 24/36/1
f 14/20/1 24/36/1 16/37/1
f 24/36/1 25/10/1 16/37/1
f 17/12/1 16/37/1 25/10/1
f 19/38/1 18/39/1 26/11/1
f 18/39/1 17/12/1 26/11/1
f 27/27/1 20/26/1 19/38/1
f 26/11/1 27/27/1 19/38/1
f 32/8/1 31/28/1 42/30/1
f 31/28/1 7/29/1 42/30/1
f 32/8/1 42/30/1 41/9/1
f 7/29/1 43/30/1 42/30/1
f 41/9/1 40/31/1 33/7/1
f 40/31/1 39/32/1 33/7/1
f 33/7/1 32/8/1 41/9/1
f 34/14/1 33/7/1 39/32/1
f 39/32/1 38/15/1 34/14/1
f 37/33/1 36/34/1 35/13/1
f 37/33/1 35/13/1 38/15/1
f 52/40/1 53/41/1 54/42/1 55/43/1 56/44/1 57/45/1 58/46/1 59/47/1 60/48/1 61/49/1 62/50/1 63/51/1 64/52/1 65/53/1 66/54/1 51/55/1
f 64/52/2 63/51/2 79/51/2 80/52/2
f 57/45/3 56/44/3 72/44/3 73/45/3
f 65/53/4 64/52/4 80/52/4 81/53/4
f 58/46/5 57/45/5 73/45/5 74/46/5
f 66/54/6 65/53/6 81/53/6 82/54/6
f 59/47/7 58/46/7 74/46/7 75/47/7
f 52/40/8 51/55/8 68/55/8 67/40/8
f 51/55/9 66/54/9 82/54/9 68/55/9
f 60/48/10 59/47/10 75/47/10 76/48/10
f 53/41/11 52/40/11 67/40/11 69/41/11
f 61/49/12 60/48/12 76/48/12 77/49/12
f 54/42/13 53/41/13 69/41/13 70/42/13
f 62/50/14 61/49/14 77/49/14 78/50/14
f 55/43/15 54/42/15 70/42/15 71/43/15
f 63/51/16 62/50/16 78/50/16 79/51/16
f 56/44/17 55/43/17 71/43/17 72/44/17
f 84/56/1 85/57/1 86/58/1 87/59/1 88/60/1 89/61/1 90/62/1 91/63/1 92/64/1 93/65/1 94/66/1 95/67/1 96/68/1 97/69/1 98/70/1 83/71/1
f 96/68/2 95/67/2 111/67/2 112/68/2
f 89/61/3 88/60/3 104/60/3 105/61/3
f 97/69/4 96/68/4 112/68/4 113/69/4
f 90/62/5 89/61/5 105/61/5 106/62/5
f 98/70/6 97/69/6 113/69/6 114/70/6
f 91/63/7 90/62/7 106/62/7 107/63/7
f 84/56/8 83/71/8 100/71/8 99/56/8
f 83/71/9 98/70/9 114/70/9 100/71/9
f 92/64/10 91/63/10 107/63/10 108/64/10
f 85/57/11 84/56/11 99/56/11 101/57/11
f 93/65/12 92/64/12 108/64/12 109/65/12
f 86/58/13 85/57/13 101/57/13 102/58/13
f 94/66/14 93/65/14 109/65/14 110/66/14
f 87/59/15 86/58/15 102/58/15 103/59/15
f 95/67/16 94/66/16 110/66/16 111/67/16
f 88/60/17 87/59/17 103/59/17 104/60/17
