# Blender 4.5.2 LTS
# www.blender.org
mtllib cake_slice.mtl
o cake_slice
v 1.250189 0.125159 0.576169
v 1.233429 0.120472 0.573464
v 1.245634 0.120472 0.576540
v 1.224289 0.120472 0.582036
v 1.225370 0.120472 0.575517
v 1.243824 0.133802 0.574855
v 1.225652 0.133802 0.581575
v 1.227052 0.133802 0.575515
v 1.229646 0.138067 0.577676
v 1.250189 0.000000 0.576169
v 1.132198 0.000000 0.547940
v 1.136890 0.000000 0.544424
v 1.136197 0.000000 0.605326
v 1.131586 0.000000 0.601704
v 1.131586 0.125159 0.601704
v 1.136197 0.125159 0.605326
v 1.136890 0.125159 0.544424
v 1.132198 0.125159 0.547940
vn -0.2468 0.0309 -0.9686
vn 0.2434 -0.0891 -0.9658
vn 0.2494 0.0080 0.9684
vn -0.0390 0.1337 -0.9903
vn 0.3422 0.1634 0.9253
vn -0.0347 0.4685 -0.8828
vn 0.3062 0.4701 0.8278
vn -0.7957 0.5771 -0.1838
vn -0.9754 0.1080 -0.1923
vn -0.6178 -0.0000 0.7864
vn -0.5997 -0.0000 -0.8002
vn -0.0000 -1.0000 -0.0000
vn -0.9999 -0.0000 -0.0114
vn 0.2698 -0.0000 -0.9629
vn 0.2478 -0.0000 0.9688
vn -0.0000 1.0000 -0.0000
vt 0.371061 0.958737
vt 0.371951 0.958812
vt 0.371204 0.960352
vt 0.369242 0.958737
vt 0.370152 0.960312
vt 0.376515 0.958737
vt 0.378333 0.958737
vt 0.377424 0.960312
vt 0.368333 0.960312
vt 0.370307 0.961127
vt 0.176184 0.348833
vt 0.176184 0.028194
vt 0.191205 0.028194
vt 0.191205 0.348833
vt 0.023418 0.348833
vt 0.023418 0.028194
vt 0.038439 0.028194
vt 0.038439 0.348833
vt 0.882182 0.026304
vt 0.885289 0.030353
vt 0.858782 0.129283
vt 0.832274 0.030353
vt 0.835381 0.026304
vt 0.193739 0.031789
vt 0.362366 0.031790
vt 0.362366 0.352516
vt 0.193739 0.352515
vt 0.193738 0.031789
vt 0.362366 0.031789
vt 0.362366 0.352515
vt 0.603035 0.019578
vt 0.608457 0.026644
vt 0.562201 0.199274
vt 0.515944 0.026644
vt 0.521366 0.019579
s 0
usemtl palette1
f 2/1/1 5/2/1 8/3/1
f 3/4/2 2/1/2 6/5/2
f 4/6/3 3/7/3 7/8/3
f 2/1/4 8/3/4 6/5/4
f 3/4/5 6/5/5 7/9/5
f 6/5/6 8/3/6 9/10/6
f 7/9/7 6/5/7 9/10/7
f 9/10/8 8/3/8 7/9/8
f 5/2/9 4/6/9 7/8/9 8/3/9
usemtl main_textures
f 15/11/10 14/12/10 13/13/10 16/14/10
f 17/15/11 12/16/11 11/17/11 18/18/11
f 11/19/12 12/20/12 10/21/12 13/22/12 14/23/12
f 11/17/13 14/12/13 15/11/13 18/18/13
f 10/24/14 12/25/14 17/26/14 1/27/14
f 13/28/15 10/29/15 1/30/15 16/27/15
f 15/31/16 16/32/16 1/33/16 17/34/16 18/35/16
