# Blender 4.5.2 LTS
# www.blender.org
mtllib cake_1.mtl
o cake_1
v 0.999788 0.115975 0.658217
v 1.008780 0.128649 0.665668
v 0.993989 0.123289 0.672705
v 0.983030 0.119622 0.659920
v 0.991048 0.122715 0.644981
v 1.006962 0.128294 0.648534
v 0.997580 0.140129 0.671975
v 0.981666 0.134550 0.668423
v 0.979848 0.134195 0.651289
v 0.994638 0.139555 0.644252
v 1.005597 0.143223 0.657036
v 0.988840 0.146870 0.658739
v 1.069487 0.121869 0.596655
v 1.057539 0.121226 0.608935
v 1.042326 0.123716 0.601229
v 1.044873 0.123395 0.584187
v 1.061659 0.123210 0.581361
v 1.067812 0.136946 0.604835
v 1.051025 0.139635 0.607662
v 1.043197 0.140975 0.592367
v 1.055146 0.139115 0.580088
v 1.070359 0.136625 0.587793
v 1.058949 0.147604 0.594596
v 1.040130 0.116663 0.512437
v 1.047939 0.130261 0.519586
v 1.034073 0.123340 0.527125
v 1.023143 0.118466 0.514723
v 1.030255 0.122375 0.499519
v 1.045579 0.129665 0.502525
v 1.035779 0.140469 0.526291
v 1.020454 0.133179 0.523285
v 1.018095 0.132583 0.506224
v 1.031961 0.139504 0.498685
v 1.042890 0.144378 0.511087
v 1.025904 0.146182 0.513373
v 0.963400 0.124092 0.499360
v 0.947010 0.124092 0.504685
v 0.936880 0.124092 0.490743
v 0.947010 0.124092 0.476800
v 0.963400 0.124092 0.482126
v 0.956070 0.138752 0.504685
v 0.939680 0.138752 0.499360
v 0.939680 0.138752 0.482126
v 0.956070 0.138752 0.476800
v 0.966200 0.138752 0.490743
v 0.951540 0.147813 0.490743
v 0.902018 0.124092 0.563908
v 0.885627 0.124092 0.569234
v 0.875497 0.124092 0.555291
v 0.885627 0.124092 0.541349
v 0.902018 0.124092 0.546674
v 0.894688 0.138752 0.569234
v 0.878297 0.138752 0.563908
v 0.878297 0.138752 0.546674
v 0.894688 0.138752 0.541349
v 0.904818 0.138752 0.555291
v 0.890158 0.147813 0.555291
v 0.914595 0.124092 0.650233
v 0.898252 0.124092 0.644763
v 0.898404 0.124092 0.627530
v 0.914841 0.124092 0.622349
v 0.924847 0.124092 0.636381
v 0.905535 0.138752 0.650153
v 0.895528 0.138752 0.636122
v 0.905780 0.138752 0.622269
v 0.922123 0.138752 0.627739
v 0.921971 0.138752 0.644973
v 0.910188 0.147813 0.636251
v 0.912094 -0.007437 0.467264
v 0.867264 -0.007437 0.512094
v 0.850855 -0.007437 0.573333
v 0.867264 -0.007437 0.634572
v 0.912094 -0.007437 0.679403
v 0.973333 -0.007437 0.695812
v 1.034573 -0.007437 0.679403
v 1.079403 -0.007437 0.634572
v 1.095812 -0.007437 0.573333
v 1.079403 -0.007437 0.512094
v 0.973333 -0.007437 0.450855
v 1.034573 -0.007437 0.467264
v 1.031216 0.125159 0.473078
v 1.034573 0.118674 0.467264
v 1.073588 0.125159 0.515451
v 1.079403 0.118674 0.512094
v 1.089098 0.125159 0.573333
v 1.095812 0.118674 0.573333
v 1.073588 0.125159 0.631216
v 1.079403 0.118674 0.634572
v 1.031216 0.125159 0.673588
v 1.034573 0.118674 0.679403
v 0.973333 0.125159 0.689098
v 0.973333 0.118674 0.695812
v 0.915451 0.125159 0.673588
v 0.912094 0.118674 0.679403
v 0.873078 0.125159 0.631216
v 0.867264 0.118674 0.634572
v 0.857569 0.125159 0.573333
v 0.850855 0.118674 0.573333
v 0.873078 0.125159 0.515451
v 0.867264 0.118674 0.512094
v 0.915451 0.125159 0.473078
v 0.912094 0.118674 0.467264
v 0.973333 0.125159 0.457569
v 0.973333 0.118674 0.450855
vn 0.5020 -0.6744 0.5414
vn 0.8340 -0.5463 -0.0772
vn 0.3802 -0.6982 -0.6066
vn 0.9827 0.1510 -0.1074
vn 0.4455 -0.0563 0.8935
vn -0.6208 -0.4301 0.6555
vn -0.7426 -0.4539 -0.4925
vn 0.2484 -0.0947 -0.9640
vn 0.7426 0.4539 0.4925
vn -0.2484 0.0947 0.9640
vn -0.9827 -0.1510 0.1074
vn -0.4455 0.0563 -0.8935
vn 0.6208 0.4301 -0.6555
vn 0.2323 0.9202 0.3152
vn -0.3802 0.6982 0.6066
vn -0.8340 0.5463 0.0772
vn -0.5020 0.6744 -0.5414
vn 0.1570 0.9055 -0.3943
vn 0.8312 -0.3215 -0.4536
vn 0.6950 -0.2817 0.6615
vn -0.4628 -0.1029 0.8805
vn -0.9888 -0.0257 -0.1473
vn -0.1658 -0.1460 -0.9753
vn 0.9887 0.0300 0.1472
vn 0.1852 0.1329 0.9737
vn -0.8452 0.2773 0.4569
vn -0.6724 0.2586 -0.6935
vn 0.4641 0.1198 -0.8776
vn 0.7189 0.6886 0.0945
vn 0.2242 0.7657 0.6029
vn -0.4058 0.8688 0.2838
vn -0.3003 0.8555 -0.4218
vn 0.3948 0.7441 -0.5389
vn 0.5909 -0.6143 0.5229
vn 0.8854 -0.4524 -0.1066
vn 0.4329 -0.6542 -0.6202
vn 0.9561 0.2569 -0.1412
vn 0.4796 -0.0050 0.8775
vn -0.5472 -0.4934 0.6761
vn -0.7052 -0.5334 -0.4670
vn 0.2238 -0.0697 -0.9721
vn 0.7052 0.5334 0.4670
vn -0.2238 0.0697 0.9721
vn -0.9561 -0.2569 0.1412
vn -0.4796 0.0050 -0.8775
vn 0.5472 0.4934 -0.6761
vn 0.1413 0.9408 0.3080
vn -0.4329 0.6542 0.6202
vn -0.8854 0.4524 0.1066
vn -0.5909 0.6143 -0.5229
vn 0.0436 0.9161 -0.3985
vn 0.9822 -0.1876 -0.0000
vn 0.3035 -0.1876 0.9342
vn -0.7946 -0.1876 0.5774
vn -0.7946 -0.1876 -0.5774
vn 0.3035 -0.1876 -0.9342
vn 0.7946 0.1876 0.5774
vn -0.3035 0.1876 0.9342
vn -0.9822 0.1876 -0.0000
vn -0.3035 0.1876 -0.9342
vn 0.7946 0.1876 -0.5774
vn 0.4911 0.7947 0.3568
vn -0.1876 0.7947 0.5774
vn -0.6071 0.7947 -0.0000
vn -0.1876 0.7947 -0.5774
vn 0.4911 0.7947 -0.3568
vn 0.7895 -0.1876 0.5843
vn -0.3118 -0.1876 0.9315
vn -0.9822 -0.1876 -0.0087
vn -0.2953 -0.1876 -0.9368
vn 0.7997 -0.1876 -0.5703
vn 0.2953 0.1876 0.9368
vn -0.7997 0.1876 0.5703
vn -0.7895 0.1876 -0.5843
vn 0.3118 0.1876 -0.9315
vn 0.9822 0.1876 0.0087
vn 0.1825 0.7947 0.5790
vn -0.4943 0.7947 0.3525
vn -0.4880 0.7947 -0.3611
vn 0.1927 0.7947 -0.5757
vn 0.6070 0.7947 0.0053
vn -0.0000 -1.0000 -0.0000
vn 0.1830 0.7071 -0.6830
vn 0.5000 0.7071 -0.5000
vn 0.6830 0.7071 -0.1830
vn 0.6830 0.7071 0.1830
vn 0.5000 0.7071 0.5000
vn 0.1830 0.7071 0.6830
vn -0.1830 0.7071 0.6830
vn -0.5000 0.7071 0.5000
vn -0.6830 0.7071 0.1830
vn -0.6830 0.7071 -0.1830
vn -0.5000 0.7071 -0.5000
vn -0.1830 0.7071 -0.6830
vn 0.2588 -0.0000 -0.9659
vn -0.0000 1.0000 -0.0000
vn 0.7071 -0.0000 -0.7071
vn 0.9659 -0.0000 -0.2588
vn 0.9659 -0.0000 0.2588
vn 0.7071 -0.0000 0.7071
vn 0.2588 -0.0000 0.9659
vn -0.2588 -0.0000 0.9659
vn -0.7071 -0.0000 0.7071
vn -0.9659 -0.0000 0.2588
vn -0.9659 -0.0000 -0.2588
vn -0.7071 -0.0000 -0.7071
vn -0.2588 -0.0000 -0.9659
vt 0.370152 0.957162
vt 0.371061 0.958737
vt 0.369242 0.958737
vt 0.371970 0.957162
vt 0.372879 0.958737
vt 0.373788 0.957162
vt 0.374697 0.958737
vt 0.371970 0.960312
vt 0.370152 0.960312
vt 0.376515 0.958737
vt 0.378333 0.958737
vt 0.377424 0.960312
vt 0.375606 0.960312
vt 0.373788 0.960312
vt 0.368333 0.960312
vt 0.371061 0.961886
vt 0.369242 0.961886
vt 0.376515 0.961886
vt 0.374697 0.961886
vt 0.372879 0.961886
vt 0.933050 0.061504
vt 0.955350 0.109394
vt 0.953532 0.162277
vt 0.923970 0.205775
vt 0.877044 0.230137
vt 0.825217 0.227256
vt 0.782706 0.197874
vt 0.762006 0.149384
vt 0.762583 0.095858
vt 0.791026 0.051792
vt 0.837028 0.028257
vt 0.888707 0.032921
vt 0.685777 0.065424
vt 0.729658 0.143510
vt 0.716881 0.146793
vt 0.676116 0.075044
vt 0.607573 0.020810
vt 0.604194 0.033775
vt 0.518109 0.020459
vt 0.521660 0.033302
vt 0.441417 0.065311
vt 0.450660 0.074636
vt 0.395314 0.142107
vt 0.408431 0.145738
vt 0.395314 0.231810
vt 0.408087 0.228515
vt 0.438676 0.310137
vt 0.448388 0.300597
vt 0.516413 0.355108
vt 0.519750 0.342198
vt 0.605056 0.354469
vt 0.601611 0.341863
vt 0.681939 0.309886
vt 0.672662 0.300300
vt 0.728873 0.233124
vt 0.715769 0.229359
vt 0.022642 0.017241
vt 0.191194 0.017241
vt 0.191194 0.352515
vt 0.022643 0.352515
vt 0.022643 0.017241
vt 0.191194 0.017241
vt 0.191194 0.017241
vt 0.191194 0.352515
vt 0.191194 0.352515
s 0
usemtl palette1
f 1/1/1 2/2/1 3/3/1
f 2/2/2 1/4/2 6/5/2
f 1/6/3 5/7/3 6/5/3
f 2/2/4 6/5/4 11/8/4
f 3/3/5 2/2/5 7/9/5
f 4/10/6 3/11/6 8/12/6
f 5/7/7 4/10/7 9/13/7
f 6/5/8 5/7/8 10/14/8
f 2/2/9 11/8/9 7/9/9
f 3/3/10 7/9/10 8/15/10
f 4/10/11 8/12/11 9/13/11
f 5/7/12 9/13/12 10/14/12
f 6/5/13 10/14/13 11/8/13
f 7/9/14 11/8/14 12/16/14
f 8/15/15 7/9/15 12/17/15
f 9/13/16 8/12/16 12/18/16
f 10/14/17 9/13/17 12/19/17
f 11/8/18 10/14/18 12/20/18
f 13/2/19 17/5/19 22/8/19
f 14/3/20 13/2/20 18/9/20
f 15/10/21 14/11/21 19/12/21
f 16/7/22 15/10/22 20/13/22
f 17/5/23 16/7/23 21/14/23
f 13/2/24 22/8/24 18/9/24
f 14/3/25 18/9/25 19/15/25
f 15/10/26 19/12/26 20/13/26
f 16/7/27 20/13/27 21/14/27
f 17/5/28 21/14/28 22/8/28
f 18/9/29 22/8/29 23/16/29
f 19/15/30 18/9/30 23/17/30
f 20/13/31 19/12/31 23/18/31
f 21/14/32 20/13/32 23/19/32
f 22/8/33 21/14/33 23/20/33
f 24/1/34 25/2/34 26/3/34
f 25/2/35 24/4/35 29/5/35
f 24/6/36 28/7/36 29/5/36
f 25/2/37 29/5/37 34/8/37
f 26/3/38 25/2/38 30/9/38
f 27/10/39 26/11/39 31/12/39
f 28/7/40 27/10/40 32/13/40
f 29/5/41 28/7/41 33/14/41
f 25/2/42 34/8/42 30/9/42
f 26/3/43 30/9/43 31/15/43
f 27/10/44 31/12/44 32/13/44
f 28/7/45 32/13/45 33/14/45
f 29/5/46 33/14/46 34/8/46
f 30/9/47 34/8/47 35/16/47
f 31/15/48 30/9/48 35/17/48
f 32/13/49 31/12/49 35/18/49
f 33/14/50 32/13/50 35/19/50
f 34/8/51 33/14/51 35/20/51
f 36/2/52 40/5/52 45/8/52
f 37/3/53 36/2/53 41/9/53
f 38/10/54 37/11/54 42/12/54
f 39/7/55 38/10/55 43/13/55
f 40/5/56 39/7/56 44/14/56
f 36/2/57 45/8/57 41/9/57
f 37/3/58 41/9/58 42/15/58
f 38/10/59 42/12/59 43/13/59
f 39/7/60 43/13/60 44/14/60
f 40/5/61 44/14/61 45/8/61
f 41/9/62 45/8/62 46/16/62
f 42/15/63 41/9/63 46/17/63
f 43/13/64 42/12/64 46/18/64
f 44/14/65 43/13/65 46/19/65
f 45/8/66 44/14/66 46/20/66
f 47/2/52 51/5/52 56/8/52
f 48/3/53 47/2/53 52/9/53
f 49/10/54 48/11/54 53/12/54
f 50/7/55 49/10/55 54/13/55
f 51/5/56 50/7/56 55/14/56
f 47/2/57 56/8/57 52/9/57
f 48/3/58 52/9/58 53/15/58
f 49/10/59 53/12/59 54/13/59
f 50/7/60 54/13/60 55/14/60
f 51/5/61 55/14/61 56/8/61
f 52/9/62 56/8/62 57/16/62
f 53/15/63 52/9/63 57/17/63
f 54/13/64 53/12/64 57/18/64
f 55/14/65 54/13/65 57/19/65
f 56/8/66 55/14/66 57/20/66
f 58/2/67 62/5/67 67/8/67
f 59/3/68 58/2/68 63/9/68
f 60/10/69 59/11/69 64/12/69
f 61/7/70 60/10/70 65/13/70
f 62/5/71 61/7/71 66/14/71
f 58/2/72 67/8/72 63/9/72
f 59/3/73 63/9/73 64/15/73
f 60/10/74 64/12/74 65/13/74
f 61/7/75 65/13/75 66/14/75
f 62/5/76 66/14/76 67/8/76
f 63/9/77 67/8/77 68/16/77
f 64/15/78 63/9/78 68/17/78
f 65/13/79 64/12/79 68/18/79
f 66/14/80 65/13/80 68/19/80
f 67/8/81 66/14/81 68/20/81
usemtl main_textures
f 79/21/82 80/22/82 78/23/82 77/24/82 76/25/82 75/26/82 74/27/82 73/28/82 72/29/82 71/30/82 70/31/82 69/32/82
f 82/33/83 104/34/83 103/35/83 81/36/83
f 84/37/84 82/33/84 81/36/84 83/38/84
f 86/39/85 84/37/85 83/38/85 85/40/85
f 88/41/86 86/39/86 85/40/86 87/42/86
f 90/43/87 88/41/87 87/42/87 89/44/87
f 92/45/88 90/43/88 89/44/88 91/46/88
f 94/47/89 92/45/89 91/46/89 93/48/89
f 96/49/90 94/47/90 93/48/90 95/50/90
f 98/51/91 96/49/91 95/50/91 97/52/91
f 100/53/92 98/51/92 97/52/92 99/54/92
f 102/55/93 100/53/93 99/54/93 101/56/93
f 104/34/94 102/55/94 101/56/94 103/35/94
f 80/57/95 79/58/95 104/59/95 82/60/95
f 81/36/96 103/35/96 101/56/96 99/54/96 97/52/96 95/50/96 93/48/96 91/46/96 89/44/96 87/42/96 85/40/96 83/38/96
f 78/61/97 80/62/97 82/59/97 84/60/97
f 77/61/98 78/63/98 84/64/98 86/60/98
f 76/61/99 77/58/99 86/59/99 88/60/99
f 75/57/100 76/58/100 88/65/100 90/60/100
f 74/61/101 75/63/101 90/64/101 92/60/101
f 73/61/102 74/62/102 92/65/102 94/60/102
f 72/61/103 73/63/103 94/64/103 96/60/103
f 71/61/104 72/63/104 96/64/104 98/60/104
f 70/61/105 71/62/105 98/65/105 100/60/105
f 69/61/106 70/63/106 100/64/106 102/60/106
f 79/61/107 69/63/107 102/64/107 104/60/107
