# Blender 4.5.2 LTS
# www.blender.org
mtllib cake_brownie.mtl
o cake_brownie
v 0.924311 -0.016716 0.922356
v 1.022356 -0.016716 0.922356
v 0.924311 -0.016716 0.824310
v 1.022356 -0.016716 0.824310
v 0.927599 0.066723 0.827599
v 0.924311 0.063247 0.824310
v 0.924311 0.063247 0.922356
v 0.927599 0.066723 0.919068
v 1.019068 0.066723 0.919068
v 1.022356 0.063247 0.922356
v 1.022356 0.063247 0.824310
v 1.019068 0.066723 0.827599
vn -0.0000 -1.0000 -0.0000
vn -0.7265 0.6871 -0.0000
vn 0.7265 0.6871 -0.0000
vn -0.0000 0.6871 0.7265
vn -0.0000 0.6871 -0.7265
vn -1.0000 -0.0000 -0.0000
vn -0.0000 1.0000 -0.0000
vn -0.0000 -0.0000 -1.0000
vn -0.0000 -0.0000 1.0000
vn 1.0000 -0.0000 -0.0000
vt 0.784117 0.055945
vt 0.929024 0.055945
vt 0.929024 0.200852
vt 0.784117 0.200852
vt 0.443368 0.304874
vt 0.443368 0.071879
vt 0.451182 0.079693
vt 0.451182 0.297060
vt 0.676363 0.071879
vt 0.676363 0.304874
vt 0.668549 0.297060
vt 0.668549 0.079693
vt 0.023724 0.220289
vt 0.190651 0.220289
vt 0.190651 0.353137
vt 0.023724 0.353137
vt 0.023723 0.220289
vt 0.190651 0.220289
vt 0.190651 0.353137
vt 0.023724 0.220289
vt 0.190651 0.220289
vt 0.190651 0.353137
vt 0.023723 0.220289
s 0
usemtl main_textures
f 4/1/1 2/2/1 1/3/1 3/4/1
f 6/5/2 7/6/2 8/7/2 5/8/2
f 10/9/3 11/10/3 12/11/3 9/12/3
f 7/6/4 10/9/4 9/12/4 8/7/4
f 11/10/5 6/5/5 5/8/5 12/11/5
f 3/13/6 1/14/6 7/15/6 6/16/6
f 12/11/7 5/8/7 8/7/7 9/12/7
f 4/17/8 3/18/8 6/19/8 11/16/8
f 1/20/9 2/21/9 10/22/9 7/16/9
f 2/23/10 4/14/10 11/19/10 10/16/10
