# Blender 4.5.2 LTS
# www.blender.org
mtllib cake_2.mtl
o cake_2
v 1.412094 -0.007437 0.467264
v 1.367264 -0.007437 0.512094
v 1.350855 -0.007437 0.573333
v 1.367264 -0.007437 0.634572
v 1.412094 -0.007437 0.679403
v 1.473333 -0.007437 0.695812
v 1.534573 -0.007437 0.679403
v 1.579403 -0.007437 0.634572
v 1.595812 -0.007437 0.573333
v 1.579403 -0.007437 0.512094
v 1.473333 -0.007437 0.450855
v 1.534573 -0.007437 0.467264
v 1.531216 0.125159 0.473078
v 1.534573 0.118674 0.467264
v 1.573588 0.125159 0.515451
v 1.579403 0.118674 0.512094
v 1.589098 0.125159 0.573333
v 1.595812 0.118674 0.573333
v 1.573588 0.125159 0.631216
v 1.579403 0.118674 0.634572
v 1.531216 0.125159 0.673588
v 1.534573 0.118674 0.679403
v 1.473333 0.125159 0.689098
v 1.473333 0.118674 0.695812
v 1.415451 0.125159 0.673588
v 1.412094 0.118674 0.679403
v 1.373078 0.125159 0.631216
v 1.367264 0.118674 0.634572
v 1.357569 0.125159 0.573333
v 1.350855 0.118674 0.573333
v 1.373078 0.125159 0.515451
v 1.367264 0.118674 0.512094
v 1.415451 0.125159 0.473078
v 1.412094 0.118674 0.467264
v 1.473333 0.125159 0.457569
v 1.473333 0.118674 0.450855
v 1.493638 0.119061 0.587074
v 1.465998 0.119061 0.596055
v 1.448915 0.119061 0.572543
v 1.465998 0.119061 0.549030
v 1.493638 0.119061 0.558012
v 1.481277 0.143784 0.596055
v 1.453637 0.143784 0.587074
v 1.453637 0.143784 0.558012
v 1.481277 0.143784 0.549030
v 1.498360 0.143784 0.572543
v 1.473638 0.159063 0.572543
vn -0.0000 -1.0000 -0.0000
vn 0.1830 0.7071 -0.6830
vn 0.5000 0.7071 -0.5000
vn 0.6830 0.7071 -0.1830
vn 0.6830 0.7071 0.1830
vn 0.5000 0.7071 0.5000
vn 0.1830 0.7071 0.6830
vn -0.1830 0.7071 0.6830
vn -0.5000 0.7071 0.5000
vn -0.6830 0.7071 0.1830
vn -0.6830 0.7071 -0.1830
vn -0.5000 0.7071 -0.5000
vn -0.1830 0.7071 -0.6830
vn 0.2588 -0.0000 -0.9659
vn -0.0000 1.0000 -0.0000
vn 0.7071 -0.0000 -0.7071
vn 0.9659 -0.0000 -0.2588
vn 0.9659 -0.0000 0.2588
vn 0.7071 -0.0000 0.7071
vn 0.2588 -0.0000 0.9659
vn -0.2588 -0.0000 0.9659
vn -0.7071 -0.0000 0.7071
vn -0.9659 -0.0000 0.2588
vn -0.9659 -0.0000 -0.2588
vn -0.7071 -0.0000 -0.7071
vn -0.2588 -0.0000 -0.9659
vn 0.9822 -0.1876 -0.0000
vn 0.3035 -0.1876 0.9342
vn -0.7946 -0.1876 0.5774
vn -0.7946 -0.1876 -0.5774
vn 0.3035 -0.1876 -0.9342
vn 0.7946 0.1876 0.5774
vn -0.3035 0.1876 0.9342
vn -0.9822 0.1876 -0.0000
vn -0.3035 0.1876 -0.9342
vn 0.7946 0.1876 -0.5774
vn 0.4911 0.7947 0.3568
vn -0.1876 0.7947 0.5774
vn -0.6071 0.7947 -0.0000
vn -0.1876 0.7947 -0.5774
vn 0.4911 0.7947 -0.3568
vt 0.933050 0.061504
vt 0.955350 0.109394
vt 0.953532 0.162277
vt 0.923970 0.205775
vt 0.877044 0.230137
vt 0.825217 0.227256
vt 0.782706 0.197874
vt 0.762006 0.149384
vt 0.762583 0.095858
vt 0.791026 0.051792
vt 0.837028 0.028257
vt 0.888707 0.032921
vt 0.685777 0.065424
vt 0.729658 0.143510
vt 0.716881 0.146793
vt 0.676116 0.075044
vt 0.607573 0.020810
vt 0.604194 0.033775
vt 0.518109 0.020459
vt 0.521660 0.033302
vt 0.441417 0.065311
vt 0.450660 0.074636
vt 0.395314 0.142107
vt 0.408431 0.145738
vt 0.395314 0.231810
vt 0.408087 0.228515
vt 0.438676 0.310137
vt 0.448388 0.300597
vt 0.516413 0.355108
vt 0.519750 0.342198
vt 0.605056 0.354469
vt 0.601611 0.341863
vt 0.681939 0.309886
vt 0.672662 0.300300
vt 0.728873 0.233124
vt 0.715769 0.229359
vt 0.022642 0.017241
vt 0.191194 0.017241
vt 0.191194 0.352515
vt 0.022643 0.352515
vt 0.022643 0.017241
vt 0.191194 0.017241
vt 0.191194 0.017241
vt 0.191194 0.352515
vt 0.191194 0.352515
vt 0.371061 0.958737
vt 0.372879 0.958737
vt 0.371970 0.960312
vt 0.369242 0.958737
vt 0.370152 0.960312
vt 0.376515 0.958737
vt 0.378333 0.958737
vt 0.377424 0.960312
vt 0.374697 0.958737
vt 0.375606 0.960312
vt 0.373788 0.960312
vt 0.368333 0.960312
vt 0.371061 0.961886
vt 0.369242 0.961886
vt 0.376515 0.961886
vt 0.374697 0.961886
vt 0.372879 0.961886
s 0
usemtl palette1
f 37/46/27 41/47/27 46/48/27
f 38/49/28 37/46/28 42/50/28
f 39/51/29 38/52/29 43/53/29
f 40/54/30 39/51/30 44/55/30
f 41/47/31 40/54/31 45/56/31
f 37/46/32 46/48/32 42/50/32
f 38/49/33 42/50/33 43/57/33
f 39/51/34 43/53/34 44/55/34
f 40/54/35 44/55/35 45/56/35
f 41/47/36 45/56/36 46/48/36
f 42/50/37 46/48/37 47/58/37
f 43/57/38 42/50/38 47/59/38
f 44/55/39 43/53/39 47/60/39
f 45/56/40 44/55/40 47/61/40
f 46/48/41 45/56/41 47/62/41
usemtl main_textures
f 11/1/1 12/2/1 10/3/1 9/4/1 8/5/1 7/6/1 6/7/1 5/8/1 4/9/1 3/10/1 2/11/1 1/12/1
f 14/13/2 36/14/2 35/15/2 13/16/2
f 16/17/3 14/13/3 13/16/3 15/18/3
f 18/19/4 16/17/4 15/18/4 17/20/4
f 20/21/5 18/19/5 17/20/5 19/22/5
f 22/23/6 20/21/6 19/22/6 21/24/6
f 24/25/7 22/23/7 21/24/7 23/26/7
f 26/27/8 24/25/8 23/26/8 25/28/8
f 28/29/9 26/27/9 25/28/9 27/30/9
f 30/31/10 28/29/10 27/30/10 29/32/10
f 32/33/11 30/31/11 29/32/11 31/34/11
f 34/35/12 32/33/12 31/34/12 33/36/12
f 36/14/13 34/35/13 33/36/13 35/15/13
f 12/37/14 11/38/14 36/39/14 14/40/14
f 13/16/15 35/15/15 33/36/15 31/34/15 29/32/15 27/30/15 25/28/15 23/26/15 21/24/15 19/22/15 17/20/15 15/18/15
f 10/41/16 12/42/16 14/39/16 16/40/16
f 9/41/17 10/43/17 16/44/17 18/40/17
f 8/41/18 9/38/18 18/39/18 20/40/18
f 7/37/19 8/38/19 20/45/19 22/40/19
f 6/41/20 7/43/20 22/44/20 24/40/20
f 5/41/21 6/42/21 24/45/21 26/40/21
f 4/41/22 5/43/22 26/44/22 28/40/22
f 3/41/23 4/43/23 28/44/23 30/40/23
f 2/41/24 3/42/24 30/45/24 32/40/24
f 1/41/25 2/43/25 32/44/25 34/40/25
f 11/41/26 1/43/26 34/44/26 36/40/26
