# Blender 4.5.2 LTS
# www.blender.org
mtllib chair_4.mtl
o chair_4
v -0.229641 0.534143 -1.229826
v -0.229641 0.560687 -0.770913
v -0.229641 0.891697 -1.278011
v -0.198841 0.891697 -1.278011
v -0.201293 0.509603 -1.193271
v -0.200775 0.507532 -1.229087
v -0.229641 0.534075 -0.770174
v -0.229641 0.507532 -1.229087
v -0.229641 0.000000 -1.251936
v -0.201293 0.000000 -1.251375
v -0.229641 0.893949 -1.239073
v -0.198160 0.893878 -1.240312
v 0.000000 0.534075 -0.770174
v 0.000000 0.507532 -1.229087
v 0.000000 0.560687 -0.770913
v 0.000000 0.534143 -1.229826
v -0.229641 0.509571 -1.193831
v -0.198160 0.536324 -1.192128
v -0.229641 0.536396 -1.190889
v -0.198841 0.534143 -1.229826
v -0.229641 0.000000 -1.287192
v -0.200775 0.000000 -1.287192
v -0.202145 0.883751 -1.271446
v -0.201732 0.885076 -1.248546
v -0.201732 0.667877 -1.219275
v -0.202145 0.666552 -1.242176
v 0.000000 0.883115 -1.275174
v 0.000000 0.884439 -1.252274
v 0.000000 0.667240 -1.223004
v 0.000000 0.665916 -1.245904
v -0.229641 0.524782 -0.930836
v -0.229641 0.526834 -0.895361
v -0.201567 0.526834 -0.895361
v -0.201567 0.524782 -0.930836
v -0.229641 0.000000 -0.823431
v -0.229641 0.000000 -0.787956
v -0.201567 0.000000 -0.787956
v -0.201567 0.000000 -0.823431
v -0.201153 0.425250 -1.211435
v -0.200914 0.424992 -1.227978
v -0.201153 0.318915 -1.223854
v -0.200914 0.318915 -1.240396
v 0.000000 0.424528 -1.226809
v 0.000000 0.424786 -1.211724
v 0.000000 0.318450 -1.238132
v 0.000000 0.318450 -1.223048
v 0.000000 0.568102 -0.786750
v 0.000000 0.544061 -1.182952
v 0.000000 0.530903 -1.187773
v 0.000000 0.555521 -0.781573
v -0.216372 0.544523 -1.174959
v -0.210163 0.544132 -1.181724
v -0.213732 0.530976 -1.186512
v -0.219942 0.531367 -1.179751
v -0.212647 0.568102 -0.786750
v -0.216372 0.567883 -0.790529
v -0.219942 0.555303 -0.785352
v -0.216216 0.555521 -0.781573
v -0.189268 0.685313 -1.227965
v -0.189268 0.867405 -1.251616
v 0.000000 0.866851 -1.257477
v 0.000000 0.684758 -1.233826
v -0.183269 0.865959 -1.236053
v -0.169625 0.854358 -1.225876
v -0.169625 0.705547 -1.206665
v -0.183269 0.692239 -1.213531
v 0.000000 0.857904 -1.233315
v 0.000000 0.865436 -1.241692
v 0.000000 0.691727 -1.219170
v 0.000000 0.701045 -1.213064
v -0.173865 0.858394 -1.227833
v -0.173865 0.701535 -1.207582
v -0.004240 0.853892 -1.231091
v -0.004240 0.705081 -1.211879
v 0.229641 0.534143 -1.229826
v 0.229641 0.560687 -0.770913
v 0.229641 0.891697 -1.278011
v 0.198841 0.891697 -1.278011
v 0.201293 0.509603 -1.193271
v 0.200775 0.507532 -1.229087
v 0.229641 0.534075 -0.770174
v 0.229641 0.507532 -1.229087
v 0.229641 0.000000 -1.251936
v 0.201293 0.000000 -1.251375
v 0.229641 0.893949 -1.239073
v 0.198160 0.893878 -1.240312
v 0.229641 0.509571 -1.193831
v 0.198160 0.536324 -1.192128
v 0.229641 0.536396 -1.190889
v 0.198841 0.534143 -1.229826
v 0.229641 0.000000 -1.287192
v 0.200775 0.000000 -1.287192
v 0.202145 0.883751 -1.271446
v 0.201732 0.885076 -1.248546
v 0.201732 0.667877 -1.219275
v 0.202145 0.666552 -1.242176
v 0.229641 0.524782 -0.930836
v 0.229641 0.526834 -0.895361
v 0.201567 0.526834 -0.895361
v 0.201567 0.524782 -0.930836
v 0.229641 0.000000 -0.823431
v 0.229641 0.000000 -0.787956
v 0.201567 0.000000 -0.787956
v 0.201567 0.000000 -0.823431
v 0.201153 0.425250 -1.211435
v 0.200914 0.424992 -1.227978
v 0.201153 0.318915 -1.223854
v 0.200914 0.318915 -1.240396
v 0.216372 0.544523 -1.174959
v 0.210163 0.544132 -1.181724
v 0.213732 0.530976 -1.186512
v 0.219942 0.531367 -1.179751
v 0.212647 0.568102 -0.786750
v 0.216372 0.567883 -0.790529
v 0.219942 0.555303 -0.785352
v 0.216216 0.555521 -0.781573
v 0.189268 0.685313 -1.227965
v 0.189268 0.867405 -1.251616
v 0.183269 0.865959 -1.236053
v 0.169625 0.854358 -1.225876
v 0.169625 0.705547 -1.206665
v 0.183269 0.692239 -1.213531
v 0.173865 0.858394 -1.227833
v 0.173865 0.701535 -1.207582
v 0.004240 0.853892 -1.231091
v 0.004240 0.705081 -1.211879
vn -0.0000 -0.0278 -0.9996
vn 0.0393 0.1335 0.9903
vn -0.0000 -0.1336 -0.9910
vn 0.9998 -0.0024 -0.0179
vn -0.0000 0.9983 -0.0577
vn -1.0000 -0.0000 -0.0000
vn -0.0000 -0.9983 0.0577
vn -0.0000 -1.0000 -0.0000
vn -0.0000 0.0278 0.9996
vn -0.0000 0.1137 -0.9935
vn -0.0196 -0.1133 0.9934
vn 0.9999 -0.0017 0.0145
vn -0.0187 -0.1335 -0.9909
vn 0.0021 0.9983 -0.0578
vn -0.0021 -0.9983 0.0578
vn 0.0187 0.1335 0.9909
vn -0.0000 0.1998 0.9798
vn 1.0000 -0.0000 -0.0000
vn -0.0000 -0.2005 -0.9797
vn 0.0087 0.1112 -0.9938
vn 0.0023 0.9999 -0.0163
vn -0.0015 -0.1109 0.9938
vn -0.0023 -1.0000 -0.0000
vn -0.0054 0.3436 -0.9391
vn -0.6604 0.4085 -0.6300
vn -0.6524 0.4393 0.6176
vn -0.0000 0.9982 -0.0606
vn -0.0000 0.3805 0.9248
vn -0.9635 0.2670 -0.0162
vn -0.6046 0.1022 0.7900
vn 0.0228 0.7460 0.6656
vn 0.0244 -0.5521 0.8334
vn -0.9304 0.0472 0.3635
vn 0.0316 0.1280 0.9913
vn 0.0057 0.9959 0.0898
vn 0.0107 -0.9031 0.4292
vn -0.3183 0.1214 0.9402
vn 0.0293 0.4607 0.8871
vn 0.0298 -0.2526 0.9671
vn 0.3706 0.1189 0.9211
vn -0.0393 0.1335 0.9903
vn -0.9998 -0.0024 -0.0179
vn 0.0196 -0.1133 0.9934
vn -0.9999 -0.0017 0.0145
vn 0.0187 -0.1335 -0.9909
vn -0.0021 0.9983 -0.0578
vn 0.0021 -0.9983 0.0578
vn -0.0187 0.1335 0.9909
vn -0.0087 0.1112 -0.9938
vn -0.0023 0.9999 -0.0163
vn 0.0015 -0.1109 0.9938
vn 0.0023 -1.0000 -0.0000
vn 0.0054 0.3436 -0.9391
vn 0.6604 0.4085 -0.6300
vn 0.6524 0.4393 0.6176
vn 0.9635 0.2670 -0.0162
vn 0.6046 0.1022 0.7900
vn -0.0228 0.7460 0.6656
vn -0.0244 -0.5521 0.8334
vn 0.9304 0.0472 0.3635
vn -0.0316 0.1280 0.9913
vn -0.0057 0.9959 0.0898
vn -0.0107 -0.9031 0.4292
vn 0.3183 0.1214 0.9402
vn -0.0293 0.4607 0.8871
vn -0.0298 -0.2526 0.9671
vn -0.3706 0.1189 0.9211
vt 0.548333 0.960000
vt 0.548333 0.964372
vt 0.548333 0.965000
vt 0.548333 0.964329
vt 0.547485 0.965000
vt 0.547512 0.964315
vt 0.538333 0.965000
vt 0.538333 0.960000
vt 0.547565 0.965000
vt 0.540119 0.965000
vt 0.539519 0.965000
vt 0.547553 0.964383
vt 0.539519 0.964389
vt 0.540119 0.964389
vt 0.298333 0.960996
vt 0.297512 0.960981
vt 0.298333 0.961038
vt 0.297553 0.961050
vt 0.454187 0.876667
vt 0.454982 0.876772
vt 0.454157 0.881522
vt 0.454157 0.881516
vt 0.453997 0.881667
vt 0.453993 0.881667
vt 0.445089 0.881667
vt 0.445000 0.881582
vt 0.445000 0.881581
vt 0.445092 0.881667
vt 0.445000 0.876667
vt 0.457512 0.874315
vt 0.457512 0.874315
vt 0.457512 0.874315
vt 0.457512 0.874315
vt 0.457512 0.874315
vt 0.457512 0.874315
vt 0.457512 0.874315
vt 0.530845 0.957648
vt 0.530845 0.957648
vt 0.530845 0.957648
vt 0.457512 0.874315
vt 0.457512 0.874315
vt 0.457512 0.874315
vt 0.530845 0.957648
s 0
usemtl palette1
f 16/1/1 14/1/1 6/2/1 8/3/1 1/3/1 20/4/1
f 19/5/2 18/6/2 12/6/2 11/5/2
f 20/4/3 1/3/3 3/3/3 4/4/3
f 18/6/4 20/4/4 4/4/4 12/6/4
f 20/4/5 18/6/5 19/5/5 2/7/5 15/8/5 16/1/5
f 1/3/6 8/3/6 17/9/6 31/10/6 32/11/6 7/7/6 2/7/6 19/5/6
f 17/9/7 5/12/7 6/2/7 14/1/7 13/8/7 7/7/7 32/11/7 33/13/7 34/14/7 31/10/7
f 21/3/8 22/2/8 10/12/8 9/9/8
f 2/7/9 7/7/9 13/8/9 15/8/9
f 1/3/6 19/5/6 11/5/6 3/3/6
f 17/9/6 8/3/6 21/3/6 9/9/6
f 8/3/10 6/2/10 22/2/10 21/3/10
f 3/3/5 11/5/5 12/6/5 4/4/5
f 5/12/11 17/9/11 9/9/11 10/12/11
f 6/2/12 5/12/12 10/12/12 22/2/12
f 26/15/13 23/15/13 27/15/13 30/15/13
f 23/15/14 24/16/14 28/16/14 27/15/14
f 25/16/15 26/15/15 30/15/15 29/16/15
f 24/16/16 25/16/16 29/16/16 28/16/16
f 35/10/8 38/14/8 37/13/8 36/11/8
f 33/13/17 32/11/17 36/11/17 37/13/17
f 34/14/18 33/13/18 37/13/18 38/14/18
f 32/11/6 31/10/6 35/10/6 36/11/6
f 31/10/19 34/14/19 38/14/19 35/10/19
f 42/17/20 40/17/20 43/17/20 45/17/20
f 40/17/21 39/18/21 44/18/21 43/17/21
f 39/18/22 41/18/22 46/18/22 44/18/22
f 41/18/23 42/17/23 45/17/23 46/18/23
f 48/19/24 49/20/24 53/21/24 52/22/24
f 53/21/25 54/23/25 51/24/25 52/22/25
f 57/25/26 58/26/26 55/27/26 56/28/26
f 52/22/27 51/24/27 56/28/27 55/27/27 47/29/27 48/19/27
f 55/27/28 58/26/28 50/29/28 47/29/28
f 51/24/29 54/23/29 57/25/29 56/28/29
f 66/30/30 72/31/30 71/32/30 63/33/30
f 63/33/31 71/32/31 67/34/31 68/35/31
f 69/35/32 70/36/32 72/31/32 66/30/32
f 63/37/33 60/38/33 59/38/33 66/39/33
f 64/36/34 65/40/34 74/41/34 73/42/34
f 68/43/35 61/38/35 60/38/35 63/37/35
f 66/39/36 59/38/36 62/38/36 69/43/36
f 64/36/37 71/32/37 72/31/37 65/40/37
f 73/42/38 67/34/38 71/32/38 64/36/38
f 65/40/39 72/31/39 70/36/39 74/41/39
f 74/41/40 70/36/40 67/34/40 73/42/40
f 16/1/1 90/4/1 75/3/1 82/3/1 80/2/1 14/1/1
f 89/5/41 85/5/41 86/6/41 88/6/41
f 90/4/3 78/4/3 77/3/3 75/3/3
f 88/6/42 86/6/42 78/4/42 90/4/42
f 90/4/5 16/1/5 15/8/5 76/7/5 89/5/5 88/6/5
f 75/3/18 89/5/18 76/7/18 81/7/18 98/11/18 97/10/18 87/9/18 82/3/18
f 87/9/7 97/10/7 100/14/7 99/13/7 98/11/7 81/7/7 13/8/7 14/1/7 80/2/7 79/12/7
f 91/3/8 83/9/8 84/12/8 92/2/8
f 76/7/9 15/8/9 13/8/9 81/7/9
f 75/3/18 77/3/18 85/5/18 89/5/18
f 87/9/18 83/9/18 91/3/18 82/3/18
f 82/3/10 91/3/10 92/2/10 80/2/10
f 77/3/5 78/4/5 86/6/5 85/5/5
f 79/12/43 84/12/43 83/9/43 87/9/43
f 80/2/44 92/2/44 84/12/44 79/12/44
f 96/15/45 30/15/45 27/15/45 93/15/45
f 93/15/46 27/15/46 28/16/46 94/16/46
f 95/16/47 29/16/47 30/15/47 96/15/47
f 94/16/48 28/16/48 29/16/48 95/16/48
f 101/10/8 102/11/8 103/13/8 104/14/8
f 99/13/17 103/13/17 102/11/17 98/11/17
f 100/14/6 104/14/6 103/13/6 99/13/6
f 98/11/18 102/11/18 101/10/18 97/10/18
f 97/10/19 101/10/19 104/14/19 100/14/19
f 108/17/49 45/17/49 43/17/49 106/17/49
f 106/17/50 43/17/50 44/18/50 105/18/50
f 105/18/51 44/18/51 46/18/51 107/18/51
f 107/18/52 46/18/52 45/17/52 108/17/52
f 48/19/53 110/22/53 111/21/53 49/20/53
f 111/21/54 110/22/54 109/24/54 112/23/54
f 115/25/55 114/28/55 113/27/55 116/26/55
f 110/22/27 48/19/27 47/29/27 113/27/27 114/28/27 109/24/27
f 113/27/28 47/29/28 50/29/28 116/26/28
f 109/24/56 114/28/56 115/25/56 112/23/56
f 122/30/57 119/33/57 123/32/57 124/31/57
f 119/33/58 68/35/58 67/34/58 123/32/58
f 69/35/59 122/30/59 124/31/59 70/36/59
f 119/37/60 122/39/60 117/38/60 118/38/60
f 120/36/61 125/42/61 126/41/61 121/40/61
f 68/43/62 119/37/62 118/38/62 61/38/62
f 122/39/63 69/43/63 62/38/63 117/38/63
f 120/36/64 121/40/64 124/31/64 123/32/64
f 125/42/65 120/36/65 123/32/65 67/34/65
f 121/40/66 126/41/66 70/36/66 124/31/66
f 126/41/67 125/42/67 67/34/67 70/36/67
