# Blender 4.5.2 LTS
# www.blender.org
mtllib chair_2.mtl
o chair_2
v -2.217566 0.495557 -1.263311
v -2.247154 0.495557 -1.263311
v -2.247154 0.534461 -0.745108
v -2.217566 0.534461 -0.745108
v -2.217566 0.516677 -0.746867
v -2.247154 0.516677 -0.746867
v -2.247154 0.512600 -1.264745
v -2.217566 0.512600 -1.264745
v -2.244122 0.000000 -0.753876
v -2.244122 0.000000 -0.792199
v -2.223366 0.000000 -0.753876
v -2.223366 0.000000 -0.792199
v -2.223366 0.688685 -0.753876
v -2.223366 0.688685 -0.792199
v -2.244122 0.688685 -0.792199
v -2.244122 0.688685 -0.753876
v -2.223366 0.000000 -1.259397
v -2.223366 0.000000 -1.221075
v -2.244122 0.000000 -1.259397
v -2.244122 0.000000 -1.221075
v -2.242949 0.916840 -1.310664
v -2.242950 0.917510 -1.277190
v -2.224021 0.916840 -1.310664
v -2.224021 0.917510 -1.277190
v -2.244122 0.502088 -1.221075
v -2.244122 0.499065 -1.259397
v -2.223366 0.499065 -1.259397
v -2.223366 0.502088 -1.221075
v -2.217217 0.724855 -1.281525
v -2.217217 0.912292 -1.283854
v -2.217217 0.725643 -1.261485
v -2.217217 0.911505 -1.303894
v -2.000000 0.912292 -1.287228
v -2.000000 0.725643 -1.266378
v -2.000000 0.724855 -1.283992
v -2.000000 0.911505 -1.304842
v -2.244601 0.725643 -1.249216
v -2.222370 0.725643 -1.249216
v -2.222370 0.724855 -1.288531
v -2.244601 0.724855 -1.288531
v -2.222370 0.912292 -1.273830
v -2.222370 0.911505 -1.313146
v -2.244601 0.912292 -1.273830
v -2.244601 0.911505 -1.313146
v -2.209487 0.500756 -1.184786
v -2.209487 0.529161 -0.809384
v -2.209487 0.516177 -0.815262
v -2.209487 0.513200 -1.191850
v -2.000000 0.496786 -1.184786
v -2.000000 0.512207 -0.815262
v -2.000000 0.509231 -1.191850
v -2.000000 0.525192 -0.809384
v -2.213680 0.495215 -1.184786
v -2.213680 0.510636 -0.815262
v -2.213680 0.518271 -1.191850
v -2.213680 0.534232 -0.809384
v -2.250453 0.495215 -1.184786
v -2.250453 0.510636 -0.815262
v -2.250453 0.518271 -1.191850
v -2.250453 0.534232 -0.809384
v -2.217566 0.674738 -1.289878
v -2.247154 0.674738 -1.289878
v -2.254074 0.699910 -0.713578
v -2.210646 0.699910 -0.713578
v -2.210646 0.685362 -0.721629
v -2.254074 0.685362 -0.721629
v -2.247154 0.683808 -1.294661
v -2.217566 0.683808 -1.294661
v -2.214761 0.684354 -0.932649
v -2.214808 0.697570 -0.934688
v -2.249912 0.697570 -0.934688
v -2.249959 0.684354 -0.932649
v -2.232830 0.242420 -0.781948
v -2.240268 0.242420 -0.781948
v -2.240268 0.423041 -1.249464
v -2.232830 0.423041 -1.249464
v -2.240268 0.453392 -1.226101
v -2.240268 0.272771 -0.758585
v -2.232830 0.272771 -0.758585
v -2.232830 0.453392 -1.226101
v -2.229307 0.242420 -1.226101
v -2.236745 0.242420 -1.226101
v -2.236745 0.423041 -0.758585
v -2.229307 0.423041 -0.758585
v -2.236745 0.453392 -0.781948
v -2.236745 0.272771 -1.249464
v -2.229307 0.272771 -1.249464
v -2.229307 0.453392 -0.781948
v -1.782434 0.495557 -1.263311
v -1.752846 0.495557 -1.263311
v -1.752846 0.534461 -0.745108
v -1.782434 0.534461 -0.745108
v -1.782434 0.516677 -0.746867
v -1.752846 0.516677 -0.746867
v -1.752846 0.512600 -1.264745
v -1.782434 0.512600 -1.264745
v -1.755878 0.000000 -0.753876
v -1.755878 0.000000 -0.792199
v -1.776634 0.000000 -0.753876
v -1.776634 0.000000 -0.792199
v -1.776634 0.688685 -0.753876
v -1.776634 0.688685 -0.792199
v -1.755878 0.688685 -0.792199
v -1.755878 0.688685 -0.753876
v -1.776634 0.000000 -1.259397
v -1.776634 0.000000 -1.221075
v -1.755878 0.000000 -1.259397
v -1.755878 0.000000 -1.221075
v -1.757050 0.916840 -1.310664
v -1.757050 0.917510 -1.277190
v -1.775979 0.916840 -1.310664
v -1.775979 0.917510 -1.277190
v -1.755878 0.502088 -1.221075
v -1.755878 0.499065 -1.259397
v -1.776634 0.499065 -1.259397
v -1.776634 0.502088 -1.221075
v -1.782783 0.724855 -1.281525
v -1.782783 0.912292 -1.283854
v -1.782783 0.725643 -1.261485
v -1.782783 0.911505 -1.303894
v -1.755399 0.725643 -1.249216
v -1.777630 0.725643 -1.249216
v -1.777630 0.724855 -1.288531
v -1.755399 0.724855 -1.288531
v -1.777630 0.912292 -1.273830
v -1.777630 0.911505 -1.313146
v -1.755399 0.912292 -1.273830
v -1.755399 0.911505 -1.313146
v -1.790513 0.500756 -1.184786
v -1.790513 0.529161 -0.809384
v -1.790513 0.516177 -0.815262
v -1.790513 0.513200 -1.191850
v -1.786320 0.495215 -1.184786
v -1.786320 0.510636 -0.815262
v -1.786320 0.518271 -1.191850
v -1.786320 0.534232 -0.809384
v -1.749547 0.495215 -1.184786
v -1.749547 0.510636 -0.815262
v -1.749547 0.518271 -1.191850
v -1.749547 0.534232 -0.809384
v -1.782434 0.674738 -1.289878
v -1.752846 0.674738 -1.289878
v -1.745926 0.699910 -0.713578
v -1.789354 0.699910 -0.713578
v -1.789354 0.685362 -0.721629
v -1.745926 0.685362 -0.721629
v -1.752846 0.683808 -1.294661
v -1.782434 0.683808 -1.294661
v -1.785239 0.684354 -0.932649
v -1.785192 0.697570 -0.934688
v -1.750088 0.697570 -0.934688
v -1.750041 0.684354 -0.932649
v -1.767170 0.242420 -0.781948
v -1.759732 0.242420 -0.781948
v -1.759732 0.423041 -1.249464
v -1.767170 0.423041 -1.249464
v -1.759732 0.453392 -1.226101
v -1.759732 0.272771 -0.758585
v -1.767170 0.272771 -0.758585
v -1.767170 0.453392 -1.226101
v -1.770693 0.242420 -1.226101
v -1.763255 0.242420 -1.226101
v -1.763255 0.423041 -0.758585
v -1.770693 0.423041 -0.758585
v -1.763255 0.453392 -0.781948
v -1.763255 0.272771 -1.249464
v -1.770693 0.272771 -1.249464
v -1.770693 0.453392 -0.781948
vn -0.0000 -0.0985 0.9951
vn -0.0000 -0.0838 -0.9965
vn 1.0000 -0.0000 -0.0000
vn -1.0000 -0.0000 -0.0000
vn -0.0000 0.9991 -0.0420
vn -0.0000 -0.9992 0.0409
vn -0.0000 -0.0000 1.0000
vn -0.0000 -1.0000 -0.0000
vn -0.0000 -0.0000 -1.0000
vn 1.0000 0.0016 -0.0001
vn -0.0000 -0.1218 -0.9926
vn -0.0000 0.1339 0.9910
vn -0.0078 -0.1150 -0.9933
vn -0.0000 0.9998 -0.0200
vn -0.0004 0.9991 -0.0418
vn -0.0000 -0.1307 -0.9914
vn 0.0189 0.9990 -0.0417
vn -0.0000 -0.9998 0.0200
vn 0.9064 0.0527 0.4190
vn 0.0189 0.1150 0.9932
vn -0.0000 0.1307 0.9914
vn -0.0020 0.9996 -0.0265
vn 0.8427 -0.0672 -0.5342
vn 0.0136 -0.9996 0.0265
vn 0.0172 -0.3059 0.9519
vn -0.0000 -0.2417 0.9703
vn -0.0078 -0.4124 0.9110
vn -0.0189 -0.9990 0.0417
vn -0.0094 -0.4936 -0.8696
vn 0.7972 -0.6032 0.0252
vn 0.0207 -0.3697 -0.9289
vn 0.7704 0.6370 -0.0266
vn -0.0000 -0.9991 0.0417
vn -0.0000 -0.2929 -0.9561
vn -0.0000 0.9991 -0.0417
vn -1.0000 0.0028 -0.0001
vn -0.0000 -0.4842 0.8749
vn -0.0000 -0.4665 -0.8845
vn -0.0000 0.9993 -0.0382
vn -1.0000 -0.0003 -0.0077
vn 1.0000 -0.0003 -0.0077
vn 0.9998 0.0059 -0.0192
vn -0.0000 -1.0000 0.0048
vn -0.0000 0.9999 -0.0106
vn -0.9998 0.0059 -0.0192
vn 0.0007 -0.9991 0.0418
vn -0.0000 -0.9328 -0.3604
vn -0.0000 0.9328 0.3604
vn -0.0000 -0.9328 0.3604
vn -0.0000 0.9328 -0.3604
vn -0.0000 -0.9996 0.0269
vn -1.0000 0.0016 -0.0001
vn 0.0078 -0.1150 -0.9933
vn 0.0004 0.9991 -0.0418
vn -0.0189 0.9990 -0.0417
vn -0.9064 0.0527 0.4190
vn -0.0189 0.1150 0.9932
vn 0.0020 0.9996 -0.0265
vn -0.8427 -0.0672 -0.5342
vn -0.0136 -0.9996 0.0265
vn -0.0172 -0.3059 0.9519
vn 0.0078 -0.4124 0.9110
vn 0.0189 -0.9990 0.0417
vn 0.0094 -0.4936 -0.8696
vn -0.7972 -0.6032 0.0252
vn -0.0207 -0.3697 -0.9289
vn -0.7704 0.6370 -0.0266
vn 1.0000 0.0028 -0.0001
vn -0.0007 -0.9991 0.0418
vt 0.532020 0.961313
vt 0.541313 0.961313
vt 0.532020 0.961313
vt 0.541313 0.961313
vt 0.288164 0.968333
vt 0.288164 0.960870
vt 0.288164 0.960870
vt 0.288164 0.968333
vt 0.288164 0.958333
vt 0.458164 0.868333
vt 0.458164 0.868333
vt 0.458164 0.878333
vt 0.461313 0.871313
vt 0.458164 0.878333
vt 0.461313 0.871313
vt 0.532020 0.961313
vt 0.541313 0.961313
vt 0.532020 0.961313
vt 0.544830 0.961667
s 0
usemtl palette1
f 6/1/1 5/2/1 4/2/1 3/3/1
f 2/3/2 7/3/2 8/2/2 1/4/2
f 4/2/3 5/2/3 1/4/3 8/2/3
f 7/3/4 2/3/4 6/1/4 3/3/4
f 8/2/5 7/3/5 3/3/5 4/2/5
f 1/4/6 5/2/6 6/1/6 2/3/6
f 11/5/7 13/5/7 16/5/7 9/5/7
f 10/6/8 12/7/8 11/5/8 9/5/8
f 27/7/3 28/5/3 18/5/3 17/7/3
f 9/5/4 16/5/4 15/6/4 10/6/4
f 12/7/3 14/7/3 13/5/3 11/5/3
f 26/6/9 27/7/9 17/7/9 19/6/9
f 25/5/4 26/6/4 19/6/4 20/5/4
f 19/6/8 17/7/8 18/5/8 20/5/8
f 24/8/10 28/5/10 27/7/10 23/9/10
f 23/9/11 27/7/11 26/6/11 21/9/11
f 25/5/12 28/5/12 24/8/12 22/8/12
f 29/10/13 32/11/13 36/10/13 35/10/13
f 22/8/14 24/8/14 23/9/14 21/9/14
f 36/10/15 32/11/15 30/12/15 33/12/15
f 42/10/16 39/10/16 40/10/16 44/10/16
f 48/13/17 46/13/17 52/13/17 51/13/17
f 28/5/7 25/5/7 20/5/7 18/5/7
f 37/12/18 40/10/18 39/10/18 38/12/18
f 38/12/19 31/14/19 30/12/19 41/12/19
f 33/12/20 30/12/20 31/14/20 34/12/20
f 43/12/14 41/12/14 42/10/14 44/10/14
f 44/10/4 40/10/4 37/12/4 43/12/4
f 43/12/21 37/12/21 38/12/21 41/12/21
f 41/12/22 30/12/22 32/11/22 42/10/22
f 42/10/23 32/11/23 29/10/23 39/10/23
f 39/10/24 29/10/24 31/14/24 38/12/24
f 47/13/25 46/13/25 56/13/25 54/13/25
f 54/13/26 56/13/26 60/13/26 58/13/26
f 46/13/27 47/13/27 50/13/27 52/13/27
f 47/13/28 45/15/28 49/15/28 50/13/28
f 45/15/29 48/13/29 51/13/29 49/15/29
f 45/15/30 47/13/30 54/13/30 53/15/30
f 48/13/31 45/15/31 53/15/31 55/13/31
f 46/13/32 48/13/32 55/13/32 56/13/32
f 60/13/4 59/13/4 57/15/4 58/13/4
f 53/15/33 54/13/33 58/13/33 57/15/33
f 55/13/34 53/15/34 57/15/34 59/13/34
f 56/13/35 55/13/35 59/13/35 60/13/35
f 10/6/9 15/6/9 14/7/9 12/7/9
f 26/6/36 25/5/36 22/8/36 21/9/36
f 66/1/37 65/2/37 64/2/37 63/3/37
f 62/3/38 67/3/38 68/2/38 61/4/38
f 68/2/39 67/3/39 71/16/39 70/17/39
f 67/3/40 62/3/40 72/18/40 71/16/40
f 69/4/41 61/4/41 68/2/41 70/17/41
f 64/2/42 65/2/42 69/4/42 70/17/42
f 69/4/43 65/2/43 66/1/43 72/18/43
f 70/17/44 71/16/44 63/3/44 64/2/44
f 71/16/45 72/18/45 66/1/45 63/3/45
f 29/10/46 35/10/46 34/12/46 31/14/46
f 76/19/47 73/19/47 74/19/47 75/19/47
f 80/19/48 77/19/48 78/19/48 79/19/48
f 75/19/4 74/19/4 78/19/4 77/19/4
f 73/19/3 76/19/3 80/19/3 79/19/3
f 84/19/49 83/19/49 82/19/49 81/19/49
f 88/19/50 87/19/50 86/19/50 85/19/50
f 83/19/4 85/19/4 86/19/4 82/19/4
f 81/19/3 87/19/3 88/19/3 84/19/3
f 61/4/51 69/4/51 72/18/51 62/3/51
f 94/1/1 91/3/1 92/2/1 93/2/1
f 90/3/2 89/4/2 96/2/2 95/3/2
f 92/2/4 96/2/4 89/4/4 93/2/4
f 95/3/3 91/3/3 94/1/3 90/3/3
f 96/2/5 92/2/5 91/3/5 95/3/5
f 89/4/6 90/3/6 94/1/6 93/2/6
f 99/5/7 97/5/7 104/5/7 101/5/7
f 98/6/8 97/5/8 99/5/8 100/7/8
f 115/7/4 105/7/4 106/5/4 116/5/4
f 97/5/3 98/6/3 103/6/3 104/5/3
f 100/7/4 99/5/4 101/5/4 102/7/4
f 114/6/9 107/6/9 105/7/9 115/7/9
f 113/5/3 108/5/3 107/6/3 114/6/3
f 107/6/8 108/5/8 106/5/8 105/7/8
f 112/8/52 111/9/52 115/7/52 116/5/52
f 111/9/11 109/9/11 114/6/11 115/7/11
f 113/5/12 110/8/12 112/8/12 116/5/12
f 117/10/53 35/10/53 36/10/53 120/11/53
f 110/8/14 109/9/14 111/9/14 112/8/14
f 36/10/54 33/12/54 118/12/54 120/11/54
f 126/10/16 128/10/16 124/10/16 123/10/16
f 132/13/55 51/13/55 52/13/55 130/13/55
f 116/5/7 106/5/7 108/5/7 113/5/7
f 121/12/18 122/12/18 123/10/18 124/10/18
f 122/12/56 125/12/56 118/12/56 119/14/56
f 33/12/57 34/12/57 119/14/57 118/12/57
f 127/12/14 128/10/14 126/10/14 125/12/14
f 128/10/3 127/12/3 121/12/3 124/10/3
f 127/12/21 125/12/21 122/12/21 121/12/21
f 125/12/58 126/10/58 120/11/58 118/12/58
f 126/10/59 123/10/59 117/10/59 120/11/59
f 123/10/60 122/12/60 119/14/60 117/10/60
f 131/13/61 134/13/61 136/13/61 130/13/61
f 134/13/26 138/13/26 140/13/26 136/13/26
f 130/13/62 52/13/62 50/13/62 131/13/62
f 131/13/63 50/13/63 49/15/63 129/15/63
f 129/15/64 49/15/64 51/13/64 132/13/64
f 129/15/65 133/15/65 134/13/65 131/13/65
f 132/13/66 135/13/66 133/15/66 129/15/66
f 130/13/67 136/13/67 135/13/67 132/13/67
f 140/13/3 138/13/3 137/15/3 139/13/3
f 133/15/33 137/15/33 138/13/33 134/13/33
f 135/13/34 139/13/34 137/15/34 133/15/34
f 136/13/35 140/13/35 139/13/35 135/13/35
f 98/6/9 100/7/9 102/7/9 103/6/9
f 114/6/68 109/9/68 110/8/68 113/5/68
f 146/1/37 143/3/37 144/2/37 145/2/37
f 142/3/38 141/4/38 148/2/38 147/3/38
f 148/2/39 150/17/39 151/16/39 147/3/39
f 147/3/41 151/16/41 152/18/41 142/3/41
f 149/4/40 150/17/40 148/2/40 141/4/40
f 144/2/45 150/17/45 149/4/45 145/2/45
f 149/4/43 152/18/43 146/1/43 145/2/43
f 150/17/44 144/2/44 143/3/44 151/16/44
f 151/16/42 143/3/42 146/1/42 152/18/42
f 117/10/69 119/14/69 34/12/69 35/10/69
f 156/19/47 155/19/47 154/19/47 153/19/47
f 160/19/48 159/19/48 158/19/48 157/19/48
f 155/19/3 157/19/3 158/19/3 154/19/3
f 153/19/4 159/19/4 160/19/4 156/19/4
f 164/19/49 161/19/49 162/19/49 163/19/49
f 168/19/50 165/19/50 166/19/50 167/19/50
f 163/19/3 162/19/3 166/19/3 165/19/3
f 161/19/4 164/19/4 168/19/4 167/19/4
f 141/4/51 142/3/51 152/18/51 149/4/51
