# Blender 4.5.2 LTS
# www.blender.org
mtllib chair_1.mtl
o chair_1
v -3.142623 0.486845 -1.248016
v -3.233037 0.486845 -1.248016
v -3.142623 0.534461 -0.738816
v -3.142623 0.507587 -0.750983
v -3.233037 0.512600 -1.262636
v -3.142623 0.512600 -1.262636
v -3.052516 0.486845 -1.248015
v -3.135912 0.486845 -1.248015
v -3.135912 0.534461 -0.738816
v -3.052516 0.534461 -0.738816
v -3.052516 0.507587 -0.750982
v -3.135912 0.507587 -0.750982
v -3.135912 0.512600 -1.262636
v -3.052516 0.512600 -1.262636
v -3.046810 0.486845 -1.247903
v -3.046810 0.534461 -0.738703
v -3.046810 0.507587 -0.750870
v -3.046810 0.512600 -1.262523
v -3.216782 -0.000753 -0.755345
v -3.216782 -0.000753 -0.809193
v -3.197376 -0.000753 -0.809193
v -3.197376 -0.000753 -0.755345
v -3.194402 0.507152 -0.870789
v -3.194402 0.508978 -0.815776
v -3.194402 -0.000753 -1.264581
v -3.194402 -0.000753 -1.210733
v -3.174655 0.508978 -0.815776
v -3.174655 0.507152 -0.870789
v -3.174655 -0.000753 -1.210733
v -3.174655 -0.000753 -1.264581
v -3.216782 0.893832 -1.388638
v -3.216782 0.893832 -1.344850
v -3.197376 0.893832 -1.388638
v -3.197376 0.893832 -1.344850
v -3.216782 0.494847 -1.220500
v -3.216782 0.494846 -1.267121
v -3.197376 0.494846 -1.267121
v -3.197376 0.494847 -1.220500
v -3.197391 0.913176 -1.393581
v -3.211102 0.909644 -1.392678
v -3.197391 0.913176 -1.349793
v -3.211102 0.909644 -1.348890
v -3.201466 0.603911 -1.290601
v -3.201466 0.603911 -1.267594
v -3.201466 0.616247 -1.293031
v -3.201466 0.616247 -1.270024
v -3.191154 0.610084 -1.284433
v -3.191154 0.893832 -1.361440
v -3.191154 0.893832 -1.371081
v -3.125029 0.893832 -1.371081
v -3.125029 0.893832 -1.361440
v -3.125029 0.610084 -1.284433
v -3.125029 0.610084 -1.274404
v -3.191154 0.610084 -1.274404
v -3.116456 0.610084 -1.284433
v -3.116456 0.893832 -1.361440
v -3.116456 0.893832 -1.371081
v -3.050379 0.893832 -1.371081
v -3.050379 0.893832 -1.361440
v -3.050379 0.610084 -1.284433
v -3.050379 0.610084 -1.274404
v -3.116456 0.610084 -1.274404
v -3.040231 0.610084 -1.284433
v -3.040231 0.893832 -1.361440
v -3.040231 0.893832 -1.371081
v -3.040231 0.610084 -1.274404
v -3.233037 0.533998 -0.749891
v -3.223064 0.534461 -0.738816
v -3.223064 0.507587 -0.750983
v -3.233037 0.507125 -0.762058
v -2.857377 0.486845 -1.248016
v -2.766963 0.486845 -1.248016
v -2.857377 0.534461 -0.738816
v -2.857377 0.507587 -0.750983
v -2.766963 0.512600 -1.262636
v -2.857377 0.512600 -1.262636
v -2.947484 0.486845 -1.248015
v -2.864088 0.486845 -1.248015
v -2.864088 0.534461 -0.738816
v -2.947484 0.534461 -0.738816
v -2.947484 0.507587 -0.750982
v -2.864088 0.507587 -0.750982
v -2.864088 0.512600 -1.262636
v -2.947484 0.512600 -1.262636
v -2.953190 0.486845 -1.247903
v -2.953190 0.534461 -0.738703
v -2.953190 0.507587 -0.750870
v -2.953190 0.512600 -1.262523
v -2.783218 -0.000753 -0.755345
v -2.783218 -0.000753 -0.809193
v -2.802624 -0.000753 -0.809193
v -2.802624 -0.000753 -0.755345
v -2.805598 0.507152 -0.870789
v -2.805598 0.508978 -0.815776
v -2.805598 -0.000753 -1.264581
v -2.805598 -0.000753 -1.210733
v -2.825345 0.508978 -0.815776
v -2.825345 0.507152 -0.870789
v -2.825345 -0.000753 -1.210733
v -2.825345 -0.000753 -1.264581
v -2.783218 0.893832 -1.388638
v -2.783218 0.893832 -1.344850
v -2.802624 0.893832 -1.388638
v -2.802624 0.893832 -1.344850
v -2.783218 0.494847 -1.220500
v -2.783218 0.494846 -1.267121
v -2.802624 0.494846 -1.267121
v -2.802624 0.494847 -1.220500
v -2.802609 0.913176 -1.393581
v -2.788898 0.909644 -1.392678
v -2.802609 0.913176 -1.349793
v -2.788898 0.909644 -1.348890
v -2.798534 0.603911 -1.290601
v -2.798534 0.603911 -1.267594
v -2.798534 0.616247 -1.293031
v -2.798534 0.616247 -1.270024
v -2.808846 0.610084 -1.284433
v -2.808846 0.893832 -1.361440
v -2.808846 0.893832 -1.371081
v -2.874971 0.893832 -1.371081
v -2.874971 0.893832 -1.361440
v -2.874971 0.610084 -1.284433
v -2.874971 0.610084 -1.274404
v -2.808846 0.610084 -1.274404
v -2.883544 0.610084 -1.284433
v -2.883544 0.893832 -1.361440
v -2.883544 0.893832 -1.371081
v -2.949621 0.893832 -1.371081
v -2.949621 0.893832 -1.361440
v -2.949621 0.610084 -1.284433
v -2.949621 0.610084 -1.274404
v -2.883544 0.610084 -1.274404
v -2.959769 0.610084 -1.284433
v -2.959769 0.893832 -1.361440
v -2.959769 0.893832 -1.371081
v -2.959769 0.610084 -1.274404
v -2.766963 0.533998 -0.749891
v -2.776936 0.534461 -0.738816
v -2.776936 0.507587 -0.750983
v -2.766963 0.507125 -0.762058
vn -0.0000 -0.4937 -0.8697
vn 1.0000 -0.0000 -0.0000
vn -0.0000 -0.4124 0.9110
vn -1.0000 -0.0000 -0.0000
vn -0.0000 0.9991 -0.0417
vn -0.0000 -0.9991 0.0417
vn -0.0000 -0.1933 -0.9811
vn -0.0000 -1.0000 -0.0000
vn -0.0000 -0.6127 0.7903
vn -0.0000 0.6125 -0.7905
vn -0.0000 1.0000 -0.0000
vn -0.0000 0.6844 0.7291
vn -0.0000 -0.6786 -0.7345
vn -0.0000 0.2975 0.9547
vn -0.0000 -0.2913 -0.9566
vn -0.0000 -0.2921 -0.9564
vn -0.0000 -0.2476 -0.9689
vn -0.0000 0.2476 0.9689
vn -0.9411 0.3380 -0.0000
vn -0.2495 0.9684 -0.0000
vn -0.0000 0.1933 0.9811
vn -0.0000 0.2933 0.9560
vn -0.7045 -0.2927 0.6465
vn 0.9411 0.3380 -0.0000
vn 0.2495 0.9684 -0.0000
vn 0.7045 -0.2927 0.6465
vt 0.532020 0.961313
vt 0.541313 0.961313
vt 0.541313 0.961313
vt 0.541313 0.961313
vt 0.541313 0.961313
vt 0.288164 0.958333
vt 0.288164 0.968333
vt 0.297487 0.958333
vt 0.297487 0.968333
vt 0.288164 0.968333
vt 0.288164 0.960870
vt 0.538164 0.963045
vt 0.538164 0.962798
vt 0.538164 0.965000
vt 0.538164 0.965000
vt 0.288164 0.960870
vt 0.541497 0.959711
vt 0.541497 0.959465
vt 0.288164 0.968333
vt 0.288164 0.968539
vt 0.288164 0.969037
vt 0.288164 0.968333
vt 0.288164 0.958539
vt 0.538164 0.962798
vt 0.541497 0.961667
vt 0.541497 0.961667
vt 0.533369 0.961313
vt 0.533369 0.961313
vt 0.532020 0.961313
vt 0.532020 0.961313
s 0
usemtl palette1
f 2/1/1 5/1/1 6/2/1 1/3/1
f 3/2/2 4/2/2 1/3/2 6/2/2
f 12/1/3 11/4/3 10/2/3 9/1/3
f 8/1/1 13/1/1 14/2/1 7/5/1
f 10/2/2 11/4/2 7/5/2 14/2/2
f 13/1/4 8/1/4 12/1/4 9/1/4
f 14/2/5 13/1/5 9/1/5 10/2/5
f 7/5/6 11/4/6 12/1/6 8/1/6
f 18/1/4 15/1/4 17/1/4 16/1/4
f 45/6/7 115/6/7 113/6/7 43/6/7
f 87/1/3 86/1/3 16/1/3 17/1/3
f 23/7/2 24/6/2 26/8/2 25/9/2
f 20/8/8 21/8/8 22/9/8 19/9/8
f 28/7/4 30/9/4 29/8/4 27/6/4
f 25/9/9 30/9/9 28/7/9 23/7/9
f 24/6/10 27/6/10 29/8/10 26/8/10
f 26/8/11 29/8/11 30/9/11 25/9/11
f 38/10/2 22/9/2 21/8/2 37/11/2
f 52/12/2 50/13/2 51/14/2 53/15/2
f 33/6/2 34/7/2 38/10/2 37/11/2
f 19/9/12 22/9/12 38/10/12 35/10/12
f 37/11/13 21/8/13 20/8/13 36/16/13
f 34/7/14 32/7/14 35/10/14 38/10/14
f 33/6/15 37/11/15 36/16/15 31/6/15
f 63/17/16 65/18/16 135/18/16 133/17/16
f 31/6/17 40/6/17 33/6/17
f 40/6/17 39/6/17 33/6/17
f 41/19/18 42/20/18 34/7/18
f 42/20/18 32/21/18 34/7/18
f 31/6/19 32/7/19 42/22/19 40/23/19
f 40/23/20 42/22/20 41/19/20 39/6/20
f 41/19/11 111/19/11 109/6/11 39/6/11
f 39/6/17 109/6/17 103/6/17 33/6/17
f 46/7/11 116/7/11 115/6/11 45/6/11
f 114/7/21 116/7/21 46/7/21 44/7/21
f 33/6/8 103/6/8 104/7/8 34/7/8
f 56/14/4 57/24/4 55/12/4 62/15/4
f 52/12/16 47/12/16 49/24/16 50/13/16
f 51/14/22 48/14/22 54/15/22 53/15/22
f 64/25/4 65/18/4 63/17/4 66/26/4
f 60/12/2 58/13/2 59/14/2 61/15/2
f 60/12/16 55/12/16 57/24/16 58/13/16
f 59/14/22 56/14/22 62/15/22 61/15/22
f 43/6/8 113/6/8 114/7/8 44/7/8
f 48/14/4 49/24/4 47/12/4 54/15/4
f 85/1/1 15/1/1 18/1/1 88/1/1
f 16/1/5 86/1/5 88/1/5 18/1/5
f 15/1/6 85/1/6 87/1/6 17/1/6
f 34/7/18 104/7/18 111/19/18 41/19/18
f 36/16/4 20/8/4 19/9/4 35/10/4
f 69/27/23 68/28/23 67/29/23 70/30/23
f 5/1/4 2/1/4 70/30/4 67/29/4
f 6/2/5 5/1/5 67/29/5 68/28/5 3/2/5
f 69/27/3 4/2/3 3/2/3 68/28/3
f 1/3/6 4/2/6 69/27/6 70/30/6 2/1/6
f 32/7/4 31/6/4 36/16/4 35/10/4
f 72/1/1 71/3/1 76/2/1 75/1/1
f 73/2/4 76/2/4 71/3/4 74/2/4
f 82/1/3 79/1/3 80/2/3 81/4/3
f 78/1/1 77/5/1 84/2/1 83/1/1
f 80/2/4 84/2/4 77/5/4 81/4/4
f 83/1/2 79/1/2 82/1/2 78/1/2
f 84/2/5 80/2/5 79/1/5 83/1/5
f 77/5/6 78/1/6 82/1/6 81/4/6
f 88/1/2 86/1/2 87/1/2 85/1/2
f 93/7/4 95/9/4 96/8/4 94/6/4
f 90/8/8 89/9/8 92/9/8 91/8/8
f 98/7/2 97/6/2 99/8/2 100/9/2
f 95/9/9 93/7/9 98/7/9 100/9/9
f 94/6/10 96/8/10 99/8/10 97/6/10
f 96/8/11 95/9/11 100/9/11 99/8/11
f 108/10/4 107/11/4 91/8/4 92/9/4
f 122/12/4 123/15/4 121/14/4 120/13/4
f 103/6/4 107/11/4 108/10/4 104/7/4
f 89/9/12 105/10/12 108/10/12 92/9/12
f 107/11/13 106/16/13 90/8/13 91/8/13
f 104/7/14 108/10/14 105/10/14 102/7/14
f 103/6/15 101/6/15 106/16/15 107/11/15
f 101/6/17 103/6/17 110/6/17
f 110/6/17 103/6/17 109/6/17
f 111/19/18 104/7/18 112/20/18
f 112/20/18 104/7/18 102/21/18
f 101/6/24 110/23/24 112/22/24 102/7/24
f 110/23/25 109/6/25 111/19/25 112/22/25
f 126/14/2 132/15/2 125/12/2 127/24/2
f 122/12/16 120/13/16 119/24/16 117/12/16
f 121/14/22 123/15/22 124/15/22 118/14/22
f 134/25/2 136/26/2 133/17/2 135/18/2
f 130/12/4 131/15/4 129/14/4 128/13/4
f 130/12/16 128/13/16 127/24/16 125/12/16
f 129/14/22 131/15/22 132/15/22 126/14/22
f 118/14/2 124/15/2 117/12/2 119/24/2
f 106/16/2 105/10/2 89/9/2 90/8/2
f 139/27/26 140/30/26 137/29/26 138/28/26
f 75/1/2 137/29/2 140/30/2 72/1/2
f 76/2/5 73/2/5 138/28/5 137/29/5 75/1/5
f 139/27/3 138/28/3 73/2/3 74/2/3
f 71/3/6 72/1/6 140/30/6 139/27/6 74/2/6
f 102/7/2 105/10/2 106/16/2 101/6/2
f 64/25/22 66/26/22 136/26/22 134/25/22
