# Blender 4.5.2 LTS
# www.blender.org
mtllib coffee_machine_acc.mtl
o coffee_machine_acc
v -5.110862 1.202882 1.030334
v -5.125455 1.202882 1.034244
v -5.136138 1.202882 1.044927
v -5.140049 1.202882 1.059521
v -5.136138 1.202882 1.074114
v -5.125455 1.202882 1.084797
v -5.110862 1.202882 1.088708
v -5.096268 1.202882 1.084797
v -5.085585 1.202882 1.074114
v -5.081675 1.202882 1.059521
v -5.085585 1.202882 1.044927
v -5.096268 1.202882 1.034244
v -5.122192 1.172021 1.039895
v -5.110862 1.172021 1.036859
v -5.130487 1.172021 1.048190
v -5.133523 1.172021 1.059521
v -5.130487 1.172021 1.070852
v -5.122192 1.172021 1.079146
v -5.110862 1.172021 1.082183
v -5.099531 1.172021 1.079146
v -5.091236 1.172021 1.070852
v -5.088200 1.172021 1.059521
v -5.091236 1.172021 1.048190
v -5.099531 1.172021 1.039895
v -5.116080 1.159419 1.050482
v -5.110862 1.159419 1.049084
v -5.119900 1.159419 1.054302
v -5.121298 1.159419 1.059521
v -5.119900 1.159419 1.064739
v -5.116080 1.159419 1.068559
v -5.110862 1.159419 1.069958
v -5.105643 1.159419 1.068559
v -5.101823 1.159419 1.064739
v -5.100425 1.159419 1.059521
v -5.101823 1.159419 1.054302
v -5.105643 1.159419 1.050482
v -5.118241 1.191181 1.159043
v -5.103482 1.191181 1.159043
v -5.118241 1.180549 1.159043
v -5.103482 1.180549 1.159043
v -5.118241 1.191181 1.082195
v -5.103482 1.191181 1.082195
v -5.118241 1.180549 1.082195
v -5.103482 1.180549 1.082195
v -5.099623 1.176493 1.164761
v -5.099623 1.195593 1.164761
v -5.122101 1.195593 1.164761
v -5.122101 1.176493 1.164761
v -5.119182 1.177552 1.226844
v -5.102541 1.177552 1.226844
v -5.119017 1.194366 1.233468
v -5.102707 1.194366 1.233468
v -5.096268 1.175147 1.034244
v -5.085585 1.175147 1.044927
v -5.125455 1.175147 1.034244
v -5.110862 1.175147 1.030334
v -5.085585 1.175147 1.074114
v -5.096268 1.175147 1.084797
v -5.125455 1.175147 1.084797
v -5.136138 1.175147 1.074114
v -5.136138 1.175147 1.044927
v -5.081675 1.175147 1.059521
v -5.110862 1.175147 1.088708
v -5.140049 1.175147 1.059521
v -5.121790 1.169206 1.078449
v -5.110862 1.169206 1.081377
v -5.129790 1.169206 1.048592
v -5.132718 1.169206 1.059521
v -5.089005 1.169206 1.059521
v -5.091933 1.169206 1.048592
v -5.099933 1.169206 1.078449
v -5.129790 1.169206 1.070449
v -5.099933 1.169206 1.040592
v -5.110862 1.169206 1.037664
v -5.121790 1.169206 1.040592
v -5.091933 1.169206 1.070449
v -5.117728 1.167591 1.071414
v -5.122755 1.167591 1.052654
v -5.097128 1.167591 1.059521
v -5.110862 1.167591 1.045788
v -5.110862 1.167591 1.073254
v -5.124595 1.167591 1.059521
v -5.098969 1.167591 1.052654
v -5.103995 1.167591 1.071414
v -5.122755 1.167591 1.066387
v -5.103995 1.167591 1.047627
v -5.117728 1.167591 1.047627
v -5.098969 1.167591 1.066387
vn -0.4637 -0.3741 0.8032
vn -0.3085 -0.7870 0.5343
vn -0.0000 -0.7870 0.6170
vn -0.0000 -0.3741 0.9274
vn 0.3741 -0.9019 -0.2160
vn 0.2160 -0.9019 -0.3741
vn -0.0000 -0.9019 -0.4320
vn -0.2160 -0.9019 -0.3741
vn 0.2160 -0.9019 0.3741
vn 0.3741 -0.9019 0.2160
vn -0.3741 -0.9019 0.2160
vn -0.2160 -0.9019 0.3741
vn -0.3741 -0.9019 -0.2160
vn 0.4320 -0.9019 -0.0000
vn -0.0000 -0.9019 0.4320
vn -0.4320 -0.9019 -0.0000
vn -0.0000 -0.7870 -0.6170
vn 0.3085 -0.7870 -0.5343
vn 0.5343 -0.7870 -0.3085
vn 0.6170 -0.7870 -0.0000
vn 0.5343 -0.7870 0.3085
vn 0.3085 -0.7870 0.5343
vn -0.5343 -0.7870 0.3085
vn -0.6170 -0.7870 -0.0000
vn -0.5343 -0.7870 -0.3085
vn -0.3085 -0.7870 -0.5343
vn -0.8031 -0.3741 -0.4637
vn -0.9274 -0.3741 -0.0000
vn 0.9274 -0.3741 -0.0000
vn 0.8031 -0.3741 -0.4637
vn 0.4637 -0.3741 0.8032
vn -0.8032 -0.3741 0.4637
vn 0.4637 -0.3741 -0.8031
vn -0.0000 -0.3741 -0.9274
vn -0.4637 -0.3741 -0.8031
vn 0.8032 -0.3741 0.4637
vn -0.0000 1.0000 -0.0000
vn -0.0000 -1.0000 -0.0000
vn -0.0000 0.9998 0.0179
vn -0.0000 -0.8156 -0.5786
vn 0.9989 -0.0039 0.0458
vn -1.0000 -0.0000 -0.0000
vn -0.0000 -0.9999 0.0170
vn 1.0000 -0.0000 -0.0000
vn -0.9989 -0.0039 0.0458
vn -0.0000 0.7917 -0.6109
vn -0.8289 -0.0000 -0.5595
vn 0.8289 -0.0000 -0.5595
vn -0.0000 -0.3665 0.9304
vn -0.8660 -0.0000 0.5000
vn -0.0000 -0.0000 1.0000
vn 0.5000 -0.0000 0.8660
vn 0.8660 -0.0000 -0.5000
vn -0.8660 -0.0000 -0.5000
vn -0.5000 -0.0000 0.8660
vn 0.8660 -0.0000 0.5000
vn -0.5000 -0.0000 -0.8660
vn 0.5000 -0.0000 -0.8660
vn -0.0000 -0.0000 -1.0000
vn 0.8326 -0.2750 0.4807
vn 0.9614 -0.2750 -0.0000
vn -0.4807 -0.2750 -0.8326
vn -0.8326 -0.2750 -0.4807
vn 0.4807 -0.2750 -0.8326
vn -0.0000 -0.2750 -0.9614
vn -0.8326 -0.2750 0.4807
vn -0.4807 -0.2750 0.8326
vn 0.4807 -0.2750 0.8326
vn 0.8326 -0.2750 -0.4807
vn -0.9614 -0.2750 -0.0000
vn -0.0000 -0.2750 0.9614
vn 0.1689 -0.9808 0.0975
vn 0.1951 -0.9808 -0.0000
vn -0.0975 -0.9808 -0.1689
vn -0.1689 -0.9808 -0.0975
vn 0.0975 -0.9808 -0.1689
vn -0.0000 -0.9808 -0.1951
vn -0.1689 -0.9808 0.0975
vn -0.0975 -0.9808 0.1689
vn 0.0975 -0.9808 0.1689
vn 0.1689 -0.9808 -0.0975
vn -0.1951 -0.9808 -0.0000
vn -0.0000 -0.9808 0.1951
vt 0.211768 0.871355
vt 0.214268 0.870685
vt 0.221244 0.880830
vt 0.219414 0.882661
vt 0.216914 0.883330
vt 0.214414 0.882661
vt 0.214414 0.882661
vt 0.219414 0.874000
vt 0.219414 0.874000
vt 0.221244 0.875830
vt 0.212583 0.875830
vt 0.214414 0.874000
vt 0.214414 0.874000
vt 0.212583 0.880830
vt 0.221914 0.878330
vt 0.221914 0.878331
vt 0.216914 0.873330
vt 0.216914 0.873331
vt 0.211914 0.878330
vt 0.211914 0.878331
vt 0.211622 0.962701
vt 0.214122 0.962031
vt 0.215952 0.960200
vt 0.216622 0.957701
vt 0.215952 0.955200
vt 0.214122 0.953370
vt 0.211622 0.952701
vt 0.209122 0.953370
vt 0.207292 0.955200
vt 0.206622 0.957701
vt 0.207292 0.960200
vt 0.209122 0.962031
vt 0.209938 0.878185
vt 0.209268 0.875685
vt 0.219268 0.875685
vt 0.218598 0.878185
vt 0.216768 0.871355
vt 0.209938 0.873185
vt 0.216768 0.880015
vt 0.214268 0.880685
vt 0.211768 0.880015
vt 0.218598 0.873185
vt 0.136582 0.957846
vt 0.137252 0.960346
vt 0.136582 0.962846
vt 0.134752 0.964676
vt 0.132252 0.965346
vt 0.129752 0.964676
vt 0.127922 0.962846
vt 0.127252 0.960346
vt 0.127922 0.957846
vt 0.129752 0.956016
vt 0.132252 0.955346
vt 0.134752 0.956016
vt 0.126815 0.963953
vt 0.121815 0.963953
vt 0.121815 0.963953
vt 0.126815 0.963953
vt 0.121815 0.963953
vt 0.209268 0.875685
vt 0.214268 0.870685
vt 0.216768 0.871355
vt 0.219268 0.875685
vt 0.218598 0.878185
vt 0.209938 0.878185
vt 0.211768 0.871355
vt 0.211768 0.880015
vt 0.218598 0.873185
vt 0.211768 0.880015
vt 0.209938 0.878185
vt 0.209938 0.873185
vt 0.216768 0.871355
vt 0.214268 0.870685
s 1
usemtl palette1
f 77/1/1 30/1/2 31/2/3 81/2/4
f 54/3/5 23/3/5 24/4/6 53/4/6
f 56/5/7 14/5/7 13/6/8 55/7/8
f 58/8/9 20/9/9 21/10/10 57/10/10
f 60/11/11 17/11/11 18/12/12 59/13/12
f 53/4/6 24/4/6 14/5/7 56/5/7
f 55/7/8 13/6/8 15/14/13 61/14/13
f 57/10/10 21/10/10 22/15/14 62/16/14
f 59/13/12 18/12/12 19/17/15 63/18/15
f 61/14/13 15/14/13 16/19/16 64/20/16
f 62/16/14 22/15/14 23/3/5 54/3/5
f 63/18/15 19/17/15 20/9/9 58/8/9
f 64/20/16 16/19/16 17/11/11 60/11/11
f 26/21/17 36/22/18 35/23/19 34/24/20 33/25/21 32/26/22 31/27/3 30/28/2 29/29/23 28/30/24 27/31/25 25/32/26
f 78/33/27 27/33/25 28/34/24 82/34/28
f 79/35/29 34/35/20 35/36/19 83/36/30
f 81/2/4 31/2/3 32/37/22 84/37/31
f 82/34/28 28/34/24 29/38/23 85/38/32
f 83/36/30 35/36/19 36/39/18 86/39/33
f 80/40/34 26/40/17 25/41/26 87/41/35
f 84/37/31 32/37/22 33/42/21 88/42/36
f 85/38/32 29/38/23 30/1/2 77/1/1
f 86/39/33 36/39/18 26/40/17 80/40/34
f 87/41/35 25/41/26 27/33/25 78/33/27
f 88/42/36 33/42/21 34/35/20 79/35/29
s 0
f 9/43/37 10/44/37 11/45/37 12/46/37 1/47/37 2/48/37 3/49/37 4/50/37 5/51/37 6/52/37 7/53/37 8/54/37
f 39/1/38 43/1/38 44/37/38 40/37/38
f 46/55/39 47/56/39 51/57/39 52/55/39
f 39/57/40 40/55/40 45/58/40 48/59/40
f 45/58/41 46/55/41 52/55/41 50/58/41
f 39/1/42 37/1/42 41/1/42 43/1/42
f 37/1/37 38/37/37 42/37/37 41/1/37
f 48/59/43 45/58/43 50/58/43 49/57/43
f 38/37/44 40/37/44 44/37/44 42/37/44
f 47/56/45 48/59/45 49/57/45 51/57/45
f 38/55/46 37/57/46 47/56/46 46/55/46
f 37/57/47 39/57/47 48/59/47 47/56/47
f 40/55/48 38/55/48 46/55/48 45/58/48
f 51/57/49 49/57/49 50/58/49 52/55/49
s 1
f 4/34/42 64/60/42 60/38/50 5/38/50
f 7/2/51 63/61/51 58/62/52 8/37/52
f 10/35/44 62/63/44 54/64/53 11/36/53
f 3/33/54 61/65/54 64/60/42 4/34/42
f 6/1/55 59/66/55 63/61/51 7/2/51
f 9/42/56 57/42/56 62/63/44 10/35/44
f 2/41/57 55/67/57 61/65/54 3/33/54
f 12/39/58 53/39/58 56/40/59 1/40/59
f 5/38/50 60/38/50 59/66/55 6/1/55
f 8/37/52 58/62/52 57/42/56 9/42/56
f 1/40/59 56/40/59 55/67/57 2/41/57
f 11/36/53 54/64/53 53/39/58 12/39/58
f 21/42/60 76/68/60 69/35/61 22/35/61
f 13/41/62 75/69/62 67/70/63 15/33/63
f 24/39/64 73/39/64 74/40/65 14/40/65
f 17/38/66 72/71/66 65/1/67 18/1/67
f 20/37/68 71/72/68 76/68/60 21/42/60
f 14/40/65 74/40/65 75/69/62 13/41/62
f 23/36/69 70/36/69 73/39/64 24/39/64
f 16/34/70 68/34/70 72/71/66 17/38/66
f 19/2/71 66/73/71 71/72/68 20/37/68
f 22/35/61 69/35/61 70/36/69 23/36/69
f 15/33/63 67/70/63 68/34/70 16/34/70
f 18/1/67 65/1/67 66/73/71 19/2/71
f 76/68/72 88/42/72 79/35/73 69/35/73
f 75/69/74 87/41/74 78/33/75 67/70/75
f 73/39/76 86/39/76 80/40/77 74/40/77
f 72/71/78 85/38/78 77/1/79 65/1/79
f 71/72/80 84/37/80 88/42/72 76/68/72
f 74/40/77 80/40/77 87/41/74 75/69/74
f 70/36/81 83/36/81 86/39/76 73/39/76
f 68/34/82 82/34/82 85/38/78 72/71/78
f 66/73/83 81/2/83 84/37/80 71/72/80
f 69/35/73 79/35/73 83/36/81 70/36/81
f 67/70/75 78/33/75 82/34/82 68/34/82
f 65/1/79 77/1/79 81/2/83 66/73/83
