# Blender 4.5.2 LTS
# www.blender.org
mtllib coffee_machine.mtl
o coffee_machine
v -4.740519 1.298906 1.106249
v -4.740519 1.240111 1.121568
v -5.259481 1.240111 1.121568
v -5.259481 1.298906 1.106249
v -4.740519 1.298906 0.894279
v -5.259481 1.298906 0.894279
v -5.259481 1.240111 1.000000
v -4.740519 1.240111 1.000000
v -4.740519 1.042821 1.000000
v -5.259481 1.042821 1.000000
v -4.740519 0.983134 0.860454
v -5.259481 1.042821 1.148247
v -4.740519 1.042821 1.148247
v -5.259481 0.983134 0.860454
v -5.259481 0.983134 1.139546
v -4.740519 1.042821 0.851753
v -5.259481 1.042821 0.851753
v -4.740519 0.983134 1.139546
v -4.740519 1.220235 0.851753
v -4.740519 1.271894 0.868798
v -5.244986 1.047853 1.011686
v -5.259481 1.271894 0.868798
v -5.259481 1.220235 0.851753
v -4.755014 1.047853 1.011686
v -5.244986 1.047853 1.136561
v -4.755014 1.047853 1.136561
v -4.749703 1.042821 1.006375
v -4.749703 1.042821 1.141873
v -5.250297 1.042821 1.141873
v -5.250297 1.042821 1.006375
v -4.749703 1.050939 1.006375
v -4.749703 1.050939 1.141873
v -5.250297 1.050939 1.141873
v -5.250297 1.050939 1.006375
v -5.240994 1.048371 1.007369
v -4.759006 1.048371 1.007369
v -5.240994 1.048371 1.140878
v -4.759006 1.048371 1.140878
v -4.776857 1.048371 1.140878
v -4.794708 1.048371 1.140878
v -4.812560 1.048371 1.140878
v -4.830411 1.048371 1.140878
v -4.848263 1.048371 1.140878
v -4.866114 1.048371 1.140878
v -4.883965 1.048371 1.140878
v -4.901817 1.048371 1.140878
v -4.919669 1.048371 1.140878
v -4.937520 1.048371 1.140878
v -4.955371 1.048371 1.140878
v -4.973223 1.048371 1.140878
v -4.991074 1.048371 1.140878
v -5.008926 1.048371 1.140878
v -5.026777 1.048371 1.140878
v -5.044629 1.048371 1.140878
v -5.062480 1.048371 1.140878
v -5.080331 1.048371 1.140878
v -5.098183 1.048371 1.140878
v -5.116035 1.048371 1.140878
v -5.133886 1.048371 1.140878
v -5.151737 1.048371 1.140878
v -5.169589 1.048371 1.140878
v -5.187440 1.048371 1.140878
v -5.205292 1.048371 1.140878
v -5.223143 1.048371 1.140878
v -4.776857 1.048371 1.007369
v -4.794708 1.048371 1.007369
v -4.812560 1.048371 1.007369
v -4.830411 1.048371 1.007369
v -4.848263 1.048371 1.007369
v -4.866114 1.048371 1.007369
v -4.883965 1.048371 1.007369
v -4.901817 1.048371 1.007369
v -4.919669 1.048371 1.007369
v -4.937520 1.048371 1.007369
v -4.955371 1.048371 1.007369
v -4.973223 1.048371 1.007369
v -4.991074 1.048371 1.007369
v -5.008926 1.048371 1.007369
v -5.026777 1.048371 1.007369
v -5.044629 1.048371 1.007369
v -5.062480 1.048371 1.007369
v -5.080331 1.048371 1.007369
v -5.098183 1.048371 1.007369
v -5.116035 1.048371 1.007369
v -5.133886 1.048371 1.007369
v -5.151737 1.048371 1.007369
v -5.169589 1.048371 1.007369
v -5.187440 1.048371 1.007369
v -5.205292 1.048371 1.007369
v -5.223143 1.048371 1.007369
v -4.740519 1.305467 0.957296
v -4.740519 1.304833 1.042642
v -5.259481 1.304833 1.042642
v -5.259481 1.305467 0.957296
v -5.235671 0.960744 1.105427
v -5.249125 0.960744 1.115202
v -5.243986 0.960744 1.131018
v -5.227356 0.960744 1.131018
v -5.222217 0.960744 1.115202
v -5.250903 0.983133 1.114624
v -5.235671 0.983133 1.103557
v -5.245085 0.983133 1.132531
v -5.226257 0.983133 1.132531
v -5.220438 0.983133 1.114624
v -5.235671 0.960744 0.877128
v -5.249125 0.960744 0.886902
v -5.243986 0.960744 0.902718
v -5.227356 0.960744 0.902718
v -5.222217 0.960744 0.886902
v -5.250903 0.983133 0.886324
v -5.235671 0.983133 0.875257
v -5.245085 0.983133 0.904231
v -5.226257 0.983133 0.904231
v -5.220438 0.983133 0.886324
v -4.764329 0.960744 0.877128
v -4.777783 0.960744 0.886902
v -4.772644 0.960744 0.902718
v -4.756014 0.960744 0.902718
v -4.750875 0.960744 0.886902
v -4.779562 0.983133 0.886324
v -4.764329 0.983133 0.875257
v -4.773743 0.983133 0.904231
v -4.754915 0.983133 0.904231
v -4.749097 0.983133 0.886324
v -4.764329 0.960744 1.105427
v -4.777783 0.960744 1.115202
v -4.772644 0.960744 1.131018
v -4.756014 0.960744 1.131018
v -4.750875 0.960744 1.115202
v -4.779562 0.983133 1.114624
v -4.764329 0.983133 1.103557
v -4.773743 0.983133 1.132531
v -4.754915 0.983133 1.132531
v -4.749097 0.983133 1.114624
v -4.895119 1.243648 0.996439
v -4.804682 1.042821 1.000000
v -5.195318 1.042821 1.000000
v -4.804682 1.240111 1.000000
v -5.195318 1.240111 1.000000
v -4.895119 1.194604 0.996439
v -5.158878 1.194604 0.996439
v -4.895119 1.243648 1.106965
v -5.158878 1.243648 1.106965
v -5.158878 1.243648 0.996439
v -5.158878 1.213999 1.110603
v -5.158878 1.201229 1.100145
v -4.895119 1.201031 1.100162
v -4.895119 1.213999 1.110603
v -5.226952 1.277604 1.101192
v -5.214902 1.286881 1.121732
v -5.226000 1.282441 1.122921
v -5.230597 1.271722 1.125794
v -5.226000 1.261002 1.128666
v -5.214902 1.256562 1.129856
v -5.203804 1.261002 1.128666
v -5.199207 1.271722 1.125794
v -5.203804 1.282441 1.122921
v -5.214902 1.282425 1.099900
v -5.231943 1.265965 1.104311
v -5.226952 1.254326 1.107429
v -5.214902 1.249505 1.108721
v -5.202852 1.254326 1.107429
v -5.197861 1.265965 1.104311
v -5.202852 1.277604 1.101192
v -5.174097 1.277604 1.101192
v -5.162047 1.286881 1.121732
v -5.173145 1.282441 1.122921
v -5.177742 1.271722 1.125794
v -5.173145 1.261002 1.128666
v -5.162047 1.256562 1.129856
v -5.150949 1.261002 1.128666
v -5.146352 1.271722 1.125794
v -5.150949 1.282441 1.122921
v -5.162047 1.282425 1.099900
v -5.179088 1.265965 1.104311
v -5.174097 1.254326 1.107429
v -5.162047 1.249505 1.108721
v -5.149997 1.254326 1.107429
v -5.145006 1.265965 1.104311
v -5.149997 1.277604 1.101192
v -4.818394 1.240111 1.058150
v -4.813432 1.240111 1.054544
v -4.816499 1.240111 1.063983
v -4.810365 1.240111 1.063983
v -4.808469 1.240111 1.058150
v -4.818394 1.174169 1.082070
v -4.813432 1.170563 1.082070
v -4.816499 1.180002 1.082070
v -4.810365 1.180002 1.082070
v -4.808469 1.174169 1.082070
v -4.813432 1.170889 1.070732
v -4.808469 1.174293 1.071395
v -4.810365 1.179800 1.072467
v -4.816499 1.179800 1.072467
v -4.818394 1.174293 1.071395
v -4.813432 1.177929 1.059546
v -4.813432 1.189475 1.054544
v -4.818394 1.189475 1.058150
v -4.818394 1.179691 1.062634
v -4.816499 1.189475 1.063983
v -4.816499 1.182460 1.067389
v -4.810365 1.189475 1.063983
v -4.810365 1.182460 1.067389
v -4.808469 1.189475 1.058150
v -4.808469 1.179691 1.062634
v -4.821117 1.096792 1.092566
v -4.818182 1.096792 1.101560
v -4.808682 1.096792 1.101560
v -4.805747 1.096792 1.092566
v -4.813432 1.096792 1.087009
v -4.806748 1.169676 1.088231
v -4.809301 1.173832 1.094900
v -4.817563 1.173832 1.094900
v -4.813432 1.167108 1.084110
v -4.820116 1.169676 1.088231
v -4.956769 1.270085 1.115837
v -4.952703 1.255177 1.119721
v -5.047297 1.255177 1.119721
v -5.043231 1.270085 1.115837
v -4.813697 1.293256 1.032667
v -4.856002 1.293256 1.015143
v -4.873526 1.293257 0.972838
v -4.856002 1.293257 0.930532
v -4.813697 1.293257 0.913008
v -4.771391 1.293257 0.930532
v -4.753867 1.293257 0.972838
v -4.771391 1.293256 1.015143
v -4.856002 1.408227 1.015144
v -4.813697 1.408227 1.032667
v -4.873526 1.408227 0.972838
v -4.856002 1.408227 0.930532
v -4.813697 1.408227 0.913009
v -4.771391 1.408227 0.930532
v -4.753867 1.408227 0.972838
v -4.771391 1.408227 1.015144
v -4.860408 1.400632 1.019549
v -4.813697 1.400632 1.038898
v -4.879756 1.400632 0.972838
v -4.860408 1.400632 0.926127
v -4.813697 1.400632 0.906778
v -4.766985 1.400632 0.926127
v -4.747637 1.400632 0.972838
v -4.766985 1.400632 1.019549
v -4.854468 1.417507 1.013610
v -4.860408 1.412054 1.019549
v -4.813697 1.412054 1.038898
v -4.813697 1.417507 1.030498
v -4.871357 1.417507 0.972838
v -4.879756 1.412055 0.972838
v -4.854468 1.417507 0.932066
v -4.860408 1.412055 0.926127
v -4.813697 1.417507 0.915178
v -4.813697 1.412055 0.906778
v -4.772925 1.417507 0.932066
v -4.766985 1.412055 0.926127
v -4.756036 1.417507 0.972838
v -4.747637 1.412055 0.972838
v -4.772925 1.417507 1.013610
v -4.766985 1.412054 1.019549
v -4.873526 1.365848 0.972838
v -4.856002 1.365053 1.015144
v -4.771391 1.361215 1.015144
v -4.753867 1.360420 0.972838
v -4.771391 1.361215 0.930532
v -4.813697 1.363134 0.913009
v -4.856002 1.365053 0.930532
v -4.813697 1.363134 1.032667
v -4.856002 1.314914 1.015144
v -4.753867 1.314914 0.972838
v -4.813697 1.314914 0.913009
v -4.813697 1.314914 1.032667
v -4.873526 1.314914 0.972838
v -4.771391 1.314914 1.015144
v -4.771391 1.314914 0.930532
v -4.856002 1.314914 0.930532
vn -0.0000 -1.0000 -0.0000
vn -0.0000 0.2521 0.9677
vn -0.0000 -0.1443 -0.9895
vn -0.0000 -0.1443 0.9895
vn 1.0000 -0.0000 -0.0000
vn -1.0000 -0.0000 -0.0000
vn -0.0000 1.0000 -0.0000
vn -0.0000 0.3133 -0.9496
vn -0.0000 -0.0000 -1.0000
vn -0.0000 0.6862 -0.7274
vn -0.0000 -0.0000 1.0000
vn 0.5023 -0.8647 -0.0000
vn -0.5023 -0.8647 -0.0000
vn -0.0000 -0.8647 0.5023
vn -0.0000 -0.8647 -0.5023
vn -0.0000 1.0000 0.0074
vn -0.0000 0.9957 0.0928
vn -0.0000 0.9946 -0.1036
vn 0.5864 -0.0674 -0.8072
vn -0.0000 -0.0674 0.9977
vn -0.5864 -0.0674 -0.8072
vn 0.9489 -0.0674 0.3083
vn -0.9489 -0.0674 0.3083
vn -0.0003 -0.6303 0.7763
vn -0.0000 0.1218 0.9926
vn -0.0004 -0.9980 0.0628
vn -0.3821 0.9055 -0.1848
vn 0.3821 -0.8766 0.2927
vn 0.9224 0.3835 -0.0450
vn 0.3821 0.9055 -0.1848
vn -0.9224 0.3835 -0.0450
vn -0.9224 -0.3546 0.1528
vn 0.9224 -0.3546 0.1528
vn -0.0000 0.2588 0.9659
vn -0.3821 -0.8766 0.2927
vn 0.5775 -0.8162 -0.0167
vn -0.9460 0.0339 0.3225
vn -0.0000 0.9998 -0.0211
vn -0.5775 -0.8162 -0.0167
vn 0.9484 0.3171 -0.0012
vn -0.9484 0.3171 -0.0012
vn 0.5629 -0.0378 -0.8256
vn -0.0000 0.0861 0.9963
vn -0.5629 -0.0378 -0.8257
vn -0.9278 0.3666 0.0697
vn -0.5670 -0.3347 -0.7526
vn -0.9432 0.1413 0.3007
vn -0.0000 0.4368 0.8995
vn 0.9432 0.1413 0.3007
vn 0.5670 -0.3347 -0.7526
vn -0.5400 -0.7142 -0.4453
vn 0.5878 -0.0000 -0.8090
vn -0.5878 -0.0000 -0.8090
vn 0.5400 -0.7142 -0.4453
vn -0.9360 0.3041 0.1771
vn -0.9511 -0.0000 0.3090
vn -0.0000 0.8858 0.4641
vn 0.9360 0.3041 0.1771
vn 0.9511 -0.0000 0.3090
vn 0.9278 0.3666 0.0697
vn -0.5230 -0.5546 -0.6472
vn -0.0000 0.9012 0.4334
vn 0.9460 0.0339 0.3225
vn 0.5230 -0.5546 -0.6472
vn -0.9239 -0.0000 0.3827
vn 0.9239 -0.0000 0.3827
vn 0.3827 -0.0000 -0.9239
vn -0.9239 -0.0000 -0.3827
vn -0.3827 -0.0000 0.9239
vn 0.3827 -0.0000 0.9239
vn 0.9239 -0.0000 -0.3827
vn -0.3827 -0.0000 -0.9239
vn -0.2200 0.8182 0.5311
vn -0.5311 0.8182 0.2200
vn -0.5311 0.8182 -0.2200
vn -0.2200 0.8182 -0.5311
vn 0.2200 0.8182 -0.5311
vn 0.5311 0.8182 -0.2200
vn 0.5311 0.8182 0.2200
vn 0.2200 0.8182 0.5311
vt 0.372372 0.960408
vt 0.372372 0.963664
vt 0.372372 0.966919
vt 0.372372 0.970175
vt 0.376867 0.970175
vt 0.376867 0.960408
vt 0.367876 0.960408
vt 0.367876 0.970175
vt 0.367876 0.970175
vt 0.368388 0.970175
vt 0.368745 0.970175
vt 0.368393 0.960408
vt 0.367874 0.960408
vt 0.368745 0.960408
vt 0.369166 0.960408
vt 0.369166 0.970175
vt 0.207368 0.885410
vt 0.207368 0.875850
vt 0.203225 0.875850
vt 0.203225 0.885410
vt 0.130820 0.875746
vt 0.130820 0.885513
vt 0.126324 0.885513
vt 0.126324 0.875746
vt 0.130644 0.885410
vt 0.126501 0.885410
vt 0.126501 0.875850
vt 0.130644 0.875850
vt 0.127998 0.873558
vt 0.123855 0.873558
vt 0.123855 0.873204
vt 0.127998 0.873204
vt 0.127998 0.882764
vt 0.123855 0.882764
vt 0.123855 0.882410
vt 0.127998 0.882410
vt 0.127998 0.882056
vt 0.123855 0.882056
vt 0.123855 0.881702
vt 0.127998 0.881702
vt 0.127998 0.881348
vt 0.123855 0.881348
vt 0.123855 0.880994
vt 0.127998 0.880994
vt 0.127998 0.880640
vt 0.123855 0.880640
vt 0.123855 0.880286
vt 0.127998 0.880286
vt 0.127998 0.879932
vt 0.123855 0.879932
vt 0.123855 0.879578
vt 0.127998 0.879578
vt 0.127998 0.879223
vt 0.123855 0.879224
vt 0.123855 0.878869
vt 0.127998 0.878869
vt 0.127998 0.878515
vt 0.123855 0.878515
vt 0.123855 0.878161
vt 0.127998 0.878161
vt 0.127998 0.877807
vt 0.123855 0.877807
vt 0.123855 0.877453
vt 0.127998 0.877453
vt 0.127998 0.877099
vt 0.123855 0.877099
vt 0.123855 0.876745
vt 0.127998 0.876745
vt 0.127998 0.876391
vt 0.123855 0.876391
vt 0.123855 0.876037
vt 0.127998 0.876037
vt 0.127998 0.875683
vt 0.123855 0.875683
vt 0.123855 0.875329
vt 0.127998 0.875329
vt 0.127998 0.874975
vt 0.123855 0.874975
vt 0.123855 0.874621
vt 0.127998 0.874621
vt 0.127998 0.874267
vt 0.123855 0.874267
vt 0.123855 0.873913
vt 0.127998 0.873913
vt 0.371077 0.970175
vt 0.372366 0.970175
vt 0.371117 0.970175
vt 0.371102 0.960408
vt 0.372372 0.960408
vt 0.195779 0.857197
vt 0.126324 0.873711
vt 0.126324 0.876966
vt 0.221569 0.872285
vt 0.221569 0.872285
vt 0.221569 0.862518
vt 0.221569 0.862518
vt 0.221569 0.872285
vt 0.039017 0.963053
vt 0.039017 0.972821
vt 0.039017 0.972821
vt 0.142835 0.870103
vt 0.139300 0.868638
vt 0.139300 0.868638
vt 0.142835 0.860103
vt 0.146371 0.861567
vt 0.147835 0.865103
vt 0.146371 0.868638
vt 0.137835 0.865103
vt 0.137835 0.865103
vt 0.139300 0.861567
vt 0.139300 0.861567
vt 0.047591 0.880685
vt 0.044055 0.879221
vt 0.042591 0.875685
vt 0.044055 0.872150
vt 0.047591 0.870685
vt 0.051126 0.872150
vt 0.052591 0.875685
vt 0.051126 0.879221
vt 0.206362 0.955086
vt 0.195779 0.857197
vt 0.195780 0.857197
vt 0.195779 0.857197
vt 0.195779 0.857197
vt 0.195780 0.857197
vt 0.195779 0.857197
vt 0.126324 0.865164
vt 0.126324 0.874931
vt 0.120780 0.881867
vt 0.119315 0.878331
vt 0.119315 0.878331
vt 0.129315 0.878331
vt 0.129315 0.878331
vt 0.127851 0.881867
vt 0.127851 0.881866
vt 0.124315 0.873331
vt 0.127851 0.874795
vt 0.127851 0.874795
vt 0.120780 0.874795
vt 0.120780 0.874796
vt 0.124315 0.883331
vt 0.126961 0.967992
vt 0.123426 0.966528
vt 0.121961 0.962992
vt 0.123426 0.959457
vt 0.126961 0.957992
vt 0.130497 0.959457
vt 0.131961 0.962992
vt 0.130497 0.966528
vt 0.126961 0.967357
vt 0.123875 0.966078
vt 0.122597 0.962992
vt 0.123426 0.959457
vt 0.123875 0.959907
vt 0.126961 0.958628
vt 0.130047 0.959906
vt 0.131325 0.962992
vt 0.130047 0.966078
vt 0.276874 0.869504
vt 0.276874 0.869504
vt 0.280410 0.868040
vt 0.283945 0.869504
vt 0.283945 0.869504
vt 0.285410 0.873040
vt 0.283945 0.876575
vt 0.283945 0.876575
vt 0.280410 0.878040
vt 0.276874 0.876575
vt 0.275410 0.873040
vt 0.123425 0.961237
vt 0.121961 0.957701
vt 0.121961 0.957701
vt 0.131961 0.957701
vt 0.131961 0.957701
vt 0.130497 0.961237
vt 0.130497 0.961237
vt 0.126961 0.952701
vt 0.130497 0.954166
vt 0.130497 0.954166
vt 0.123425 0.954166
vt 0.123425 0.954166
vt 0.126961 0.962701
s 0
usemtl palette1
f 7/1/1 139/2/1 138/3/1 8/4/1 2/4/1 3/1/1
f 3/1/2 2/4/2 1/4/2 4/1/2
f 18/5/1 15/6/1 14/7/1 11/8/1
f 11/8/3 14/7/3 17/7/3 16/8/3
f 15/6/4 18/5/4 13/5/4 12/6/4
f 18/5/5 11/8/5 16/8/5 9/4/5 13/5/5
f 14/7/6 15/6/6 12/6/6 10/1/6 17/7/6
f 13/5/7 9/4/7 136/3/7 137/2/7 10/1/7 12/6/7
f 19/9/5 20/10/5 8/11/5
f 22/12/6 23/13/6 7/14/6
f 22/12/8 20/10/8 19/9/8 23/13/8
f 16/8/9 17/7/9 23/13/9 19/9/9
f 9/4/5 16/8/5 19/9/5 8/4/5
f 20/10/10 22/12/10 6/15/10 5/16/10
f 17/7/6 10/1/6 7/14/6 23/13/6
f 26/17/1 25/18/1 21/19/1 24/20/1
f 33/21/9 32/22/9 28/22/9 29/21/9
f 31/23/11 34/24/11 30/24/11 27/23/11
f 34/24/5 33/21/5 29/21/5 30/24/5
f 32/22/6 31/23/6 27/23/6 28/22/6
f 26/25/12 24/26/12 31/23/12 32/22/12
f 21/27/13 25/28/13 33/21/13 34/24/13
f 25/28/14 26/25/14 32/22/14 33/21/14
f 24/26/15 21/27/15 34/24/15 31/23/15
f 64/29/7 90/30/7 35/31/7 37/32/7
f 38/33/7 36/34/7 65/35/7 39/36/7
f 40/37/7 66/38/7 67/39/7 41/40/7
f 42/41/7 68/42/7 69/43/7 43/44/7
f 44/45/7 70/46/7 71/47/7 45/48/7
f 46/49/7 72/50/7 73/51/7 47/52/7
f 48/53/7 74/54/7 75/55/7 49/56/7
f 50/57/7 76/58/7 77/59/7 51/60/7
f 52/61/7 78/62/7 79/63/7 53/64/7
f 54/65/7 80/66/7 81/67/7 55/68/7
f 56/69/7 82/70/7 83/71/7 57/72/7
f 58/73/7 84/74/7 85/75/7 59/76/7
f 60/77/7 86/78/7 87/79/7 61/80/7
f 62/81/7 88/82/7 89/83/7 63/84/7
f 91/85/5 92/86/5 8/87/5
f 93/1/6 94/88/6 7/89/6
f 91/85/16 94/88/16 93/1/16 92/86/16
f 92/86/17 93/1/17 4/1/17 1/4/17
f 91/85/18 5/16/18 6/15/18 94/88/18
f 8/87/5 92/86/5 1/4/5 2/4/5
f 8/11/5 20/10/5 5/16/5 91/85/5
f 93/1/6 7/1/6 3/1/6 4/1/6
f 22/12/6 7/89/6 94/88/6 6/15/6
f 96/90/1 95/90/1 99/90/1 98/90/1 97/90/1
f 95/90/19 101/90/19 104/90/19 99/90/19
f 98/90/20 103/90/20 102/90/20 97/90/20
f 96/90/21 100/90/21 101/90/21 95/90/21
f 99/90/22 104/90/22 103/90/22 98/90/22
f 97/90/23 102/90/23 100/90/23 96/90/23
f 106/90/1 105/90/1 109/90/1 108/90/1 107/90/1
f 105/90/19 111/90/19 114/90/19 109/90/19
f 108/90/20 113/90/20 112/90/20 107/90/20
f 106/90/21 110/90/21 111/90/21 105/90/21
f 109/90/22 114/90/22 113/90/22 108/90/22
f 107/90/23 112/90/23 110/90/23 106/90/23
f 116/90/1 115/90/1 119/90/1 118/90/1 117/90/1
f 115/90/19 121/90/19 124/90/19 119/90/19
f 118/90/20 123/90/20 122/90/20 117/90/20
f 116/90/21 120/90/21 121/90/21 115/90/21
f 119/90/22 124/90/22 123/90/22 118/90/22
f 117/90/23 122/90/23 120/90/23 116/90/23
f 126/90/1 125/90/1 129/90/1 128/90/1 127/90/1
f 125/90/19 131/90/19 134/90/19 129/90/19
f 128/90/20 133/90/20 132/90/20 127/90/20
f 126/90/21 130/90/21 131/90/21 125/90/21
f 129/90/22 134/90/22 133/90/22 128/90/22
f 127/90/23 132/90/23 130/90/23 126/90/23
f 10/1/11 137/2/11 139/2/11 7/1/11
f 137/91/11 136/92/11 138/92/11 139/91/11
f 136/3/11 9/4/11 8/4/11 138/3/11
f 147/93/24 148/94/24 145/95/24 146/96/24
f 148/94/25 142/97/25 143/96/25 145/95/25
f 141/98/26 140/99/26 147/100/26 146/98/26
f 145/95/6 143/96/6 144/96/6 141/96/6 146/96/6
f 140/97/5 135/97/5 142/97/5 148/94/5 147/93/5
f 150/101/27 158/101/27 149/102/27 151/103/27
f 154/104/28 161/104/28 162/105/28 155/105/28
f 156/106/29 163/106/29 164/107/29 157/107/29
f 157/107/30 164/107/30 158/101/30 150/101/30
f 151/103/31 149/102/31 159/108/31 152/109/31
f 152/109/32 159/108/32 160/110/32 153/111/32
f 155/105/33 162/105/33 163/106/33 156/106/33
f 150/112/34 151/113/34 152/114/34 153/115/34 154/116/34 155/117/34 156/118/34 157/119/34
f 153/111/35 160/110/35 161/104/35 154/104/35
f 166/101/27 174/101/27 165/102/27 167/103/27
f 170/104/28 177/104/28 178/105/28 171/105/28
f 172/106/29 179/106/29 180/107/29 173/107/29
f 173/107/30 180/107/30 174/101/30 166/101/30
f 167/103/31 165/102/31 175/108/31 168/109/31
f 168/109/32 175/108/32 176/110/32 169/111/32
f 171/105/33 178/105/33 179/106/33 172/106/33
f 166/112/34 167/113/34 168/114/34 169/115/34 170/116/34 171/117/34 172/118/34 173/119/34
f 169/111/35 176/110/35 177/104/35 170/104/35
f 192/120/36 190/120/36 187/120/36 191/120/36
f 215/90/37 206/90/37 207/90/37 213/90/37
f 194/120/38 188/120/38 189/120/38 193/120/38
f 191/120/39 187/120/39 186/120/39 195/120/39
f 193/120/40 189/120/40 190/120/40 192/120/40
f 195/120/41 186/120/41 188/120/41 194/120/41
f 211/90/42 209/90/42 210/90/42 214/90/42
f 213/90/43 207/90/43 208/90/43 212/90/43
f 214/90/44 210/90/44 206/90/44 215/90/44
f 206/90/1 210/90/1 209/90/1 208/90/1 207/90/1
f 186/90/45 215/90/45 213/90/45 188/90/45
f 199/121/46 198/122/46 197/123/46 196/124/46
f 201/125/47 200/90/47 198/122/47 199/121/47
f 203/90/48 202/126/48 200/90/48 201/125/48
f 205/122/49 204/123/49 202/126/49 203/90/49
f 196/124/50 197/123/50 204/123/50 205/122/50
f 196/124/51 191/90/51 195/90/51 199/121/51
f 197/123/52 182/90/52 185/90/52 204/123/52
f 198/122/53 181/90/53 182/90/53 197/123/53
f 205/122/54 192/90/54 191/90/54 196/124/54
f 199/121/55 195/90/55 194/90/55 201/125/55
f 200/90/56 183/90/56 181/90/56 198/122/56
f 201/125/57 194/90/57 193/90/57 203/90/57
f 202/126/11 184/90/11 183/90/11 200/90/11
f 203/90/58 193/90/58 192/90/58 205/122/58
f 204/123/59 185/90/59 184/90/59 202/126/59
f 189/90/60 212/90/60 211/90/60 190/90/60
f 187/90/61 214/90/61 215/90/61 186/90/61
f 188/90/62 213/90/62 212/90/62 189/90/62
f 212/90/63 208/90/63 209/90/63 211/90/63
f 190/90/64 211/90/64 214/90/64 187/90/64
f 218/127/2 217/128/2 216/128/2 219/127/2
f 261/129/65 228/129/65 230/130/65 260/131/65
f 263/132/66 234/133/66 235/134/66 262/135/66
f 265/136/67 232/136/67 233/137/67 264/138/67
f 260/131/68 230/130/68 231/139/68 266/140/68
f 267/141/69 229/141/69 228/129/69 261/129/69
f 262/135/70 235/134/70 229/141/70 267/141/70
f 264/138/71 233/137/71 234/133/71 263/132/71
f 266/140/72 231/139/72 232/136/72 265/136/72
f 237/142/1 236/143/1 238/144/1 239/145/1 240/146/1 241/147/1 242/148/1 243/149/1
f 245/143/73 246/142/73 247/150/73 244/151/73
f 249/144/74 245/143/74 244/151/74 248/152/74
f 251/153/75 249/144/75 248/152/75 250/154/75
f 253/146/76 251/153/76 250/154/76 252/155/76
f 255/147/77 253/146/77 252/155/77 254/156/77
f 257/148/78 255/147/78 254/156/78 256/157/78
f 259/149/79 257/148/79 256/157/79 258/158/79
f 246/142/80 259/149/80 258/158/80 247/150/80
f 246/142/69 245/143/69 236/143/69 237/142/69
f 247/150/7 258/158/7 256/157/7 254/156/7 252/155/7 250/154/7 248/152/7 244/151/7
f 245/143/65 249/144/65 238/144/65 236/143/65
f 259/149/70 246/142/70 237/142/70 243/149/70
f 249/144/68 251/153/68 239/145/68 238/144/68
f 251/153/72 253/146/72 240/146/72 239/145/72
f 253/146/67 255/147/67 241/147/67 240/146/67
f 255/147/71 257/148/71 242/148/71 241/147/71
f 257/148/66 259/149/66 243/149/66 242/148/66
f 275/159/72 266/160/72 265/161/72 270/161/72
f 274/162/71 264/163/71 263/164/71 269/164/71
f 273/165/70 262/166/70 267/167/70 271/167/70
f 271/167/69 267/167/69 261/168/69 268/168/69
f 272/169/68 260/169/68 266/160/68 275/159/68
f 270/161/67 265/161/67 264/163/67 274/162/67
f 269/164/66 263/164/66 262/166/66 273/165/66
f 268/168/65 261/168/65 260/169/65 272/169/65
f 221/170/65 268/170/65 272/171/65 222/172/65
f 226/173/66 269/174/66 273/175/66 227/176/66
f 224/177/67 270/177/67 274/178/67 225/179/67
f 222/172/68 272/171/68 275/180/68 223/181/68
f 220/182/69 271/182/69 268/170/69 221/170/69
f 227/176/70 273/175/70 271/182/70 220/182/70
f 225/179/71 274/178/71 269/174/71 226/173/71
f 223/181/72 275/180/72 270/177/72 224/177/72
