# Blender 4.5.2 LTS
# www.blender.org
mtllib cookie.mtl
o cookie
v 1.190969 0.003074 0.842788
v 1.203879 0.003074 0.855698
v 1.208605 0.003074 0.873333
v 1.203879 0.003074 0.890969
v 1.190969 0.003074 0.903879
v 1.173333 0.003074 0.908605
v 1.155697 0.003074 0.903879
v 1.142787 0.003074 0.890969
v 1.138062 0.003074 0.873333
v 1.142787 0.003074 0.855698
v 1.155697 0.003074 0.842788
v 1.173333 0.003074 0.838062
v 1.153684 -0.005507 0.839300
v 1.139300 -0.005507 0.853684
v 1.134035 -0.005507 0.873333
v 1.139300 -0.005507 0.892983
v 1.153684 -0.005507 0.907367
v 1.173333 -0.005507 0.912632
v 1.192982 -0.005507 0.907367
v 1.207367 -0.005507 0.892983
v 1.212632 -0.005507 0.873333
v 1.207367 -0.005507 0.853684
v 1.173333 -0.005507 0.834035
v 1.192982 -0.005507 0.839300
v 1.173333 0.007648 0.873333
v 1.189837 0.005086 0.900717
v 1.184242 0.005045 0.903032
v 1.183414 0.000982 0.903353
v 1.192130 0.001046 0.899748
v 1.182076 0.006073 0.897810
v 1.187672 0.006114 0.895495
v 1.180632 0.002303 0.896641
v 1.189347 0.002367 0.893036
v 1.157113 0.007096 0.884069
v 1.153680 0.006572 0.889035
v 1.153677 0.001347 0.890907
v 1.159021 0.002163 0.883178
v 1.148963 0.006394 0.885752
v 1.152396 0.006919 0.880786
v 1.147619 0.001119 0.886691
v 1.152962 0.001936 0.878962
v 1.166944 0.005901 0.847355
v 1.169648 0.006327 0.852001
v 1.172150 0.000825 0.853688
v 1.167420 0.000080 0.845562
v 1.165230 0.006235 0.854579
v 1.162526 0.005809 0.849932
v 1.165772 0.000692 0.857408
v 1.161043 -0.000053 0.849282
v 1.201953 0.005638 0.866265
v 1.200976 0.005696 0.872193
v 1.200936 0.000539 0.874278
v 1.202470 0.000447 0.864973
v 1.195395 0.006392 0.871263
v 1.196373 0.006334 0.865336
v 1.193706 0.001440 0.873074
v 1.195241 0.001349 0.863769
v 1.176095 0.007124 0.866476
v 1.181158 0.006617 0.868264
v 1.179525 0.007276 0.873068
v 1.174462 0.007783 0.871280
v 1.170401 0.006073 0.890517
v 1.172225 0.005319 0.895535
v 1.167410 0.005015 0.897238
v 1.165585 0.005769 0.892220
v 1.149101 0.004952 0.859647
v 1.150562 0.005337 0.864008
v 1.146422 0.005094 0.865415
v 1.144961 0.004708 0.861054
v 1.183496 0.003495 0.840828
v 1.184433 0.004280 0.844750
v 1.180642 0.004639 0.845582
v 1.179705 0.003853 0.841660
v 1.164369 0.006122 0.869915
v 1.162228 0.006454 0.873237
v 1.159062 0.006245 0.871215
v 1.161202 0.005913 0.867894
v 1.192758 0.004643 0.883970
v 1.190792 0.004796 0.887410
v 1.187633 0.005673 0.885565
v 1.189598 0.005520 0.882124
vn -0.0941 0.9911 -0.0941
vn -0.6440 0.4129 -0.6440
vn -0.8797 0.4129 -0.2357
vn -0.8797 0.4129 0.2357
vn -0.6440 0.4129 0.6440
vn -0.2357 0.4129 0.8798
vn 0.2357 0.4129 0.8798
vn 0.6440 0.4129 0.6440
vn 0.8797 0.4129 0.2357
vn 0.8797 0.4129 -0.2357
vn 0.6440 0.4129 -0.6440
vn 0.2357 0.4129 -0.8797
vn -0.0000 -1.0000 -0.0000
vn -0.0344 0.9911 -0.1285
vn -0.0344 0.9911 0.1285
vn 0.0344 0.9911 -0.1285
vn 0.0941 0.9911 -0.0941
vn 0.1285 0.9911 -0.0344
vn 0.1285 0.9911 0.0344
vn 0.0941 0.9911 0.0941
vn 0.0344 0.9911 0.1285
vn -0.0941 0.9911 0.0941
vn -0.1285 0.9911 0.0344
vn -0.1285 0.9911 -0.0344
vn 0.3823 -0.0048 0.9240
vn -0.3532 0.3978 -0.8468
vn 0.8195 0.5218 -0.2371
vn 0.7950 0.2043 0.5712
vn -0.8870 0.2129 0.4097
vn 0.0622 0.9838 0.1678
vn -0.8229 0.1104 -0.5573
vn 0.5276 0.3443 -0.7766
vn -0.5553 0.2808 0.7828
vn -0.0747 0.9958 0.0536
vn 0.8333 0.2239 -0.5055
vn -0.8591 0.1635 0.4850
vn -0.4951 0.2186 -0.8409
vn 0.4453 0.4413 0.7791
vn -0.0553 0.9967 -0.0592
vn 0.9851 0.0578 0.1619
vn -0.9507 0.2659 -0.1594
vn 0.1897 0.2550 -0.9482
vn -0.1069 0.3734 0.9215
vn 0.1220 0.9925 0.0104
vn 0.1310 0.9872 -0.0909
vn -0.0087 0.9884 0.1518
vn -0.0793 0.9950 -0.0614
vn 0.0470 0.9772 -0.2069
vn -0.0016 0.9950 -0.1003
vn 0.2213 0.9717 0.0831
vn -0.2357 0.4129 -0.8797
vt 0.534867 0.963026
vt 0.535806 0.962463
vt 0.535308 0.963471
vt 0.535353 0.963435
vt 0.534928 0.963002
vt 0.534783 0.962467
vt 0.534715 0.962461
vt 0.534923 0.961938
vt 0.534865 0.961900
vt 0.535309 0.961551
vt 0.535275 0.961489
vt 0.535836 0.961411
vt 0.535835 0.961339
vt 0.536363 0.961555
vt 0.536395 0.961491
vt 0.536748 0.961949
vt 0.536805 0.961906
vt 0.536873 0.962541
vt 0.536942 0.962515
vt 0.536651 0.963448
vt 0.536681 0.963510
vt 0.536475 0.964024
vt 0.536517 0.964140
vt 0.536091 0.963862
vt 0.536128 0.963936
vt 0.292958 0.881463
vt 0.292843 0.881432
vt 0.292502 0.881339
vt 0.292502 0.881339
s 0
usemtl palette1
f 10/1/1 25/2/1 11/3/1
f 13/4/2 14/5/2 10/1/2 11/3/2
f 14/5/3 15/6/3 9/7/3 10/1/3
f 15/6/4 16/8/4 8/9/4 9/7/4
f 16/8/5 17/10/5 7/11/5 8/9/5
f 17/10/6 18/12/6 6/13/6 7/11/6
f 18/12/7 19/14/7 5/15/7 6/13/7
f 19/14/8 20/16/8 4/17/8 5/15/8
f 20/16/9 21/18/9 3/19/9 4/17/9
f 21/18/10 22/20/10 2/21/10 3/19/10
f 22/20/11 24/22/11 1/23/11 2/21/11
f 24/22/12 23/24/12 12/25/12 1/23/12
f 23/24/13 24/22/13 22/20/13 21/18/13 20/16/13 19/14/13 18/12/13 17/10/13 16/8/13 15/6/13 14/5/13 13/4/13
f 11/3/14 25/2/14 12/25/14
f 7/11/15 6/13/15 25/2/15
f 12/25/16 25/2/16 1/23/16
f 1/23/17 25/2/17 2/21/17
f 2/21/18 25/2/18 3/19/18
f 3/19/19 25/2/19 4/17/19
f 4/17/20 25/2/20 5/15/20
f 5/15/21 25/2/21 6/13/21
f 25/2/22 8/9/22 7/11/22
f 8/9/23 25/2/23 9/7/23
f 9/7/24 25/2/24 10/1/24
f 29/26/25 26/27/25 27/28/25 28/29/25
f 33/26/26 32/29/26 30/28/26 31/27/26
f 26/27/27 29/26/27 33/26/27 31/27/27
f 37/26/28 34/27/28 35/28/28 36/29/28
f 28/29/29 27/28/29 30/28/29 32/29/29
f 27/28/30 26/27/30 31/27/30 30/28/30
f 41/26/31 40/29/31 38/28/31 39/27/31
f 34/27/32 37/26/32 41/26/32 39/27/32
f 36/29/33 35/28/33 38/28/33 40/29/33
f 35/28/34 34/27/34 39/27/34 38/28/34
f 45/26/35 42/27/35 43/28/35 44/29/35
f 49/26/36 48/29/36 46/28/36 47/27/36
f 42/27/37 45/26/37 49/26/37 47/27/37
f 44/29/38 43/28/38 46/28/38 48/29/38
f 43/28/39 42/27/39 47/27/39 46/28/39
f 53/26/40 50/27/40 51/28/40 52/29/40
f 57/26/41 56/29/41 54/28/41 55/27/41
f 50/27/42 53/26/42 57/26/42 55/27/42
f 52/29/43 51/28/43 54/28/43 56/29/43
f 51/28/44 50/27/44 55/27/44 54/28/44
f 59/28/45 58/27/45 61/27/45 60/28/45
f 63/28/46 62/27/46 65/27/46 64/28/46
f 67/28/47 66/27/47 69/27/47 68/28/47
f 71/28/48 70/27/48 73/27/48 72/28/48
f 75/28/49 74/27/49 77/27/49 76/28/49
f 79/28/50 78/27/50 81/27/50 80/28/50
f 23/24/51 13/4/51 11/3/51 12/25/51
