# Blender 4.5.2 LTS
# www.blender.org
mtllib croissant_2.mtl
o croissant_2
v 1.327986 0.025275 1.100920
v 1.323918 0.034334 1.093100
v 1.373333 0.030610 1.099023
v 1.373333 0.047469 1.081893
v 1.323948 0.013787 1.107128
v 1.317563 0.022889 1.105524
v 1.315213 0.034334 1.070724
v 1.312800 0.028371 1.064646
v 1.373333 0.049381 1.055469
v 1.373333 0.043445 1.049000
v 1.301379 0.022889 1.094697
v 1.312800 -0.000912 1.064646
v 1.314590 -0.005122 1.069217
v 1.373333 -0.000912 1.050532
v 1.373333 -0.005122 1.055401
v 1.297888 -0.000912 1.091461
v 1.325344 -0.005122 1.095818
v 1.328839 -0.000216 1.100692
v 1.373333 -0.005122 1.094049
v 1.373333 -0.000216 1.101227
v 1.310084 -0.004723 1.130337
v 1.345274 0.037333 1.086588
v 1.346782 0.045502 1.081908
v 1.353219 0.028613 1.096110
v 1.348302 0.028885 1.094374
v 1.340340 0.047410 1.059924
v 1.336311 0.037377 1.062347
v 1.334247 0.031810 1.056641
v 1.338163 0.041463 1.053803
v 1.338163 -0.000912 1.053803
v 1.334239 -0.000387 1.056637
v 1.335793 -0.004336 1.060936
v 1.339802 -0.005122 1.058411
v 1.346379 0.000219 1.094784
v 1.351899 -0.000050 1.096845
v 1.351851 -0.005122 1.092830
v 1.346361 -0.004336 1.089358
v 1.361112 0.039128 1.092872
v 1.373333 0.042803 1.086189
v 1.345064 0.035770 1.055205
v 1.367867 0.039058 1.093432
v 1.345469 0.044398 1.060596
v 1.345363 0.040788 1.057669
v 1.349798 0.041249 1.085253
v 1.341734 0.039062 1.086804
v 1.373333 0.039474 1.094506
v 1.347794 0.042195 1.083662
v 1.336731 0.040285 1.065341
v 1.337479 0.040327 1.077001
v 1.338865 0.041887 1.065013
v 1.334917 0.035371 1.063045
v 1.335425 0.034704 1.074087
v 1.340367 0.032261 1.087374
v 1.356609 0.030885 1.092745
v 1.373333 0.031392 1.096107
v 1.346928 0.030412 1.091277
v 1.352431 0.040627 1.085620
v 1.342821 0.042585 1.078580
v 1.345490 0.037275 1.091745
v 1.348462 0.043892 1.080193
v 1.356608 0.034805 1.095556
v 1.373333 0.036058 1.097753
v 1.339956 0.043063 1.072776
v 1.345798 0.044159 1.069533
v 1.348458 0.035878 1.093853
v 1.364161 0.042065 1.084788
v 1.322384 0.003360 1.126000
v 1.317785 0.011986 1.123120
v 1.323627 0.001984 1.119682
v 1.322896 -0.001382 1.125670
v 1.315645 0.004357 1.132396
v 1.304925 0.005370 1.129046
v 1.307312 0.011656 1.126346
v 1.320790 -0.004723 1.122780
v 1.316640 -0.000533 1.131918
v 1.324356 -0.000216 1.106329
v 1.321399 -0.005122 1.105622
v 1.297573 0.016925 1.091365
v 1.300931 -0.005122 1.094074
v 1.373333 0.013375 1.103206
v 1.356172 0.013912 1.100002
v 1.418681 0.025275 1.100920
v 1.422749 0.034334 1.093100
v 1.422719 0.013787 1.107128
v 1.429104 0.022889 1.105524
v 1.431454 0.034334 1.070724
v 1.433867 0.028371 1.064646
v 1.445287 0.022889 1.094697
v 1.433867 -0.000912 1.064646
v 1.432077 -0.005122 1.069217
v 1.448779 -0.000912 1.091461
v 1.421323 -0.005122 1.095818
v 1.417828 -0.000216 1.100692
v 1.436583 -0.004723 1.130337
v 1.401393 0.037333 1.086588
v 1.399885 0.045502 1.081908
v 1.393448 0.028613 1.096110
v 1.398365 0.028885 1.094374
v 1.406327 0.047410 1.059924
v 1.410356 0.037377 1.062347
v 1.412420 0.031810 1.056641
v 1.408504 0.041463 1.053803
v 1.408504 -0.000912 1.053803
v 1.412427 -0.000387 1.056637
v 1.410874 -0.004336 1.060936
v 1.406865 -0.005122 1.058411
v 1.400288 0.000219 1.094784
v 1.394768 -0.000050 1.096845
v 1.394816 -0.005122 1.092830
v 1.400306 -0.004336 1.089358
v 1.385555 0.039128 1.092872
v 1.401603 0.035770 1.055205
v 1.378800 0.039058 1.093432
v 1.401198 0.044398 1.060596
v 1.401304 0.040788 1.057669
v 1.396869 0.041249 1.085253
v 1.404933 0.039062 1.086804
v 1.398873 0.042195 1.083662
v 1.409935 0.040285 1.065341
v 1.409188 0.040327 1.077001
v 1.407802 0.041887 1.065013
v 1.411750 0.035371 1.063045
v 1.411242 0.034704 1.074087
v 1.406299 0.032261 1.087374
v 1.390058 0.030885 1.092745
v 1.399739 0.030412 1.091277
v 1.394236 0.040627 1.085620
v 1.403846 0.042585 1.078580
v 1.401177 0.037275 1.091745
v 1.398205 0.043892 1.080193
v 1.390059 0.034805 1.095556
v 1.406711 0.043063 1.072776
v 1.400869 0.044159 1.069533
v 1.398209 0.035878 1.093853
v 1.382506 0.042065 1.084788
v 1.424283 0.003360 1.126000
v 1.428882 0.011986 1.123120
v 1.423039 0.001984 1.119682
v 1.423771 -0.001382 1.125670
v 1.431022 0.004357 1.132396
v 1.441742 0.005370 1.129046
v 1.439355 0.011656 1.126346
v 1.425877 -0.004723 1.122780
v 1.430026 -0.000533 1.131918
v 1.422311 -0.000216 1.106329
v 1.425268 -0.005122 1.105622
v 1.449094 0.016925 1.091365
v 1.445736 -0.005122 1.094074
v 1.390495 0.013912 1.100002
vn 0.2293 0.5490 0.8037
vn -0.7962 0.5717 -0.1983
vn -0.4130 0.8565 0.3096
vn -0.6456 -0.6751 -0.3570
vn -0.8708 -0.0068 -0.4917
vn 0.6689 -0.6475 0.3651
vn 0.8069 0.0104 0.5906
vn -0.0000 -1.0000 -0.0000
vn 0.8004 0.4776 0.3623
vn -0.1309 0.8980 0.4200
vn 0.9984 0.0263 0.0502
vn 0.8984 -0.4325 0.0762
vn -0.8571 0.4178 0.3015
vn -0.9614 -0.1780 0.2098
vn -0.0020 -0.9999 0.0153
vn -0.8504 -0.4780 0.2199
vn -0.3217 0.5492 0.7713
vn -0.9294 0.3683 -0.0253
vn -0.8708 0.3845 0.3065
vn -0.4611 -0.7305 -0.5038
vn -0.5863 0.0001 -0.8101
vn -0.3923 -0.6427 0.6581
vn -0.1690 -0.9837 0.0608
vn -0.3522 -0.1025 0.9303
vn -0.1024 0.6662 0.7387
vn -0.0593 0.9945 0.0864
vn 0.1160 0.6867 0.7176
vn -0.1242 0.9911 0.0480
vn -0.1933 -0.1507 0.9695
vn 0.3128 -0.0030 0.9498
vn -0.1332 0.7321 -0.6680
vn -0.3386 0.7336 -0.5892
vn -0.3498 0.0001 -0.9368
vn -0.1135 -0.0175 -0.9934
vn -0.0601 -0.7513 -0.6572
vn -0.2124 -0.7578 -0.6170
vn 0.0328 -0.9994 -0.0127
vn 0.2220 -0.7547 0.6174
vn -0.0894 -0.7432 0.6630
vn -0.7428 0.2028 0.6380
vn -0.5462 0.6096 -0.5745
vn -0.1003 0.7946 0.5988
vn -0.9464 0.3173 0.0611
vn -0.5818 0.4489 -0.6783
vn -0.9045 0.1758 0.3886
vn -0.4440 0.8482 0.2890
vn -0.0619 0.5722 0.8178
vn -0.5670 -0.1738 0.8051
vn -0.1699 -0.4696 0.8664
vn -0.3087 0.8765 0.3694
vn -0.3332 0.9421 0.0374
vn -0.2482 0.9649 0.0862
vn -0.3576 0.7323 0.5795
vn -0.1432 0.7188 0.6803
vn -0.2430 0.9636 -0.1118
vn -0.1912 0.6762 0.7114
vn 0.0087 0.8643 0.5029
vn 0.0390 0.8573 0.5134
vn -0.0181 0.9419 0.3354
vn -0.1098 0.9847 0.1352
vn -0.1224 -0.4573 0.8809
vn -0.0942 0.9466 0.3084
vn -0.1422 0.9190 0.3678
vn -0.1557 0.8851 0.4385
vn 0.1121 0.8127 0.5719
vn -0.6034 0.5129 -0.6107
vn -0.1311 0.9175 0.3754
vn -0.5966 0.8018 0.0354
vn -0.2832 0.8946 0.3458
vn -0.4456 0.8427 0.3021
vn -0.7397 0.6729 0.0021
vn 0.9228 0.3720 0.1006
vn -0.2261 0.4556 0.8610
vn 0.3826 0.6684 0.6379
vn 0.8875 -0.4395 -0.1387
vn -0.2644 -0.0564 0.9628
vn 0.3885 -0.7579 0.5240
vn 0.7001 0.0498 0.7123
vn -0.3183 0.1824 0.9303
vn -0.1663 0.2272 0.9595
vn -0.5202 0.0471 0.8528
vn -0.2293 0.5490 0.8037
vn 0.7962 0.5717 -0.1983
vn 0.4130 0.8565 0.3096
vn 0.6456 -0.6751 -0.3570
vn 0.8708 -0.0068 -0.4917
vn -0.6689 -0.6475 0.3651
vn -0.8069 0.0104 0.5906
vn -0.8004 0.4776 0.3623
vn 0.1309 0.8980 0.4200
vn -0.9984 0.0263 0.0502
vn -0.8984 -0.4325 0.0762
vn 0.8571 0.4178 0.3015
vn 0.9614 -0.1780 0.2098
vn 0.0020 -0.9999 0.0153
vn 0.8504 -0.4780 0.2199
vn 0.3217 0.5492 0.7713
vn 0.9294 0.3683 -0.0253
vn 0.8708 0.3845 0.3065
vn 0.4611 -0.7305 -0.5038
vn 0.5863 0.0001 -0.8101
vn 0.3923 -0.6427 0.6581
vn 0.1690 -0.9837 0.0608
vn 0.3522 -0.1025 0.9303
vn 0.1024 0.6662 0.7387
vn 0.0593 0.9945 0.0864
vn -0.1160 0.6867 0.7176
vn 0.1242 0.9911 0.0480
vn 0.1933 -0.1507 0.9695
vn -0.3128 -0.0030 0.9498
vn 0.1332 0.7321 -0.6680
vn 0.3386 0.7336 -0.5892
vn 0.3498 0.0001 -0.9368
vn 0.1135 -0.0175 -0.9934
vn 0.0601 -0.7513 -0.6572
vn 0.2124 -0.7578 -0.6170
vn -0.0328 -0.9994 -0.0127
vn -0.2220 -0.7547 0.6174
vn 0.0894 -0.7432 0.6630
vn 0.7428 0.2028 0.6380
vn 0.5462 0.6096 -0.5745
vn 0.1003 0.7946 0.5988
vn 0.9464 0.3173 0.0611
vn 0.5818 0.4489 -0.6783
vn 0.9045 0.1758 0.3886
vn 0.4440 0.8482 0.2890
vn 0.0619 0.5722 0.8178
vn 0.5670 -0.1738 0.8051
vn 0.1699 -0.4696 0.8664
vn 0.3087 0.8765 0.3694
vn 0.3332 0.9421 0.0374
vn 0.2482 0.9649 0.0862
vn 0.3576 0.7323 0.5795
vn 0.1432 0.7188 0.6803
vn 0.2430 0.9636 -0.1118
vn 0.1912 0.6762 0.7114
vn -0.0087 0.8643 0.5029
vn -0.0390 0.8573 0.5134
vn 0.0181 0.9419 0.3354
vn 0.1098 0.9847 0.1352
vn 0.1224 -0.4573 0.8809
vn 0.0942 0.9466 0.3084
vn 0.1422 0.9190 0.3678
vn 0.1557 0.8851 0.4385
vn -0.1121 0.8127 0.5719
vn 0.6034 0.5129 -0.6107
vn 0.1311 0.9175 0.3754
vn 0.5966 0.8018 0.0354
vn 0.2832 0.8946 0.3458
vn 0.4456 0.8427 0.3021
vn 0.7397 0.6729 0.0021
vn -0.9228 0.3720 0.1006
vn 0.2261 0.4556 0.8610
vn -0.3826 0.6684 0.6379
vn -0.8875 -0.4395 -0.1387
vn 0.2644 -0.0564 0.9628
vn -0.3885 -0.7579 0.5240
vn -0.7001 0.0498 0.7123
vn 0.3183 0.1824 0.9303
vn 0.1663 0.2272 0.9595
vn 0.5202 0.0471 0.8528
vt 0.541667 0.878333
vt 0.541667 0.876010
vt 0.541667 0.875954
vt 0.541667 0.878333
vt 0.541667 0.869966
vt 0.541667 0.868333
vt 0.541667 0.869947
vt 0.541667 0.869500
vt 0.541667 0.868333
vt 0.541667 0.868333
vt 0.541667 0.869561
vt 0.541667 0.878333
vt 0.541667 0.877060
vt 0.541667 0.876856
vt 0.541667 0.878334
vt 0.541667 0.875426
vt 0.541667 0.878473
vt 0.541667 0.870196
vt 0.541667 0.876873
vt 0.541667 0.868333
vt 0.541667 0.868457
vt 0.541667 0.869653
vt 0.541147 0.876272
vt 0.541667 0.876225
vt 0.541667 0.878333
vt 0.541113 0.878333
vt 0.541667 0.869831
vt 0.541164 0.869853
vt 0.541136 0.868333
vt 0.541154 0.868364
vt 0.541132 0.869517
vt 0.541667 0.869461
vt 0.541419 0.878248
vt 0.541688 0.878339
vt 0.541667 0.876999
vt 0.541119 0.876980
vt 0.540607 0.878324
vt 0.536667 0.878333
vt 0.536667 0.876347
vt 0.536667 0.869752
vt 0.536667 0.878333
vt 0.536667 0.868333
vt 0.536667 0.869401
vt 0.536667 0.877079
vt 0.620160 0.958593
vt 0.620160 0.958593
vt 0.619601 0.959318
vt 0.618390 0.953918
vt 0.620114 0.954056
vt 0.620089 0.954054
vt 0.619664 0.959237
vt 0.619910 0.958984
vt 0.620114 0.954056
vt 0.620308 0.954330
vt 0.620368 0.954872
vt 0.618390 0.953918
vt 0.620003 0.955689
vt 0.620031 0.956771
vt 0.620269 0.955453
vt 0.620061 0.956269
vt 0.619333 0.953982
vt 0.619252 0.953987
vt 0.620205 0.954144
vt 0.619723 0.958002
vt 0.619184 0.956620
vt 0.619233 0.953985
vt 0.619189 0.957990
vt 0.620011 0.953960
vt 0.619967 0.955370
vt 0.619086 0.953961
vt 0.620197 0.954230
vt 0.620305 0.954407
vt 0.541667 0.876109
vt 0.541667 0.874914
vt 0.541667 0.869862
vt 0.541667 0.870921
vt 0.541667 0.870143
s 0
usemtl palette1
f 1/1/1 2/2/1 6/3/1 5/4/1
f 7/5/2 8/6/2 78/6/2 11/7/2
f 7/5/3 11/7/3 6/3/3 2/2/3
f 79/8/4 16/9/4 12/10/4 13/11/4
f 12/10/5 16/9/5 78/6/5 8/6/5
f 76/12/6 77/13/6 17/14/6 18/15/6
f 1/1/7 5/4/7 76/12/7 18/15/7
f 17/14/8 77/13/8 79/8/8 13/11/8
f 5/4/9 6/3/9 68/16/9 69/17/9
f 11/7/10 73/18/10 68/16/10 6/3/10
f 5/4/11 69/17/11 76/12/11
f 69/17/12 74/19/12 77/13/12 76/12/12
f 11/7/13 78/6/13 72/20/13 73/18/13
f 16/9/14 21/21/14 72/20/14 78/6/14
f 77/13/15 74/19/15 21/22/15 79/8/15
f 21/22/16 16/9/16 79/8/16
f 23/23/17 22/24/17 25/25/17 24/26/17
f 27/27/18 26/28/18 29/29/18 28/6/18
f 26/28/19 27/27/19 22/24/19 23/23/19
f 31/9/20 30/30/20 33/31/20 32/32/20
f 30/30/21 31/9/21 28/6/21 29/29/21
f 35/33/22 34/34/22 37/35/22 36/36/22
f 36/36/23 37/35/23 32/32/23 33/31/23
f 34/34/24 35/33/24 81/37/24
f 23/23/25 24/26/25 3/38/25 4/39/25
f 9/40/26 26/28/26 23/23/26 4/39/26
f 25/25/27 22/24/27 2/2/27 1/1/27
f 27/27/28 7/5/28 2/2/28 22/24/28
f 20/41/29 80/41/29 81/37/29 35/33/29
f 25/25/30 1/1/30 18/15/30 34/34/30
f 9/40/31 10/42/31 29/29/31 26/28/31
f 27/27/32 28/6/32 8/6/32 7/5/32
f 31/9/33 12/10/33 8/6/33 28/6/33
f 30/30/34 29/29/34 10/42/34 14/42/34
f 14/42/35 15/43/35 33/31/35 30/30/35
f 13/11/36 12/10/36 31/9/36 32/32/36
f 37/35/37 17/14/37 13/11/37 32/32/37
f 15/43/8 19/44/8 36/36/8 33/31/8
f 18/15/38 17/14/38 37/35/38 34/34/38
f 35/33/39 36/36/39 19/44/39 20/41/39
f 45/45/40 53/46/40 59/47/40
f 43/48/41 48/49/41 50/50/41
f 45/45/42 44/51/42 47/52/42
f 51/53/43 52/54/43 49/55/43 48/49/43
f 43/48/44 40/56/44 51/53/44 48/49/44
f 49/55/45 52/54/45 53/46/45 45/45/45
f 63/57/46 49/55/46 58/58/46
f 38/59/47 61/55/47 41/60/47
f 59/61/48 53/62/48 56/53/48 65/63/48
f 56/53/49 54/54/49 61/55/49 65/63/49
f 60/64/50 58/58/50 47/52/50
f 50/50/51 64/65/51 42/66/51
f 60/67/52 64/65/52 58/58/52
f 61/55/53 38/59/53 57/68/53
f 62/45/54 41/60/54 61/55/54
f 50/50/55 63/57/55 64/65/55
f 46/52/56 41/60/56 62/45/56
f 61/55/57 57/68/57 65/63/57
f 59/61/58 65/63/58 57/68/58
f 66/65/59 38/69/59 41/60/59
f 64/65/60 63/57/60 58/58/60
f 61/55/61 54/54/61 55/46/61 62/45/61
f 57/68/62 38/69/62 66/65/62
f 39/64/63 41/60/63 46/52/63
f 45/45/64 59/47/64 44/51/64
f 44/70/65 59/61/65 57/68/65
f 43/48/66 50/50/66 42/66/66
f 39/67/67 66/65/67 41/60/67
f 49/55/68 50/71/68 48/49/68
f 47/52/69 58/58/69 45/45/69
f 45/45/70 58/58/70 49/55/70
f 49/55/71 63/57/71 50/72/71
f 70/73/72 69/17/72 68/16/72 67/74/72
f 71/75/73 73/18/73 72/20/73
f 67/74/74 68/16/74 73/18/74 71/76/74
f 70/73/75 74/19/75 69/17/75
f 71/75/76 72/20/76 21/21/76 75/77/76
f 75/77/77 21/21/77 74/19/77 70/73/77
f 70/73/78 67/74/78 71/76/78 75/77/78
f 81/37/79 24/26/79 25/25/79
f 81/37/80 80/41/80 3/38/80 24/26/80
f 25/25/81 34/34/81 81/37/81
f 82/1/82 84/4/82 85/3/82 83/2/82
f 86/5/83 88/7/83 147/6/83 87/6/83
f 86/5/84 83/2/84 85/3/84 88/7/84
f 148/8/85 90/11/85 89/10/85 91/9/85
f 89/10/86 87/6/86 147/6/86 91/9/86
f 145/12/87 93/15/87 92/14/87 146/13/87
f 82/1/88 93/15/88 145/12/88 84/4/88
f 92/14/8 90/11/8 148/8/8 146/13/8
f 84/4/89 138/17/89 137/16/89 85/3/89
f 88/7/90 85/3/90 137/16/90 142/18/90
f 84/4/91 145/12/91 138/17/91
f 138/17/92 145/12/92 146/13/92 143/19/92
f 88/7/93 142/18/93 141/20/93 147/6/93
f 91/9/94 147/6/94 141/20/94 94/21/94
f 146/13/95 148/8/95 94/22/95 143/19/95
f 94/22/96 148/8/96 91/9/96
f 96/23/97 97/26/97 98/25/97 95/24/97
f 100/27/98 101/6/98 102/29/98 99/28/98
f 99/28/99 96/23/99 95/24/99 100/27/99
f 104/9/100 105/32/100 106/31/100 103/30/100
f 103/30/101 102/29/101 101/6/101 104/9/101
f 108/33/102 109/36/102 110/35/102 107/34/102
f 109/36/103 106/31/103 105/32/103 110/35/103
f 107/34/104 149/37/104 108/33/104
f 96/23/105 4/39/105 3/38/105 97/26/105
f 9/40/106 4/39/106 96/23/106 99/28/106
f 98/25/107 82/1/107 83/2/107 95/24/107
f 100/27/108 95/24/108 83/2/108 86/5/108
f 20/41/109 108/33/109 149/37/109 80/41/109
f 98/25/110 107/34/110 93/15/110 82/1/110
f 9/40/111 99/28/111 102/29/111 10/42/111
f 100/27/112 86/5/112 87/6/112 101/6/112
f 104/9/113 101/6/113 87/6/113 89/10/113
f 103/30/114 14/42/114 10/42/114 102/29/114
f 14/42/115 103/30/115 106/31/115 15/43/115
f 90/11/116 105/32/116 104/9/116 89/10/116
f 110/35/117 105/32/117 90/11/117 92/14/117
f 15/43/8 106/31/8 109/36/8 19/44/8
f 93/15/118 107/34/118 110/35/118 92/14/118
f 108/33/119 20/41/119 19/44/119 109/36/119
f 117/45/120 129/47/120 124/46/120
f 115/48/121 121/50/121 119/49/121
f 117/45/122 118/52/122 116/51/122
f 122/53/123 119/49/123 120/55/123 123/54/123
f 115/48/124 119/49/124 122/53/124 112/56/124
f 120/55/125 117/45/125 124/46/125 123/54/125
f 132/57/126 128/58/126 120/55/126
f 111/59/127 113/60/127 131/55/127
f 129/61/128 134/63/128 126/53/128 124/62/128
f 126/53/129 134/63/129 131/55/129 125/54/129
f 130/64/130 118/52/130 128/58/130
f 121/50/131 114/66/131 133/65/131
f 130/67/132 128/58/132 133/65/132
f 131/55/133 127/68/133 111/59/133
f 62/45/134 131/55/134 113/60/134
f 121/50/135 133/65/135 132/57/135
f 46/52/136 62/45/136 113/60/136
f 131/55/137 134/63/137 127/68/137
f 129/61/138 127/68/138 134/63/138
f 135/65/139 113/60/139 111/69/139
f 133/65/140 128/58/140 132/57/140
f 131/55/141 62/45/141 55/46/141 125/54/141
f 127/68/142 135/65/142 111/69/142
f 39/64/143 46/52/143 113/60/143
f 117/45/144 116/51/144 129/47/144
f 116/70/145 127/68/145 129/61/145
f 115/48/146 114/66/146 121/50/146
f 39/67/147 113/60/147 135/65/147
f 120/55/148 119/49/148 121/71/148
f 118/52/149 117/45/149 128/58/149
f 117/45/150 120/55/150 128/58/150
f 120/55/151 121/72/151 132/57/151
f 139/73/152 136/74/152 137/16/152 138/17/152
f 140/75/153 141/20/153 142/18/153
f 136/74/154 140/76/154 142/18/154 137/16/154
f 139/73/155 138/17/155 143/19/155
f 140/75/156 144/77/156 94/21/156 141/20/156
f 144/77/157 139/73/157 143/19/157 94/21/157
f 139/73/158 144/77/158 140/76/158 136/74/158
f 149/37/159 98/25/159 97/26/159
f 149/37/160 97/26/160 3/38/160 80/41/160
f 98/25/161 149/37/161 107/34/161
