# Blender 4.5.2 LTS
# www.blender.org
mtllib croissant_1.mtl
o croissant_1
v 1.320946 0.025275 0.897705
v 1.318999 0.034334 0.888607
v 1.373333 0.040437 0.897636
v 1.373333 0.049381 0.887078
v 1.314325 0.013787 0.912910
v 1.309613 0.022889 0.906771
v 1.313932 0.034334 0.864937
v 1.312563 0.028371 0.858542
v 1.373333 0.049381 0.855469
v 1.373333 0.043445 0.849000
v 1.297716 0.022889 0.891271
v 1.294520 0.016925 0.887107
v 1.312563 -0.000912 0.858542
v 1.313592 -0.005122 0.863351
v 1.373333 -0.000912 0.850532
v 1.373333 -0.005122 0.855401
v 1.294520 -0.000912 0.887107
v 1.296831 -0.005122 0.890117
v 1.319708 -0.005122 0.891920
v 1.320946 -0.000216 0.897705
v 1.373333 -0.005122 0.893869
v 1.373333 -0.000216 0.901092
v 1.311803 -0.005122 0.909623
v 1.314325 -0.000216 0.912910
v 1.308717 0.004136 0.934421
v 1.307609 0.012454 0.926599
v 1.313035 0.001933 0.931070
v 1.301487 0.002916 0.932082
v 1.295094 0.005494 0.921676
v 1.298171 0.012107 0.921739
v 1.303182 -0.002159 0.933263
v 1.297800 -0.005122 0.925076
v 1.310208 -0.000896 0.935532
v 1.310504 -0.005122 0.930458
v 1.344201 0.044732 0.885243
v 1.348636 0.047414 0.886065
v 1.349241 0.038441 0.895180
v 1.344821 0.036284 0.893802
v 1.346785 0.047410 0.857972
v 1.342294 0.044776 0.859273
v 1.341848 0.039209 0.853189
v 1.346355 0.041463 0.851490
v 1.346355 -0.000912 0.851490
v 1.341847 -0.000387 0.853189
v 1.342182 -0.004336 0.857770
v 1.346679 -0.005122 0.856371
v 1.344814 0.000266 0.893803
v 1.349241 -0.000216 0.898636
v 1.348859 -0.005122 0.892871
v 1.344414 -0.004336 0.888389
v 1.425721 0.025275 0.897705
v 1.427668 0.034334 0.888607
v 1.432342 0.013787 0.912910
v 1.437053 0.022889 0.906771
v 1.432735 0.034334 0.864937
v 1.434104 0.028371 0.858542
v 1.448951 0.022889 0.891271
v 1.452147 0.016925 0.887107
v 1.434104 -0.000912 0.858542
v 1.433075 -0.005122 0.863351
v 1.452147 -0.000912 0.887107
v 1.449836 -0.005122 0.890117
v 1.426959 -0.005122 0.891920
v 1.425721 -0.000216 0.897705
v 1.434864 -0.005122 0.909623
v 1.432342 -0.000216 0.912910
v 1.437950 0.004136 0.934421
v 1.439058 0.012454 0.926599
v 1.433632 0.001933 0.931070
v 1.445179 0.002916 0.932082
v 1.451573 0.005494 0.921676
v 1.448496 0.012107 0.921739
v 1.443484 -0.002159 0.933263
v 1.448866 -0.005122 0.925076
v 1.436459 -0.000896 0.935532
v 1.436163 -0.005122 0.930458
v 1.402466 0.044732 0.885243
v 1.398031 0.047414 0.886065
v 1.397426 0.038441 0.895180
v 1.401845 0.036284 0.893802
v 1.399882 0.047410 0.857972
v 1.404373 0.044776 0.859273
v 1.404819 0.039209 0.853189
v 1.400312 0.041463 0.851490
v 1.400312 -0.000912 0.851490
v 1.404820 -0.000387 0.853189
v 1.404485 -0.004336 0.857770
v 1.399988 -0.005122 0.856371
v 1.401853 0.000266 0.893803
v 1.397426 -0.000216 0.898636
v 1.397808 -0.005122 0.892871
v 1.402253 -0.004336 0.888389
vn 0.3705 0.6729 0.6402
vn -0.7952 0.5431 -0.2697
vn -0.4459 0.8740 0.1931
vn -0.6513 -0.6388 -0.4097
vn -0.8455 -0.0000 -0.5340
vn 0.7411 -0.5864 0.3271
vn 0.9169 -0.0000 0.3992
vn -0.0000 -1.0000 -0.0000
vn 0.6760 0.4962 0.5449
vn -0.7581 0.3475 0.5519
vn -0.3578 0.6273 0.6917
vn 0.8765 -0.3436 0.3372
vn -0.8414 -0.0800 0.5345
vn -0.1452 -0.8454 0.5140
vn -0.3232 0.1113 0.9398
vn 0.7059 0.5825 0.4030
vn -0.3524 0.8661 0.3545
vn 0.9975 -0.0000 0.0709
vn 0.9080 -0.4106 0.0829
vn -0.9039 0.4001 0.1510
vn -0.9953 -0.0907 0.0333
vn -0.8837 -0.4675 0.0245
vn -0.4871 0.6048 0.6300
vn -0.5326 0.6422 -0.5513
vn -0.5100 0.8594 0.0361
vn -0.3151 -0.7295 -0.6071
vn -0.3527 -0.0000 -0.9357
vn -0.6337 -0.5668 0.5264
vn -0.1772 -0.9841 0.0116
vn -0.5790 0.0378 0.8145
vn -0.1073 0.7334 0.6712
vn -0.0765 0.9971 0.0023
vn -0.1933 0.6825 0.7049
vn -0.3547 0.9336 0.0507
vn -0.1045 0.0863 0.9908
vn 0.1613 -0.0000 0.9869
vn -0.1166 0.7337 -0.6694
vn -0.3755 0.7073 -0.5989
vn -0.1798 -0.0000 -0.9837
vn -0.0631 -0.0176 -0.9979
vn -0.0235 -0.7570 -0.6530
vn -0.1044 -0.7582 -0.6436
vn 0.0288 -0.9996 -0.0041
vn 0.1168 -0.7654 0.6328
vn -0.0429 -0.7965 0.6031
vn -0.3705 0.6729 0.6402
vn 0.7952 0.5431 -0.2697
vn 0.4459 0.8740 0.1931
vn 0.6513 -0.6388 -0.4097
vn 0.8455 -0.0000 -0.5340
vn -0.7411 -0.5864 0.3271
vn -0.9169 -0.0000 0.3992
vn -0.6760 0.4962 0.5449
vn 0.7581 0.3475 0.5519
vn 0.3578 0.6273 0.6917
vn -0.8765 -0.3436 0.3372
vn 0.8414 -0.0800 0.5345
vn 0.1452 -0.8454 0.5140
vn 0.3232 0.1113 0.9398
vn -0.7059 0.5825 0.4030
vn 0.3524 0.8661 0.3545
vn -0.9975 -0.0000 0.0709
vn -0.9080 -0.4106 0.0829
vn 0.9039 0.4001 0.1510
vn 0.9953 -0.0907 0.0333
vn 0.8837 -0.4675 0.0245
vn 0.4871 0.6048 0.6300
vn 0.5326 0.6422 -0.5513
vn 0.5100 0.8594 0.0361
vn 0.3151 -0.7295 -0.6071
vn 0.3527 -0.0000 -0.9357
vn 0.6337 -0.5668 0.5264
vn 0.1772 -0.9841 0.0116
vn 0.5790 0.0378 0.8145
vn 0.1073 0.7334 0.6712
vn 0.0765 0.9971 0.0023
vn 0.1933 0.6825 0.7049
vn 0.3547 0.9336 0.0507
vn 0.1045 0.0863 0.9908
vn -0.1613 -0.0000 0.9869
vn 0.1166 0.7337 -0.6694
vn 0.3755 0.7073 -0.5989
vn 0.1798 -0.0000 -0.9837
vn 0.0631 -0.0176 -0.9979
vn 0.0235 -0.7570 -0.6530
vn 0.1044 -0.7582 -0.6436
vn -0.0288 -0.9996 -0.0041
vn -0.1168 -0.7654 0.6328
vn 0.0429 -0.7965 0.6031
vt 0.541667 0.878333
vt 0.541667 0.876010
vt 0.541667 0.875954
vt 0.541667 0.878333
vt 0.541667 0.869966
vt 0.541667 0.868333
vt 0.541667 0.869947
vt 0.541667 0.869500
vt 0.541667 0.868333
vt 0.541667 0.868333
vt 0.541667 0.869561
vt 0.541667 0.878333
vt 0.541667 0.877060
vt 0.541667 0.876856
vt 0.541667 0.878334
vt 0.541667 0.876109
vt 0.541667 0.878473
vt 0.541667 0.875426
vt 0.541667 0.874914
vt 0.541667 0.869862
vt 0.541667 0.870196
vt 0.541667 0.868333
vt 0.541667 0.870921
vt 0.541667 0.876873
vt 0.541667 0.868457
vt 0.541667 0.870143
vt 0.541667 0.869653
vt 0.541147 0.876272
vt 0.541667 0.876225
vt 0.541667 0.878333
vt 0.541113 0.878333
vt 0.541667 0.869831
vt 0.541164 0.869853
vt 0.541136 0.868333
vt 0.541154 0.868364
vt 0.541132 0.869517
vt 0.541667 0.869461
vt 0.541162 0.878320
vt 0.541667 0.876999
vt 0.541119 0.876980
vt 0.536667 0.878333
vt 0.536667 0.876347
vt 0.536667 0.869752
vt 0.536667 0.878333
vt 0.536667 0.868333
vt 0.536667 0.869401
vt 0.536667 0.877079
s 0
usemtl palette1
f 1/1/1 2/2/1 6/3/1 5/4/1
f 7/5/2 8/6/2 12/6/2 11/7/2
f 7/5/3 11/7/3 6/3/3 2/2/3
f 18/8/4 17/9/4 13/10/4 14/11/4
f 13/10/5 17/9/5 12/6/5 8/6/5
f 24/12/6 23/13/6 19/14/6 20/15/6
f 1/1/7 5/4/7 24/12/7 20/15/7
f 19/14/8 23/13/8 18/8/8 14/11/8
f 33/16/9 27/17/9 26/18/9 25/19/9
f 28/20/10 30/21/10 29/22/10
f 25/19/11 26/18/11 30/21/11 28/23/11
f 33/16/12 34/24/12 27/17/12
f 28/20/13 29/22/13 32/25/13 31/26/13
f 31/26/14 32/25/14 34/24/14 33/16/14
f 33/16/15 25/19/15 28/23/15 31/26/15
f 5/4/16 6/3/16 26/18/16 27/17/16
f 11/7/17 30/21/17 26/18/17 6/3/17
f 5/4/18 27/17/18 24/12/18
f 27/17/19 34/24/19 23/13/19 24/12/19
f 11/7/20 12/6/20 29/22/20 30/21/20
f 17/9/21 32/25/21 29/22/21 12/6/21
f 23/13/8 34/24/8 32/27/8 18/8/8
f 32/27/22 17/9/22 18/8/22
f 36/28/23 35/29/23 38/30/23 37/31/23
f 40/32/24 39/33/24 42/34/24 41/6/24
f 39/33/25 40/32/25 35/29/25 36/28/25
f 44/9/26 43/35/26 46/36/26 45/37/26
f 43/35/27 44/9/27 41/6/27 42/34/27
f 48/38/28 47/12/28 50/39/28 49/40/28
f 49/40/29 50/39/29 45/37/29 46/36/29
f 37/31/30 38/30/30 47/12/30 48/38/30
f 36/28/31 37/31/31 3/41/31 4/42/31
f 9/43/32 39/33/32 36/28/32 4/42/32
f 38/30/33 35/29/33 2/2/33 1/1/33
f 40/32/34 7/5/34 2/2/34 35/29/34
f 22/44/35 3/41/35 37/31/35 48/38/35
f 38/30/36 1/1/36 20/15/36 47/12/36
f 9/43/37 10/45/37 42/34/37 39/33/37
f 40/32/38 41/6/38 8/6/38 7/5/38
f 44/9/39 13/10/39 8/6/39 41/6/39
f 43/35/40 42/34/40 10/45/40 15/45/40
f 15/45/41 16/46/41 46/36/41 43/35/41
f 14/11/42 13/10/42 44/9/42 45/37/42
f 50/39/43 19/14/43 14/11/43 45/37/43
f 16/46/8 21/47/8 49/40/8 46/36/8
f 20/15/44 19/14/44 50/39/44 47/12/44
f 48/38/45 49/40/45 21/47/45 22/44/45
f 51/1/46 53/4/46 54/3/46 52/2/46
f 55/5/47 57/7/47 58/6/47 56/6/47
f 55/5/48 52/2/48 54/3/48 57/7/48
f 62/8/49 60/11/49 59/10/49 61/9/49
f 59/10/50 56/6/50 58/6/50 61/9/50
f 66/12/51 64/15/51 63/14/51 65/13/51
f 51/1/52 64/15/52 66/12/52 53/4/52
f 63/14/8 60/11/8 62/8/8 65/13/8
f 75/16/53 67/19/53 68/18/53 69/17/53
f 70/20/54 71/22/54 72/21/54
f 67/19/55 70/23/55 72/21/55 68/18/55
f 75/16/56 69/17/56 76/24/56
f 70/20/57 73/26/57 74/25/57 71/22/57
f 73/26/58 75/16/58 76/24/58 74/25/58
f 75/16/59 73/26/59 70/23/59 67/19/59
f 53/4/60 69/17/60 68/18/60 54/3/60
f 57/7/61 54/3/61 68/18/61 72/21/61
f 53/4/62 66/12/62 69/17/62
f 69/17/63 66/12/63 65/13/63 76/24/63
f 57/7/64 72/21/64 71/22/64 58/6/64
f 61/9/65 58/6/65 71/22/65 74/25/65
f 65/13/8 62/8/8 74/27/8 76/24/8
f 74/27/66 62/8/66 61/9/66
f 78/28/67 79/31/67 80/30/67 77/29/67
f 82/32/68 83/6/68 84/34/68 81/33/68
f 81/33/69 78/28/69 77/29/69 82/32/69
f 86/9/70 87/37/70 88/36/70 85/35/70
f 85/35/71 84/34/71 83/6/71 86/9/71
f 90/38/72 91/40/72 92/39/72 89/12/72
f 91/40/73 88/36/73 87/37/73 92/39/73
f 79/31/74 90/38/74 89/12/74 80/30/74
f 78/28/75 4/42/75 3/41/75 79/31/75
f 9/43/76 4/42/76 78/28/76 81/33/76
f 80/30/77 51/1/77 52/2/77 77/29/77
f 82/32/78 77/29/78 52/2/78 55/5/78
f 22/44/79 90/38/79 79/31/79 3/41/79
f 80/30/80 89/12/80 64/15/80 51/1/80
f 9/43/81 81/33/81 84/34/81 10/45/81
f 82/32/82 55/5/82 56/6/82 83/6/82
f 86/9/83 83/6/83 56/6/83 59/10/83
f 85/35/84 15/45/84 10/45/84 84/34/84
f 15/45/85 85/35/85 88/36/85 16/46/85
f 60/11/86 87/37/86 86/9/86 59/10/86
f 92/39/87 87/37/87 60/11/87 63/14/87
f 16/46/8 88/36/8 91/40/8 21/47/8
f 64/15/88 89/12/88 92/39/88 63/14/88
f 90/38/89 22/44/89 21/47/89 91/40/89
