# Blender 4.5.2 LTS
# www.blender.org
mtllib custard_danish.mtl
o custard_danish
v 1.173333 0.000000 1.032882
v 1.173333 0.000000 1.113770
v 1.115532 0.000000 1.041694
v 1.124344 0.000000 1.032882
v 1.126539 0.000000 1.111217
v 1.117727 0.000000 1.102405
v 1.173333 0.044542 1.103912
v 1.173333 0.041243 1.115358
v 1.173333 0.041243 1.031294
v 1.173333 0.044542 1.042740
v 1.173333 0.049086 1.045900
v 1.112799 0.041243 1.103547
v 1.125498 0.044542 1.100846
v 1.121957 0.041243 1.112705
v 1.123038 0.044542 1.042740
v 1.119675 0.041243 1.031293
v 1.173333 0.048458 1.102189
v 1.110517 0.041243 1.040452
v 1.124489 0.046927 1.106609
v 1.118660 0.046927 1.100780
v 1.116200 0.046927 1.042806
v 1.122029 0.046927 1.036977
v 1.173333 0.046927 1.036977
v 1.173333 0.046927 1.109675
v 1.173333 0.051317 1.051004
v 1.152333 0.038565 1.040812
v 1.173333 0.038565 1.105946
v 1.153618 0.051317 1.050811
v 1.151207 0.048458 1.044827
v 1.173333 0.038565 1.041981
v 1.130425 0.048458 1.101151
v 1.123202 0.048458 1.093928
v 1.121185 0.038565 1.093853
v 1.130425 0.038565 1.101151
v 1.173333 0.051317 1.095991
v 1.128734 0.051317 1.089538
v 1.134363 0.051317 1.095167
v 1.129081 0.048458 1.046919
v 1.126287 0.048458 1.049608
v 1.133904 0.051317 1.052904
v 1.129794 0.038565 1.042251
v 1.126288 0.038565 1.049596
v 1.145512 0.051317 1.096324
v 1.146081 0.048458 1.100271
v 1.142700 0.038565 1.105976
v 1.159422 0.051317 1.096158
v 1.173333 0.050406 1.073497
v 1.139937 0.051317 1.095746
v 1.149565 0.053405 1.073568
v 1.141849 0.053329 1.073802
v 1.132024 0.051317 1.073306
v 1.161449 0.052494 1.073532
v 1.173333 0.050406 1.084744
v 1.129324 0.051317 1.081057
v 1.134248 0.053329 1.084601
v 1.147538 0.051317 1.084946
v 1.140893 0.053329 1.084774
v 1.160436 0.050406 1.084845
v 1.134018 0.051317 1.063469
v 1.151592 0.053405 1.062189
v 1.130505 0.051317 1.064096
v 1.142805 0.051317 1.062829
v 1.164961 0.053405 1.060207
v 1.121901 0.009881 1.112653
v 1.173333 0.009881 1.115303
v 1.173333 0.009881 1.031349
v 1.119622 0.009881 1.031349
v 1.112755 0.009881 1.103507
v 1.110476 0.009881 1.040495
v 1.231135 0.000000 1.041694
v 1.222323 0.000000 1.032882
v 1.220128 0.000000 1.111217
v 1.228940 0.000000 1.102405
v 1.233868 0.041243 1.103547
v 1.221168 0.044542 1.100846
v 1.224710 0.041243 1.112705
v 1.223629 0.044542 1.042740
v 1.226992 0.041243 1.031293
v 1.236150 0.041243 1.040452
v 1.222178 0.046927 1.106609
v 1.228006 0.046927 1.100780
v 1.230467 0.046927 1.042806
v 1.224638 0.046927 1.036977
v 1.194334 0.038565 1.040812
v 1.193048 0.051317 1.050811
v 1.195460 0.048458 1.044827
v 1.216241 0.048458 1.101151
v 1.223465 0.048458 1.093928
v 1.225481 0.038565 1.093853
v 1.216241 0.038565 1.101151
v 1.217933 0.051317 1.089538
v 1.212304 0.051317 1.095167
v 1.217586 0.048458 1.046919
v 1.220379 0.048458 1.049608
v 1.212763 0.051317 1.052904
v 1.216872 0.038565 1.042251
v 1.220379 0.038565 1.049596
v 1.201155 0.051317 1.096324
v 1.200586 0.048458 1.100271
v 1.203966 0.038565 1.105976
v 1.187244 0.051317 1.096158
v 1.206730 0.051317 1.095746
v 1.197102 0.053405 1.073568
v 1.204818 0.053329 1.073802
v 1.214643 0.051317 1.073306
v 1.185218 0.052494 1.073532
v 1.217343 0.051317 1.081057
v 1.212419 0.053329 1.084601
v 1.199129 0.051317 1.084946
v 1.205774 0.053329 1.084774
v 1.186231 0.050406 1.084845
v 1.212648 0.051317 1.063469
v 1.195075 0.053405 1.062189
v 1.216162 0.051317 1.064096
v 1.203862 0.051317 1.062829
v 1.181706 0.053405 1.060207
v 1.224766 0.009881 1.112653
v 1.227045 0.009881 1.031349
v 1.233912 0.009881 1.103507
v 1.236191 0.009881 1.040495
vn -0.0000 -1.0000 -0.0000
vn -0.4820 0.7317 0.4820
vn -0.5000 0.7071 -0.5000
vn -0.7008 0.7128 0.0275
vn -0.0000 0.7071 -0.7071
vn -0.0393 0.7233 0.6894
vn -0.0000 1.0000 -0.0000
vn -0.0515 -0.0017 0.9987
vn -0.0000 -0.0018 -1.0000
vn -0.6485 -0.3987 0.6485
vn -0.9993 0.0013 0.0361
vn -0.6454 -0.4085 -0.6454
vn 0.3152 0.8952 -0.3152
vn 0.3152 0.8952 0.3152
vn 0.3292 0.9442 -0.0140
vn -0.0000 0.9240 0.3823
vn 0.0241 0.9245 -0.3804
vn -0.1336 0.2956 0.9459
vn -0.0423 0.9120 0.4079
vn 0.0431 0.3640 -0.9304
vn 0.0070 0.8102 0.5860
vn -0.6601 0.0644 0.7484
vn -0.0294 0.4353 0.8998
vn -0.0383 0.9133 -0.4055
vn -0.2669 0.9260 0.2669
vn -0.8431 0.0948 -0.5293
vn -0.0048 0.9030 -0.4295
vn -0.0724 0.3952 -0.9157
vn -0.9906 0.1013 -0.0916
vn -0.4797 0.8768 -0.0334
vn 0.0697 0.9948 -0.0739
vn -0.0049 0.9823 0.1871
vn -0.0132 0.9833 -0.1815
vn -0.2338 0.9714 -0.0417
vn 0.2882 0.9562 0.0513
vn -0.4750 0.8635 0.1696
vn 0.0105 0.9974 0.0710
vn 0.2817 0.9587 0.0388
vn -0.0006 0.9967 -0.0807
vn 0.1730 0.9849 -0.0000
vn -0.3088 0.9450 -0.1076
vn -0.0042 0.9837 0.1797
vn -0.1998 0.9797 -0.0174
vn 0.0756 0.9793 0.1875
vn 0.0021 0.9756 -0.2194
vn -0.0275 0.9823 -0.1851
vn -0.2406 0.9462 -0.2165
vn 0.0050 0.9080 0.4188
vn -0.0347 0.8698 0.4922
vn -0.0010 0.9968 -0.0804
vn 0.0014 0.9834 0.1816
vn 0.0706 0.9788 0.1922
vn -0.0186 0.9837 0.1788
vn -0.1985 0.9793 -0.0403
vn -0.0151 0.9832 -0.1817
vn 0.0765 0.9970 0.0136
vn 0.1722 0.9786 0.1123
vn 0.2891 0.9570 0.0252
vn 0.0046 0.9843 -0.1763
vn -0.0614 0.8040 0.5914
vn 0.0285 0.8620 0.5061
vn -0.0442 0.9082 -0.4161
vn -0.2426 0.9368 -0.2521
vn 0.0039 0.9163 -0.4005
vn -0.3135 0.9448 -0.0952
vn -0.7071 -0.0001 -0.7071
vn -0.8914 -0.4522 0.0322
vn -0.7071 0.0001 0.7071
vn -0.0000 -0.1533 -0.9882
vn -0.0522 -0.1603 0.9857
vn 0.4820 0.7317 0.4820
vn 0.5000 0.7071 -0.5000
vn 0.7008 0.7128 0.0275
vn 0.0393 0.7233 0.6894
vn 0.0515 -0.0017 0.9987
vn 0.6485 -0.3987 0.6485
vn 0.9993 0.0013 0.0361
vn 0.6454 -0.4085 -0.6454
vn -0.3152 0.8952 -0.3152
vn -0.3152 0.8952 0.3152
vn -0.3292 0.9442 -0.0140
vn -0.0241 0.9245 -0.3804
vn 0.1336 0.2956 0.9459
vn 0.0423 0.9120 0.4079
vn -0.0431 0.3640 -0.9304
vn -0.0070 0.8102 0.5860
vn 0.6601 0.0644 0.7484
vn 0.0294 0.4353 0.8998
vn 0.0383 0.9133 -0.4055
vn 0.2669 0.9260 0.2669
vn 0.8431 0.0948 -0.5293
vn 0.0048 0.9030 -0.4295
vn 0.0724 0.3952 -0.9157
vn 0.9906 0.1013 -0.0916
vn 0.4797 0.8768 -0.0334
vn -0.0697 0.9948 -0.0739
vn 0.0049 0.9823 0.1871
vn 0.0132 0.9833 -0.1815
vn 0.2338 0.9714 -0.0417
vn -0.2882 0.9562 0.0513
vn 0.4750 0.8635 0.1696
vn -0.0105 0.9974 0.0710
vn -0.2817 0.9587 0.0388
vn 0.0006 0.9967 -0.0807
vn -0.1730 0.9849 -0.0000
vn 0.3088 0.9450 -0.1076
vn 0.0042 0.9837 0.1797
vn 0.1998 0.9797 -0.0174
vn -0.0756 0.9793 0.1875
vn -0.0021 0.9756 -0.2194
vn 0.0275 0.9823 -0.1851
vn 0.2406 0.9462 -0.2165
vn -0.0050 0.9080 0.4188
vn 0.0347 0.8698 0.4922
vn 0.0010 0.9968 -0.0804
vn -0.0014 0.9834 0.1816
vn -0.0706 0.9788 0.1922
vn 0.0186 0.9837 0.1788
vn 0.1985 0.9793 -0.0403
vn 0.0151 0.9832 -0.1817
vn -0.0765 0.9970 0.0136
vn -0.1722 0.9786 0.1123
vn -0.2891 0.9570 0.0252
vn -0.0046 0.9843 -0.1763
vn 0.0614 0.8040 0.5914
vn -0.0285 0.8620 0.5061
vn 0.0442 0.9082 -0.4161
vn 0.2426 0.9368 -0.2521
vn -0.0039 0.9163 -0.4005
vn 0.3135 0.9448 -0.0952
vn 0.7071 -0.0001 -0.7071
vn 0.8914 -0.4522 0.0322
vn 0.7071 0.0001 0.7071
vn 0.0522 -0.1603 0.9857
vt 0.536667 0.869401
vt 0.536667 0.877079
vt 0.540470 0.876994
vt 0.541121 0.876167
vt 0.541130 0.870330
vt 0.540481 0.869500
vt 0.540304 0.876489
vt 0.540718 0.875962
vt 0.541121 0.876167
vt 0.540470 0.876994
vt 0.540726 0.870532
vt 0.540313 0.870004
vt 0.540481 0.869500
vt 0.541130 0.870330
vt 0.536667 0.869920
vt 0.536667 0.876560
vt 0.536667 0.877079
vt 0.536667 0.870446
vt 0.540317 0.870739
vt 0.540135 0.875976
vt 0.536667 0.876033
vt 0.540481 0.869500
vt 0.540310 0.875755
vt 0.540143 0.870516
vt 0.619601 0.959318
vt 0.619601 0.959318
vt 0.618761 0.959332
vt 0.618770 0.959332
vt 0.619174 0.959325
vt 0.616675 0.953780
vt 0.616667 0.953780
vt 0.618390 0.953918
vt 0.618390 0.953918
vt 0.617707 0.959350
vt 0.618748 0.959332
vt 0.620160 0.958593
vt 0.620160 0.958593
vt 0.616667 0.959367
vt 0.620114 0.954056
vt 0.620089 0.954054
vt 0.620114 0.954056
vt 0.620308 0.954330
vt 0.620308 0.954331
vt 0.618378 0.953917
vt 0.620269 0.955453
vt 0.620232 0.956500
vt 0.617661 0.957974
vt 0.618655 0.957979
vt 0.619960 0.957775
vt 0.619880 0.958956
vt 0.619189 0.957990
vt 0.619723 0.958002
vt 0.619204 0.956655
vt 0.619219 0.955320
vt 0.619967 0.955370
vt 0.618563 0.956625
vt 0.618470 0.955271
vt 0.620118 0.955412
vt 0.620039 0.956593
vt 0.617615 0.956599
vt 0.617569 0.955224
vt 0.616667 0.956573
vt 0.616667 0.955176
vt 0.616667 0.957970
vt 0.619845 0.956686
vt 0.617522 0.953848
vt 0.620197 0.954230
vt 0.619233 0.953985
vt 0.620196 0.957547
vt 0.620305 0.954407
s 0
usemtl palette1
f 1/1/1 2/2/1 5/3/1 6/4/1 3/5/1 4/6/1
f 19/7/2 20/8/2 12/9/2 14/10/2
f 21/11/3 22/12/3 16/13/3 18/14/3
f 20/8/4 21/11/4 18/14/4 12/9/4
f 22/12/5 23/15/5 9/1/5 16/13/5
f 24/16/6 19/7/6 14/10/6 8/17/6
f 10/18/7 15/19/7 13/20/7 7/21/7
f 64/10/8 65/17/8 8/17/8 14/10/8
f 66/1/9 67/22/9 16/13/9 9/1/9
f 68/9/10 6/4/10 5/3/10 64/10/10
f 69/14/11 68/9/11 12/9/11 18/14/11
f 67/22/12 4/6/12 3/5/12 69/14/12
f 13/23/13 20/8/13 19/7/13
f 15/24/14 22/12/14 21/11/14
f 13/23/15 15/19/15 21/11/15 20/8/15
f 15/24/16 10/18/16 23/15/16 22/12/16
f 7/21/17 13/20/17 19/7/17 24/16/17
f 31/25/18 34/26/18 45/27/18 44/28/18
f 31/25/19 48/29/19 37/25/19
f 11/30/20 30/31/20 26/32/20 29/33/20
f 44/28/21 46/34/21 43/35/21
f 33/36/22 34/26/22 31/25/22 32/37/22
f 44/28/23 45/27/23 27/38/23 17/38/23
f 29/33/24 38/39/24 40/40/24
f 32/37/25 31/25/25 37/25/25
f 41/41/26 42/42/26 39/43/26 38/39/26
f 11/30/27 29/33/27 28/44/27
f 29/33/28 26/32/28 41/41/28 38/39/28
f 39/43/29 42/42/29 33/36/29 32/37/29
f 61/45/30 39/43/30 54/46/30
f 46/34/31 58/47/31 56/48/31
f 54/49/7 36/37/7 37/50/7
f 57/51/32 55/52/32 37/25/32
f 50/53/33 62/54/33 59/55/33
f 49/56/34 60/57/34 62/54/34
f 43/35/35 56/48/35 57/51/35
f 59/58/7 61/45/7 54/46/7 51/59/7
f 55/52/36 54/49/36 37/50/36
f 52/60/37 63/61/37 60/57/37
f 47/62/38 25/63/38 63/61/38
f 35/38/39 53/64/39 58/47/39
f 53/64/40 47/62/40 52/60/40
f 51/65/41 54/49/41 55/52/41
f 56/48/42 49/56/42 50/53/42
f 57/51/43 50/53/43 51/65/43
f 58/47/44 52/60/44 49/56/44
f 25/31/45 28/66/45 63/61/45
f 28/66/46 60/57/46 63/61/46
f 40/67/7 61/45/7 59/58/7
f 28/44/47 62/54/47 60/57/47
f 28/68/7 40/40/7 62/54/7
f 40/40/7 59/55/7 62/54/7
f 35/38/48 46/34/48 17/38/48
f 17/38/49 46/34/49 44/28/49
f 46/34/7 56/48/7 43/35/7
f 35/38/50 58/47/50 46/34/50
f 53/64/51 52/60/51 58/47/51
f 58/47/52 49/56/52 56/48/52
f 57/51/53 37/25/53 48/29/53
f 50/53/54 59/55/54 51/65/54
f 49/56/55 62/54/55 50/53/55
f 43/35/53 57/51/53 48/29/53
f 52/60/56 60/57/56 49/56/56
f 47/62/57 63/61/57 52/60/57
f 56/48/58 50/53/58 57/51/58
f 57/51/59 51/65/59 55/52/59
f 43/35/60 48/29/60 44/28/60
f 44/28/61 48/29/61 31/25/61
f 29/33/62 40/40/62 28/68/62
f 32/37/25 37/25/25 36/37/25
f 39/43/63 40/67/63 38/39/63
f 11/30/64 28/44/64 25/31/64
f 36/37/30 54/69/30 32/37/30
f 32/37/30 54/46/30 39/43/30
f 39/43/65 61/45/65 40/70/65
f 16/13/66 67/22/66 69/14/66 18/14/66
f 3/5/67 6/4/67 68/9/67 69/14/67
f 12/9/68 68/9/68 64/10/68 14/10/68
f 1/1/69 4/6/69 67/22/69 66/1/69
f 5/3/70 2/2/70 65/17/70 64/10/70
f 1/1/1 71/6/1 70/5/1 73/4/1 72/3/1 2/2/1
f 80/7/71 76/10/71 74/9/71 81/8/71
f 82/11/72 79/14/72 78/13/72 83/12/72
f 81/8/73 74/9/73 79/14/73 82/11/73
f 83/12/5 78/13/5 9/1/5 23/15/5
f 24/16/74 8/17/74 76/10/74 80/7/74
f 10/18/7 7/21/7 75/20/7 77/19/7
f 117/10/75 76/10/75 8/17/75 65/17/75
f 66/1/9 9/1/9 78/13/9 118/22/9
f 119/9/76 117/10/76 72/3/76 73/4/76
f 120/14/77 79/14/77 74/9/77 119/9/77
f 118/22/78 120/14/78 70/5/78 71/6/78
f 75/23/79 80/7/79 81/8/79
f 77/24/80 82/11/80 83/12/80
f 75/23/81 81/8/81 82/11/81 77/19/81
f 77/24/16 83/12/16 23/15/16 10/18/16
f 7/21/82 24/16/82 80/7/82 75/20/82
f 87/25/83 99/28/83 100/27/83 90/26/83
f 87/25/84 92/25/84 102/29/84
f 11/30/85 86/33/85 84/32/85 30/31/85
f 99/28/86 98/35/86 101/34/86
f 89/36/87 88/37/87 87/25/87 90/26/87
f 99/28/88 17/38/88 27/38/88 100/27/88
f 86/33/89 95/40/89 93/39/89
f 88/37/90 92/25/90 87/25/90
f 96/41/91 93/39/91 94/43/91 97/42/91
f 11/30/92 85/44/92 86/33/92
f 86/33/93 93/39/93 96/41/93 84/32/93
f 94/43/94 88/37/94 89/36/94 97/42/94
f 114/45/95 107/46/95 94/43/95
f 101/34/96 109/48/96 111/47/96
f 107/49/7 92/50/7 91/37/7
f 110/51/97 92/25/97 108/52/97
f 104/53/98 112/55/98 115/54/98
f 103/56/99 115/54/99 113/57/99
f 98/35/100 110/51/100 109/48/100
f 112/58/7 105/59/7 107/46/7 114/45/7
f 108/52/101 92/50/101 107/49/101
f 106/60/102 113/57/102 116/61/102
f 47/62/103 116/61/103 25/63/103
f 35/38/104 111/47/104 53/64/104
f 53/64/105 106/60/105 47/62/105
f 105/65/106 108/52/106 107/49/106
f 109/48/107 104/53/107 103/56/107
f 110/51/108 105/65/108 104/53/108
f 111/47/109 103/56/109 106/60/109
f 25/31/110 116/61/110 85/66/110
f 85/66/111 116/61/111 113/57/111
f 95/67/7 112/58/7 114/45/7
f 85/44/112 113/57/112 115/54/112
f 85/68/7 115/54/7 95/40/7
f 95/40/7 115/54/7 112/55/7
f 35/38/113 17/38/113 101/34/113
f 17/38/114 99/28/114 101/34/114
f 101/34/7 98/35/7 109/48/7
f 35/38/115 101/34/115 111/47/115
f 53/64/116 111/47/116 106/60/116
f 111/47/117 109/48/117 103/56/117
f 110/51/118 102/29/118 92/25/118
f 104/53/119 105/65/119 112/55/119
f 103/56/120 104/53/120 115/54/120
f 98/35/118 102/29/118 110/51/118
f 106/60/121 103/56/121 113/57/121
f 47/62/122 106/60/122 116/61/122
f 109/48/123 110/51/123 104/53/123
f 110/51/124 108/52/124 105/65/124
f 98/35/125 99/28/125 102/29/125
f 99/28/126 87/25/126 102/29/126
f 86/33/127 85/68/127 95/40/127
f 88/37/90 91/37/90 92/25/90
f 94/43/128 93/39/128 95/67/128
f 11/30/129 25/31/129 85/44/129
f 91/37/95 88/37/95 107/69/95
f 88/37/95 94/43/95 107/46/95
f 94/43/130 95/70/130 114/45/130
f 78/13/131 79/14/131 120/14/131 118/22/131
f 70/5/132 120/14/132 119/9/132 73/4/132
f 74/9/133 76/10/133 117/10/133 119/9/133
f 1/1/69 66/1/69 118/22/69 71/6/69
f 72/3/134 117/10/134 65/17/134 2/2/134
