# Blender 4.5.2 LTS
# www.blender.org
mtllib display_acc_stray_1.mtl
o display_acc_stray_1
v -0.676557 0.894567 1.180802
v -0.676557 0.894567 1.142718
v -1.323443 0.894567 1.180802
v -1.323443 0.894567 1.142718
v -1.323443 0.894567 1.210782
v -1.323443 0.894567 1.248866
v -0.676557 0.894567 1.210782
v -0.676557 0.894567 1.248866
v -1.353392 0.883189 1.297148
v -0.646608 0.883189 1.297148
v -0.646608 0.883189 1.335232
v -1.353392 0.883189 1.335232
v -0.646608 0.907233 1.317089
v -0.646608 0.907233 1.279005
v -1.353392 0.907233 1.317089
v -1.353392 0.907233 1.279005
v -0.676557 0.894567 1.046628
v -0.676557 0.894567 1.008544
v -1.323443 0.894567 1.046628
v -1.323443 0.894567 1.008544
v -1.323443 0.894567 1.076608
v -1.323443 0.894567 1.114692
v -0.676557 0.894567 1.076608
v -0.676557 0.894567 1.114692
v -0.676557 0.894567 0.980968
v -0.676557 0.894567 0.942884
v -1.323443 0.894567 0.980968
v -1.323443 0.894567 0.942884
v -0.676557 0.894567 0.846793
v -0.676557 0.894567 0.808710
v -1.323443 0.894567 0.846793
v -1.323443 0.894567 0.808710
v -1.323443 0.894567 0.876773
v -1.323443 0.894567 0.914857
v -0.676557 0.894567 0.876773
v -0.676557 0.894567 0.914857
v -1.323443 0.894567 0.745604
v -1.323443 0.894567 0.783688
v -0.676557 0.894567 0.745604
v -0.676557 0.894567 0.783688
v -1.319521 0.900907 0.668868
v -1.341633 0.900907 0.668868
v -1.319521 0.900907 1.290552
v -1.341633 0.900907 1.290552
v -1.319521 0.885102 0.668868
v -1.319521 0.885102 1.290552
v -1.341633 0.885102 1.290552
v -1.341633 0.885102 0.668868
v -0.658367 0.900907 0.668868
v -0.680479 0.900907 0.668868
v -0.658367 0.900907 1.290552
v -0.680479 0.900907 1.290552
v -0.658367 0.885102 0.668868
v -0.658367 0.885102 1.290552
v -0.680479 0.885102 1.290552
v -0.680479 0.885102 0.668868
v -1.323443 0.894567 0.685953
v -1.323443 0.894567 0.724037
v -0.676557 0.894567 0.685953
v -0.676557 0.894567 0.724037
vn -0.0000 1.0000 -0.0000
vn -0.0000 0.6023 0.7982
vn -0.0000 -1.0000 -0.0000
vn -1.0000 -0.0000 -0.0000
vn -0.0000 -0.6023 -0.7982
vn 1.0000 -0.0000 -0.0000
vn -0.0000 -0.0000 1.0000
vn -0.0000 -0.0000 -1.0000
vt 0.044727 0.961394
vt 0.035273 0.961394
vt 0.035273 0.951939
vt 0.044727 0.951939
vt 0.128061 0.964727
vt 0.118606 0.964727
vt 0.118606 0.955273
vt 0.128061 0.955273
s 0
usemtl palette1
f 5/1/1 6/2/1 8/3/1 7/4/1
f 15/2/2 12/2/2 11/3/2 13/3/2
f 28/1/1 27/2/1 25/3/1 26/4/1
f 21/1/1 22/2/1 24/3/1 23/4/1
f 33/1/1 34/2/1 36/3/1 35/4/1
f 9/1/3 10/4/3 11/3/3 12/2/3
f 16/1/1 15/2/1 13/3/1 14/4/1
f 16/1/4 9/1/4 12/2/4 15/2/4
f 14/4/5 10/4/5 9/1/5 16/1/5
f 13/3/6 11/3/6 10/4/6 14/4/6
f 20/1/1 19/2/1 17/3/1 18/4/1
f 32/1/1 31/2/1 29/3/1 30/4/1
f 4/1/1 3/2/1 1/3/1 2/4/1
f 37/1/1 38/2/1 40/3/1 39/4/1
f 44/5/1 43/6/1 41/7/1 42/8/1
f 47/5/3 48/8/3 45/7/3 46/6/3
f 44/5/7 47/5/7 46/6/7 43/6/7
f 43/6/6 46/6/6 45/7/6 41/7/6
f 41/7/8 45/7/8 48/8/8 42/8/8
f 42/8/4 48/8/4 47/5/4 44/5/4
f 52/5/1 51/6/1 49/7/1 50/8/1
f 55/5/3 56/8/3 53/7/3 54/6/3
f 52/5/7 55/5/7 54/6/7 51/6/7
f 51/6/6 54/6/6 53/7/6 49/7/6
f 49/7/8 53/7/8 56/8/8 50/8/8
f 50/8/4 56/8/4 55/5/4 52/5/4
f 57/1/1 58/2/1 60/3/1 59/4/1
