# Blender 4.5.2 LTS
# www.blender.org
mtllib display_top.mtl
o display_top
v -1.358687 1.310687 0.654199
v -1.343671 1.295672 0.654199
v -1.343671 0.814837 1.371541
v -1.358700 0.814837 1.371541
v -1.358687 0.716287 1.354177
v -1.343671 0.716287 1.354177
v -1.343671 0.716287 0.671564
v -1.358687 0.716287 0.671564
v -1.343671 0.814837 1.354177
v -1.358705 0.814837 1.354177
v -1.343671 1.295672 0.671564
v -1.358687 1.310687 0.671564
v -1.358687 0.716287 1.371541
v -1.343671 0.716287 1.371541
v -1.358687 0.716287 0.654199
v -1.343671 0.716287 0.654199
v -1.000000 1.295672 0.654199
v -1.000000 1.310703 0.654199
v -1.000000 1.295672 0.671564
v -1.000000 1.310703 0.671564
v -1.343671 1.293307 0.703755
v -1.358703 1.293307 0.703755
v -1.343671 1.310672 0.703755
v -1.358702 1.310672 0.703755
v -1.343671 1.293307 0.671564
v -1.358687 1.293307 0.671564
v -1.343671 1.310672 0.671564
v -1.358687 1.310672 0.671564
v -1.343671 1.304268 0.854098
v -1.358700 1.304268 0.854098
v -1.343671 0.973274 1.333576
v -1.358699 0.973274 1.333576
v -1.343671 1.244966 1.057100
v -1.358700 1.244966 1.057100
v -1.343671 1.128655 1.229439
v -1.358699 1.128655 1.229439
v -1.343671 0.962801 1.319205
v -1.358706 0.962801 1.319205
v -1.358705 1.288934 0.847695
v -1.343671 1.288934 0.847695
v -1.343671 1.117421 1.218599
v -1.358707 1.117421 1.218599
v -1.343671 1.232207 1.048867
v -1.358706 1.232207 1.048867
v -0.656329 1.295672 0.654199
v -0.641313 1.310687 0.654199
v -0.641300 0.814837 1.371541
v -0.656329 0.814837 1.371541
v -0.656329 0.716287 1.354177
v -0.641313 0.716287 1.354177
v -0.641313 0.716287 0.671564
v -0.656329 0.716287 0.671564
v -0.641295 0.814837 1.354177
v -0.656329 0.814837 1.354177
v -0.641313 1.310687 0.671564
v -0.656329 1.295672 0.671564
v -0.656329 0.716287 1.371541
v -0.641313 0.716287 1.371541
v -0.656329 0.716287 0.654199
v -0.641313 0.716287 0.654199
v -0.641297 1.293307 0.703755
v -0.656329 1.293307 0.703755
v -0.641298 1.310672 0.703755
v -0.656329 1.310672 0.703755
v -0.641313 1.293307 0.671564
v -0.656329 1.293307 0.671564
v -0.641313 1.310672 0.671564
v -0.656329 1.310672 0.671564
v -0.641300 1.304268 0.854098
v -0.656329 1.304268 0.854098
v -0.641301 0.973274 1.333576
v -0.656329 0.973274 1.333576
v -0.641300 1.244966 1.057100
v -0.656329 1.244966 1.057100
v -0.641301 1.128655 1.229439
v -0.656329 1.128655 1.229439
v -0.641294 0.962801 1.319205
v -0.656329 0.962801 1.319205
v -0.656329 1.288934 0.847695
v -0.641295 1.288934 0.847695
v -0.641293 1.117421 1.218599
v -0.656329 1.117421 1.218599
v -0.641294 1.232207 1.048867
v -0.656329 1.232207 1.048867
vn -0.0000 -0.0000 1.0000
vn -0.0000 -0.0000 -1.0000
vn -0.0000 -1.0000 -0.0000
vn -0.0000 1.0000 -0.0000
vn -0.0000 0.9599 0.2804
vn -0.0000 -0.9625 -0.2714
vn -0.0000 0.8289 0.5594
vn -0.0000 -0.8284 -0.5602
vn -0.0000 0.5567 0.8307
vn -0.0000 -0.5454 -0.8382
vn -0.0000 -0.2300 -0.9732
vn -0.0000 0.2330 0.9725
vn -0.0000 -0.9995 -0.0304
vn -0.0000 0.9991 0.0426
vn -1.0000 -0.0000 -0.0000
vn 1.0000 -0.0000 -0.0000
vn -1.0000 -0.0002 0.0001
vn -1.0000 -0.0000 -0.0005
vn -1.0000 0.0003 0.0001
vn -1.0000 0.0004 0.0003
vn -1.0000 0.0002 0.0004
vn -1.0000 0.0001 0.0003
vn -1.0000 0.0002 -0.0000
vn 1.0000 -0.0002 0.0001
vn 1.0000 -0.0000 -0.0005
vn 1.0000 0.0003 0.0001
vn 1.0000 0.0004 0.0003
vn 1.0000 0.0002 0.0004
vn 1.0000 0.0001 0.0003
vn 1.0000 0.0002 -0.0000
vt 0.455000 0.965000
vt 0.458333 0.965000
vt 0.448333 0.965000
vt 0.451667 0.965000
vt 0.456667 0.960000
vt 0.458038 0.961781
vt 0.455463 0.960722
vt 0.455989 0.960678
vt 0.459177 0.961757
vt 0.459143 0.963226
vt 0.461479 0.963251
vt 0.449505 0.964297
vt 0.452324 0.964343
s 0
usemtl palette1
f 7/1/1 11/1/1 12/1/1 8/1/1
f 15/2/2 1/2/2 2/2/2 16/2/2
f 4/3/1 13/3/1 14/3/1 3/3/1
f 16/2/3 7/1/3 8/1/3 15/2/3
f 5/4/2 10/4/2 9/4/2 6/4/2
f 6/4/3 14/3/3 13/3/3 5/4/3
f 17/2/2 2/2/2 1/2/2 18/2/2
f 11/1/1 19/1/1 20/1/1 12/1/1
f 27/5/2 25/5/2 26/5/2 28/5/2
f 25/5/3 21/5/3 22/5/3 26/5/3
f 23/5/4 27/5/4 28/5/4 24/5/4
f 33/6/5 29/7/5 30/7/5 34/6/5
f 40/8/6 43/9/6 44/9/6 39/8/6
f 35/10/7 33/6/7 34/6/7 36/10/7
f 43/9/8 41/11/8 42/11/8 44/9/8
f 31/12/9 35/10/9 36/10/9 32/12/9
f 41/11/10 37/13/10 38/13/10 42/11/10
f 37/13/11 9/4/11 10/4/11 38/13/11
f 3/3/12 31/12/12 32/12/12 4/3/12
f 21/5/13 40/8/13 39/8/13 22/5/13
f 29/7/14 23/5/14 24/5/14 30/7/14
f 51/1/1 55/1/1 56/1/1 52/1/1
f 59/2/2 45/2/2 46/2/2 60/2/2
f 48/3/1 57/3/1 58/3/1 47/3/1
f 60/2/3 51/1/3 52/1/3 59/2/3
f 49/4/2 54/4/2 53/4/2 50/4/2
f 50/4/3 58/3/3 57/3/3 49/4/3
f 18/2/2 46/2/2 45/2/2 17/2/2
f 55/1/1 20/1/1 19/1/1 56/1/1
f 67/5/2 65/5/2 66/5/2 68/5/2
f 65/5/3 61/5/3 62/5/3 66/5/3
f 63/5/4 67/5/4 68/5/4 64/5/4
f 73/6/5 69/7/5 70/7/5 74/6/5
f 80/8/6 83/9/6 84/9/6 79/8/6
f 75/10/7 73/6/7 74/6/7 76/10/7
f 83/9/8 81/11/8 82/11/8 84/9/8
f 71/12/9 75/10/9 76/10/9 72/12/9
f 81/11/10 77/13/10 78/13/10 82/11/10
f 77/13/11 53/4/11 54/4/11 78/13/11
f 47/3/12 71/12/12 72/12/12 48/3/12
f 61/5/13 80/8/13 79/8/13 62/5/13
f 69/7/14 63/5/14 64/5/14 70/7/14
f 12/1/15 1/2/15 15/2/15 8/1/15
f 11/1/16 7/1/16 16/2/16 2/2/16
f 4/3/17 10/4/17 5/4/17 13/3/17
f 3/3/16 14/3/16 6/4/16 9/4/16
f 18/2/4 1/2/4 12/1/4 20/1/4
f 17/2/3 19/1/3 11/1/3 2/2/3
f 26/5/18 22/5/18 24/5/18 28/5/18
f 25/5/16 27/5/16 23/5/16 21/5/16
f 34/6/19 30/7/19 39/8/19 44/9/19
f 33/6/16 43/9/16 40/8/16 29/7/16
f 36/10/20 34/6/20 44/9/20 42/11/20
f 35/10/16 41/11/16 43/9/16 33/6/16
f 32/12/21 36/10/21 42/11/21 38/13/21
f 31/12/16 37/13/16 41/11/16 35/10/16
f 38/13/22 10/4/22 4/3/22 32/12/22
f 37/13/16 31/12/16 3/3/16 9/4/16
f 22/5/23 39/8/23 30/7/23 24/5/23
f 21/5/16 23/5/16 29/7/16 40/8/16
f 60/2/16 46/2/16 55/1/16 51/1/16
f 59/2/15 52/1/15 56/1/15 45/2/15
f 50/4/24 53/4/24 47/3/24 58/3/24
f 49/4/15 57/3/15 48/3/15 54/4/15
f 55/1/4 46/2/4 18/2/4 20/1/4
f 56/1/3 19/1/3 17/2/3 45/2/3
f 63/5/25 61/5/25 65/5/25 67/5/25
f 64/5/15 68/5/15 66/5/15 62/5/15
f 80/8/26 69/7/26 73/6/26 83/9/26
f 79/8/15 84/9/15 74/6/15 70/7/15
f 83/9/27 73/6/27 75/10/27 81/11/27
f 84/9/15 82/11/15 76/10/15 74/6/15
f 81/11/28 75/10/28 71/12/28 77/13/28
f 82/11/15 78/13/15 72/12/15 76/10/15
f 47/3/29 53/4/29 77/13/29 71/12/29
f 48/3/15 72/12/15 78/13/15 54/4/15
f 69/7/30 80/8/30 61/5/30 63/5/30
f 70/7/15 64/5/15 62/5/15 79/8/15
