# Blender 4.5.2 LTS
# www.blender.org
mtllib display_acc_stray_2.mtl
o display_acc_stray_2
v -0.676557 1.104764 1.063164
v -0.676557 1.104764 1.025080
v -1.323443 1.104764 1.063164
v -1.323443 1.104764 1.025080
v -1.323443 1.104764 1.093144
v -1.323443 1.104764 1.131228
v -0.676557 1.104764 1.093144
v -0.676557 1.104764 1.131228
v -1.353392 1.093386 1.179510
v -0.646608 1.093386 1.179510
v -0.646608 1.093386 1.217594
v -1.353392 1.093386 1.217594
v -0.646608 1.117430 1.199451
v -0.646608 1.117430 1.161367
v -1.353392 1.117430 1.199451
v -1.353392 1.117430 1.161367
v -0.676557 1.104764 0.928989
v -0.676557 1.104764 0.890906
v -1.323443 1.104764 0.928989
v -1.323443 1.104764 0.890906
v -1.323443 1.104764 0.958970
v -1.323443 1.104764 0.997053
v -0.676557 1.104764 0.958970
v -0.676557 1.104764 0.997053
v -0.676557 1.104764 0.863330
v -0.676557 1.104764 0.825246
v -1.323443 1.104764 0.863330
v -1.323443 1.104764 0.825246
v -0.676557 1.104764 0.729155
v -0.676557 1.104764 0.691071
v -1.323443 1.104764 0.729155
v -1.323443 1.104764 0.691071
v -1.323443 1.104764 0.759135
v -1.323443 1.104764 0.797219
v -0.676557 1.104764 0.759135
v -0.676557 1.104764 0.797219
v -1.319521 1.111104 0.667107
v -1.341633 1.111104 0.667107
v -1.319521 1.111104 1.172913
v -1.341633 1.111104 1.172913
v -1.319521 1.095299 0.667107
v -1.319521 1.095299 1.172913
v -1.341633 1.095299 1.172913
v -1.341633 1.095299 0.667107
v -0.658367 1.111104 0.667107
v -0.680479 1.111104 0.667107
v -0.658367 1.111104 1.172913
v -0.680479 1.111104 1.172913
v -0.658367 1.095299 0.667107
v -0.658367 1.095299 1.172913
v -0.680479 1.095299 1.172913
v -0.680479 1.095299 0.667107
vn -0.0000 1.0000 -0.0000
vn -0.0000 0.6023 0.7982
vn -0.0000 -1.0000 -0.0000
vn -1.0000 -0.0000 -0.0000
vn -0.0000 -0.6023 -0.7982
vn 1.0000 -0.0000 -0.0000
vn -0.0000 -0.0000 1.0000
vn -0.0000 -0.0000 -1.0000
vt 0.044727 0.961394
vt 0.035273 0.961394
vt 0.035273 0.951939
vt 0.044727 0.951939
vt 0.128061 0.964727
vt 0.118606 0.964727
vt 0.118606 0.955273
vt 0.128061 0.955273
s 0
usemtl palette1
f 5/1/1 6/2/1 8/3/1 7/4/1
f 15/2/2 12/2/2 11/3/2 13/3/2
f 28/1/1 27/2/1 25/3/1 26/4/1
f 21/1/1 22/2/1 24/3/1 23/4/1
f 33/1/1 34/2/1 36/3/1 35/4/1
f 9/1/3 10/4/3 11/3/3 12/2/3
f 16/1/1 15/2/1 13/3/1 14/4/1
f 16/1/4 9/1/4 12/2/4 15/2/4
f 14/4/5 10/4/5 9/1/5 16/1/5
f 13/3/6 11/3/6 10/4/6 14/4/6
f 20/1/1 19/2/1 17/3/1 18/4/1
f 32/1/1 31/2/1 29/3/1 30/4/1
f 4/1/1 3/2/1 1/3/1 2/4/1
f 40/5/1 39/6/1 37/7/1 38/8/1
f 43/5/3 44/8/3 41/7/3 42/6/3
f 40/5/7 43/5/7 42/6/7 39/6/7
f 39/6/6 42/6/6 41/7/6 37/7/6
f 37/7/8 41/7/8 44/8/8 38/8/8
f 38/8/4 44/8/4 43/5/4 40/5/4
f 48/5/1 47/6/1 45/7/1 46/8/1
f 51/5/3 52/8/3 49/7/3 50/6/3
f 48/5/7 51/5/7 50/6/7 47/6/7
f 47/6/6 50/6/6 49/7/6 45/7/6
f 45/7/8 49/7/8 52/8/8 46/8/8
f 46/8/4 52/8/4 51/5/4 48/5/4
