# Blender 4.5.2 LTS
# www.blender.org
mtllib display_glass.mtl
o display_glass
v -1.355265 1.288934 0.847695
v -1.346377 0.814837 1.354177
v -1.355265 1.293307 0.671564
v -1.346378 0.962802 1.319205
v -1.355265 1.232207 1.048867
v -1.346379 1.117422 1.218599
v -1.355266 1.117421 1.218599
v -1.346378 1.232207 1.048867
v -1.355266 0.962801 1.319205
v -1.346377 1.288934 0.847695
v -1.355265 0.814837 1.354177
v -1.346377 1.293308 0.671564
v -1.355247 0.716287 1.354177
v -1.355247 0.716287 0.671564
v -1.346359 0.716288 0.671564
v -1.346359 0.716288 1.354177
v -1.343670 0.814837 1.357311
v -1.343671 0.964854 1.321486
v -1.343671 1.120557 1.220480
v -1.343670 1.235343 1.049551
v -1.343670 1.292737 0.848047
v -1.343670 1.297840 0.671564
v -1.343652 0.716288 1.357311
v -1.343670 0.815559 1.366730
v -1.343671 0.969773 1.328371
v -1.343671 1.125436 1.225385
v -1.343670 1.241568 1.052477
v -1.343670 1.299992 0.849112
v -1.343670 1.305649 0.671564
v -1.343652 0.716288 1.366967
v -1.000000 0.814837 1.357311
v -1.000000 0.716288 1.357311
v -1.000000 0.964854 1.321486
v -1.000000 1.235343 1.049551
v -1.000000 1.120557 1.220480
v -1.000000 1.297840 0.671564
v -1.000000 1.292737 0.848047
v -1.000000 0.815559 1.366730
v -1.000000 0.716288 1.366967
v -1.000000 0.969773 1.328371
v -1.000000 1.241568 1.052477
v -1.000000 1.125436 1.225385
v -1.000000 1.305649 0.671564
v -1.000000 1.299992 0.849112
v -0.644735 1.288934 0.847695
v -0.653623 0.814837 1.354177
v -0.644735 1.293307 0.671564
v -0.653622 0.962802 1.319205
v -0.644735 1.232207 1.048867
v -0.653621 1.117422 1.218599
v -0.644734 1.117421 1.218599
v -0.653622 1.232207 1.048867
v -0.644734 0.962801 1.319205
v -0.653623 1.288934 0.847695
v -0.644735 0.814837 1.354177
v -0.653623 1.293308 0.671564
v -0.644753 0.716287 1.354177
v -0.644753 0.716287 0.671564
v -0.653641 0.716288 0.671564
v -0.653641 0.716288 1.354177
v -0.656330 0.814837 1.357311
v -0.656329 0.964854 1.321486
v -0.656329 1.120557 1.220480
v -0.656330 1.235343 1.049551
v -0.656330 1.292737 0.848047
v -0.656330 1.297840 0.671564
v -0.656348 0.716288 1.357311
v -0.656330 0.815559 1.366730
v -0.656329 0.969773 1.328371
v -0.656329 1.125436 1.225385
v -0.656330 1.241568 1.052477
v -0.656330 1.299992 0.849112
v -0.656330 1.305649 0.671564
v -0.656348 0.716288 1.366967
vn 1.0000 -0.0000 -0.0000
vn -1.0000 -0.0000 -0.0000
vn -0.0000 0.0024 1.0000
vn -0.0000 0.2414 0.9704
vn -0.0000 -0.0000 -1.0000
vn -0.0000 0.8301 0.5576
vn -0.0000 -0.2323 -0.9726
vn -0.0000 0.5518 0.8340
vn -0.0000 -0.8302 -0.5575
vn -0.0000 0.9995 0.0318
vn -0.0000 -0.5442 -0.8389
vn -0.0000 0.9611 0.2761
vn -0.0000 -0.9996 -0.0289
vn -0.0000 -0.9617 -0.2739
vt 0.000000 0.000000
s 0
usemtl glass
f 12/1/1 10/1/1 8/1/1 6/1/1 4/1/1 2/1/1 16/1/1 15/1/1
f 3/1/2 14/1/2 13/1/2 11/1/2 9/1/2 7/1/2 5/1/2 1/1/2
f 30/1/3 39/1/3 38/1/3 24/1/3
f 24/1/4 38/1/4 40/1/4 25/1/4
f 17/1/5 31/1/5 32/1/5 23/1/5
f 26/1/6 42/1/6 41/1/6 27/1/6
f 18/1/7 33/1/7 31/1/7 17/1/7
f 25/1/8 40/1/8 42/1/8 26/1/8
f 20/1/9 34/1/9 35/1/9 19/1/9
f 28/1/10 44/1/10 43/1/10 29/1/10
f 19/1/11 35/1/11 33/1/11 18/1/11
f 27/1/12 41/1/12 44/1/12 28/1/12
f 22/1/13 36/1/13 37/1/13 21/1/13
f 21/1/14 37/1/14 34/1/14 20/1/14
f 56/1/2 59/1/2 60/1/2 46/1/2 48/1/2 50/1/2 52/1/2 54/1/2
f 47/1/1 45/1/1 49/1/1 51/1/1 53/1/1 55/1/1 57/1/1 58/1/1
f 74/1/3 68/1/3 38/1/3 39/1/3
f 68/1/4 69/1/4 40/1/4 38/1/4
f 61/1/5 67/1/5 32/1/5 31/1/5
f 70/1/6 71/1/6 41/1/6 42/1/6
f 62/1/7 61/1/7 31/1/7 33/1/7
f 69/1/8 70/1/8 42/1/8 40/1/8
f 64/1/9 63/1/9 35/1/9 34/1/9
f 72/1/10 73/1/10 43/1/10 44/1/10
f 63/1/11 62/1/11 33/1/11 35/1/11
f 71/1/12 72/1/12 44/1/12 41/1/12
f 66/1/13 65/1/13 37/1/13 36/1/13
f 65/1/14 64/1/14 34/1/14 37/1/14
