# Blender 4.5.2 LTS
# www.blender.org
mtllib display_base.mtl
o display_base
v -1.339107 0.716287 0.673764
v -1.339106 0.716287 1.351977
v -0.660894 0.716287 0.673764
v -0.660893 0.716287 1.351977
v -0.641329 0.000000 1.333329
v -0.641329 0.000000 0.665586
v -1.358671 0.000000 1.333329
v -1.358671 0.000000 0.665586
v -1.349642 0.718728 0.645170
v -1.358671 0.716287 1.371541
v -0.650358 0.718728 0.645170
v -0.641329 0.716287 1.371541
v -1.317861 0.684940 0.695009
v -1.317861 0.684940 1.330732
v -0.682139 0.684940 0.695009
v -0.682139 0.684940 1.330731
v -1.349642 0.718728 0.546947
v -1.358671 0.532685 1.371541
v -0.650358 0.718728 0.546947
v -0.641329 0.532685 1.371541
v -1.358671 0.459998 1.333329
v -0.641329 0.459998 0.665586
v -1.358671 0.459998 0.665586
v -0.641329 0.459998 1.333329
v -0.641329 0.716287 0.654199
v -1.358671 0.716287 0.654199
v -1.358671 0.716287 0.537918
v -0.641329 0.716287 0.537918
vn -0.0000 -0.0000 -1.0000
vn -0.8278 0.5610 -0.0000
vn -0.0000 -1.0000 -0.0000
vn -0.0000 -0.0000 1.0000
vn 1.0000 -0.0000 -0.0000
vn -1.0000 -0.0000 -0.0000
vn -0.0000 1.0000 -0.0000
vn 0.8278 0.5610 -0.0000
vn -0.0000 0.5610 -0.8278
vn -0.0000 0.5610 0.8278
vn -0.0000 -0.4653 0.8851
vn -0.0000 -0.4459 -0.8951
vn -0.0000 0.9654 0.2609
vn -0.2609 0.9654 -0.0000
vn 0.2609 0.9654 -0.0000
vn -0.0000 0.9654 -0.2609
vt 0.458333 0.955000
vt 0.458333 0.965000
vt 0.035273 0.951939
vt 0.044727 0.951939
vt 0.448333 0.955000
vt 0.448333 0.965000
vt 0.448606 0.964727
vt 0.458061 0.964727
vt 0.458061 0.955273
vt 0.448606 0.955273
vt 0.211394 0.888061
vt 0.201939 0.888061
vt 0.201939 0.878606
vt 0.211394 0.878606
vt 0.044727 0.961394
vt 0.035273 0.961394
vt 0.048333 0.948459
vt 0.048333 0.948459
vt 0.048333 0.958207
vt 0.205000 0.948459
vt 0.205000 0.958207
vt 0.205000 0.958333
vt 0.205000 0.948333
vt 0.205000 0.948459
s 0
usemtl palette1
f 22/1/1 6/1/1 8/2/1 23/2/1
f 4/3/2 3/4/2 15/4/2 16/3/2
f 8/2/3 6/1/3 5/5/3 7/6/3
f 21/6/4 7/6/4 5/5/4 24/5/4
f 24/5/5 5/5/5 6/1/5 22/1/5
f 23/2/6 8/2/6 7/6/6 21/6/6
f 2/7/7 1/8/7 26/2/7 10/6/7
f 1/8/7 3/9/7 25/1/7 26/2/7
f 3/9/7 4/10/7 12/5/7 25/1/7
f 4/10/7 2/7/7 10/6/7 12/5/7
f 13/11/7 14/12/7 16/13/7 15/14/7
f 1/15/8 2/16/8 14/16/8 13/15/8
f 2/16/9 4/3/9 16/3/9 14/16/9
f 3/4/10 1/15/10 13/15/10 15/4/10
f 26/2/6 27/2/6 18/6/6 10/6/6
f 12/5/5 20/5/5 28/1/5 25/1/5
f 10/6/4 18/6/4 20/5/4 12/5/4
f 11/17/7 19/18/7 17/19/7 9/19/7
f 27/2/6 23/2/6 21/6/6 18/6/6
f 20/5/5 24/5/5 22/1/5 28/1/5
f 18/6/11 21/6/11 24/5/11 20/5/11
f 28/1/12 22/1/12 23/2/12 27/2/12
f 11/20/13 9/21/13 26/22/13 25/23/13
f 9/21/14 17/21/14 27/22/14 26/22/14
f 19/24/15 11/20/15 25/23/15 28/23/15
f 17/21/16 19/24/16 28/23/16 27/22/16
