# Blender 4.5.2 LTS
# www.blender.org
mtllib door_glass.mtl
o door_glass
v -1.144622 2.317068 -4.016667
v -1.144622 2.317068 -3.983333
v -1.144622 0.091611 -4.016666
v -1.144622 0.091611 -3.983333
v -0.382753 2.317068 -4.016667
v -0.382753 2.317068 -3.983333
v -0.382753 0.091611 -4.016666
v -0.382753 0.091611 -3.983333
vn -0.0000 -0.0000 -1.0000
vn -0.0000 -0.0000 1.0000
vt 0.454181 0.955936
vt 0.458367 0.955936
vt 0.458368 0.959985
vt 0.454181 0.959985
vt 0.454181 0.955936
vt 0.458367 0.955936
s 0
usemtl glass
f 3/1/1 1/2/1 5/3/1 7/4/1
f 4/5/2 8/4/2 6/3/2 2/6/2
