# Blender 4.5.2 LTS
# www.blender.org
mtllib door_2.mtl
o door_2
v 1.666667 0.000000 -4.050000
v 1.666667 2.413218 -4.050000
v 2.616667 0.000000 -4.050000
v 2.616667 2.413218 -4.050000
v 1.760732 2.317068 -4.050000
v 1.760732 0.091611 -4.050000
v 2.522601 2.317068 -4.050000
v 2.522601 0.091611 -4.050000
v 1.666667 0.000000 -3.950000
v 1.666667 2.413218 -3.950000
v 2.616667 0.000000 -3.950000
v 2.616667 2.413218 -3.950000
v 1.760732 2.317068 -3.950000
v 1.760732 0.091611 -3.950000
v 2.522601 2.317068 -3.950000
v 2.522601 0.091611 -3.950000
v 2.546392 1.495379 -3.973645
v 2.546392 0.913300 -3.973645
v 2.588624 0.913300 -3.973645
v 2.588624 1.495379 -3.973645
v 2.546392 1.495379 -3.931213
v 2.555396 1.495379 -3.920889
v 2.555396 0.913300 -3.920889
v 2.546392 0.913300 -3.931213
v 2.588624 0.913300 -3.931213
v 2.579621 0.913300 -3.920889
v 2.579621 1.495379 -3.920889
v 2.588624 1.495379 -3.931213
v 2.588626 1.495379 -4.026354
v 2.588626 0.913300 -4.026355
v 2.546393 0.913300 -4.026355
v 2.546393 1.495379 -4.026354
v 2.588626 1.495379 -4.068787
v 2.579622 1.495379 -4.079111
v 2.579622 0.913300 -4.079111
v 2.588626 0.913300 -4.068787
v 2.546393 0.913300 -4.068787
v 2.555397 0.913300 -4.079111
v 2.555397 1.495379 -4.079111
v 2.546393 1.495379 -4.068787
v 1.760732 1.789928 -4.050000
v 2.522601 1.789928 -4.050000
v 1.760732 1.789928 -3.950000
v 2.522601 1.789928 -3.950000
v 1.760732 2.009728 -4.050000
v 2.522601 2.009728 -4.050000
v 1.760732 2.009728 -3.950000
v 2.522601 2.009728 -3.950000
vn -0.0000 -0.0000 -1.0000
vn -0.0000 -0.0000 1.0000
vn 1.0000 -0.0000 -0.0000
vn -0.0000 -1.0000 -0.0000
vn -1.0000 -0.0000 -0.0000
vn -0.0000 1.0000 -0.0000
vn -0.7536 -0.0000 0.6573
vn 0.7537 -0.0000 0.6573
vn 0.7536 -0.0000 -0.6573
vn -0.7537 -0.0000 -0.6573
vt 0.458367 0.955936
vt 0.454181 0.955936
vt 0.454136 0.955823
vt 0.458412 0.955823
vt 0.458368 0.959985
vt 0.458412 0.960099
vt 0.454181 0.959985
vt 0.454136 0.960099
vt 0.117514 0.883319
vt 0.121701 0.883319
vt 0.121701 0.883319
vt 0.117514 0.883319
vt 0.117514 0.883319
vt 0.121701 0.883319
vt 0.117514 0.883319
vt 0.121701 0.883319
vt 0.117514 0.883319
s 0
usemtl palette1
f 5/1/1 6/2/1 1/3/1 2/4/1
f 7/5/1 5/1/1 2/4/1 4/6/1
f 8/7/1 7/5/1 4/6/1 3/8/1
f 6/2/1 8/7/1 3/8/1 1/3/1
f 13/1/2 10/4/2 9/3/2 14/2/2
f 15/5/2 12/6/2 10/4/2 13/1/2
f 16/7/2 11/8/2 12/6/2 15/5/2
f 14/2/2 9/3/2 11/8/2 16/7/2
f 6/2/3 5/1/3 13/1/3 14/2/3
f 5/1/4 7/5/4 15/5/4 13/1/4
f 7/5/5 8/7/5 16/7/5 15/5/5
f 8/7/6 6/2/6 14/2/6 16/7/6
f 2/4/5 1/3/5 9/3/5 10/4/5
f 4/6/6 2/4/6 10/4/6 12/6/6
f 3/8/3 4/6/3 12/6/3 11/8/3
f 1/3/4 3/8/4 11/8/4 9/3/4
f 23/9/7 22/10/7 21/11/7 24/12/7
f 25/13/8 28/14/8 27/14/8 26/15/8
f 23/9/2 26/15/2 27/14/2 22/10/2
f 17/16/5 18/17/5 24/12/5 21/11/5
f 21/11/6 22/10/6 27/14/6 28/14/6 20/16/6 17/16/6
f 18/17/4 19/17/4 25/13/4 26/15/4 23/9/4 24/12/4
f 20/16/3 28/14/3 25/13/3 19/17/3
f 35/9/9 34/10/9 33/11/9 36/12/9
f 37/13/10 40/14/10 39/14/10 38/15/10
f 35/9/1 38/15/1 39/14/1 34/10/1
f 29/16/3 30/17/3 36/12/3 33/11/3
f 33/11/6 34/10/6 39/14/6 40/14/6 32/16/6 29/16/6
f 30/17/4 31/17/4 37/13/4 38/15/4 35/9/4 36/12/4
f 32/16/5 40/14/5 37/13/5 31/17/5
f 41/1/4 42/5/4 44/5/4 43/1/4
f 45/1/6 47/1/6 48/5/6 46/5/6
f 41/1/1 45/1/1 46/5/1 42/5/1
f 44/5/2 48/5/2 47/1/2 43/1/2
