# Blender 4.5.2 LTS
# www.blender.org
mtllib door_frame_big.mtl
o door_frame_big
v 3.199013 2.527020 -3.875000
v 1.132593 2.527020 -3.875000
v 3.194069 0.000000 -3.875000
v 1.137538 0.000000 -3.875000
v 1.203935 0.000000 -3.875000
v 3.127671 0.000000 -3.875000
v 1.203935 2.418876 -3.875000
v 3.127671 2.418876 -3.875000
v 3.199013 2.527020 -4.125000
v 1.132593 2.527020 -4.125000
v 3.194069 0.000000 -4.125000
v 1.137538 0.000000 -4.125000
v 1.203935 0.000000 -4.125000
v 3.127671 0.000000 -4.125000
v 1.203935 2.418876 -4.125000
v 3.127671 2.418876 -4.125000
vn -0.0000 -0.0000 1.0000
vn -0.0000 -0.0000 -1.0000
vn -0.0000 1.0000 -0.0000
vn -0.0000 -1.0000 -0.0000
vn 1.0000 -0.0020 -0.0000
vn -1.0000 -0.0020 -0.0000
vn 1.0000 -0.0000 -0.0000
vn -1.0000 -0.0000 -0.0000
vt 0.448333 0.958333
vt 0.451520 0.958333
vt 0.451497 0.958333
vt 0.455242 0.958333
vt 0.455732 0.958333
vt 0.458333 0.958333
s 0
usemtl palette1
f 2/1/1 4/1/1 5/2/1 7/3/1 8/4/1 6/5/1 3/6/1 1/6/1
f 10/1/2 9/6/2 11/6/2 14/5/2 16/4/2 15/3/2 13/2/2 12/1/2
f 2/1/3 1/6/3 9/6/3 10/1/3
f 3/6/4 6/5/4 14/5/4 11/6/4
f 1/6/5 3/6/5 11/6/5 9/6/5
f 4/1/6 2/1/6 10/1/6 12/1/6
f 5/2/4 4/1/4 12/1/4 13/2/4
f 7/3/7 5/2/7 13/2/7 15/3/7
f 8/4/4 7/3/4 15/3/4 16/4/4
f 6/5/8 8/4/8 16/4/8 14/5/8
