# Blender 4.5.2 LTS
# www.blender.org
mtllib door_3.mtl
o door_3
v 4.000000 -0.000000 -4.050000
v 4.000000 2.030000 -4.050000
v 4.965713 -0.000000 -4.050000
v 4.965713 2.030000 -4.050000
v 4.000000 0.000000 -3.950000
v 4.000000 2.030000 -3.950000
v 4.965713 0.000000 -3.950000
v 4.965713 2.030000 -3.950000
v 4.896669 1.135862 -3.859540
v 4.915390 1.154583 -3.882034
v 4.909211 1.148404 -3.913639
v 4.907262 1.110289 -3.859540
v 4.933738 1.110289 -3.882034
v 4.924999 1.110289 -3.913639
v 4.861687 1.129108 -3.907897
v 4.896669 1.084716 -3.859540
v 4.915390 1.065995 -3.882034
v 4.909211 1.072174 -3.913639
v 4.850605 1.110290 -3.907897
v 4.871096 1.074123 -3.859540
v 4.871096 1.047647 -3.882034
v 4.871096 1.056386 -3.913639
v 4.861687 1.091472 -3.907897
v 4.871096 1.110289 -3.851307
v 4.845523 1.084716 -3.859540
v 4.826802 1.065995 -3.882034
v 4.832981 1.072174 -3.913639
v 4.834930 1.110289 -3.859540
v 4.808455 1.110289 -3.882034
v 4.817194 1.110289 -3.913639
v 4.880505 1.091472 -3.907897
v 4.845523 1.135862 -3.859540
v 4.826802 1.154583 -3.882034
v 4.832981 1.148404 -3.913639
v 4.891587 1.110290 -3.907897
v 4.871096 1.146455 -3.859540
v 4.871096 1.172930 -3.882034
v 4.871096 1.164192 -3.913639
v 4.880505 1.129108 -3.907897
v 4.880505 1.129108 -4.092103
v 4.861687 1.129108 -4.092103
v 4.850605 1.110290 -4.092103
v 4.861687 1.091472 -4.092103
v 4.880505 1.091472 -4.092103
v 4.891587 1.110290 -4.092103
v 4.845522 1.135862 -4.140460
v 4.826802 1.154583 -4.117967
v 4.832981 1.148404 -4.086361
v 4.834929 1.110289 -4.140460
v 4.808455 1.110289 -4.117967
v 4.817193 1.110289 -4.086361
v 4.845522 1.084716 -4.140460
v 4.826802 1.065995 -4.117967
v 4.832981 1.072174 -4.086361
v 4.871096 1.074123 -4.140460
v 4.871096 1.047647 -4.117967
v 4.871096 1.056386 -4.086361
v 4.871096 1.110289 -4.148693
v 4.896669 1.084716 -4.140460
v 4.915390 1.065995 -4.117967
v 4.909211 1.072174 -4.086361
v 4.907262 1.110289 -4.140460
v 4.933737 1.110289 -4.117967
v 4.924998 1.110289 -4.086361
v 4.896669 1.135862 -4.140460
v 4.915390 1.154583 -4.117967
v 4.909211 1.148404 -4.086361
v 4.871096 1.146455 -4.140460
v 4.871096 1.172930 -4.117967
v 4.871096 1.164192 -4.086361
v 4.244873 1.571843 -3.933952
v 4.236634 1.763757 -3.933952
v 4.729078 1.592630 -3.933952
v 4.720840 1.784544 -3.933952
v 4.236634 1.763757 -3.950000
v 4.244873 1.571843 -3.950000
v 4.720840 1.784544 -3.950000
v 4.729078 1.592630 -3.950000
vn -0.0000 -0.0000 -1.0000
vn -0.0000 -0.0000 1.0000
vn -1.0000 -0.0000 -0.0000
vn -0.0000 1.0000 -0.0000
vn 1.0000 -0.0000 -0.0000
vn -0.0000 -1.0000 -0.0000
vn 0.8617 0.5075 -0.0000
vn 0.2590 0.6254 0.7361
vn 0.0916 0.2210 0.9710
vn 0.6254 0.2590 0.7361
vn 0.8951 -0.3708 -0.2475
vn 0.2210 0.0916 0.9710
vn -0.8617 0.5074 -0.0000
vn 0.3708 -0.8951 -0.2475
vn 0.2210 -0.0916 0.9710
vn 0.6254 -0.2590 0.7361
vn -0.3708 -0.8951 -0.2475
vn 0.0916 -0.2210 0.9710
vn 0.2590 -0.6254 0.7361
vn -0.8951 -0.3708 -0.2475
vn -0.0916 -0.2210 0.9710
vn -0.2590 -0.6254 0.7361
vn 0.8617 -0.5074 -0.0000
vn -0.8951 0.3708 -0.2475
vn -0.2210 -0.0916 0.9710
vn -0.6254 -0.2590 0.7361
vn -0.3708 0.8951 -0.2475
vn -0.2210 0.0916 0.9710
vn -0.6254 0.2590 0.7361
vn -0.0916 0.2210 0.9710
vn 0.3708 0.8951 -0.2475
vn -0.2590 0.6254 0.7361
vn 0.8951 0.3708 -0.2475
vn -0.8617 -0.5074 -0.0000
vn -0.2590 0.6254 -0.7361
vn -0.0916 0.2210 -0.9710
vn -0.6254 0.2590 -0.7361
vn -0.8951 -0.3708 0.2475
vn -0.2210 0.0916 -0.9710
vn -0.3708 -0.8951 0.2475
vn -0.2210 -0.0916 -0.9710
vn -0.6254 -0.2590 -0.7361
vn 0.3708 -0.8951 0.2475
vn -0.0916 -0.2210 -0.9710
vn -0.2590 -0.6254 -0.7361
vn 0.8951 -0.3708 0.2475
vn 0.0916 -0.2210 -0.9710
vn 0.2590 -0.6254 -0.7361
vn 0.8951 0.3708 0.2475
vn 0.2210 -0.0916 -0.9710
vn 0.6254 -0.2590 -0.7361
vn 0.3708 0.8951 0.2475
vn 0.2210 0.0916 -0.9710
vn 0.6254 0.2590 -0.7361
vn 0.0916 0.2210 -0.9710
vn -0.3708 0.8951 0.2475
vn 0.2590 0.6254 -0.7361
vn -0.8951 0.3708 0.2475
vn 0.9991 0.0429 -0.0000
vn -0.9991 -0.0429 -0.0000
vn 0.0429 -0.9991 -0.0000
vn -0.0429 0.9991 -0.0000
vt 0.295079 0.970099
vt 0.290803 0.970099
vt 0.290803 0.965823
vt 0.295079 0.965823
vt 0.124583 0.961667
vt 0.123333 0.961667
vt 0.125833 0.965000
vt 0.125833 0.966667
vt 0.124583 0.966667
vt 0.124583 0.965000
vt 0.119583 0.961667
vt 0.122083 0.961667
vt 0.125208 0.968333
vt 0.123333 0.966667
vt 0.123333 0.965000
vt 0.122083 0.965000
vt 0.123958 0.968333
vt 0.128333 0.961667
vt 0.127083 0.961667
vt 0.120833 0.965000
vt 0.120833 0.961667
vt 0.122708 0.968333
vt 0.122083 0.966667
vt 0.119583 0.965000
vt 0.121458 0.968333
vt 0.120833 0.966667
vt 0.118333 0.965000
vt 0.118333 0.961667
vt 0.120208 0.968333
vt 0.119583 0.966667
vt 0.128333 0.965000
vt 0.127083 0.965000
vt 0.118958 0.968333
vt 0.118333 0.966667
vt 0.125833 0.961667
vt 0.128333 0.966667
vt 0.127708 0.968333
vt 0.127083 0.966667
vt 0.126458 0.968333
vt 0.208412 0.880099
vt 0.208412 0.875823
vt 0.204136 0.875823
vt 0.204136 0.880099
vt 0.044136 0.960099
vt 0.048412 0.960099
vt 0.048412 0.955823
vt 0.044136 0.955823
s 0
usemtl palette1
f 4/1/1 3/2/1 1/3/1 2/4/1
f 8/1/2 6/4/2 5/3/2 7/2/2
f 2/4/3 1/3/3 5/3/3 6/4/3
f 4/1/4 2/4/4 6/4/4 8/1/4
f 3/2/5 4/1/5 8/1/5 7/2/5
f 1/3/6 3/2/6 7/2/6 5/3/6
f 39/5/7 35/6/7 45/6/7 40/5/7
f 37/7/8 36/8/8 9/9/8 10/10/8
f 23/11/6 43/11/6 44/12/6 31/12/6
f 36/8/9 24/13/9 9/9/9
f 10/10/10 9/9/10 12/14/10 13/15/10
f 14/6/11 13/15/11 17/16/11 18/12/11
f 9/9/12 24/17/12 12/14/12
f 19/18/13 15/19/13 41/19/13 42/18/13
f 18/12/14 17/16/14 21/20/14 22/21/14
f 12/14/15 24/22/15 16/23/15
f 13/15/16 12/14/16 16/23/16 17/16/16
f 39/5/4 40/5/4 41/19/4 15/19/4
f 22/21/17 21/20/17 26/24/17 27/11/17
f 16/23/18 24/25/18 20/26/18
f 17/16/19 16/23/19 20/26/19 21/20/19
f 27/11/20 26/24/20 29/27/20 30/28/20
f 20/26/21 24/29/21 25/30/21
f 21/20/22 20/26/22 25/30/22 26/24/22
f 35/6/23 31/12/23 44/12/23 45/6/23
f 30/18/24 29/31/24 33/32/24 34/19/24
f 25/30/25 24/33/25 28/34/25
f 26/24/26 25/30/26 28/34/26 29/27/26
f 33/32/27 37/7/27 38/35/27 34/19/27
f 28/36/28 24/37/28 32/38/28
f 29/31/29 28/36/29 32/38/29 33/32/29
f 32/38/30 24/39/30 36/8/30
f 37/7/31 10/10/31 11/5/31 38/35/31
f 33/32/32 32/38/32 36/8/32 37/7/32
f 11/5/1 14/6/1 18/12/1 22/21/1 27/11/1 30/18/1 34/19/1 38/35/1
f 11/5/33 10/10/33 13/15/33 14/6/33
f 23/11/34 19/18/34 42/18/34 43/11/34
f 69/7/35 68/8/35 46/9/35 47/10/35
f 68/8/36 58/13/36 46/9/36
f 47/10/37 46/9/37 49/14/37 50/15/37
f 51/6/38 50/15/38 53/16/38 54/12/38
f 46/9/39 58/17/39 49/14/39
f 54/12/40 53/16/40 56/20/40 57/21/40
f 49/14/41 58/22/41 52/23/41
f 50/15/42 49/14/42 52/23/42 53/16/42
f 57/21/43 56/20/43 60/24/43 61/11/43
f 52/23/44 58/25/44 55/26/44
f 53/16/45 52/23/45 55/26/45 56/20/45
f 61/11/46 60/24/46 63/27/46 64/28/46
f 55/26/47 58/29/47 59/30/47
f 56/20/48 55/26/48 59/30/48 60/24/48
f 64/18/49 63/31/49 66/32/49 67/19/49
f 59/30/50 58/33/50 62/34/50
f 60/24/51 59/30/51 62/34/51 63/27/51
f 66/32/52 69/7/52 70/35/52 67/19/52
f 62/36/53 58/37/53 65/38/53
f 63/31/54 62/36/54 65/38/54 66/32/54
f 65/38/55 58/39/55 68/8/55
f 69/7/56 47/10/56 48/5/56 70/35/56
f 66/32/57 65/38/57 68/8/57 69/7/57
f 48/5/2 51/6/2 54/12/2 57/21/2 61/11/2 64/18/2 67/19/2 70/35/2
f 48/5/58 47/10/58 50/15/58 51/6/58
f 74/40/2 72/41/2 71/42/2 73/43/2
f 73/44/59 78/44/59 77/45/59 74/45/59
f 72/46/60 75/46/60 76/47/60 71/47/60
f 71/47/61 76/47/61 78/44/61 73/44/61
f 74/45/62 77/45/62 75/46/62 72/46/62
