# Blender 4.5.2 LTS
# www.blender.org
mtllib employee_of_the_month.mtl
o employee_of_the_month
v 6.352956 -0.189171 -1.976828
v 6.352956 0.189850 -1.976828
v 6.647039 -0.189171 -1.976828
v 6.647039 0.189850 -1.976828
v 6.305092 -0.236306 -1.976828
v 6.305092 0.236983 -1.976828
v 6.694903 0.236983 -1.976828
v 6.694903 -0.236306 -1.976828
v 6.359431 -0.180826 -1.992242
v 6.359431 0.181505 -1.992242
v 6.640565 0.181505 -1.992242
v 6.640565 -0.180826 -1.992242
v 6.694903 -0.236306 -2.024196
v 6.694903 0.236983 -2.024197
v 6.305092 0.236983 -2.024197
v 6.305092 -0.236306 -2.024196
vn -0.0000 -0.0000 -1.0000
vn 1.0000 -0.0000 -0.0000
vn -0.0000 0.8794 0.4761
vn -1.0000 -0.0000 -0.0000
vn -0.0000 -0.0000 1.0000
vn 0.9220 -0.0000 0.3873
vn -0.0000 -0.8794 0.4761
vn -0.9220 -0.0000 0.3873
vn -0.0000 -1.0000 -0.0000
vn -0.0000 1.0000 -0.0000
vt 0.453147 0.964026
vt 0.453147 0.968600
vt 0.457721 0.968600
vt 0.457721 0.964026
vt 0.453377 0.968482
vt 0.453377 0.964143
vt 0.457491 0.968482
vt 0.457491 0.964143
vt 0.842415 0.151347
vt 0.842415 0.493654
vt 0.554395 0.493654
vt 0.554395 0.151346
s 0
usemtl palette1
f 13/1/1 16/2/1 15/3/1 14/4/1
f 7/4/2 8/1/2 13/1/2 14/4/2
f 1/5/3 3/6/3 12/6/3 9/5/3
f 5/2/4 6/3/4 15/3/4 16/2/4
f 1/5/5 2/7/5 6/3/5 5/2/5
f 4/8/5 3/6/5 8/1/5 7/4/5
f 3/6/5 1/5/5 5/2/5 8/1/5
f 2/7/5 4/8/5 7/4/5 6/3/5
f 2/7/6 1/5/6 9/5/6 10/7/6
f 4/8/7 2/7/7 10/7/7 11/8/7
f 3/6/8 4/8/8 11/8/8 12/6/8
f 8/1/9 5/2/9 16/2/9 13/1/9
f 6/3/10 7/4/10 14/4/10 15/3/10
usemtl painting
f 12/9/5 11/10/5 10/11/5 9/12/5
