# Blender 4.5.2 LTS
# www.blender.org
mtllib floor_tile_1.mtl
o floor_tile_1
v 6.491989 0.050000 -2.508011
v 5.508011 0.050000 -2.508011
v 6.491989 0.050000 -3.491989
v 5.508011 0.050000 -3.491989
v 6.500000 -0.000000 -2.500000
v 5.500000 -0.000000 -2.500000
v 6.500000 0.000000 -3.500000
v 5.500000 0.000000 -3.500000
vn -0.0000 1.0000 -0.0000
vn -0.0000 0.1582 0.9874
vn -0.0000 0.1582 -0.9874
vn 0.9874 0.1582 -0.0000
vn -0.9874 0.1582 -0.0000
vt 0.285000 0.955000
vt 0.295000 0.955000
vt 0.205000 0.961667
vt 0.195000 0.961667
s 0
usemtl palette1
f 2/1/1 1/2/1 3/2/1 4/1/1
f 1/3/2 2/4/2 6/4/2 5/3/2
f 4/4/3 3/3/3 7/3/3 8/4/3
f 3/3/4 1/3/4 5/3/4 7/3/4
f 2/4/5 4/4/5 8/4/5 6/4/5
