# Blender 4.5.2 LTS
# www.blender.org
mtllib floor_tile_2.mtl
o floor_tile_2
v 5.500000 0.050000 -2.511963
v 4.500000 0.050000 -2.511963
v 5.500000 0.050000 -3.488037
v 4.500000 0.050000 -3.488037
v 5.500000 0.050000 -2.843093
v 5.500000 0.050000 -2.823574
v 5.500000 0.050000 -3.176426
v 5.500000 0.050000 -3.156907
v 4.500000 0.050000 -3.156907
v 4.500000 0.050000 -3.176426
v 4.500000 0.050000 -2.823574
v 4.500000 0.050000 -2.843093
v 4.773178 0.050000 -2.843093
v 4.753448 0.050000 -2.843093
v 4.753448 0.050000 -3.156907
v 4.773178 0.050000 -3.156907
v 4.978180 0.050000 -3.488037
v 4.997910 0.050000 -3.488037
v 4.997910 0.050000 -3.176426
v 4.978180 0.050000 -3.176426
v 5.259655 0.050000 -2.511963
v 5.239925 0.050000 -2.511963
v 5.239925 0.050000 -2.823574
v 5.259655 0.050000 -2.823574
v 5.500000 -0.000000 -2.511963
v 4.500000 -0.000000 -2.511963
v 5.500000 0.000000 -3.488037
v 4.500000 0.000000 -3.488037
v 5.500000 -0.000000 -2.843093
v 5.500000 -0.000000 -2.823574
v 5.500000 0.000000 -3.176426
v 5.500000 0.000000 -3.156907
v 4.500000 0.000000 -3.156907
v 4.500000 0.000000 -3.176426
v 4.500000 -0.000000 -2.823574
v 4.500000 -0.000000 -2.843093
v 4.773178 -0.000000 -2.843093
v 4.753448 -0.000000 -2.843093
v 4.753448 0.000000 -3.156907
v 4.773178 0.000000 -3.156907
v 4.978180 0.000000 -3.488037
v 4.997910 0.000000 -3.488037
v 4.997910 0.000000 -3.176426
v 4.978180 0.000000 -3.176426
v 5.259655 -0.000000 -2.511963
v 5.239925 -0.000000 -2.511963
v 5.239925 -0.000000 -2.823574
v 5.259655 -0.000000 -2.823574
vn -0.0000 1.0000 -0.0000
vn -1.0000 -0.0000 -0.0000
vn 1.0000 -0.0000 -0.0000
vn -0.0000 -0.0000 1.0000
vn -0.0000 -0.0000 -1.0000
vt 0.285000 0.961667
vt 0.287534 0.961667
vt 0.287732 0.961667
vt 0.295000 0.961667
vt 0.293315 0.961667
vt 0.295000 0.961667
vt 0.285000 0.961667
vt 0.293118 0.961667
vt 0.293118 0.961667
vt 0.292597 0.961667
vt 0.292399 0.961667
vt 0.292399 0.961667
vt 0.195000 0.958333
vt 0.195000 0.958333
vt 0.205000 0.958333
vt 0.205000 0.958333
vt 0.197732 0.958333
vt 0.197534 0.958333
vt 0.203315 0.958333
vt 0.203118 0.958333
vt 0.203118 0.958333
vt 0.202597 0.958333
vt 0.202399 0.958333
vt 0.202399 0.958333
s 0
usemtl palette1
f 12/1/1 14/2/1 15/2/1 9/1/1
f 13/3/1 5/4/1 8/4/1 16/3/1
f 19/5/1 7/6/1 3/4/1 18/5/1
f 10/7/1 20/8/1 17/9/1 4/1/1
f 21/10/1 1/4/1 6/6/1 24/10/1
f 2/1/1 22/11/1 23/12/1 11/7/1
f 2/13/2 11/14/2 35/14/2 26/13/2
f 6/15/3 1/16/3 25/16/3 30/15/3
f 12/13/2 9/13/2 33/13/2 36/13/2
f 8/16/3 5/16/3 29/16/3 32/16/3
f 10/14/2 4/13/2 28/13/2 34/14/2
f 3/16/3 7/15/3 31/15/3 27/16/3
f 13/17/2 16/17/2 40/17/2 37/17/2
f 15/18/3 14/18/3 38/18/3 39/18/3
f 19/19/2 18/19/2 42/19/2 43/19/2
f 17/20/3 20/21/3 44/21/3 41/20/3
f 21/22/2 24/22/2 48/22/2 45/22/2
f 23/23/3 22/24/3 46/24/3 47/23/3
f 14/18/4 12/13/4 36/13/4 38/18/4
f 9/13/5 15/18/5 39/18/5 33/13/5
f 5/16/4 13/17/4 37/17/4 29/16/4
f 16/17/5 8/16/5 32/16/5 40/17/5
f 7/15/4 19/19/4 43/19/4 31/15/4
f 18/19/5 3/16/5 27/16/5 42/19/5
f 20/21/4 10/14/4 34/14/4 44/21/4
f 4/13/5 17/20/5 41/20/5 28/13/5
f 1/16/4 21/22/4 45/22/4 25/16/4
f 24/22/5 6/15/5 30/15/5 48/22/5
f 22/24/4 2/13/4 26/13/4 46/24/4
f 11/14/5 23/23/5 47/23/5 35/14/5
