# Blender 4.5.2 LTS
# www.blender.org
mtllib floor_tile_textured.mtl
o floor_tile_textured
v 7.500000 0.050000 -2.500000
v 6.500000 0.050000 -2.500000
v 7.500000 0.050000 -3.500000
v 6.500000 0.050000 -3.500000
v 7.500000 -0.000000 -2.500000
v 6.500000 -0.000000 -2.500000
v 7.500000 0.000000 -3.500000
v 6.500000 0.000000 -3.500000
vn -0.0000 1.0000 -0.0000
vn -0.0000 -0.0000 1.0000
vn -0.0000 -0.0000 -1.0000
vn 1.0000 -0.0000 -0.0000
vn -1.0000 -0.0000 -0.0000
vt 1.000000 1.000000
vt 0.000000 1.000000
vt 0.000000 0.000000
vt 1.000000 0.000000
vt 0.207426 0.955000
vt 0.205907 0.955000
s 0
usemtl floor_tile
f 2/1/1 1/2/1 3/3/1 4/4/1
f 1/5/2 2/6/2 6/6/2 5/5/2
f 4/6/3 3/5/3 7/5/3 8/6/3
f 3/5/4 1/5/4 5/5/4 7/5/4
f 2/6/5 4/6/5 8/6/5 6/6/5
