# Blender 4.5.2 LTS
# www.blender.org
mtllib menu_outside.mtl
o menu_outside
v 1.239504 0.160182 -0.929702
v 0.760496 0.160182 -0.929702
v 1.239504 0.160182 -0.908246
v 0.760496 0.160182 -0.908246
v 0.760496 0.861831 -1.000000
v 1.239504 0.861831 -1.000000
v 1.239504 0.866295 -0.978858
v 0.760496 0.866295 -0.978858
v 0.791835 0.160182 -0.929702
v 1.208165 0.160182 -0.929702
v 1.208165 0.160182 -0.908246
v 0.791835 0.160182 -0.908246
v 1.208165 -0.000744 -0.913610
v 1.239504 -0.000744 -0.913610
v 0.791835 -0.000744 -0.892154
v 0.760496 -0.000744 -0.892154
v 1.239504 -0.000744 -0.892154
v 0.760496 -0.000744 -0.913610
v 0.791835 -0.000744 -0.913610
v 1.208165 -0.000744 -0.892154
v 1.239504 0.160182 -1.070298
v 0.760496 0.160182 -1.070298
v 1.239504 0.160182 -1.091754
v 0.760496 0.160182 -1.091754
v 1.239504 0.866295 -1.021142
v 0.760496 0.866295 -1.021142
v 0.791835 0.160182 -1.070298
v 1.208165 0.160182 -1.070298
v 1.208165 0.160182 -1.091754
v 0.791835 0.160182 -1.091754
v 1.208165 -0.000744 -1.086390
v 1.239504 -0.000744 -1.086390
v 0.791835 -0.000744 -1.107846
v 0.760496 -0.000744 -1.107846
v 1.239504 -0.000744 -1.107846
v 0.760496 -0.000744 -1.086390
v 0.791835 -0.000744 -1.086390
v 1.208165 -0.000744 -1.107846
vn -1.0000 -0.0000 -0.0000
vn 1.0000 -0.0000 -0.0000
vn -0.0000 -0.0997 -0.9950
vn -0.0000 0.0995 0.9950
vn -0.0000 0.9784 -0.2066
vn -0.0000 -0.0995 -0.9950
vn -0.0000 -1.0000 -0.0000
vn -0.0000 -0.0997 0.9950
vn -0.0000 0.0995 -0.9950
vn -0.0000 0.9784 0.2066
vn -0.0000 -0.0995 0.9950
vt 0.115353 0.964647
vt 0.115353 0.964647
vt 0.124646 0.964647
vt 0.124647 0.964647
vt 0.124038 0.964647
vt 0.115961 0.964647
vt 0.363976 0.376695
vt 0.363976 0.881020
vt 0.023553 0.881020
vt 0.023553 0.376695
vt 0.045825 0.376695
vt 0.341704 0.376695
vt 0.124039 0.964647
vt 0.115961 0.964647
s 0
usemtl palette1
f 4/1/1 8/1/1 5/2/1 2/2/1
f 1/3/2 6/3/2 7/4/2 3/4/2
f 2/2/3 5/2/3 6/3/3 1/3/3 10/5/3 9/6/3
f 7/4/5 6/3/5 5/2/5 8/1/5
f 9/6/6 19/6/6 18/2/6 2/2/6
f 11/13/4 20/13/4 17/4/4 3/4/4
f 11/13/7 12/14/7 9/6/7 10/5/7
f 17/4/7 20/13/7 13/5/7 14/3/7
f 15/14/7 16/1/7 18/2/7 19/6/7
f 3/4/2 17/4/2 14/3/2 1/3/2
f 12/14/2 15/14/2 19/6/2 9/6/2
f 1/3/6 14/3/6 13/5/6 10/5/6
f 2/2/1 18/2/1 16/1/1 4/1/1
f 4/1/4 16/1/4 15/14/4 12/14/4
f 10/5/1 13/5/1 20/13/1 11/13/1
f 24/1/1 22/2/1 5/2/1 26/1/1
f 21/3/2 23/4/2 25/4/2 6/3/2
f 22/2/8 27/6/8 28/5/8 21/3/8 6/3/8 5/2/8
f 25/4/10 26/1/10 5/2/10 6/3/10
f 27/6/11 22/2/11 36/2/11 37/6/11
f 29/13/9 23/4/9 35/4/9 38/13/9
f 29/13/7 28/5/7 27/6/7 30/14/7
f 35/4/7 32/3/7 31/5/7 38/13/7
f 33/14/7 37/6/7 36/2/7 34/1/7
f 23/4/2 21/3/2 32/3/2 35/4/2
f 30/14/2 27/6/2 37/6/2 33/14/2
f 21/3/11 28/5/11 31/5/11 32/3/11
f 22/2/1 24/1/1 34/1/1 36/2/1
f 24/1/9 30/14/9 33/14/9 34/1/9
f 28/5/1 29/13/1 38/13/1 31/5/1
usemtl main_textures
f 3/7/4 7/8/4 8/9/4 4/10/4 12/11/4 11/12/4
f 23/7/9 29/12/9 30/11/9 24/10/9 26/9/9 25/8/9
