# Blender 4.5.2 LTS
# www.blender.org
mtllib menu_big_painting.mtl
o menu_big_painting
v 4.324325 -0.327225 -1.993767
v 4.324325 0.327225 -1.993767
v 5.675675 0.327225 -1.993767
v 5.675675 -0.327225 -1.993767
v 5.720182 -0.366321 -2.033999
v 4.279819 -0.366321 -2.033999
v 5.720182 0.366321 -2.033999
v 4.279819 0.366321 -2.033999
v 5.701360 -0.350652 -1.972056
v 4.298640 -0.350652 -1.972056
v 4.298640 0.350652 -1.972056
v 4.279818 0.366321 -1.972056
v 5.720182 -0.366321 -1.972056
v 4.279818 -0.366321 -1.972056
v 5.720182 0.366321 -1.972056
v 5.701360 0.350652 -1.972056
v 4.713445 0.414583 -1.972056
v 4.351458 0.403582 -2.033999
v 5.648541 0.403582 -2.033999
v 4.567638 0.390521 -1.972056
v 5.432361 0.390521 -2.033999
v 4.351458 0.403582 -1.972056
v 5.648541 0.403582 -1.972056
v 5.286554 0.414583 -2.033999
v 4.713445 0.414583 -2.033999
v 4.567639 0.390521 -2.033999
v 5.286554 0.414583 -1.972056
v 5.432361 0.390521 -1.972056
v 5.172462 0.461501 -1.972056
v 4.827537 0.461501 -1.972056
v 5.000000 0.480441 -1.972056
v 4.827538 0.461501 -2.033999
v 5.172462 0.461501 -2.033999
v 5.000000 0.480441 -2.033999
v 5.542717 -0.400904 -2.033999
v 4.457283 -0.400904 -2.033999
v 5.271358 -0.381311 -1.972056
v 5.000000 -0.398092 -1.972056
v 4.457282 -0.400904 -1.972056
v 5.542717 -0.400904 -1.972056
v 4.728641 -0.381311 -1.972056
v 4.728641 -0.381311 -2.033999
v 5.000000 -0.398092 -2.033999
v 5.271358 -0.381311 -2.033999
v 5.277718 -0.401168 -2.003027
v 5.737060 0.387040 -2.003027
v 4.262940 0.387040 -2.003027
v 5.293270 0.437922 -2.003027
v 4.706729 0.437922 -2.003027
v 4.557506 0.412554 -2.003027
v 4.336259 0.426323 -2.003027
v 5.663740 0.426323 -2.003027
v 5.442493 0.412554 -2.003027
v 5.176503 0.487386 -2.003027
v 5.000000 0.507354 -2.003027
v 4.823496 0.487386 -2.003027
v 5.000000 -0.418860 -2.003027
v 5.737060 -0.385365 -2.003027
v 4.262940 -0.385365 -2.003027
v 4.722281 -0.401168 -2.003027
v 5.555436 -0.421826 -2.003027
v 4.444563 -0.421826 -2.003027
vn -0.0000 -0.0000 1.0000
vn 0.8781 -0.0000 0.4785
vn -0.0000 -0.6797 0.7335
vn -0.8781 -0.0000 0.4785
vn -0.3536 0.6697 0.6530
vn -0.0000 0.6797 0.7335
vn 0.6456 -0.0000 0.7637
vn -0.6456 -0.0000 0.7637
vn 0.1571 -0.7940 0.5873
vn -0.1311 0.7824 0.6088
vn 0.1311 0.7824 0.6088
vn 0.3536 0.6697 0.6530
vn -0.0502 0.8191 0.5715
vn 0.0502 0.8191 0.5715
vn 0.0843 0.7556 -0.6496
vn -0.0843 0.7556 -0.6496
vn -0.3008 0.7205 0.6248
vn 0.3008 0.7205 0.6248
vn -0.0000 -0.0000 -1.0000
vn -0.0523 -0.8326 0.5514
vn 0.0523 -0.8326 0.5514
vn -0.1571 -0.7940 0.5873
vn 0.0617 -0.8423 0.5355
vn -0.0617 -0.8423 0.5355
vn -0.0617 -0.8423 -0.5355
vn 0.0617 -0.8423 -0.5355
vn -0.1571 -0.7940 -0.5873
vn 0.0523 -0.8326 -0.5514
vn -0.0523 -0.8326 -0.5514
vn 0.3008 0.7205 -0.6248
vn -0.3008 0.7205 -0.6248
vn -0.0843 0.7556 0.6496
vn 0.0843 0.7556 0.6496
vn 0.0502 0.8191 -0.5715
vn -0.0502 0.8191 -0.5715
vn 0.3536 0.6697 -0.6530
vn 0.1311 0.7824 -0.6088
vn -0.1311 0.7824 -0.6088
vn 0.1571 -0.7940 -0.5873
vn -0.3536 0.6697 -0.6530
vn -0.8781 -0.0000 -0.4785
vn 0.8781 -0.0000 -0.4785
vt 0.994535 0.514057
vt 0.994535 0.990943
vt 0.009830 0.990943
vt 0.009830 0.514057
vt 0.546252 0.966264
vt 0.546252 0.961496
vt 0.538505 0.966264
vt 0.548352 0.966264
vt 0.536405 0.961496
vt 0.536405 0.966264
vt 0.539688 0.966264
vt 0.539688 0.961496
vt 0.540508 0.961496
vt 0.541329 0.961496
vt 0.542149 0.961496
vt 0.542970 0.961496
vt 0.548352 0.961496
vt 0.538505 0.961496
vt 0.540235 0.966264
vt 0.540782 0.966264
vt 0.541876 0.966264
vt 0.542423 0.966264
vt 0.542970 0.966264
vt 0.284932 0.959598
vt 0.284662 0.959500
vt 0.284662 0.959549
vt 0.284392 0.959598
vt 0.284392 0.959598
vt 0.541059 0.966264
vt 0.541059 0.966264
vt 0.541599 0.966264
vt 0.541599 0.966264
vt 0.541329 0.966265
vt 0.289586 0.954829
vt 0.286303 0.954829
vt 0.285483 0.954829
vt 0.284662 0.954829
vt 0.283842 0.954829
vt 0.283021 0.954829
vt 0.279739 0.954829
vt 0.279739 0.959598
vt 0.283021 0.959598
vt 0.283568 0.959598
vt 0.284115 0.959598
vt 0.285209 0.959598
vt 0.285756 0.959598
vt 0.286303 0.959598
vt 0.289586 0.959598
vt 0.541329 0.966215
s 0
usemtl palette1
f 46/5/2 15/5/2 13/6/2 58/6/2
f 2/7/3 3/8/3 16/8/3 11/7/3
f 59/9/4 14/9/4 12/10/4 47/10/4
f 47/10/5 12/10/5 22/11/5 51/11/5
f 10/9/1 11/10/1 12/10/1 14/9/1
f 9/6/1 10/9/1 14/9/1 39/12/1 41/13/1 38/14/1 37/15/1 40/16/1 13/6/1
f 16/5/1 9/6/1 13/6/1 15/5/1
f 4/17/6 1/18/6 10/18/6 9/17/6
f 1/18/7 2/7/7 11/7/7 10/18/7
f 3/8/8 4/17/8 9/17/8 16/8/8
f 58/6/9 13/6/9 40/16/9 61/16/9
f 50/19/10 20/19/10 17/20/10 49/20/10
f 48/21/11 27/21/11 28/22/11 53/22/11
f 52/23/12 23/23/12 15/5/12 46/5/12
f 53/22/13 28/22/13 23/23/13 52/23/13
f 51/11/14 22/11/14 20/19/14 50/19/14
f 54/24/15 33/24/15 34/25/15 55/26/15
f 55/26/16 34/25/16 32/27/16 56/28/16
f 49/20/17 17/20/17 30/29/17 56/30/17
f 54/31/18 29/32/18 27/21/18 48/21/18
f 11/10/1 16/5/1 15/5/1 23/23/1 28/22/1 27/21/1 29/32/1 31/33/1 30/29/1 17/20/1 20/19/1 22/11/1 12/10/1
f 5/34/19 35/35/19 44/36/19 43/37/19 42/38/19 36/39/19 6/40/19 8/41/19 18/42/19 26/43/19 25/44/19 32/27/19 34/25/19 33/24/19 24/45/19 21/46/19 19/47/19 7/48/19
f 57/14/20 38/14/20 41/13/20 60/13/20
f 45/15/21 37/15/21 38/14/21 57/14/21
f 62/12/22 39/12/22 14/9/22 59/9/22
f 60/13/23 41/13/23 39/12/23 62/12/23
f 61/16/24 40/16/24 37/15/24 45/15/24
f 35/35/25 61/35/25 45/36/25 44/36/25
f 42/38/26 60/38/26 62/39/26 36/39/26
f 36/39/27 62/39/27 59/40/27 6/40/27
f 44/36/28 45/36/28 57/37/28 43/37/28
f 43/37/29 57/37/29 60/38/29 42/38/29
f 33/24/30 54/24/30 48/45/30 24/45/30
f 25/44/31 49/44/31 56/28/31 32/27/31
f 31/33/32 55/49/32 56/30/32 30/29/32
f 29/32/33 54/31/33 55/49/33 31/33/33
f 18/42/34 51/42/34 50/43/34 26/43/34
f 21/46/35 53/46/35 52/47/35 19/47/35
f 19/47/36 52/47/36 46/48/36 7/48/36
f 24/45/37 48/45/37 53/46/37 21/46/37
f 26/43/38 50/43/38 49/44/38 25/44/38
f 5/34/39 58/34/39 61/35/39 35/35/39
f 8/41/40 47/41/40 51/42/40 18/42/40
f 6/40/41 59/40/41 47/41/41 8/41/41
f 7/48/42 46/48/42 58/34/42 5/34/42
usemtl painting
f 4/1/1 3/2/1 2/3/1 1/4/1
