# Blender 4.5.2 LTS
# www.blender.org
mtllib menu_small.mtl
o menu_small
v -3.568229 0.969623 1.026437
v -3.374875 0.969623 1.026437
v -3.374875 0.969623 0.971697
v -3.568229 0.969623 0.971697
v -3.568229 0.959913 1.038212
v -3.374875 0.959913 1.038212
v -3.374875 0.959913 0.967675
v -3.568229 0.959913 0.967675
v -3.568229 1.242226 0.989031
v -3.568229 1.239527 0.987309
v -3.374875 1.239527 0.987309
v -3.374875 1.242226 0.989031
v -3.568229 1.241349 0.997177
v -3.568229 1.243287 0.994779
v -3.374875 1.243287 0.994779
v -3.374875 1.241349 0.997177
vn -0.0000 1.0000 -0.0000
vn -0.0000 -1.0000 -0.0000
vn -0.0000 0.3826 -0.9239
vn -1.0000 -0.0000 -0.0000
vn 1.0000 -0.0000 -0.0000
vn -0.0000 0.5379 -0.8430
vn -0.0000 0.7778 0.6286
vn -0.0000 0.9834 -0.1816
vn -0.0000 -0.1435 -0.9897
vn -0.0000 0.1443 0.9895
vt 0.380982 0.875000
vt 0.371667 0.875000
vt 0.371667 0.865000
vt 0.380982 0.865000
vt 0.381667 0.875000
vt 0.381667 0.865000
vt 0.381949 0.875000
vt 0.381949 0.865000
vt 0.382615 0.865000
vt 0.382615 0.875000
vt 0.374105 0.875000
vt 0.381442 0.875000
vt 0.382562 0.875000
vt 0.373697 0.875000
vt 0.381442 0.865000
vt 0.374105 0.865000
vt 0.373697 0.865000
vt 0.382562 0.865000
vt 0.371667 0.875000
vt 0.371667 0.865000
vt 0.371667 0.865000
vt 0.371667 0.875000
vt 0.371667 0.865000
vt 0.371667 0.865000
vt 0.371667 0.875000
vt 0.371667 0.865000
vt 0.371667 0.875000
vt 0.371667 0.875000
vt 0.371667 0.865000
vt 0.371667 0.865000
vt 0.371667 0.875000
vt 0.371667 0.865000
vt 0.371667 0.875000
vt 0.371667 0.875000
vt 0.371667 0.875000
vt 0.371667 0.875000
vt 0.371667 0.875000
vt 0.371667 0.875000
vt 0.371667 0.865000
vt 0.371667 0.865000
vt 0.371667 0.865000
vt 0.371667 0.865000
vt 0.362522 0.379654
vt 0.362522 0.877830
vt 0.023820 0.877830
vt 0.023820 0.379654
s 0
usemtl palette1
f 4/1/1 1/2/1 2/3/1 3/4/1
f 8/5/2 7/6/2 6/3/2 5/2/2
f 4/7/3 3/8/3 7/9/3 8/10/3
f 1/11/4 4/12/4 8/13/4 5/14/4
f 3/15/5 2/16/5 6/17/5 7/18/5
f 9/19/6 12/20/6 11/21/6 10/19/6
f 13/22/7 16/23/7 15/24/7 14/25/7
f 12/26/8 9/27/8 14/28/8 15/29/8
f 2/30/9 1/2/9 10/31/9 11/32/9
f 9/33/4 10/34/4 1/35/4 5/36/4 13/37/4 14/38/4
f 2/39/5 11/40/5 12/23/5 15/26/5 16/41/5 6/42/5
usemtl main_textures
f 6/43/10 16/44/10 13/45/10 5/46/10
