# Blender 4.5.2 LTS
# www.blender.org
mtllib napkin.mtl
o napkin
v -3.967457 0.788058 -0.979766
v -4.032543 0.788058 -0.979766
v -3.967457 0.856520 -0.979766
v -4.032543 0.856520 -0.979766
v -3.967457 0.855545 -0.999252
v -4.032543 0.855545 -0.999252
v -3.967457 0.788058 -0.976991
v -4.032543 0.788058 -0.976991
v -3.967457 0.855608 -0.972806
v -4.032543 0.855608 -0.972806
v -3.967457 0.857432 -0.974681
v -4.032543 0.857432 -0.974681
v -3.967457 0.788058 -0.979607
v -4.032543 0.788058 -0.979607
v -3.967457 0.835948 -0.976991
v -4.032543 0.835948 -0.976991
v -4.032543 0.835948 -0.979607
v -3.967457 0.835948 -0.979607
v -4.032543 0.846449 -0.975417
v -4.032543 0.849273 -0.977133
v -3.967457 0.846449 -0.975417
v -3.967457 0.849273 -0.977133
v -3.967457 0.856520 -0.991727
v -3.967457 0.856520 -0.987294
v -4.032543 0.856520 -0.985530
v -4.032543 0.856520 -0.990526
v -3.967457 0.851971 -0.991258
v -4.032543 0.852991 -0.988108
v -3.967457 0.839116 -0.980904
v -4.032543 0.839116 -0.980904
v -4.032543 0.788058 -1.003373
v -4.032543 0.856520 -1.003373
v -3.967457 0.856520 -1.003373
v -3.967457 0.788058 -1.003373
v -4.029542 0.795071 -0.996925
v -4.026738 0.858681 -0.996925
v -3.966266 0.856015 -0.996925
v -3.969070 0.792406 -0.996925
v -4.037284 0.793213 -0.986659
v -4.033763 0.856680 -0.983092
v -3.991162 0.854866 -0.982227
v -3.994683 0.791399 -0.985794
vn -0.0000 0.0223 0.9998
vn 1.0000 -0.0000 -0.0000
vn -1.0000 -0.0000 -0.0000
vn -0.0000 1.0000 -0.0000
vn -0.0000 -1.0000 -0.0000
vn -0.0000 0.9731 0.2303
vn -0.0000 -0.0000 1.0000
vn -0.0000 0.7169 0.6972
vn -0.0000 -0.0000 -1.0000
vn -0.0000 0.2878 -0.9577
vn -0.0000 -0.1482 0.9890
vn -0.0000 0.1825 -0.9832
vn -0.0000 -0.2742 0.9617
vn 0.0341 0.3363 0.9411
vn -0.0011 0.9929 -0.1192
vn -0.0244 0.6291 -0.7769
vn -0.0000 -0.0652 0.9979
vn 0.0226 0.0549 -0.9982
vt 0.215000 0.885000
vt 0.205000 0.885000
vt 0.125000 0.875000
vt 0.115000 0.875000
vt 0.115000 0.875000
vt 0.125000 0.875000
vt 0.115000 0.875000
vt 0.218333 0.875000
vt 0.218333 0.875000
vt 0.208333 0.875000
vt 0.208333 0.875000
vt 0.115000 0.875000
vt 0.125000 0.875000
vt 0.125000 0.875000
vt 0.218333 0.875000
vt 0.208333 0.875000
vt 0.228333 0.878333
vt 0.218333 0.878333
vt 0.218333 0.878333
s 0
usemtl palette1
f 29/1/1 30/2/1 2/2/1 1/1/1
f 1/3/2 34/3/2 5/3/2 23/3/2 27/3/2 24/3/2 3/3/2 29/3/2
f 4/4/3 25/4/3 28/5/3 26/4/3 6/4/3 31/4/3 2/4/3 30/4/3
f 3/3/4 24/3/4 25/4/4 4/4/4
f 2/4/5 31/4/5 34/3/5 1/3/5
f 6/4/6 5/3/6 33/3/6 32/4/6
f 15/6/7 16/7/7 8/4/7 7/3/7
f 16/7/3 17/7/3 14/4/3 8/4/3
f 9/3/8 11/3/8 12/4/8 10/4/8
f 8/4/5 14/4/5 13/3/5 7/3/5
f 18/8/9 13/9/9 14/10/9 17/11/9
f 7/3/2 13/3/2 18/6/2 15/6/2
f 10/4/3 12/4/3 20/4/3 19/12/3
f 11/3/10 22/13/10 20/4/10 12/4/10
f 22/13/2 11/3/2 9/3/2 21/14/2
f 21/14/11 19/12/11 16/7/11 15/6/11
f 19/12/3 20/4/3 17/7/3 16/7/3
f 22/15/12 18/8/12 17/11/12 20/16/12
f 15/6/2 18/6/2 22/13/2 21/14/2
f 9/3/13 10/4/13 19/12/13 21/14/13
f 28/5/14 27/3/14 23/3/14 26/4/14
f 26/4/15 23/3/15 5/3/15 6/4/15
f 27/17/16 28/18/16 25/19/16 24/17/16
f 3/3/17 4/4/17 30/4/17 29/3/17
f 33/3/9 34/3/9 31/4/9 32/4/9
f 31/4/3 6/4/3 32/4/3
f 5/3/2 34/3/2 33/3/2
f 37/3/9 38/3/9 35/4/9 36/4/9
f 41/3/18 42/3/18 39/4/18 40/4/18
