# Blender 4.5.2 LTS
# www.blender.org
mtllib napkin_holder.mtl
o napkin_holder
v -3.958302 0.788058 -1.050059
v -3.963302 0.793058 -1.045059
v -4.041698 0.788058 -1.050059
v -4.036698 0.793058 -1.045059
v -3.963302 0.793058 -0.975400
v -3.958302 0.788058 -0.970400
v -4.036698 0.793058 -0.975400
v -4.041698 0.788058 -0.970400
v -3.958302 0.829939 -1.050059
v -3.963302 0.829939 -1.045059
v -4.041698 0.829939 -1.050059
v -4.036698 0.829939 -1.045059
v -3.958302 0.829939 -0.970400
v -3.963302 0.829939 -0.975400
v -4.041698 0.829939 -0.970400
v -4.036698 0.829939 -0.975400
v -3.960802 0.790558 -1.012729
v -3.960802 0.790558 -1.007729
v -4.039198 0.790558 -1.012729
v -4.039198 0.790558 -1.007729
v -3.960802 0.901578 -1.012729
v -3.960802 0.901578 -1.007729
v -4.039198 0.901578 -1.012729
v -4.039198 0.901578 -1.007729
v -3.970856 0.820013 -1.006645
v -4.029144 0.820013 -1.006645
v -3.970856 0.820013 -1.008786
v -4.029144 0.820013 -1.008786
v -3.975382 0.894449 -1.006645
v -3.970856 0.889691 -1.006645
v -4.029144 0.889691 -1.006645
v -4.024618 0.894449 -1.006645
v -3.970856 0.889691 -1.008786
v -3.975382 0.894449 -1.008786
v -4.024618 0.894449 -1.008786
v -4.029144 0.889691 -1.008786
vn -0.0000 1.0000 -0.0000
vn 1.0000 -0.0000 -0.0000
vn -1.0000 -0.0000 -0.0000
vn -0.0000 -0.0000 -1.0000
vn -0.0000 -0.0000 1.0000
vn -0.0000 -1.0000 -0.0000
vn -0.7246 0.6892 -0.0000
vn 0.7246 0.6892 -0.0000
vt 0.458333 0.961667
vt 0.448333 0.961667
vt 0.448333 0.951667
vt 0.458333 0.951667
vt 0.208333 0.868333
vt 0.218333 0.868333
vt 0.209110 0.868333
vt 0.208333 0.868333
vt 0.218333 0.868333
vt 0.217557 0.868333
vt 0.127557 0.878333
vt 0.119110 0.878333
vt 0.118333 0.878333
vt 0.128333 0.878333
s 0
usemtl palette1
f 9/1/1 11/2/1 12/2/1 10/1/1
f 15/3/1 13/4/1 14/4/1 16/3/1
f 13/4/1 9/1/1 10/1/1 14/4/1
f 21/4/1 23/3/1 24/3/1 22/4/1
f 22/4/2 18/4/2 17/4/2 21/4/2
f 20/3/3 24/3/3 23/3/3 19/3/3
f 16/3/1 12/2/1 11/2/1 15/3/1
f 2/1/1 4/2/1 7/3/1 5/4/1
f 14/4/4 5/4/4 7/3/4 16/3/4
f 13/4/5 15/3/5 8/3/5 6/4/5
f 12/2/5 4/2/5 2/1/5 10/1/5
f 11/2/4 9/1/4 1/1/4 3/2/4
f 8/3/6 3/2/6 1/1/6 6/4/6
f 7/3/2 4/2/2 12/2/2 16/3/2
f 11/2/3 3/2/3 8/3/3 15/3/3
f 10/1/3 2/1/3 5/4/3 14/4/3
f 21/4/4 17/4/4 19/3/4 23/3/4
f 22/4/5 24/3/5 20/3/5 18/4/5
f 9/1/2 13/4/2 6/4/2 1/1/2
f 26/5/6 28/5/6 27/6/6 25/6/6
f 35/7/7 36/8/7 31/8/7 32/7/7
f 33/9/8 34/10/8 29/10/8 30/9/8
f 29/10/1 34/10/1 35/7/1 32/7/1
f 29/11/5 32/12/5 31/13/5 26/13/5 25/14/5 30/14/5
f 25/6/2 27/6/2 33/9/2 30/9/2
f 31/8/3 36/8/3 28/5/3 26/5/3
