# Blender 4.5.2 LTS
# www.blender.org
mtllib painting_wall.mtl
o painting_wall
v 5.769200 -0.230799 -1.968730
v 5.769200 0.230799 -1.968730
v 6.230800 0.230799 -1.968730
v 6.230800 -0.230799 -1.968730
v 5.745842 0.254158 -1.986003
v 6.254158 0.254158 -1.986003
v 6.254158 -0.254158 -1.986003
v 5.745842 -0.254158 -1.986003
v 5.769200 0.230799 -1.952088
v 6.230800 0.230799 -1.952088
v 6.230800 -0.230799 -1.952088
v 5.769200 -0.230799 -1.952088
v 5.745842 0.254158 -1.952088
v 6.254158 0.254158 -1.952088
v 6.254158 -0.254158 -1.952088
v 5.745842 -0.254158 -1.952088
v 5.820111 0.179890 -2.013566
v 6.179890 0.179890 -2.013566
v 6.179890 -0.179890 -2.013566
v 5.820111 -0.179890 -2.013566
v 6.179890 -0.179890 -1.986003
v 5.820111 -0.179890 -1.986003
v 5.820111 0.179890 -1.986003
v 6.179890 0.179890 -1.986003
vn -0.0000 -0.0000 1.0000
vn -0.0000 -1.0000 -0.0000
vn 1.0000 -0.0000 -0.0000
vn -0.0000 -0.0000 -1.0000
vn -1.0000 -0.0000 -0.0000
vn -0.0000 1.0000 -0.0000
vt 0.353654 0.151347
vt 0.353654 0.493654
vt 0.011346 0.493654
vt 0.011346 0.151346
vt 0.461296 0.965581
vt 0.457873 0.965581
vt 0.457873 0.962158
vt 0.461296 0.962158
vt 0.205179 0.958813
vt 0.208602 0.958813
vt 0.208602 0.955390
vt 0.205179 0.955390
s 0
usemtl palette1
f 3/5/2 10/5/2 9/6/2 2/6/2
f 2/6/3 9/6/3 12/7/3 1/7/3
f 7/8/4 8/7/4 5/6/4 6/5/4
f 5/6/5 8/7/5 16/7/5 13/6/5
f 8/7/2 7/8/2 15/8/2 16/7/2
f 7/8/3 6/5/3 14/5/3 15/8/3
f 9/6/1 13/6/1 16/7/1 12/7/1
f 10/5/1 14/5/1 13/6/1 9/6/1
f 12/7/1 16/7/1 15/8/1 11/8/1
f 11/8/1 15/8/1 14/5/1 10/5/1
f 1/7/6 12/7/6 11/8/6 4/8/6
f 4/8/5 11/8/5 10/5/5 3/5/5
f 6/5/6 5/6/6 13/6/6 14/5/6
f 17/9/6 23/9/6 24/10/6 18/10/6
f 19/11/2 21/11/2 22/12/2 20/12/2
f 18/10/3 24/10/3 21/11/3 19/11/3
f 20/12/5 22/12/5 23/9/5 17/9/5
usemtl painting
f 4/1/1 3/2/1 2/3/1 1/4/1
