# Blender 4.5.2 LTS
# www.blender.org
mtllib parasol.mtl
o parasol
v -6.000000 -0.008241 -1.127171
v -6.000000 0.048561 -1.119566
v -5.936414 -0.008241 -1.110133
v -5.940217 0.048561 -1.103547
v -5.889867 -0.008241 -1.063586
v -5.896453 0.048561 -1.059783
v -5.872829 -0.008241 -1.000000
v -5.880434 0.048561 -1.000000
v -5.889867 -0.008241 -0.936414
v -5.896453 0.048561 -0.940217
v -5.936414 -0.008241 -0.889867
v -5.940217 0.048561 -0.896453
v -6.000000 -0.008241 -0.872829
v -6.000000 0.048561 -0.880434
v -6.063585 -0.008241 -0.889867
v -6.059783 0.048561 -0.896453
v -6.110133 -0.008241 -0.936414
v -6.103547 0.048561 -0.940217
v -6.127171 -0.008241 -1.000000
v -6.119566 0.048561 -1.000000
v -6.110133 -0.008241 -1.063586
v -6.103547 0.048561 -1.059783
v -6.063585 -0.008241 -1.110133
v -6.059783 0.048561 -1.103547
v -6.000000 0.048561 -1.020000
v -6.000000 2.095806 -1.020000
v -5.985858 0.048561 -1.014142
v -5.985858 2.095806 -1.014142
v -5.980000 0.048561 -1.000000
v -5.980000 2.095806 -1.000000
v -5.985858 0.048561 -0.985858
v -5.985858 2.095806 -0.985858
v -6.000000 0.048561 -0.980000
v -6.000000 2.095806 -0.980000
v -6.014142 0.048561 -0.985858
v -6.014142 2.095806 -0.985858
v -6.020000 0.048561 -1.000000
v -6.020000 2.095806 -1.000000
v -6.014142 0.048561 -1.014142
v -6.014142 2.095806 -1.014142
v -5.311623 1.672589 -1.418403
v -6.680493 1.775991 -0.607117
v -6.000000 2.109555 -1.000000
v -6.688377 1.672589 -0.581597
v -5.981841 1.672589 -1.805354
v -5.319507 1.775991 -0.607117
v -5.331755 1.767564 -1.385812
v -6.000000 1.767564 -1.771623
v -5.331755 1.767564 -0.614188
v -6.000000 2.095077 -1.000000
v -6.000000 1.767564 -0.228377
v -6.668245 1.767564 -1.385812
v -6.668245 1.767564 -0.614188
v -5.320103 1.669390 -1.403715
v -5.990322 1.669390 -1.790665
v -6.679897 1.669390 -0.596285
v -6.009678 1.669390 -0.209335
v -5.990322 1.669390 -0.209335
v -5.320103 1.669390 -0.596285
v -6.009678 1.669390 -1.790665
v -6.679897 1.669390 -1.403715
v -5.310424 1.669390 -0.613049
v -5.310424 1.669390 -1.386951
v -6.689576 1.669390 -1.386951
v -6.689576 1.669390 -0.613049
v -6.000000 1.775991 -1.785765
v -5.319507 1.775991 -1.392883
v -6.680493 1.775991 -1.392883
v -6.000000 1.775991 -0.214235
v -6.018159 1.672589 -0.194646
v -5.981841 1.672589 -0.194646
v -5.311623 1.672589 -0.581597
v -6.018159 1.672589 -1.805354
v -6.688377 1.672589 -1.418403
v -5.293463 1.672589 -0.613049
v -5.293463 1.672589 -1.386951
v -6.706537 1.672589 -1.386951
v -6.706537 1.672589 -0.613049
v -5.985524 1.689551 -0.198619
v -5.313222 1.689551 -0.586773
v -6.686778 1.689551 -0.586773
v -6.014476 1.689551 -0.198619
v -5.313222 1.689551 -1.413227
v -5.985524 1.689551 -1.801381
v -6.686778 1.689551 -1.413227
v -6.014476 1.689551 -1.801381
v -6.701254 1.689551 -0.611846
v -6.701254 1.689551 -1.388154
v -5.298746 1.689551 -1.388154
v -5.298746 1.689551 -0.611846
v -5.989743 2.125607 -1.010257
v -6.000000 2.125607 -1.014506
v -5.985494 2.125607 -1.000000
v -5.989743 2.125607 -0.989743
v -6.000000 2.125607 -0.985494
v -6.010257 2.125607 -0.989743
v -6.014506 2.125607 -1.000000
v -6.010257 2.125607 -1.010257
vn 0.2567 0.1283 -0.9579
vn 0.7013 0.1283 -0.7013
vn 0.9579 0.1283 -0.2567
vn 0.9579 0.1283 0.2567
vn 0.7013 0.1283 0.7013
vn 0.2567 0.1283 0.9579
vn -0.2567 0.1283 0.9579
vn -0.7013 0.1283 0.7013
vn -0.9579 0.1283 0.2567
vn -0.9579 0.1283 -0.2567
vn -0.0000 1.0000 -0.0000
vn -0.7013 0.1283 -0.7013
vn -0.2567 0.1283 -0.9579
vn -0.0000 -1.0000 -0.0000
vn 0.3827 -0.0000 -0.9239
vn 0.9239 -0.0000 -0.3827
vn 0.9239 -0.0000 0.3827
vn 0.3827 -0.0000 0.9239
vn -0.3827 -0.0000 0.9239
vn -0.9239 -0.0000 0.3827
vn -0.9108 0.1679 -0.3773
vn -0.9239 -0.0000 -0.3827
vn -0.3827 -0.0000 -0.9239
vn -0.2200 -0.8980 -0.3811
vn 0.2200 -0.8980 -0.3811
vn -0.2200 -0.8980 0.3811
vn 0.4401 -0.8980 -0.0000
vn -0.4401 -0.8980 -0.0000
vn 0.2200 -0.8980 0.3811
vn 0.4886 -0.2123 -0.8463
vn -0.4886 -0.2123 0.8463
vn 0.4886 -0.2123 0.8463
vn -0.4886 -0.2123 -0.8463
vn 0.9772 -0.2123 -0.0000
vn -0.9772 -0.2123 -0.0000
vn 0.2201 0.8979 -0.3812
vn -0.4862 0.2335 0.8421
vn 0.2201 0.8979 0.3812
vn -0.2201 0.8979 -0.3812
vn -0.2201 0.8979 0.3812
vn 0.4401 0.8979 -0.0000
vn 0.4862 0.2335 -0.8421
vn -0.4401 0.8979 -0.0000
vn -0.4862 0.2335 -0.8421
vn 0.4862 0.2335 0.8421
vn -0.9723 0.2335 -0.0000
vn 0.9723 0.2335 -0.0000
vn 0.7146 -0.0747 0.6956
vn 0.0927 -0.9827 -0.1605
vn -0.9597 -0.0747 0.2711
vn 0.0126 -0.0668 -0.9977
vn -0.8577 -0.0668 -0.5098
vn -0.0927 -0.9827 0.1605
vn 0.8703 -0.0668 -0.4879
vn -0.2451 -0.0747 0.9666
vn -0.8703 -0.0668 0.4879
vn 0.0927 -0.9827 0.1605
vn 0.9597 -0.0747 -0.2711
vn -0.0927 -0.9827 -0.1605
vn -0.7146 -0.0747 -0.6956
vn 0.1853 -0.9827 -0.0000
vn 0.8577 -0.0668 0.5098
vn -0.1853 -0.9827 -0.0000
vn -0.0126 -0.0668 0.9977
vn 0.2451 -0.0747 -0.9666
vn 0.4774 0.2974 -0.8269
vn 0.9597 -0.0747 0.2711
vn -0.4774 0.2974 -0.8269
vn 0.4774 0.2974 0.8268
vn 0.2451 -0.0747 0.9666
vn -0.9548 0.2974 -0.0000
vn -0.0126 -0.0668 -0.9977
vn 0.9548 0.2974 -0.0000
vn 0.8703 -0.0668 0.4879
vn -0.8577 -0.0668 0.5098
vn -0.2451 -0.0747 -0.9666
vn -0.9597 -0.0747 -0.2711
vn 0.7146 -0.0747 -0.6956
vn 0.0126 -0.0668 0.9977
vn -0.4774 0.2974 0.8268
vn -0.7146 -0.0747 0.6955
vn 0.8577 -0.0668 -0.5098
vn -0.8703 -0.0668 -0.4879
vn 0.9108 0.1679 -0.3773
vn -0.3773 0.1679 0.9108
vn -0.3773 0.1679 -0.9108
vn 0.3773 0.1679 -0.9108
vn 0.9108 0.1679 0.3773
vn -0.9108 0.1679 0.3773
vn 0.3773 0.1679 0.9108
vt 0.545000 0.958283
vt 0.545000 0.963283
vt 0.544167 0.963283
vt 0.544167 0.958283
vt 0.543333 0.963283
vt 0.543333 0.958283
vt 0.542500 0.963283
vt 0.542500 0.958283
vt 0.541667 0.963283
vt 0.541667 0.958283
vt 0.540833 0.963283
vt 0.540833 0.958283
vt 0.540000 0.963283
vt 0.540000 0.958283
vt 0.539167 0.963283
vt 0.539167 0.958283
vt 0.538333 0.963283
vt 0.538333 0.958283
vt 0.537500 0.963283
vt 0.537500 0.958283
vt 0.536667 0.963283
vt 0.536667 0.958283
vt 0.538700 0.957862
vt 0.537500 0.958183
vt 0.536300 0.957862
vt 0.535422 0.956983
vt 0.535100 0.955783
vt 0.535422 0.954583
vt 0.536300 0.953705
vt 0.537500 0.953383
vt 0.538700 0.953705
vt 0.539578 0.954583
vt 0.539900 0.955783
vt 0.539578 0.956983
vt 0.535833 0.963283
vt 0.535833 0.958283
vt 0.535000 0.963283
vt 0.535000 0.958283
vt 0.542500 0.958183
vt 0.543700 0.957862
vt 0.544579 0.956983
vt 0.544900 0.955783
vt 0.544579 0.954583
vt 0.543700 0.953705
vt 0.542500 0.953383
vt 0.541300 0.953705
vt 0.540422 0.954583
vt 0.540100 0.955783
vt 0.540422 0.956983
vt 0.541300 0.957862
vt 0.541667 0.874950
vt 0.541667 0.879950
vt 0.540417 0.879950
vt 0.540417 0.874950
vt 0.539167 0.879950
vt 0.539167 0.874950
vt 0.537917 0.879950
vt 0.537917 0.874950
vt 0.536667 0.879950
vt 0.536667 0.874950
vt 0.535417 0.879950
vt 0.535417 0.874950
vt 0.534167 0.879950
vt 0.534167 0.874950
vt 0.126250 0.876617
vt 0.127500 0.876617
vt 0.532917 0.879950
vt 0.532917 0.874950
vt 0.531667 0.879950
vt 0.531667 0.874950
vt 0.459578 0.864583
vt 0.457500 0.863383
vt 0.457500 0.865783
vt 0.455421 0.864583
vt 0.457500 0.868183
vt 0.459578 0.866983
vt 0.455421 0.866983
vt 0.457500 0.863383
vt 0.455422 0.864583
vt 0.457500 0.868183
vt 0.459578 0.866983
vt 0.455422 0.866983
vt 0.459578 0.866983
vt 0.457500 0.863383
vt 0.457500 0.863383
vt 0.459578 0.864583
vt 0.126245 0.880317
vt 0.124167 0.881517
vt 0.126245 0.880317
vt 0.124167 0.881517
vt 0.122088 0.877917
vt 0.124167 0.876717
vt 0.126245 0.877917
vt 0.126245 0.877917
vt 0.122088 0.880317
vt 0.124167 0.876717
vt 0.124167 0.876717
vt 0.124167 0.876717
vt 0.122088 0.880317
vt 0.124167 0.876717
vt 0.129197 0.870814
vt 0.127500 0.871517
vt 0.125803 0.870814
vt 0.125100 0.869117
vt 0.125803 0.867420
vt 0.127500 0.866717
vt 0.129197 0.867420
vt 0.129900 0.869117
vt 0.132500 0.876617
vt 0.133750 0.876617
vt 0.128750 0.876617
vt 0.130000 0.876617
vt 0.125000 0.876617
vt 0.135000 0.876617
vt 0.131250 0.876617
s 0
usemtl palette1
f 1/1/1 2/2/1 4/3/1 3/4/1
f 3/4/2 4/3/2 6/5/2 5/6/2
f 5/6/3 6/5/3 8/7/3 7/8/3
f 7/8/4 8/7/4 10/9/4 9/10/4
f 9/10/5 10/9/5 12/11/5 11/12/5
f 11/12/6 12/11/6 14/13/6 13/14/6
f 13/14/7 14/13/7 16/15/7 15/16/7
f 15/16/8 16/15/8 18/17/8 17/18/8
f 17/18/9 18/17/9 20/19/9 19/20/9
f 19/20/10 20/19/10 22/21/10 21/22/10
f 4/23/11 2/24/11 24/25/11 22/26/11 20/27/11 18/28/11 16/29/11 14/30/11 12/31/11 10/32/11 8/33/11 6/34/11
f 21/22/12 22/21/12 24/35/12 23/36/12
f 23/36/13 24/35/13 2/37/13 1/38/13
f 1/39/14 3/40/14 5/41/14 7/42/14 9/43/14 11/44/14 13/45/14 15/46/14 17/47/14 19/48/14 21/49/14 23/50/14
f 25/51/15 26/52/15 28/53/15 27/54/15
f 27/54/16 28/53/16 30/55/16 29/56/16
f 29/56/17 30/55/17 32/57/17 31/58/17
f 31/58/18 32/57/18 34/59/18 33/60/18
f 33/60/19 34/59/19 36/61/19 35/62/19
f 35/62/20 36/61/20 38/63/20 37/64/20
f 40/65/21 38/66/21 97/66/21 98/65/21
f 37/64/22 38/63/22 40/67/22 39/68/22
f 39/68/23 40/67/23 26/69/23 25/70/23
f 49/71/24 51/72/24 50/73/24
f 51/72/25 53/74/25 50/73/25
f 48/75/26 47/76/26 50/73/26
f 53/74/27 52/77/27 50/73/27
f 47/76/28 49/71/28 50/73/28
f 52/77/29 48/75/29 50/73/29
f 51/72/30 57/78/30 56/79/30 53/74/30
f 48/75/31 55/80/31 54/81/31 47/76/31
f 52/77/32 61/77/32 60/75/32 48/75/32
f 49/71/33 59/71/33 58/72/33 51/72/33
f 53/74/34 65/74/34 64/82/34 52/77/34
f 47/76/35 63/83/35 62/71/35 49/71/35
f 66/75/36 43/73/36 67/76/36
f 69/72/37 42/74/37 81/74/37 82/84/37
f 46/71/38 43/73/38 69/72/38
f 68/77/39 43/73/39 66/75/39
f 69/72/40 43/73/40 42/74/40
f 67/76/41 43/73/41 46/71/41
f 66/75/42 67/76/42 83/76/42 84/75/42
f 42/74/43 43/73/43 68/77/43
f 68/77/44 66/75/44 86/75/44 85/77/44
f 46/71/45 69/72/45 79/85/45 80/86/45
f 42/74/46 68/77/46 88/82/46 87/74/46
f 67/76/47 46/71/47 90/71/47 89/76/47
f 47/76/48 54/81/48 83/76/48 67/76/48
f 54/87/49 55/88/49 45/88/49 41/87/49
f 51/72/50 58/72/50 79/85/50 69/72/50
f 63/89/51 89/87/51 76/89/51
f 55/88/52 84/90/52 45/88/52
f 56/91/53 57/92/53 70/92/53 44/91/53
f 59/93/54 80/94/54 72/93/54
f 49/71/55 62/71/55 90/71/55 46/71/55
f 61/95/56 85/95/56 74/95/56
f 58/96/57 59/93/57 72/93/57 71/96/57
f 48/75/58 60/75/58 86/75/58 66/75/58
f 60/90/59 61/95/59 74/95/59 73/90/59
f 53/74/60 56/79/60 81/74/60 42/74/60
f 62/93/61 63/89/61 76/89/61 75/93/61
f 57/97/62 82/98/62 70/92/62
f 64/99/63 65/91/63 78/91/63 77/99/63
f 65/91/64 87/91/64 78/91/64
f 52/77/65 64/82/65 88/82/65 68/77/65
f 84/90/66 83/87/66 41/87/66 45/88/66
f 82/84/67 57/78/67 51/72/67 69/72/67
f 85/95/68 86/90/68 73/90/68 74/95/68
f 80/94/69 79/100/69 71/96/69 72/93/69
f 87/74/70 65/74/70 53/74/70 42/74/70
f 87/91/71 88/99/71 77/99/71 78/91/71
f 88/99/72 64/99/72 77/99/72
f 89/87/73 90/93/73 75/93/73 76/89/73
f 83/87/74 54/87/74 41/87/74
f 79/100/75 58/96/75 71/96/75
f 89/76/76 63/83/76 47/76/76 67/76/76
f 84/75/77 55/80/77 48/75/77 66/75/77
f 80/86/78 59/71/78 49/71/78 46/71/78
f 90/93/79 62/93/79 75/93/79
f 82/98/80 81/91/80 44/91/80 70/92/80
f 85/77/81 61/77/81 52/77/81 68/77/81
f 86/90/82 60/90/82 73/90/82
f 81/91/83 56/91/83 44/91/83
f 91/101/11 92/102/11 98/103/11 97/104/11 96/105/11 95/106/11 94/107/11 93/108/11
f 30/109/84 28/110/84 91/110/84 93/109/84
f 36/111/85 34/112/85 95/112/85 96/111/85
f 26/113/86 40/65/86 98/65/86 92/113/86
f 28/110/87 26/114/87 92/114/87 91/110/87
f 32/115/88 30/109/88 93/109/88 94/115/88
f 38/66/89 36/111/89 96/111/89 97/66/89
f 34/112/90 32/115/90 94/115/90 95/112/90
