# Blender 4.5.2 LTS
# www.blender.org
mtllib plant_vase.mtl
o plant_vase
v 2.039787 0.314021 -0.955170
v 1.989844 0.249503 -0.992852
v 2.014210 0.249969 -0.999166
v 2.013782 0.265864 -1.001388
v 1.990096 0.265487 -0.995262
v 2.040161 0.269848 -0.832914
v 2.069611 0.305339 -0.867794
v 2.062104 0.319348 -0.911933
v 2.039494 0.327130 -0.956996
v 2.001927 0.323443 -0.897156
v 1.995258 0.319448 -0.942729
v 2.054343 0.223464 -0.844788
v 2.069416 0.299423 -0.868498
v 2.064728 0.271071 -0.841604
v 2.040448 0.265613 -0.837752
v 2.020272 0.301670 -0.855923
v 2.003099 0.313958 -0.895043
v 2.023911 0.288417 -1.062719
v 2.013463 0.256202 -0.993156
v 1.993828 0.254046 -1.008357
v 1.993096 0.267928 -1.008983
v 2.012092 0.270724 -0.994210
v 2.119017 0.209680 -1.114689
v 2.075161 0.245915 -1.129839
v 2.052392 0.279178 -1.109284
v 2.020742 0.301641 -1.063074
v 2.101820 0.285843 -1.071803
v 2.061593 0.296384 -1.035981
v 2.096319 0.150880 -1.101447
v 2.075227 0.239857 -1.125486
v 2.096390 0.205822 -1.127317
v 2.113711 0.203816 -1.107861
v 2.118264 0.257144 -1.104025
v 2.100714 0.275000 -1.074050
v 1.948095 0.322626 -1.044612
v 1.938844 0.322412 -0.999596
v 1.991913 0.257253 -1.027230
v 1.987085 0.256894 -1.003071
v 1.990410 0.275866 -1.002194
v 1.995090 0.276270 -1.025579
v 1.843552 0.262578 -1.059711
v 1.862466 0.305540 -1.015000
v 1.898718 0.326948 -0.999473
v 1.944129 0.338077 -0.998377
v 1.911674 0.333822 -1.058123
v 1.953202 0.338722 -1.043985
v 1.832860 0.208155 -1.056818
v 1.863479 0.298689 -1.015153
v 1.840394 0.260606 -1.034223
v 1.847357 0.258336 -1.059823
v 1.873666 0.304889 -1.063000
v 1.910758 0.318382 -1.058691
v 2.000000 -0.000000 -1.097525
v 1.951238 -0.000000 -1.084459
v 2.036280 0.278430 -1.036279
v 1.915542 -0.000000 -1.048762
v 1.902476 -0.000000 -1.000000
v 1.915542 -0.000000 -0.951238
v 1.951238 -0.000000 -0.915541
v 2.000000 -0.000000 -0.902476
v 2.048763 -0.000000 -0.915541
v 2.084459 -0.000000 -0.951238
v 2.097525 -0.000000 -1.000000
v 2.084459 -0.000000 -1.048762
v 1.965363 0.280946 -1.056697
v 2.048763 -0.000000 -1.084459
v 2.098010 0.289955 -1.022213
v 2.128795 0.250707 -1.017121
v 2.137856 0.206991 -0.976055
v 1.978722 0.270224 -0.994826
v 1.980818 0.269614 -1.018954
v 1.980671 0.255702 -1.019263
v 1.978561 0.255606 -0.994429
v 2.042706 0.290229 -1.020364
v 2.124379 0.247162 -0.965952
v 2.129234 0.201232 -0.977334
v 2.136180 0.205499 -1.002156
v 2.125422 0.244055 -1.016951
v 2.114334 0.149545 -0.993221
v 2.040705 0.293975 -0.973670
v 2.091859 0.281690 -0.960680
v 2.041303 0.303660 -1.022006
v 1.942291 0.282154 -1.033319
v 1.933673 0.280356 -0.998516
v 1.942291 0.282154 -0.966681
v 1.967223 0.280779 -0.941944
v 2.000000 0.282154 -0.933363
v 2.034355 0.280524 -0.942817
v 2.057710 0.282154 -0.966681
v 2.066638 0.282154 -1.000000
v 2.057710 0.282154 -1.033319
v 2.033319 0.282154 -1.057710
v 2.000000 0.282154 -1.066638
v 2.066925 0.250801 -1.038639
v 2.077278 0.250801 -1.000000
v 2.066925 0.250801 -0.961361
v 1.933076 0.250801 -1.038639
v 2.038639 0.250801 -0.933076
v 2.000000 0.250801 -0.922723
v 1.961362 0.250801 -0.933076
v 1.933076 0.250801 -0.961361
v 2.000000 0.250801 -1.077278
v 1.961362 0.250801 -1.066924
v 1.922723 0.250801 -1.000000
v 2.038639 0.250801 -1.066924
v 2.053578 0.209867 -1.030933
v 2.065961 0.174378 -1.038083
v 2.061867 0.209867 -1.000000
v 2.076166 0.174378 -1.000000
v 2.053578 0.209867 -0.969067
v 2.065961 0.174378 -0.961917
v 1.946423 0.209867 -1.030933
v 1.934040 0.174378 -1.038083
v 2.030934 0.209867 -0.946422
v 2.038083 0.174378 -0.934039
v 2.000000 0.209867 -0.938134
v 2.000000 0.174378 -0.923835
v 1.969067 0.209867 -0.946422
v 1.961918 0.174378 -0.934039
v 1.946423 0.209867 -0.969067
v 1.934040 0.174378 -0.961917
v 2.000000 0.209867 -1.061866
v 2.000000 0.174378 -1.076165
v 1.969067 0.209867 -1.053578
v 1.961918 0.174378 -1.065961
v 1.938134 0.209867 -1.000000
v 1.923835 0.174378 -1.000000
v 2.030934 0.209867 -1.053578
v 2.038083 0.174378 -1.065961
v 2.093694 0.121825 -1.054094
v 2.092042 0.136603 -1.053140
v 2.108188 0.121825 -1.000000
v 2.106281 0.136603 -1.000000
v 2.093694 0.121825 -0.945906
v 2.092042 0.136603 -0.946860
v 1.906307 0.121825 -1.054094
v 1.907959 0.136603 -1.053140
v 1.946860 0.136603 -1.092042
v 1.945907 0.121825 -1.093693
v 2.054095 0.121825 -0.906307
v 2.053141 0.136603 -0.907958
v 2.000000 0.121825 -0.891812
v 2.000000 0.136603 -0.893720
v 1.945907 0.121825 -0.906307
v 1.946860 0.136603 -0.907958
v 1.906307 0.121825 -0.945906
v 1.907959 0.136603 -0.946860
v 1.893720 0.136603 -1.000000
v 1.891813 0.121825 -1.000000
v 2.000000 0.121825 -1.108188
v 2.000000 0.136603 -1.106281
v 2.053141 0.136603 -1.092042
v 2.054094 0.121825 -1.093693
v 2.035012 0.044650 -1.035012
v 2.048949 0.044650 -0.989497
v 2.015379 0.044650 -0.952357
v 1.952174 0.044650 -1.012815
v 1.986871 0.044650 -1.048999
v 1.964131 0.044650 -0.964130
v 2.074642 0.022327 -1.043095
v 2.086190 0.022327 -1.000000
v 2.074642 0.022327 -0.956905
v 2.043095 0.022327 -0.925358
v 1.925359 0.022327 -1.043095
v 1.956906 0.022327 -1.074642
v 2.000000 0.022327 -1.086189
v 2.000000 0.022327 -0.913811
v 1.956906 0.022327 -0.925358
v 1.925359 0.022327 -0.956905
v 2.043095 0.022327 -1.074642
v 1.913811 0.022327 -1.000000
v 2.093881 0.271497 -0.963467
v 1.941549 0.313385 -0.981021
v 1.971912 0.313194 -0.946523
v 1.979576 0.258873 -1.002591
v 1.995954 0.258553 -0.984186
v 1.998656 0.275486 -0.986313
v 1.982807 0.275846 -1.004133
v 1.867044 0.270380 -0.902233
v 1.911374 0.301969 -0.891891
v 1.945603 0.316824 -0.911478
v 1.973829 0.326756 -0.947068
v 1.906587 0.322959 -0.957144
v 1.942885 0.327332 -0.981780
v 1.875664 0.217234 -0.888872
v 1.911862 0.295855 -0.892792
v 1.885713 0.270759 -0.884490
v 1.868846 0.265951 -0.904377
v 1.879802 0.301388 -0.929741
v 1.905582 0.313431 -0.956756
vn 0.3364 -0.1357 0.9319
vn -0.1787 0.1044 -0.9784
vn 0.9913 -0.0473 0.1229
vn 0.8899 -0.0434 -0.4540
vn -0.9183 -0.0255 0.3951
vn -0.9083 -0.3401 0.2437
vn 0.5001 -0.3694 -0.7832
vn -0.6949 0.3071 0.6503
vn -0.7141 -0.4137 -0.5648
vn -0.8514 -0.2168 -0.4777
vn 0.7885 -0.2009 0.5813
vn 0.8533 -0.2232 0.4713
vn -0.9767 0.1862 -0.1066
vn 0.9280 -0.2516 0.2747
vn -0.5332 -0.0976 0.8403
vn -0.0055 -0.0757 0.9971
vn 0.1044 0.0304 -0.9941
vn -0.0725 -0.0387 -0.9966
vn 0.0012 -0.9539 -0.3002
vn -0.0356 -0.4656 -0.8843
vn 0.2216 0.6585 0.7192
vn 0.0018 0.9532 0.3022
vn -0.9971 0.0264 0.0708
vn 0.9851 -0.0121 -0.1714
vn -0.8921 -0.3649 0.2664
vn -0.9845 -0.0879 0.1518
vn -0.2640 -0.9311 0.2517
vn 0.0463 0.9712 -0.2338
vn 0.6054 0.1143 0.7877
vn -0.8472 -0.3161 -0.4270
vn 0.8285 -0.1102 0.5491
vn 0.6161 -0.2196 0.7565
vn 0.8459 -0.4596 0.2708
vn -0.8155 0.5760 -0.0565
vn -0.3557 -0.0734 0.9317
vn -0.0646 -0.0316 -0.9974
vn 0.3902 0.8340 -0.3902
vn 0.5384 0.8303 0.1443
vn 0.1443 0.8303 0.5384
vn -0.4001 0.8245 0.4001
vn -0.5330 0.8340 -0.1428
vn -0.0338 -0.1247 -0.9916
vn -0.9228 0.3281 -0.2019
vn 0.9287 -0.3688 -0.0386
vn -0.1534 -0.2888 0.9450
vn 0.4037 -0.2274 -0.8862
vn 0.0668 -0.3107 0.9482
vn -0.9610 -0.0335 -0.2747
vn -0.3207 -0.8969 -0.3044
vn -0.1939 0.9617 0.1939
vn 0.7890 -0.5769 0.2114
vn -0.0008 -1.0000 -0.0015
vn -0.1465 0.8245 -0.5466
vn 0.9389 0.3350 -0.0795
vn 0.1948 0.9694 0.1497
vn -0.3329 0.0293 0.9425
vn 0.0801 -0.0662 -0.9946
vn 0.0156 -0.2390 0.9709
vn -0.3028 -0.3068 0.9023
vn -0.6879 0.0700 0.7224
vn 0.7703 -0.0930 -0.6309
vn 0.3899 -0.1036 0.9150
vn 0.7923 -0.0877 0.6038
vn -0.7335 0.0497 -0.6778
vn -0.9241 -0.2271 -0.3074
vn 0.6993 -0.5462 -0.4611
vn -0.5136 0.6779 0.5260
vn 0.5219 -0.0834 0.8489
vn -0.8543 -0.1008 -0.5098
vn -0.1421 -0.9086 -0.3929
vn 0.1716 -0.5925 0.7871
vn -0.2867 0.6605 -0.6939
vn -0.2156 -0.6530 -0.7260
vn 0.1478 0.5872 0.7958
vn -0.0208 0.9986 0.0485
vn 0.8887 -0.0416 -0.4566
vn 0.1605 0.9005 0.4041
vn -0.2904 -0.7170 0.6337
vn 0.3967 -0.8542 -0.3360
vn 0.0480 -0.9737 0.2225
vn -0.5273 -0.1545 0.8355
vn 0.4611 0.1962 -0.8654
vn -0.2256 0.8990 0.3753
vn 0.2912 0.7204 -0.6294
vn 0.2866 0.9241 -0.2529
vn -0.8351 -0.1395 -0.5321
vn 0.4720 -0.8738 0.1173
vn -0.0175 -0.9969 0.0763
vn -0.7980 -0.5790 -0.1672
vn 0.7956 0.5823 0.1674
vn 0.8265 -0.5532 0.1043
vn -0.8417 0.5003 -0.2032
vn -0.1865 0.9819 0.0314
vn -0.5454 0.8348 -0.0748
vn 0.3555 -0.0232 -0.9344
vn 0.3397 -0.0293 -0.9401
vn -0.0034 -0.0595 0.9982
vn 0.1317 0.8724 -0.4707
vn -0.0000 -1.0000 -0.0000
vn -0.9163 0.3289 -0.2286
vn 0.0138 0.9999 -0.0070
vn 0.4728 0.8706 -0.1360
vn 0.6719 0.3115 -0.6719
vn 0.9179 0.3115 -0.2459
vn 0.3545 0.8726 0.3361
vn 0.9179 0.3115 0.2459
vn 0.6697 0.3140 0.6730
vn -0.1164 0.8745 0.4709
vn -0.2574 0.3255 -0.9099
vn -0.6696 0.3141 -0.6730
vn -0.4735 0.8724 0.1213
vn 0.2546 0.3221 0.9118
vn -0.2489 0.3151 0.9158
vn -0.3494 0.8724 -0.3417
vn -0.6646 0.3196 0.6754
vn -0.9173 0.3187 0.2388
vn 0.4963 -0.8651 0.0727
vn -0.7631 -0.6341 -0.1247
vn 0.2459 0.3115 -0.9179
vn -0.9629 -0.2699 -0.0033
vn -0.0023 -0.9968 0.0799
vn -0.0936 0.9953 -0.0245
vn 0.1380 0.9868 0.0851
vn 0.1496 0.9841 -0.0961
vn 0.0016 0.9864 -0.1642
vn 0.2412 0.3627 -0.9002
vn -0.1774 0.9830 0.0475
vn -0.0475 0.9830 0.1774
vn 0.0002 0.9926 0.1215
vn -0.7653 0.6101 0.2051
vn -0.9002 0.3627 0.2412
vn -0.5602 0.6101 0.5602
vn -0.6590 0.3627 0.6590
vn -0.2051 0.6101 0.7653
vn -0.2412 0.3627 0.9002
vn 0.2051 0.6101 0.7653
vn 0.2412 0.3627 0.9002
vn -0.5602 0.6101 -0.5602
vn -0.6590 0.3627 -0.6590
vn -0.2051 0.6101 -0.7653
vn -0.2412 0.3627 -0.9002
vn 0.5602 0.6101 0.5602
vn 0.6590 0.3627 0.6590
vn 0.7653 0.6101 0.2051
vn 0.9002 0.3627 0.2412
vn 0.7653 0.6101 -0.2051
vn 0.9002 0.3627 -0.2412
vn 0.5602 0.6101 -0.5602
vn 0.6590 0.3627 -0.6590
vn -0.7653 0.6101 -0.2051
vn -0.9002 0.3627 -0.2412
vn 0.6645 -0.3418 -0.6645
vn 0.9078 -0.3418 -0.2432
vn 0.9078 -0.3418 0.2432
vn 0.6645 -0.3418 0.6645
vn -0.9078 -0.3418 -0.2432
vn -0.6645 -0.3418 -0.6645
vn 0.2432 -0.3418 0.9078
vn -0.2432 -0.3418 0.9078
vn -0.6645 -0.3418 0.6645
vn -0.9078 -0.3418 0.2432
vn -0.2432 -0.3418 -0.9078
vn 0.2432 -0.3418 -0.9078
vn 0.2568 0.1237 -0.9585
vn -0.9585 0.1237 0.2568
vn -0.7017 0.1237 0.7017
vn -0.2568 0.1237 0.9585
vn 0.2568 0.1237 0.9585
vn -0.7017 0.1237 -0.7017
vn -0.2568 0.1237 -0.9585
vn 0.7017 0.1237 0.7017
vn 0.9585 0.1237 0.2568
vn 0.9585 0.1237 -0.2568
vn 0.7017 0.1237 -0.7017
vn -0.9585 0.1237 -0.2568
vn 0.7556 -0.6186 -0.2157
vn 0.5759 -0.5803 -0.5759
vn 0.5673 -0.6209 0.5409
vn -0.5599 -0.6207 -0.5489
vn -0.7867 -0.5803 -0.2108
vn -0.1892 -0.6232 0.7589
vn -0.2124 -0.5717 -0.7925
vn 0.2114 -0.5769 0.7890
vn -0.7593 -0.6207 0.1954
vn -0.5802 -0.5717 0.5802
vn 0.2104 -0.6207 -0.7553
vn -0.2324 0.4403 -0.8673
vn -0.6349 0.4403 -0.6349
vn -0.8673 0.4403 -0.2324
vn -0.8673 0.4403 0.2324
vn -0.6349 0.4403 0.6349
vn -0.2324 0.4403 0.8673
vn 0.2324 0.4403 0.8673
vn 0.6349 0.4403 0.6349
vn 0.8673 0.4403 0.2324
vn 0.8673 0.4403 -0.2324
vn 0.6349 0.4403 -0.6349
vn 0.2324 0.4403 -0.8673
vn 0.2051 0.6101 -0.7653
vn -0.4364 0.8946 0.0958
vn 0.9766 0.1918 0.0976
vn 0.7518 0.6448 0.1380
vn 0.2311 0.9534 0.1939
vn -0.0064 -0.0490 -0.9988
vn 0.2922 -0.9145 -0.2800
vn -0.0113 -0.9987 0.0500
vn -0.5923 -0.6176 0.5174
vn 0.5694 0.6559 -0.4955
vn 0.4930 -0.6893 -0.5309
vn -0.6083 0.6182 0.4979
vn -0.0782 0.9855 0.1503
vn -0.2982 0.9021 0.3120
vn -0.4842 0.0064 -0.8749
vn -0.5610 0.0155 -0.8277
vn 0.7969 -0.0681 0.6002
vt 0.451779 0.874138
vt 0.451779 0.874138
vt 0.473004 0.874138
vt 0.451779 0.874138
vt 0.473004 0.874138
vt 0.473004 0.874138
vt 0.473004 0.874138
vt 0.473004 0.874138
vt 0.451779 0.874138
vt 0.473004 0.874138
vt 0.473004 0.874138
vt 0.473004 0.874138
vt 0.451779 0.874138
vt 0.451779 0.874138
vt 0.473004 0.874138
vt 0.473004 0.874138
vt 0.473004 0.874138
vt 0.451779 0.874138
vt 0.376349 0.876296
vt 0.376344 0.877078
vt 0.377028 0.876683
vt 0.375949 0.877762
vt 0.375275 0.878041
vt 0.375949 0.878551
vt 0.376249 0.879959
vt 0.377028 0.879630
vt 0.376344 0.879235
vt 0.378497 0.880017
vt 0.378502 0.879235
vt 0.377818 0.879630
vt 0.378897 0.878551
vt 0.379571 0.878157
vt 0.378897 0.877762
vt 0.376746 0.876977
vt 0.375850 0.876584
vt 0.376847 0.876009
vt 0.375275 0.877581
vt 0.375275 0.878732
vt 0.378497 0.876296
vt 0.377818 0.876683
vt 0.378502 0.877078
vt 0.473004 0.874139
vt 0.451779 0.874138
vt 0.473004 0.874138
vt 0.378222 0.877942
vt 0.378008 0.877571
vt 0.377637 0.877357
vt 0.377209 0.877357
vt 0.376838 0.877571
vt 0.376623 0.877942
vt 0.376623 0.878371
vt 0.376837 0.878742
vt 0.377209 0.878956
vt 0.377637 0.878956
vt 0.378008 0.878742
vt 0.378222 0.878371
vt 0.379571 0.877581
vt 0.379571 0.877581
vt 0.379571 0.878732
vt 0.379526 0.878739
vt 0.459418 0.875596
vt 0.460079 0.873643
vt 0.462053 0.873979
vt 0.462136 0.875524
vt 0.460838 0.876369
vt 0.375850 0.876584
vt 0.376847 0.876009
vt 0.375275 0.877581
vt 0.375275 0.877581
vt 0.375275 0.878732
vt 0.375859 0.879699
vt 0.375850 0.879729
vt 0.377998 0.876008
vt 0.377998 0.876009
vt 0.378995 0.876584
vt 0.378980 0.876623
vt 0.376847 0.880304
vt 0.377987 0.880291
vt 0.377998 0.880304
vt 0.378995 0.879729
vt 0.378995 0.879729
vt 0.371332 0.876009
vt 0.371332 0.876009
vt 0.370181 0.876009
vt 0.379571 0.878732
vt 0.379571 0.878732
vt 0.372328 0.879729
vt 0.372328 0.879729
vt 0.372904 0.878732
vt 0.372904 0.878732
vt 0.377998 0.880304
vt 0.377998 0.880304
vt 0.371332 0.880304
vt 0.376847 0.880304
vt 0.376847 0.880304
vt 0.370180 0.880304
vt 0.370181 0.880304
vt 0.375850 0.879729
vt 0.375850 0.879729
vt 0.369184 0.879729
vt 0.369184 0.879729
vt 0.378995 0.876584
vt 0.379571 0.877581
vt 0.372904 0.877581
vt 0.372328 0.876584
vt 0.377998 0.876009
vt 0.377998 0.876009
vt 0.375275 0.878732
vt 0.375275 0.878732
vt 0.368608 0.878732
vt 0.368608 0.878732
vt 0.375275 0.877581
vt 0.368608 0.877581
vt 0.375850 0.876584
vt 0.369184 0.876584
vt 0.376847 0.876009
vt 0.376847 0.876009
vt 0.375275 0.878732
vt 0.375850 0.879729
vt 0.379571 0.877581
vt 0.376847 0.880304
vt 0.378995 0.879729
vt 0.537998 0.959342
vt 0.537998 0.959342
vt 0.536847 0.959342
vt 0.536847 0.959342
vt 0.538995 0.963062
vt 0.538995 0.963062
vt 0.539571 0.962065
vt 0.539571 0.962065
vt 0.537998 0.963638
vt 0.537998 0.963638
vt 0.536847 0.963638
vt 0.536847 0.963638
vt 0.535850 0.963062
vt 0.539571 0.960914
vt 0.539571 0.960914
vt 0.538995 0.959917
vt 0.538995 0.959918
vt 0.535275 0.962065
vt 0.535275 0.962066
vt 0.535275 0.960914
vt 0.535275 0.960914
vt 0.535850 0.959917
vt 0.535850 0.959917
vt 0.375850 0.876584
vt 0.379571 0.877581
vt 0.378995 0.876584
vt 0.379571 0.878732
vt 0.377998 0.880304
vt 0.377998 0.876009
vt 0.378995 0.879729
s 0
usemtl palette1
f 6/1/1 12/2/1 14/3/1
f 15/4/2 14/3/2 12/2/2
f 14/3/3 13/5/3 7/3/3
f 8/6/4 1/7/4 9/8/4
f 17/1/5 16/9/5 10/1/5
f 15/4/6 12/2/6 6/1/6
f 23/2/7 29/1/7 31/10/7
f 32/2/8 31/10/8 29/1/8
f 31/10/9 30/11/9 24/5/9
f 25/7/10 18/12/10 26/7/10
f 34/1/11 33/1/11 27/13/11
f 32/2/12 29/1/12 23/2/12
f 41/14/13 47/2/13 49/15/13
f 50/4/14 49/15/14 47/2/14
f 49/15/15 48/7/15 42/5/15
f 43/16/16 36/7/16 44/17/16
f 52/1/17 51/18/17 45/13/17
f 50/4/18 47/2/18 41/14/18
f 8/6/19 16/9/19 17/1/19
f 16/9/20 14/3/20 15/4/20
f 14/3/21 16/9/21 6/1/21
f 8/6/22 16/9/22 7/3/22
f 5/1/23 2/18/23 11/1/23
f 7/3/24 13/5/24 8/6/24
f 16/9/25 15/4/25 6/1/25
f 11/1/26 17/1/26 10/1/26
f 28/4/27 25/7/27 34/1/27
f 25/7/28 28/4/28 27/13/28
f 22/1/29 19/2/29 28/4/29
f 24/5/30 30/11/30 25/7/30
f 33/1/31 32/2/31 23/2/31
f 28/4/32 34/1/32 27/13/32
f 51/18/33 49/15/33 50/4/33
f 49/15/34 51/18/34 41/14/34
f 42/5/35 48/7/35 43/16/35
f 51/18/36 50/4/36 41/14/36
f 154/19/37 160/20/37 170/21/37
f 161/22/38 155/23/38 162/24/38
f 156/25/39 167/26/39 163/27/39
f 159/28/40 169/29/40 168/30/40
f 171/31/41 157/32/41 164/33/41
f 67/7/42 74/12/42 82/7/42
f 76/2/43 77/10/43 79/1/43
f 69/2/44 79/1/44 77/10/44
f 172/1/45 75/1/45 81/13/45
f 77/10/46 78/11/46 68/5/46
f 76/2/47 79/1/47 69/2/47
f 75/1/48 77/10/48 76/2/48
f 80/4/49 67/7/49 172/1/49
f 55/34/50 91/35/50 92/36/50
f 155/23/51 132/37/51 134/38/51
f 1/7/52 8/6/52 17/1/52 11/1/52
f 158/39/53 166/40/53 165/41/53
f 77/10/54 75/1/54 69/2/54
f 67/7/55 80/4/55 81/13/55
f 70/1/56 73/2/56 80/4/56
f 68/5/57 78/11/57 67/7/57
f 75/1/58 76/2/58 69/2/58
f 80/4/59 172/1/59 81/13/59
f 179/14/60 185/2/60 187/15/60
f 188/4/61 187/15/61 185/2/61
f 187/15/62 186/7/62 180/5/62
f 181/16/63 174/7/63 182/17/63
f 190/1/64 189/18/64 183/13/64
f 188/4/65 185/2/65 179/14/65
f 189/18/66 187/15/66 188/4/66
f 187/15/67 189/18/67 179/14/67
f 180/5/68 186/7/68 181/16/68
f 189/18/69 188/4/69 179/14/69
f 8/6/70 13/5/70 16/9/70
f 1/7/71 11/1/71 2/18/71 3/3/71
f 11/1/72 9/8/72 4/7/72 5/1/72
f 16/9/73 13/5/73 14/3/73
f 14/3/74 7/3/74 16/9/74
f 9/8/75 11/1/75 10/1/75 8/6/75
f 1/7/76 3/3/76 4/7/76 9/8/76
f 8/6/77 10/1/77 16/9/77
f 30/11/78 33/1/78 34/1/78 25/7/78
f 18/12/79 28/4/79 19/2/79 20/42/79
f 28/4/80 18/12/80 25/7/80
f 31/10/81 32/2/81 33/1/81 30/11/81
f 23/2/82 31/10/82 24/5/82 33/1/82
f 22/1/83 28/4/83 26/7/83 21/7/83
f 33/1/84 24/5/84 25/7/84 27/13/84
f 25/7/85 26/7/85 28/4/85
f 18/12/86 20/42/86 21/7/86 26/7/86
f 48/7/87 51/18/87 52/1/87 43/16/87
f 36/7/88 43/16/88 52/1/88 35/43/88
f 38/3/89 36/7/89 35/43/89 37/4/89
f 46/43/90 44/17/90 39/44/90 40/1/90
f 51/18/91 48/7/91 49/15/91
f 49/15/92 42/5/92 51/18/92
f 44/17/93 46/43/93 45/13/93 43/16/93
f 45/13/94 51/18/94 42/5/94 43/16/94
f 40/1/95 37/4/95 35/43/95 46/43/95
f 35/43/96 52/1/96 45/13/96 46/43/96
f 36/7/97 38/3/97 39/44/97 44/17/97
f 170/21/98 166/40/98 158/39/98 154/19/98
f 56/45/99 54/46/99 53/47/99 66/48/99 64/49/99 63/50/99 62/51/99 61/52/99 60/53/99 59/54/99 58/55/99 57/56/99
f 83/57/100 97/58/100 104/59/100 84/60/100
f 88/61/101 55/62/101 65/63/101 84/64/101 86/65/101
f 155/23/102 161/22/102 160/20/102 154/19/102
f 92/36/103 91/35/103 94/66/103 105/67/103
f 90/68/104 95/69/104 94/66/104 91/35/104
f 156/25/105 163/27/105 162/24/105 155/23/105
f 90/68/106 89/70/106 96/70/106 95/69/106
f 88/71/107 98/72/107 96/70/107 89/70/107
f 159/28/108 168/30/108 167/26/108 156/25/108
f 93/73/109 102/74/109 103/75/109 65/76/109
f 65/76/110 103/75/110 97/58/110 83/57/110
f 171/31/111 169/29/111 159/28/111 157/32/111
f 88/71/112 87/77/112 99/77/112 98/72/112
f 86/78/113 100/79/113 99/77/113 87/77/113
f 158/39/114 165/41/114 164/33/114 157/32/114
f 86/78/115 85/80/115 101/81/115 100/79/115
f 84/60/116 104/59/116 101/81/116 85/80/116
f 74/12/117 80/4/117 73/2/117 72/42/117
f 78/11/118 75/1/118 172/1/118 67/7/118
f 92/36/119 105/67/119 102/74/119 93/73/119
f 75/1/120 78/11/120 77/10/120
f 80/4/121 74/12/121 67/7/121
f 90/68/122 55/34/122 88/71/122 89/70/122
f 84/60/123 65/76/123 83/57/123
f 86/78/124 84/60/124 85/80/124
f 88/71/125 86/78/125 87/77/125
f 123/82/126 122/83/126 128/84/126 129/84/126
f 55/34/127 90/68/127 91/35/127
f 55/34/128 92/36/128 93/73/128
f 65/76/129 55/34/129 93/73/129
f 121/81/130 127/85/130 148/86/130 147/81/130
f 121/87/131 120/88/131 126/89/131 127/90/131
f 119/91/132 121/81/132 147/81/132 145/92/132
f 121/87/133 119/93/133 118/93/133 120/88/133
f 119/91/134 145/92/134 143/94/134 117/95/134
f 117/96/135 116/97/135 118/93/135 119/93/135
f 115/98/136 117/95/136 143/94/136 141/99/136
f 117/96/137 115/100/137 114/101/137 116/97/137
f 125/75/138 138/102/138 137/103/138 113/57/138
f 113/104/139 112/104/139 124/105/139 125/105/139
f 125/75/140 123/106/140 151/107/140 138/102/140
f 123/82/141 125/105/141 124/105/141 122/83/141
f 115/98/142 141/99/142 135/108/142 111/109/142
f 111/110/143 110/111/143 114/101/143 115/100/143
f 111/109/144 135/108/144 133/112/144 109/68/144
f 111/110/145 109/113/145 108/113/145 110/111/145
f 109/68/146 133/112/146 131/114/146 107/66/146
f 109/113/147 107/115/147 106/115/147 108/113/147
f 129/67/148 107/66/148 131/114/148 152/116/148
f 107/115/149 129/84/149 128/84/149 106/115/149
f 113/57/150 137/103/150 148/86/150 127/85/150
f 127/90/151 126/89/151 112/104/151 113/104/151
f 94/66/152 106/66/152 128/117/152 105/67/152
f 94/66/153 95/69/153 108/69/153 106/66/153
f 95/69/154 96/70/154 110/118/154 108/69/154
f 98/72/155 114/119/155 110/118/155 96/70/155
f 97/58/156 112/120/156 126/59/156 104/59/156
f 97/58/157 103/75/157 124/75/157 112/120/157
f 99/77/158 116/121/158 114/119/158 98/72/158
f 99/77/159 100/79/159 118/91/159 116/121/159
f 101/81/160 120/122/160 118/91/160 100/79/160
f 104/59/161 126/59/161 120/122/161 101/81/161
f 102/74/162 122/74/162 124/75/162 103/75/162
f 102/74/163 105/67/163 128/117/163 122/74/163
f 150/123/164 151/124/164 152/125/164 153/126/164
f 146/127/165 147/128/165 148/129/165 149/130/165
f 144/131/166 145/132/166 147/128/166 146/127/166
f 142/133/167 143/134/167 145/132/167 144/131/167
f 140/135/168 141/135/168 143/134/168 142/133/168
f 136/136/169 137/137/169 138/138/169 139/139/169
f 150/123/170 139/139/170 138/138/170 151/124/170
f 134/140/171 135/141/171 141/135/171 140/135/171
f 134/140/172 132/142/172 133/143/172 135/141/172
f 130/144/173 131/145/173 133/143/173 132/142/173
f 153/126/174 152/125/174 131/145/174 130/144/174
f 149/130/175 148/129/175 137/137/175 136/136/175
f 130/146/176 132/37/176 155/23/176 154/19/176
f 154/19/177 153/67/177 130/146/177
f 134/38/178 140/99/178 156/25/178 155/23/178
f 136/147/179 139/148/179 158/39/179 157/32/179
f 157/32/180 149/149/180 136/147/180
f 142/121/181 144/150/181 159/28/181 156/25/181
f 158/39/182 139/148/182 150/151/182
f 156/25/183 140/99/183 142/121/183
f 149/149/184 157/32/184 159/28/184 146/152/184
f 159/28/185 144/150/185 146/152/185
f 153/67/186 154/19/186 158/39/186 150/151/186
f 53/47/187 54/46/187 165/41/187 166/40/187
f 165/41/188 54/46/188 56/45/188 164/33/188
f 164/33/189 56/45/189 57/56/189 171/31/189
f 57/56/190 58/55/190 169/29/190 171/31/190
f 58/55/191 59/54/191 168/30/191 169/29/191
f 168/30/192 59/54/192 60/53/192 167/26/192
f 60/53/193 61/52/193 163/27/193 167/26/193
f 163/27/194 61/52/194 62/51/194 162/24/194
f 162/24/195 62/51/195 63/50/195 161/22/195
f 161/22/196 63/50/196 64/49/196 160/20/196
f 64/49/197 66/48/197 170/21/197 160/20/197
f 66/48/198 53/47/198 166/40/198 170/21/198
f 129/67/199 152/116/199 151/107/199 123/106/199
f 70/1/200 80/4/200 82/7/200 71/7/200
f 77/10/201 68/5/201 75/1/201
f 81/13/202 75/1/202 68/5/202 67/7/202
f 67/7/203 82/7/203 80/4/203
f 74/12/204 72/42/204 71/7/204 82/7/204
f 186/7/205 189/18/205 190/1/205 181/16/205
f 174/7/206 181/16/206 190/1/206 173/43/206
f 176/3/207 174/7/207 173/43/207 175/4/207
f 184/43/208 182/17/208 177/44/208 178/1/208
f 189/18/209 186/7/209 187/15/209
f 187/15/210 180/5/210 189/18/210
f 182/17/211 184/43/211 183/13/211 181/16/211
f 183/13/212 189/18/212 180/5/212 181/16/212
f 178/1/213 175/4/213 173/43/213 184/43/213
f 173/43/214 190/1/214 183/13/214 184/43/214
f 174/7/215 176/3/215 177/44/215 182/17/215
