# Blender 4.5.2 LTS
# www.blender.org
mtllib pos_terminal.mtl
o pos_terminal
v -2.697247 1.033936 0.916555
v -2.785570 1.033936 0.916555
v -2.785570 1.065929 0.922197
v -2.785570 1.073080 0.926753
v -2.697247 1.065929 0.922197
v -2.697247 1.073080 0.926753
v -2.697247 1.013040 0.934876
v -2.697247 1.019999 0.923559
v -2.785570 1.019999 0.923559
v -2.785570 1.013040 0.934876
v -2.785570 1.074916 0.935031
v -2.697247 1.074916 0.935031
v -2.785570 0.997308 1.071764
v -2.785570 1.001301 1.077278
v -2.697247 1.001301 1.077278
v -2.697247 0.997308 1.071764
v -2.785570 1.027947 1.081976
v -2.785570 1.034273 1.078012
v -2.697247 1.027947 1.081976
v -2.697247 1.034273 1.078012
v -2.688797 1.033936 0.916555
v -2.697247 1.058919 0.932210
v -2.688797 1.057084 0.923932
v -2.688797 1.013040 0.934876
v -2.688797 1.019999 0.923559
v -2.688797 1.058919 0.932210
v -2.688797 1.001301 1.077278
v -2.688797 0.997308 1.071764
v -2.688797 1.011950 1.079155
v -2.688797 1.018277 1.075192
v -2.688797 1.049933 0.919376
v -2.697247 1.057084 0.923932
v -2.697247 1.049933 0.919376
v -2.690963 1.057084 0.923932
v -2.690963 1.011950 1.079155
v -2.690963 1.058919 0.932210
v -2.690963 1.018277 1.075192
v -2.697247 1.011950 1.079155
v -2.697247 1.018277 1.075192
v -2.695385 1.057479 0.932986
v -2.695385 1.056069 0.926628
v -2.695385 1.012607 1.076669
v -2.695385 1.017511 1.073597
v -2.691015 1.017511 1.073597
v -2.691015 1.012607 1.076669
v -2.691015 1.057479 0.932986
v -2.691015 1.056069 0.926628
v -2.728523 1.068623 0.959560
v -2.772322 1.068623 0.959560
v -2.772322 1.070932 0.951438
v -2.728523 1.070932 0.951438
v -2.741906 1.064381 0.975122
v -2.772322 1.064381 0.975122
v -2.772322 1.066690 0.967001
v -2.741906 1.066690 0.967001
v -2.707081 1.038173 1.067794
v -2.738290 1.038173 1.067794
v -2.738290 1.041606 1.055719
v -2.707081 1.041606 1.055719
v -2.754044 1.047971 1.032990
v -2.769971 1.047971 1.032990
v -2.769971 1.050649 1.023570
v -2.754044 1.050649 1.023570
v -2.712846 1.047971 1.032990
v -2.728772 1.047971 1.032990
v -2.728772 1.050649 1.023570
v -2.712846 1.050649 1.023570
v -2.733445 1.047971 1.032990
v -2.749372 1.047971 1.032990
v -2.749372 1.050649 1.023570
v -2.733445 1.050649 1.023570
v -2.744527 1.038173 1.067794
v -2.775735 1.038173 1.067794
v -2.775735 1.041606 1.055719
v -2.744527 1.041606 1.055719
v -2.705704 1.056271 1.000625
v -2.711608 1.053832 1.009206
v -2.707305 1.054546 1.006693
v -2.771209 1.053832 1.009206
v -2.777113 1.056271 1.000625
v -2.775512 1.054546 1.006693
v -2.777113 1.070164 0.951747
v -2.771209 1.072603 0.943166
v -2.775441 1.071889 0.945679
v -2.711608 1.072603 0.943166
v -2.705704 1.070164 0.951747
v -2.707376 1.071889 0.945679
v -2.785570 1.047429 0.918935
v -2.785570 1.010397 1.032482
v -2.729394 1.033936 0.916555
v -2.769790 1.040683 0.917745
v -2.785570 1.045436 0.941289
v -2.785570 1.033146 0.981912
v -2.702049 1.016702 0.944115
v -2.780767 1.016702 0.944115
v -2.780767 1.013293 0.967708
v -2.702049 1.013293 0.967708
v -2.702049 1.002479 0.942798
v -2.702049 0.997308 0.948236
v -2.780767 0.997308 0.948236
v -2.780767 1.002479 0.942798
v -2.780767 1.001089 0.966337
v -2.780767 0.997308 0.962108
v -2.702049 0.997308 0.962108
v -2.702049 1.001089 0.966337
v -2.706023 1.060762 0.921645
v -2.706023 1.051945 0.920003
v -2.776793 1.051945 0.920003
v -2.776793 1.060762 0.921645
v -2.775473 1.055147 0.915542
v -2.776793 1.054327 0.916685
v -2.776793 1.060911 0.918515
v -2.775473 1.060975 0.917163
v -2.706023 1.054327 0.916685
v -2.707344 1.055147 0.915542
v -2.707344 1.060975 0.917163
v -2.706023 1.060911 0.918515
vn -0.0000 0.5373 -0.8434
vn -0.0000 0.9763 -0.2164
vn -0.0000 0.1736 -0.9848
vn -0.0000 -0.8518 -0.5238
vn -0.0000 -0.4490 -0.8935
vn -0.0000 -0.8099 0.5865
vn -0.0000 -0.9935 -0.1142
vn -0.0000 0.5309 0.8474
vn -0.0000 -0.1736 0.9848
vn -1.0000 -0.0000 -0.0000
vn 1.0000 -0.0000 -0.0000
vn -0.9996 0.0157 0.0251
vn -0.9995 0.0323 -0.0072
vn 0.6457 0.7455 -0.1653
vn -0.0000 0.9619 0.2734
vn 0.5332 0.8138 0.2313
vn -0.0000 0.9359 0.3523
vn 0.6867 0.3859 0.6160
vn -0.0000 0.9669 0.2552
vn -0.9990 0.0427 0.0121
vn -0.0000 -0.7247 -0.6891
vn -0.0000 -0.7455 0.6665
vn -0.0000 0.0922 -0.9957
vn -0.0000 -1.0000 -0.0000
vn -0.0000 -0.1116 0.9938
vn 0.7071 0.1894 -0.6813
vn -0.7071 0.1894 -0.6813
vn -0.0000 -0.8125 -0.5830
vn -0.0000 0.2679 -0.9635
vn -0.0000 0.9989 0.0475
vt 0.121667 0.965000
vt 0.121667 0.955000
vt 0.121825 0.955000
vt 0.121825 0.965000
vt 0.122296 0.955000
vt 0.122296 0.965000
vt 0.121667 0.965000
vt 0.121667 0.961360
vt 0.121667 0.958180
vt 0.456193 0.885000
vt 0.456193 0.875000
vt 0.455491 0.875000
vt 0.455491 0.885000
vt 0.455000 0.875000
vt 0.455000 0.881360
vt 0.455000 0.885000
vt 0.464047 0.875000
vt 0.464047 0.885000
vt 0.464316 0.885000
vt 0.464316 0.875000
vt 0.130982 0.955000
vt 0.130982 0.965000
vt 0.130698 0.964937
vt 0.130698 0.955063
vt 0.130982 0.955000
vt 0.461719 0.875000
vt 0.130713 0.965000
vt 0.122859 0.965000
vt 0.122157 0.965000
vt 0.130698 0.965000
vt 0.130698 0.965000
vt 0.130922 0.965000
vt 0.464047 0.885000
vt 0.121825 0.965000
vt 0.121928 0.965000
vt 0.122296 0.965000
vt 0.455000 0.885000
vt 0.121667 0.965000
vt 0.000000 0.000000
vt 0.130982 0.965000
vt 0.464316 0.885000
vt 0.121667 0.965000
vt 0.202296 0.961667
vt 0.210698 0.961667
vt 0.210698 0.961667
vt 0.210922 0.961667
vt 0.210922 0.961667
vt 0.201928 0.961667
vt 0.121825 0.965000
vt 0.130982 0.965000
vt 0.046655 0.967376
vt 0.042774 0.967376
vt 0.042774 0.959291
vt 0.046655 0.959291
vt 0.046655 0.964905
vt 0.042774 0.964905
vt 0.459988 0.878239
vt 0.456108 0.878239
vt 0.456108 0.872624
vt 0.459988 0.872624
vt 0.136655 0.878239
vt 0.132774 0.878239
vt 0.132774 0.872624
vt 0.136655 0.872624
vt 0.376655 0.961572
vt 0.372774 0.961572
vt 0.372774 0.955957
vt 0.376655 0.955957
vt 0.126151 0.957376
vt 0.126507 0.957080
vt 0.126654 0.957411
vt 0.126655 0.963032
vt 0.126655 0.963956
vt 0.126507 0.963747
vt 0.133322 0.956968
vt 0.133174 0.956253
vt 0.133468 0.956219
vt 0.126151 0.955957
vt 0.126655 0.955958
vt 0.126507 0.956244
vt 0.122418 0.955243
vt 0.122774 0.955984
vt 0.122670 0.956044
vt 0.122418 0.964757
vt 0.122670 0.963956
vt 0.122787 0.964042
vt 0.122817 0.955749
vt 0.122817 0.964252
vt 0.126802 0.963780
vt 0.126655 0.956968
vt 0.216655 0.879699
vt 0.216507 0.880413
vt 0.216151 0.880709
vt 0.213278 0.880709
vt 0.212922 0.880413
vt 0.212774 0.879699
vt 0.212774 0.873634
vt 0.212922 0.872920
vt 0.213278 0.872624
vt 0.216151 0.872624
vt 0.216507 0.872920
vt 0.216655 0.873634
vt 0.123278 0.964042
vt 0.126151 0.964042
vt 0.126654 0.955924
vt 0.122774 0.956968
vt 0.130698 0.955000
vt 0.125026 0.955000
vt 0.126706 0.955000
vt 0.128386 0.955000
vt 0.475053 0.878333
vt 0.473373 0.878333
vt 0.471693 0.878333
vt 0.468333 0.878333
vt 0.468333 0.881513
vt 0.468333 0.884694
vt 0.456362 0.885000
vt 0.456362 0.875000
vt 0.456193 0.875000
vt 0.456869 0.875000
vt 0.456760 0.875000
vt 0.456760 0.885000
vt 0.456869 0.885000
vt 0.456869 0.885000
vt 0.456869 0.875000
vt 0.121667 0.964813
vt 0.121825 0.964813
vt 0.121825 0.965000
vt 0.121825 0.955000
vt 0.121825 0.955186
vt 0.121667 0.955187
vt 0.121667 0.955000
vt 0.215000 0.958147
vt 0.215000 0.948520
vt 0.215159 0.948520
vt 0.215159 0.958147
s 0
usemtl palette1
f 5/1/1 3/2/1 4/3/1 6/4/1
f 6/4/2 4/3/2 11/5/2 12/6/2
f 1/7/3 90/8/3 91/9/3 88/2/3 3/2/3 5/1/3
f 7/10/4 10/11/4 9/12/4 8/13/4
f 8/13/5 9/12/5 2/14/5 90/15/5 1/16/5
f 13/17/6 16/18/6 15/19/6 14/20/6
f 16/18/7 13/17/7 10/11/7 7/10/7
f 17/21/8 19/22/8 20/23/8 18/24/8
f 14/25/9 15/22/9 19/22/9 17/21/9
f 2/14/10 9/12/10 10/11/10 13/17/10 14/20/10 89/26/10
f 15/22/11 16/27/11 7/28/11 8/29/11 1/7/11 5/1/11 6/4/11 12/6/11 20/30/11 19/22/11
f 27/22/11 21/7/11 31/1/11 23/4/11 26/6/11 30/30/11 29/22/11
f 37/31/12 44/31/12 45/32/12 35/22/12
f 28/33/7 16/18/7 7/10/7 24/10/7
f 24/10/4 7/10/4 8/13/4 25/13/4
f 34/34/13 47/35/13 46/36/13 36/36/13
f 25/13/5 8/13/5 1/16/5 21/37/5
f 31/38/1 33/1/1 32/4/1 34/34/1
f 22/39/14 40/39/14 41/39/14 32/39/14
f 35/22/9 38/22/9 15/22/9 27/40/9
f 27/41/6 15/19/6 16/18/6 28/33/6
f 21/42/3 1/7/3 33/1/3 31/38/3
f 29/22/9 35/22/9 27/40/9
f 23/4/2 34/34/2 36/36/2 26/6/2
f 31/1/1 34/34/1 23/4/1
f 30/30/8 37/31/8 35/22/8 29/22/8
f 26/6/15 36/36/15 37/31/15 30/30/15
f 46/43/15 40/43/15 43/44/15 44/45/15
f 44/45/8 43/44/8 42/46/8 45/47/8
f 47/48/2 41/48/2 40/43/2 46/43/2
f 39/39/16 43/39/16 40/39/16 22/39/16
f 32/4/17 41/49/17 47/35/17 34/34/17
f 38/39/18 42/39/18 43/39/18 39/39/18
f 35/22/19 45/32/19 42/50/19 38/22/19
f 36/36/20 46/36/20 44/31/20 37/31/20
f 48/51/15 51/52/15 50/53/15 49/54/15
f 52/55/15 55/56/15 54/53/15 53/54/15
f 56/57/15 59/58/15 58/59/15 57/60/15
f 60/61/15 63/62/15 62/63/15 61/64/15
f 64/61/15 67/62/15 66/63/15 65/64/15
f 68/61/15 71/62/15 70/63/15 69/64/15
f 72/65/15 75/66/15 74/67/15 73/68/15
f 76/69/15 78/70/15 20/71/15
f 77/72/15 20/73/15 78/74/15
f 79/75/15 81/76/15 18/77/15
f 80/78/15 18/79/15 81/80/15
f 11/81/15 84/82/15 83/83/15
f 12/84/15 85/85/15 87/86/15
f 11/81/15 82/87/15 84/82/15
f 12/84/15 87/86/15 86/88/15
f 20/89/15 77/72/15 79/90/15 18/24/15
f 77/91/15 78/92/15 76/93/15 86/94/15 87/95/15 85/96/15 83/97/15 84/98/15 82/99/15 80/100/15 81/101/15 79/102/15
f 12/84/15 86/103/15 76/104/15 20/30/15
f 18/105/15 80/78/15 82/87/15 11/5/15
f 11/81/15 83/106/15 85/85/15 12/6/15
f 21/16/11 27/19/11 28/18/11 24/10/11 25/13/11
f 14/25/10 17/21/10 18/107/10 11/5/10 4/3/10 3/2/10 88/2/10 92/108/10 93/109/10 89/110/10
f 89/111/10 93/112/10 92/113/10 88/114/10 2/114/10
f 88/114/3 91/115/3 90/116/3 2/114/3
f 98/10/21 99/117/21 100/118/21 101/119/21
f 102/120/22 103/121/22 104/122/22 105/123/22
f 101/119/23 95/11/23 94/10/23 98/10/23
f 104/122/24 103/121/24 100/118/24 99/117/24
f 98/10/11 94/10/11 97/124/11 105/123/11 104/122/11 99/117/11
f 102/120/10 96/125/10 95/11/10 101/119/10 100/118/10 103/121/10
f 105/123/25 97/124/25 96/125/25 102/120/25
f 114/38/26 115/126/26 116/127/26 117/128/26
f 112/129/27 113/130/27 110/131/27 111/132/27
f 111/132/10 108/2/10 109/3/10 112/129/10
f 114/38/28 107/1/28 108/2/28 111/132/28 110/131/28 115/126/28
f 115/133/29 110/134/29 113/135/29 116/136/29
f 112/129/30 109/3/30 106/4/30 117/128/30 116/127/30 113/130/30
f 117/128/11 106/4/11 107/1/11 114/38/11
