# Blender 4.5.2 LTS
# www.blender.org
mtllib price_tag.mtl
o price_tag
v 0.775189 0.000000 0.573333
v 0.771478 0.000000 0.573333
v 0.757404 0.183058 0.576645
v 0.788645 0.183923 0.576645
v 0.758022 0.160721 0.571675
v 0.789263 0.161585 0.576645
v 0.768801 0.164892 0.573333
v 0.757404 0.183058 0.571675
v 0.788645 0.183923 0.571675
v 0.777866 0.164892 0.573333
v 0.758022 0.160721 0.576645
v 0.789263 0.161585 0.571675
v 0.760214 0.180653 0.577208
v 0.781445 0.180887 0.577208
v 0.781865 0.174842 0.577208
v 0.760634 0.174608 0.577208
v 0.761334 0.171028 0.577208
v 0.776526 0.171146 0.577208
v 0.776947 0.166902 0.577208
v 0.761754 0.166784 0.577208
vn 0.9996 0.0277 -0.0000
vn -0.0000 -0.0000 -1.0000
vn -0.0277 0.9996 -0.0000
vn 0.0277 -0.9996 -0.0000
vn -0.9996 -0.0277 -0.0000
vn -0.0000 -0.0000 1.0000
vt 0.365000 0.875000
vt 0.375000 0.875000
vt 0.208333 0.878333
vt 0.218333 0.878333
vt 0.208333 0.961667
vt 0.218333 0.961667
vt 0.211177 0.961667
s 0
usemtl palette1
f 4/1/1 6/1/1 12/1/1 9/1/1
f 12/1/2 5/2/2 8/2/2 9/1/2
f 3/2/3 4/1/3 9/1/3 8/2/3
f 6/1/4 11/2/4 5/2/4 12/1/4
f 11/2/5 3/2/5 8/2/5 5/2/5
f 2/3/6 1/4/6 10/4/6 7/3/6
f 6/1/6 4/1/6 3/2/6 11/2/6
f 15/5/6 14/5/6 13/6/6 16/6/6
f 19/7/6 18/7/6 17/6/6 20/6/6
