# Blender 4.5.2 LTS
# www.blender.org
mtllib reception_desk_drawer.mtl
o reception_desk_drawer
v -3.175271 0.586708 0.398583
v -3.657865 0.586708 0.398583
v -3.175271 0.586708 0.734173
v -3.657865 0.586708 0.734173
v -3.187128 0.738637 0.410440
v -3.646008 0.738637 0.410440
v -3.187128 0.738637 0.722316
v -3.646008 0.738637 0.722316
v -3.175271 0.738637 0.398583
v -3.657865 0.738637 0.398583
v -3.175271 0.738637 0.734173
v -3.657865 0.738637 0.734173
v -3.187128 0.600758 0.410440
v -3.646008 0.600758 0.410440
v -3.187128 0.600758 0.722316
v -3.646008 0.600758 0.722316
v -3.304999 0.656453 0.369406
v -3.528136 0.656453 0.369406
v -3.304999 0.691065 0.369406
v -3.528136 0.691065 0.369406
v -3.298919 0.656453 0.379789
v -3.534216 0.656453 0.379789
v -3.298919 0.691065 0.379789
v -3.534216 0.691065 0.379789
v -3.348941 0.656453 0.362632
v -3.416568 0.656453 0.359147
v -3.484195 0.656453 0.362633
v -3.348941 0.691065 0.362632
v -3.416568 0.691065 0.359147
v -3.484195 0.691065 0.362633
v -3.345255 0.656453 0.373016
v -3.416568 0.656453 0.369530
v -3.487880 0.656453 0.373016
v -3.345255 0.691065 0.373016
v -3.416568 0.691065 0.369530
v -3.487880 0.691065 0.373016
v -3.332196 0.665590 0.369199
v -3.332196 0.681928 0.369199
v -3.358191 0.665590 0.369199
v -3.358191 0.681928 0.369199
v -3.332196 0.681928 0.403589
v -3.332196 0.665590 0.403589
v -3.358191 0.665590 0.403589
v -3.358191 0.681928 0.403589
v -3.474944 0.665590 0.369199
v -3.474944 0.681928 0.369199
v -3.500939 0.665590 0.369199
v -3.500939 0.681928 0.369199
v -3.474944 0.681928 0.403589
v -3.474944 0.665590 0.403589
v -3.500939 0.665590 0.403589
v -3.500939 0.681928 0.403589
vn -0.0000 -1.0000 -0.0000
vn 1.0000 -0.0000 -0.0000
vn -0.0000 -0.0000 1.0000
vn -1.0000 -0.0000 -0.0000
vn -0.0000 -0.0000 -1.0000
vn -0.0000 1.0000 -0.0000
vn -0.1523 -0.0000 -0.9883
vn 0.1446 -0.0000 0.9895
vn -0.8629 -0.0000 -0.5053
vn 0.8629 -0.0000 -0.5053
vn -0.1446 -0.0000 0.9895
vn -0.0488 -0.0000 0.9988
vn 0.0488 -0.0000 0.9988
vn 0.1523 -0.0000 -0.9883
vn 0.0515 -0.0000 -0.9987
vn -0.0515 -0.0000 -0.9987
vt 0.301667 0.955261
vt 0.301667 0.964739
vt 0.301667 0.964506
vt 0.301667 0.964506
vt 0.301667 0.955494
vt 0.301667 0.955494
vt 0.208333 0.879036
vt 0.208333 0.881406
vt 0.208333 0.871928
vt 0.208333 0.874297
vt 0.208333 0.876667
vt 0.135000 0.951928
vt 0.135000 0.954297
s 0
usemtl palette1
f 1/1/1 3/1/1 4/2/1 2/2/1
f 6/3/2 8/4/2 16/4/2 14/3/2
f 4/2/3 3/1/3 11/1/3 12/2/3
f 2/2/4 4/2/4 12/2/4 10/2/4
f 1/1/5 2/2/5 10/2/5 9/1/5
f 3/1/2 1/1/2 9/1/2 11/1/2
f 6/3/6 5/5/6 9/1/6 10/2/6
f 7/6/6 8/4/6 12/2/6 11/1/6
f 8/4/6 6/3/6 10/2/6 12/2/6
f 5/5/6 7/6/6 11/1/6 9/1/6
f 13/5/6 14/3/6 16/4/6 15/6/6
f 5/5/3 6/3/3 14/3/3 13/5/3
f 7/6/4 5/5/4 13/5/4 15/6/4
f 8/4/5 7/6/5 15/6/5 16/4/5
f 27/7/7 18/8/7 20/8/7 30/7/7
f 33/7/8 36/7/8 24/8/8 22/8/8
f 18/8/9 22/8/9 24/8/9 20/8/9
f 27/7/1 33/7/1 22/8/1 18/8/1
f 19/9/10 23/9/10 21/9/10 17/9/10
f 28/10/6 34/10/6 23/9/6 19/9/6
f 20/8/6 24/8/6 36/7/6 30/7/6
f 30/7/6 36/7/6 35/11/6 29/11/6
f 29/11/6 35/11/6 34/10/6 28/10/6
f 17/9/1 21/9/1 31/10/1 25/10/1
f 25/10/1 31/10/1 32/11/1 26/11/1
f 26/11/1 32/11/1 33/7/1 27/7/1
f 21/9/11 23/9/11 34/10/11 31/10/11
f 31/10/12 34/10/12 35/11/12 32/11/12
f 32/11/13 35/11/13 36/7/13 33/7/13
f 17/9/14 25/10/14 28/10/14 19/9/14
f 25/10/15 26/11/15 29/11/15 28/10/15
f 26/11/16 27/7/16 30/7/16 29/11/16
f 37/12/1 42/12/1 43/13/1 39/13/1
f 40/13/6 44/13/6 41/12/6 38/12/6
f 38/12/2 41/12/2 42/12/2 37/12/2
f 39/13/4 43/13/4 44/13/4 40/13/4
f 45/12/1 50/12/1 51/13/1 47/13/1
f 48/13/6 52/13/6 49/12/6 46/12/6
f 46/12/2 49/12/2 50/12/2 45/12/2
f 47/13/4 51/13/4 52/13/4 48/13/4
