# Blender 4.5.2 LTS
# www.blender.org
mtllib reception_desk.mtl
o reception_desk
v -4.299366 0.000000 1.235309
v -5.700634 0.000000 1.235309
v -5.700634 0.958627 1.235309
v -4.299366 0.958627 1.235309
v -5.700634 0.775025 1.235309
v -4.299366 0.775025 1.235309
v -4.299366 0.802014 1.283711
v -5.700634 0.802014 1.283711
v -4.299366 0.958627 1.283711
v -5.700634 0.958627 1.283711
v -4.299366 0.958627 1.250718
v -4.299366 0.775025 1.250718
v -5.700634 0.958627 1.250719
v -5.700634 0.775025 1.250719
v -4.305850 0.958627 1.243014
v -5.694150 0.958627 1.243014
v -4.305850 0.785049 1.243014
v -5.694150 0.785049 1.243014
v -4.299366 0.958627 0.741901
v -5.700634 0.958627 0.741901
v -4.299366 0.775025 0.767594
v -4.299366 0.000000 0.767594
v -5.700634 0.000000 0.767594
v -5.700634 0.775025 0.767594
vn -0.0000 -1.0000 -0.0000
vn -0.0000 -0.0000 1.0000
vn 1.0000 -0.0000 -0.0000
vn -1.0000 -0.0000 -0.0000
vn -0.0000 1.0000 -0.0000
vn -0.0000 -0.7740 0.6332
vn -0.0000 -0.6094 -0.7929
vn 0.7651 -0.0000 -0.6439
vn -0.7651 -0.0000 -0.6439
vn -0.7651 -0.0000 0.6439
vn 0.7651 -0.0000 0.6439
vn -0.0000 -0.6094 0.7929
vn -0.0000 -0.1386 -0.9904
vn -0.0000 -0.0000 -1.0000
vt 0.301667 0.965000
vt 0.301667 0.955000
vt 0.291667 0.955000
vt 0.291667 0.965000
vt 0.291667 0.965000
vt 0.291667 0.955000
vt 0.301667 0.965000
vt 0.458333 0.965000
vt 0.448333 0.965000
vt 0.448333 0.955000
vt 0.458333 0.955000
vt 0.451667 0.868333
vt 0.451667 0.868333
vt 0.451667 0.858333
vt 0.451667 0.858333
vt 0.458333 0.965000
vt 0.448333 0.965000
vt 0.448333 0.955000
vt 0.458333 0.955000
vt 0.211667 0.965000
vt 0.211667 0.955000
vt 0.455000 0.955000
vt 0.455000 0.965000
vt 0.211667 0.955000
vt 0.211667 0.965000
s 0
usemtl palette1
f 23/1/1 22/2/1 1/3/1 2/4/1
f 5/5/2 2/4/2 1/3/2 6/6/2
f 6/6/3 1/3/3 22/2/3 21/2/3
f 24/7/4 23/1/4 2/4/4 5/5/4
f 20/8/5 3/9/5 4/10/5 19/11/5
f 10/12/2 8/13/2 7/14/2 9/15/2
f 20/8/4 24/16/4 5/17/4 3/9/4
f 4/10/3 6/18/3 21/19/3 19/11/3
f 13/12/4 14/13/4 8/13/4 10/12/4
f 12/14/3 11/15/3 9/15/3 7/14/3
f 11/15/5 13/12/5 10/12/5 9/15/5
f 14/13/6 12/14/6 7/14/6 8/13/6
f 18/20/7 17/21/7 12/21/7 14/20/7
f 15/22/5 16/23/5 13/23/5 11/22/5
f 17/21/8 15/24/8 11/24/8 12/21/8
f 16/25/9 18/20/9 14/20/9 13/25/9
f 3/25/10 5/20/10 18/20/10 16/25/10
f 6/21/11 4/24/11 15/24/11 17/21/11
f 4/22/5 3/23/5 16/23/5 15/22/5
f 5/20/12 6/21/12 17/21/12 18/20/12
f 19/11/13 21/19/13 24/16/13 20/8/13
f 23/1/14 24/7/14 21/7/14 22/1/14
