# Blender 4.5.2 LTS
# www.blender.org
mtllib reception_desk_logo.mtl
o reception_desk_logo
v -2.299366 0.000000 1.235309
v -3.169633 0.586708 0.767594
v -3.700634 0.000000 1.235309
v -3.663503 0.586708 0.767594
v -3.700634 0.958627 1.235309
v -2.299366 0.958627 1.235309
v -3.700634 0.775025 1.235309
v -3.169633 0.747610 0.767594
v -3.663503 0.747610 0.767594
v -2.299366 0.775025 1.235309
v -2.299366 0.802014 1.283711
v -3.700634 0.802014 1.283711
v -2.299366 0.958627 1.283711
v -3.700634 0.958627 1.283711
v -2.299366 0.958627 1.250718
v -2.299366 0.775025 1.250718
v -3.700634 0.958627 1.250719
v -3.700634 0.775025 1.250719
v -2.305850 0.958627 1.243014
v -3.694150 0.958627 1.243014
v -2.305850 0.785049 1.243014
v -3.694150 0.785049 1.243014
v -2.299366 0.958627 0.741901
v -3.700634 0.958627 0.741901
v -2.299366 0.775025 0.767594
v -2.299366 0.000000 0.767594
v -3.700634 0.000000 0.767594
v -3.700634 0.775025 0.767594
v -3.169633 0.747610 1.111024
v -3.169633 0.586708 1.111024
v -3.663503 0.586708 1.111024
v -3.663503 0.747610 1.111024
v -2.997649 0.524276 1.241397
v -3.014057 0.505100 1.241397
v -3.013312 0.476270 1.241397
v -2.992234 0.458201 1.241397
v -3.261830 0.435508 1.241396
v -2.783863 0.433435 1.241396
v -3.096698 0.461328 1.241396
v -2.810243 0.284403 1.241396
v -2.883462 0.224259 1.241396
v -3.004234 0.202828 1.241396
v -3.121730 0.217652 1.241396
v -3.209271 0.269241 1.241396
v -3.258720 0.348595 1.241396
v -2.783923 0.402724 1.241396
v -2.801301 0.308561 1.241396
v -2.756768 0.418179 1.241396
v -2.709787 0.424285 1.241396
v -2.669539 0.412451 1.241396
v -2.654964 0.376098 1.241396
v -2.660115 0.313964 1.241396
v -2.692521 0.271506 1.241396
v -2.745341 0.263716 1.241396
v -2.781328 0.280128 1.241396
v -2.759229 0.385620 1.241396
v -2.720920 0.398344 1.241396
v -2.689387 0.383496 1.241396
v -2.684871 0.347045 1.241396
v -2.694379 0.309182 1.241396
v -2.742531 0.292654 1.241396
v -2.775532 0.312688 1.241396
v -3.124627 0.486141 1.241396
v -3.122691 0.524806 1.241396
v -3.089685 0.557330 1.241396
v -3.077394 0.598577 1.241396
v -3.088248 0.637399 1.241396
v -3.102849 0.667605 1.241396
v -3.061636 0.649413 1.241396
v -3.042081 0.618155 1.241396
v -3.033922 0.561906 1.241396
v -3.043872 0.530822 1.241396
v -3.066537 0.511573 1.241396
v -3.072937 0.484303 1.241396
v -3.064605 0.457560 1.241396
v -2.979095 0.544740 1.241397
v -2.984540 0.586300 1.241397
v -2.956236 0.562301 1.241397
v -2.948663 0.533601 1.241397
v -2.956630 0.510908 1.241397
v -2.981022 0.486829 1.241397
v -2.969643 0.458269 1.241397
vn 1.0000 -0.0000 -0.0000
vn -0.0000 -1.0000 -0.0000
vn -0.0000 -0.0000 1.0000
vn -1.0000 -0.0000 -0.0000
vn -0.0000 1.0000 -0.0000
vn -0.0000 -0.7740 0.6332
vn -0.0000 -0.6094 -0.7929
vn 0.7651 -0.0000 -0.6439
vn -0.7651 -0.0000 -0.6439
vn -0.7651 -0.0000 0.6439
vn 0.7651 -0.0000 0.6439
vn -0.0000 -0.6094 0.7929
vn -0.0000 -0.1386 -0.9904
vn -0.0000 -0.0000 -1.0000
vt 0.301667 0.964739
vt 0.301667 0.964739
vt 0.301667 0.965000
vt 0.301667 0.955000
vt 0.291667 0.955000
vt 0.291667 0.965000
vt 0.291667 0.965000
vt 0.291667 0.955000
vt 0.301667 0.965000
vt 0.458333 0.965000
vt 0.448333 0.965000
vt 0.448333 0.955000
vt 0.458333 0.955000
vt 0.451667 0.868333
vt 0.451667 0.868333
vt 0.451667 0.858333
vt 0.451667 0.858333
vt 0.458333 0.965000
vt 0.448333 0.965000
vt 0.448333 0.955000
vt 0.458333 0.955000
vt 0.211667 0.965000
vt 0.211667 0.955000
vt 0.455000 0.955000
vt 0.455000 0.965000
vt 0.211667 0.955000
vt 0.211667 0.965000
vt 0.301667 0.955261
vt 0.301667 0.955261
vt 0.368333 0.874449
vt 0.368333 0.878819
vt 0.368333 0.876458
vt 0.368333 0.873657
vt 0.368333 0.873817
vt 0.368333 0.874118
vt 0.368333 0.876828
vt 0.368333 0.877030
vt 0.368333 0.876412
vt 0.368333 0.873946
vt 0.368333 0.873717
vt 0.368333 0.873778
vt 0.368333 0.876615
vt 0.368333 0.876603
vt 0.368333 0.876199
vt 0.368333 0.878832
vt 0.368333 0.878266
vt 0.368333 0.877470
vt 0.368333 0.875353
vt 0.368333 0.874460
vt 0.368333 0.874600
vt 0.368333 0.874665
vt 0.368333 0.874476
vt 0.368333 0.874434
vt 0.368333 0.874130
vt 0.368333 0.873353
vt 0.368333 0.873621
vt 0.368333 0.876997
vt 0.368333 0.876749
vt 0.368333 0.876457
vt 0.368333 0.876266
vt 0.368333 0.876142
vt 0.368333 0.876367
vt 0.368333 0.876738
vt 0.368333 0.874164
vt 0.368333 0.874066
vt 0.368333 0.874209
vt 0.368333 0.873290
vt 0.368333 0.873413
s 0
usemtl palette1
f 4/1/1 9/2/1 32/2/1 31/1/1
f 27/3/2 26/4/2 1/5/2 3/6/2
f 7/7/3 3/6/3 1/5/3 10/8/3
f 10/8/1 1/5/1 26/4/1 25/4/1
f 28/9/4 27/3/4 3/6/4 7/7/4
f 24/10/5 5/11/5 6/12/5 23/13/5
f 14/14/3 12/15/3 11/16/3 13/17/3
f 24/10/4 28/18/4 7/19/4 5/11/4
f 6/12/1 10/20/1 25/21/1 23/13/1
f 17/14/4 18/15/4 12/15/4 14/14/4
f 16/16/1 15/17/1 13/17/1 11/16/1
f 15/17/5 17/14/5 14/14/5 13/17/5
f 18/15/6 16/16/6 11/16/6 12/15/6
f 22/22/7 21/23/7 16/23/7 18/22/7
f 19/24/5 20/25/5 17/25/5 15/24/5
f 21/23/8 19/26/8 15/26/8 16/23/8
f 20/27/9 22/22/9 18/22/9 17/27/9
f 5/27/10 7/22/10 22/22/10 20/27/10
f 10/23/11 6/26/11 19/26/11 21/23/11
f 6/24/5 5/25/5 20/25/5 19/24/5
f 7/22/12 10/23/12 21/23/12 22/22/12
f 23/13/13 25/21/13 28/18/13 24/10/13
f 2/28/14 8/29/14 25/4/14 26/4/14
f 4/1/14 2/28/14 26/4/14 27/3/14
f 9/2/14 4/1/14 27/3/14 28/9/14
f 8/29/14 9/2/14 28/9/14 25/4/14
f 29/29/14 30/28/14 31/1/14 32/2/14
f 8/29/4 2/28/4 30/28/4 29/29/4
f 9/2/2 8/29/2 29/29/2 32/2/2
f 2/28/5 4/1/5 31/1/5 30/28/5
f 38/30/3 37/31/3 42/32/3
f 53/33/3 60/34/3 61/35/3
f 33/36/3 34/37/3 81/38/3
f 57/39/3 58/40/3 49/41/3
f 67/42/3 66/43/3 70/44/3
f 45/45/3 44/46/3 37/31/3
f 44/46/3 43/47/3 37/31/3
f 43/47/3 42/32/3 37/31/3
f 42/32/3 41/48/3 46/49/3
f 46/49/3 41/48/3 47/50/3
f 41/48/3 40/51/3 47/50/3
f 47/50/3 62/52/3 46/49/3
f 46/49/3 38/30/3 42/32/3
f 62/52/3 47/50/3 55/53/3
f 55/53/3 54/54/3 61/35/3
f 54/54/3 53/33/3 61/35/3
f 53/33/3 52/55/3 60/34/3
f 52/55/3 59/56/3 60/34/3
f 61/35/3 62/52/3 55/53/3
f 34/37/3 35/57/3 81/38/3
f 35/57/3 36/58/3 81/38/3
f 36/58/3 82/59/3 81/38/3
f 81/38/3 80/60/3 33/36/3
f 80/60/3 79/61/3 76/43/3
f 79/61/3 78/62/3 76/43/3
f 78/62/3 77/63/3 76/43/3
f 76/43/3 33/36/3 80/60/3
f 46/49/3 62/64/3 56/65/3
f 46/49/3 56/65/3 48/66/3
f 56/65/3 57/39/3 48/66/3
f 49/41/3 48/66/3 57/39/3
f 51/67/3 50/68/3 58/40/3
f 50/68/3 49/41/3 58/40/3
f 59/56/3 52/55/3 51/67/3
f 58/40/3 59/56/3 51/67/3
f 64/37/3 63/57/3 74/59/3
f 63/57/3 39/58/3 74/59/3
f 64/37/3 74/59/3 73/38/3
f 39/58/3 75/59/3 74/59/3
f 73/38/3 72/60/3 65/36/3
f 72/60/3 71/61/3 65/36/3
f 65/36/3 64/37/3 73/38/3
f 66/43/3 65/36/3 71/61/3
f 71/61/3 70/44/3 66/43/3
f 69/62/3 68/63/3 67/42/3
f 69/62/3 67/42/3 70/44/3
