# Blender 4.5.2 LTS
# www.blender.org
mtllib sign_2.mtl
o sign_2
v -2.998530 2.196461 -2.997324
v -3.164499 2.082996 -2.997324
v -3.008279 2.210477 -2.991630
v -3.004605 2.204893 -2.997324
v -3.149346 2.082996 -2.997324
v -2.850654 2.063609 -2.997324
v -2.991721 2.210477 -2.991630
v -2.995395 2.204893 -2.997324
v -3.008279 2.194098 -2.991630
v -2.991721 2.194098 -2.991630
v -2.991721 2.194098 -3.008370
v -3.008279 2.194098 -3.008370
v -2.991721 2.210477 -3.008370
v -3.008279 2.210477 -3.008370
v -2.835501 2.063609 -2.997324
v -3.001470 2.196461 -2.997324
v -2.850654 2.063609 -3.002676
v -2.998530 2.196461 -3.002676
v -3.149346 2.082996 -3.002676
v -3.164499 2.082996 -3.002676
v -2.835501 2.063609 -3.002676
v -2.995395 2.204893 -3.002676
v -3.004605 2.204893 -3.002676
v -3.001470 2.196461 -3.002676
v -3.167025 2.099571 -2.991630
v -3.181141 2.087727 -2.991630
v -3.193622 1.945060 -2.991630
v -3.181778 1.930945 -2.991630
v -2.806378 2.054940 -2.991630
v -2.818222 2.069055 -2.991630
v -2.832975 1.900429 -2.991630
v -2.818859 1.912273 -2.991630
v -2.818859 1.912273 -3.008370
v -2.832975 1.900429 -3.008370
v -2.818222 2.069055 -3.008370
v -2.806378 2.054940 -3.008370
v -3.181778 1.930945 -3.008370
v -3.193622 1.945060 -3.008370
v -3.181141 2.087727 -3.008370
v -3.167025 2.099571 -3.008370
vn -0.0000 -0.0000 1.0000
vn -1.0000 -0.0000 -0.0000
vn -0.0000 1.0000 -0.0000
vn -0.0000 -1.0000 -0.0000
vn 1.0000 -0.0000 -0.0000
vn -0.0000 -0.0000 -1.0000
vn 0.6087 -0.7934 -0.0000
vn -0.6063 0.7953 -0.0000
vn 0.6622 0.7494 -0.0000
vn -0.6683 -0.7439 -0.0000
vn 0.7660 0.6428 -0.0000
vn -0.6428 0.7660 -0.0000
vn -0.7660 -0.6428 -0.0000
vn 0.6428 -0.7660 -0.0000
vn -0.9962 0.0872 -0.0000
vn 0.0872 0.9962 -0.0000
vn -0.0872 -0.9962 -0.0000
vn 0.9962 -0.0872 -0.0000
vt 0.533333 0.970000
vt 0.203333 0.960000
vt 0.134647 0.881313
vt 0.133931 0.881313
vt 0.125353 0.881313
vt 0.126069 0.881313
vt 0.205002 0.985553
vt 0.199294 0.979845
vt 0.199294 0.917105
vt 0.205002 0.911397
vt 0.358393 0.911397
vt 0.364101 0.917105
vt 0.364101 0.979845
vt 0.358393 0.985553
vt 0.187503 0.979845
vt 0.181795 0.985553
vt 0.028403 0.985553
vt 0.022695 0.979845
vt 0.022695 0.917105
vt 0.028403 0.911397
vt 0.181794 0.911397
vt 0.187503 0.917105
s 0
usemtl palette1
f 8/1/1 1/1/1 6/1/1 15/1/1
f 4/1/1 2/1/1 5/1/1 16/1/1
f 3/2/1 9/2/1 10/2/1 7/2/1
f 3/2/2 14/2/2 12/2/2 9/2/2
f 7/2/3 13/2/3 14/2/3 3/2/3
f 9/2/4 12/2/4 11/2/4 10/2/4
f 10/2/5 11/2/5 13/2/5 7/2/5
f 22/1/6 21/1/6 17/1/6 18/1/6
f 23/1/6 24/1/6 19/1/6 20/1/6
f 16/1/7 5/1/7 19/1/7 24/1/7
f 2/1/8 4/1/8 23/1/8 20/1/8
f 15/1/9 21/1/9 22/1/9 8/1/9
f 1/1/10 18/1/10 17/1/10 6/1/10
f 12/2/6 14/2/6 13/2/6 11/2/6
f 35/3/11 30/3/11 29/4/11 36/4/11
f 25/3/12 40/3/12 39/4/12 26/4/12
f 37/5/13 28/5/13 27/6/13 38/6/13
f 31/5/14 34/5/14 33/6/14 32/6/14
f 26/4/15 39/4/15 38/6/15 27/6/15
f 30/3/16 35/3/16 40/3/16 25/3/16
f 28/5/17 37/5/17 34/5/17 31/5/17
f 32/6/18 33/6/18 36/4/18 29/4/18
usemtl main_textures
f 25/7/1 26/8/1 27/9/1 28/10/1 31/11/1 32/12/1 29/13/1 30/14/1
f 39/15/6 40/16/6 35/17/6 36/18/6 33/19/6 34/20/6 37/21/6 38/22/6
