# Blender 4.5.2 LTS
# www.blender.org
mtllib sign_1.mtl
o sign_1
v -4.188097 2.084635 -2.991630
v -4.188097 1.915365 -2.991630
v -3.811903 2.084635 -2.991630
v -3.811903 1.915365 -2.991630
v -3.811903 1.915365 -3.008370
v -3.811903 2.084635 -3.008370
v -4.188097 1.915365 -3.008370
v -4.188097 2.084635 -3.008370
v -3.998530 2.196461 -2.997324
v -4.164499 2.082996 -2.997324
v -4.008278 2.210477 -2.991630
v -4.004605 2.204893 -2.997324
v -4.149346 2.082996 -2.997324
v -3.850654 2.082996 -2.997324
v -3.991721 2.210477 -2.991630
v -3.995395 2.204893 -2.997324
v -4.008278 2.194098 -2.991630
v -3.991721 2.194098 -2.991630
v -3.991721 2.194098 -3.008370
v -4.008278 2.194098 -3.008370
v -3.991721 2.210477 -3.008370
v -4.008278 2.210477 -3.008370
v -3.835501 2.082996 -2.997324
v -4.001470 2.196461 -2.997324
v -3.850654 2.082996 -3.002676
v -3.998530 2.196461 -3.002676
v -4.149346 2.082996 -3.002676
v -4.164499 2.082996 -3.002676
v -3.835501 2.082996 -3.002676
v -3.995395 2.204893 -3.002676
v -4.004605 2.204893 -3.002676
v -4.001470 2.196461 -3.002676
vn -0.0000 -0.0000 1.0000
vn -1.0000 -0.0000 -0.0000
vn 1.0000 -0.0000 -0.0000
vn -0.0000 1.0000 -0.0000
vn -0.0000 -1.0000 -0.0000
vn -0.0000 -0.0000 -1.0000
vn 0.6087 -0.7934 -0.0000
vn -0.6063 0.7953 -0.0000
vn 0.6063 0.7953 -0.0000
vn -0.6087 -0.7934 -0.0000
vt 0.199165 0.986127
vt 0.199165 0.912271
vt 0.363308 0.912271
vt 0.363308 0.986127
vt 0.134647 0.881313
vt 0.125353 0.881313
vt 0.186919 0.986127
vt 0.022777 0.986127
vt 0.022777 0.912271
vt 0.186919 0.912271
vt 0.120000 0.956667
vt 0.203333 0.960000
s 0
usemtl palette1
f 1/5/2 8/5/2 7/6/2 2/6/2
f 4/6/3 5/6/3 6/5/3 3/5/3
f 3/5/4 6/5/4 8/5/4 1/5/4
f 2/6/5 7/6/5 5/6/5 4/6/5
f 16/11/1 9/11/1 14/11/1 23/11/1
f 12/11/1 10/11/1 13/11/1 24/11/1
f 11/12/1 17/12/1 18/12/1 15/12/1
f 11/12/2 22/12/2 20/12/2 17/12/2
f 15/12/4 21/12/4 22/12/4 11/12/4
f 17/12/5 20/12/5 19/12/5 18/12/5
f 18/12/3 19/12/3 21/12/3 15/12/3
f 30/11/6 29/11/6 25/11/6 26/11/6
f 31/11/6 32/11/6 27/11/6 28/11/6
f 24/11/7 13/11/7 27/11/7 32/11/7
f 10/11/8 12/11/8 31/11/8 28/11/8
f 23/11/9 29/11/9 30/11/9 16/11/9
f 9/11/10 26/11/10 25/11/10 14/11/10
f 20/12/6 22/12/6 21/12/6 19/12/6
usemtl main_textures
f 1/1/1 2/2/1 4/3/1 3/4/1
f 8/7/6 6/8/6 5/9/6 7/10/6
