# Blender 4.5.2 LTS
# www.blender.org
mtllib table_1.mtl
o table_1
v -5.358626 0.788058 -1.358968
v -5.358626 0.788058 -0.641625
v -4.641284 0.788058 -1.358968
v -4.641284 0.788058 -0.641625
v -5.294690 0.788058 -1.295031
v -5.294690 0.788058 -0.705561
v -4.705220 0.788058 -1.295031
v -4.705220 0.788058 -0.705561
v -5.290627 0.750828 -1.290968
v -5.290627 0.750828 -0.709624
v -4.709283 0.750828 -1.290968
v -4.709283 0.750828 -0.709624
v -5.353682 0.750828 -1.354023
v -5.353682 0.750828 -0.646570
v -4.646228 0.750828 -1.354023
v -4.646228 0.750828 -0.646570
v -5.324064 0.781954 -1.038871
v -5.324064 0.781954 -0.961722
v -4.678716 0.758636 -0.961722
v -4.678716 0.758636 -1.038871
v -4.678716 0.781954 -1.038871
v -4.678716 0.781954 -0.961722
v -5.324064 0.758636 -0.961722
v -5.324064 0.758636 -1.038871
v -5.324064 0.758636 -1.288602
v -5.324064 0.758636 -1.211454
v -4.678716 0.781954 -1.211454
v -4.678716 0.781954 -1.288602
v -4.678716 0.758636 -1.288602
v -4.678716 0.758636 -1.211454
v -5.324064 0.781954 -1.211454
v -5.324064 0.781954 -1.288602
v -5.324064 0.781954 -1.204795
v -5.324064 0.781954 -1.127646
v -4.678716 0.758636 -1.127646
v -4.678716 0.758636 -1.204795
v -4.678716 0.781954 -1.204795
v -4.678716 0.781954 -1.127646
v -5.324064 0.758636 -1.127646
v -5.324064 0.758636 -1.204795
v -5.324064 0.758636 -1.121786
v -5.324064 0.758636 -1.044638
v -4.678716 0.781954 -1.044638
v -4.678716 0.781954 -1.121786
v -4.678716 0.758636 -1.121786
v -4.678716 0.758636 -1.044638
v -5.324064 0.781954 -1.044638
v -5.324064 0.781954 -1.121786
v -5.324064 0.781954 -0.788145
v -5.324064 0.781954 -0.710997
v -4.678716 0.758636 -0.710997
v -4.678716 0.758636 -0.788145
v -4.678716 0.781954 -0.788145
v -4.678716 0.781954 -0.710997
v -5.324064 0.758636 -0.710997
v -5.324064 0.758636 -0.788145
v -5.324064 0.758636 -0.871154
v -5.324064 0.758636 -0.794005
v -4.678716 0.781954 -0.794005
v -4.678716 0.781954 -0.871154
v -4.678716 0.758636 -0.871154
v -4.678716 0.758636 -0.794005
v -5.324064 0.781954 -0.794005
v -5.324064 0.781954 -0.871154
v -5.324064 0.781954 -0.954961
v -5.324064 0.781954 -0.877813
v -4.678716 0.758636 -0.877813
v -4.678716 0.758636 -0.954961
v -4.678716 0.781954 -0.954961
v -4.678716 0.781954 -0.877813
v -5.324064 0.758636 -0.877813
v -5.324064 0.758636 -0.954961
v -4.659819 0.750828 -0.913413
v -4.659819 0.750828 -0.843822
v -4.659819 -0.002025 -1.314508
v -4.659819 -0.002025 -1.242813
v -4.680101 0.750828 -0.843822
v -4.680101 0.750828 -0.913413
v -4.680101 -0.002025 -1.242813
v -4.680101 -0.002025 -1.314508
v -4.679483 0.750828 -1.087146
v -4.679483 0.750828 -1.156737
v -4.679483 -0.002025 -0.686050
v -4.679483 -0.002025 -0.757746
v -4.699766 0.750828 -1.156737
v -4.699766 0.750828 -1.087146
v -4.699766 -0.002025 -0.757746
v -4.699766 -0.002025 -0.686050
v -5.340181 0.750828 -0.913413
v -5.340181 0.750828 -0.843822
v -5.340181 -0.002025 -1.314508
v -5.340181 -0.002025 -1.242813
v -5.319899 0.750828 -0.843822
v -5.319899 0.750828 -0.913413
v -5.319899 -0.002025 -1.242813
v -5.319899 -0.002025 -1.314508
v -5.320517 0.750828 -1.087145
v -5.320517 0.750828 -1.156737
v -5.320517 -0.002025 -0.686050
v -5.320517 -0.002025 -0.757746
v -5.300234 0.750828 -1.156737
v -5.300234 0.750828 -1.087145
v -5.300234 -0.002025 -0.757746
v -5.300234 -0.002025 -0.686050
vn -0.0000 -1.0000 -0.0000
vn -0.0000 1.0000 -0.0000
vn -0.0000 0.1085 0.9941
vn 0.9913 -0.1317 -0.0000
vn -0.9913 -0.1317 -0.0000
vn -0.9941 0.1085 -0.0000
vn 0.9941 0.1085 -0.0000
vn -0.0000 -0.1317 0.9913
vn -0.0000 -0.1317 -0.9913
vn -0.0000 0.1085 -0.9941
vn -0.0000 -0.0000 -1.0000
vn -0.0000 -0.0000 1.0000
vn 1.0000 -0.0000 -0.0000
vn -1.0000 -0.0000 -0.0000
vn -0.0000 0.4702 -0.8826
vn -0.0000 -0.4683 0.8836
vn -0.0000 0.4702 0.8826
vn -0.0000 -0.4683 -0.8836
vt 0.292020 0.964647
vt 0.291667 0.965000
vt 0.301667 0.965000
vt 0.301313 0.964647
vt 0.301313 0.955353
vt 0.301667 0.955000
vt 0.292020 0.955353
vt 0.291667 0.955000
vt 0.297980 0.957980
vt 0.288687 0.957980
vt 0.541313 0.961313
vt 0.532020 0.961313
vt 0.297980 0.971313
vt 0.288687 0.971313
vt 0.531313 0.964647
vt 0.522020 0.964647
vt 0.288164 0.968333
vt 0.288164 0.958333
vt 0.297487 0.958333
vt 0.297487 0.968333
s 0
usemtl palette1
f 10/1/1 14/2/1 13/3/1 9/4/1
f 6/1/2 5/4/2 1/3/2 2/2/2
f 5/4/2 7/5/2 3/6/2 1/3/2
f 7/5/2 8/7/2 4/8/2 3/6/2
f 8/7/2 6/1/2 2/2/2 4/8/2
f 9/4/1 13/3/1 15/6/1 11/5/1
f 11/5/1 15/6/1 16/8/1 12/7/1
f 12/7/1 16/8/1 14/2/1 10/1/1
f 5/4/3 9/4/3 11/5/3 7/5/3
f 4/8/4 16/8/4 15/6/4 3/6/4
f 1/3/5 13/3/5 14/2/5 2/2/5
f 7/5/6 11/5/6 12/7/6 8/7/6
f 6/1/7 10/1/7 9/4/7 5/4/7
f 2/2/8 14/2/8 16/8/8 4/8/8
f 3/6/9 15/6/9 13/3/9 1/3/9
f 8/7/10 12/7/10 10/1/10 6/1/10
f 21/9/11 20/9/11 24/9/11 17/9/11
f 18/10/12 23/10/12 19/10/12 22/10/12
f 17/9/2 18/10/2 22/10/2 21/9/2
f 24/9/1 20/9/1 19/10/1 23/10/1
f 28/11/11 29/11/11 25/11/11 32/11/11
f 31/12/12 26/12/12 30/12/12 27/12/12
f 32/11/2 31/12/2 27/12/2 28/11/2
f 25/11/1 29/11/1 30/12/1 26/12/1
f 40/13/1 36/13/1 35/14/1 39/14/1
f 34/14/12 39/14/12 35/14/12 38/14/12
f 37/13/11 36/13/11 40/13/11 33/13/11
f 33/13/2 34/14/2 38/14/2 37/13/2
f 48/11/2 47/12/2 43/12/2 44/11/2
f 47/12/12 42/12/12 46/12/12 43/12/12
f 41/11/1 45/11/1 46/12/1 42/12/1
f 44/11/11 45/11/11 41/11/11 48/11/11
f 56/11/1 52/11/1 51/12/1 55/12/1
f 50/12/12 55/12/12 51/12/12 54/12/12
f 49/11/2 50/12/2 54/12/2 53/11/2
f 53/11/11 52/11/11 56/11/11 49/11/11
f 57/13/1 61/13/1 62/14/1 58/14/1
f 63/14/12 58/14/12 62/14/12 59/14/12
f 60/13/11 61/13/11 57/13/11 64/13/11
f 64/13/2 63/14/2 59/14/2 60/13/2
f 69/15/11 68/15/11 72/15/11 65/15/11
f 66/16/12 71/16/12 67/16/12 70/16/12
f 72/15/1 68/15/1 67/16/1 71/16/1
f 65/15/2 66/16/2 70/16/2 69/15/2
f 73/17/13 74/18/13 76/19/13 75/20/13
f 78/17/14 80/20/14 79/19/14 77/18/14
f 75/20/15 80/20/15 78/17/15 73/17/15
f 81/17/13 83/20/13 84/19/13 82/18/13
f 74/18/16 77/18/16 79/19/16 76/19/16
f 76/19/1 79/19/1 80/20/1 75/20/1
f 86/17/14 85/18/14 87/19/14 88/20/14
f 83/20/17 81/17/17 86/17/17 88/20/17
f 82/18/18 84/19/18 87/19/18 85/18/18
f 84/19/1 83/20/1 88/20/1 87/19/1
f 89/17/14 91/20/14 92/19/14 90/18/14
f 94/17/13 93/18/13 95/19/13 96/20/13
f 91/20/15 89/17/15 94/17/15 96/20/15
f 97/17/14 98/18/14 100/19/14 99/20/14
f 90/18/16 92/19/16 95/19/16 93/18/16
f 92/19/1 91/20/1 96/20/1 95/19/1
f 102/17/13 104/20/13 103/19/13 101/18/13
f 99/20/17 104/20/17 102/17/17 97/17/17
f 98/18/18 101/18/18 103/19/18 100/19/18
f 100/19/1 103/19/1 104/20/1 99/20/1
