# Blender 4.5.2 LTS
# www.blender.org
mtllib table_2.mtl
o table_2
v -4.358671 0.788058 -1.358671
v -4.358671 0.788058 -0.641329
v -3.641329 0.788058 -1.358671
v -3.641329 0.788058 -0.641329
v -3.641329 0.759235 -0.641329
v -3.641329 0.759235 -1.358671
v -4.358671 0.759235 -0.641329
v -4.358671 0.759235 -1.358671
v -3.902153 0.000000 -1.116609
v -4.000000 0.000000 -1.152222
v -4.000000 0.014288 -1.028120
v -4.000000 0.759235 -1.028120
v -3.981925 0.014288 -1.021541
v -3.981925 0.759235 -1.021541
v -3.972307 0.014288 -1.004883
v -3.972307 0.759235 -1.004883
v -3.975647 0.014288 -0.985940
v -3.975647 0.759235 -0.985940
v -3.990382 0.014288 -0.973576
v -3.990382 0.759235 -0.973576
v -4.009618 0.014288 -0.973576
v -4.009618 0.759235 -0.973576
v -4.024353 0.014288 -0.985940
v -4.024353 0.759235 -0.985940
v -4.027693 0.014288 -1.004883
v -4.027693 0.759235 -1.004883
v -4.018075 0.014288 -1.021541
v -4.018075 0.759235 -1.021541
v -3.850091 0.000000 -1.026433
v -3.868172 0.000000 -0.923889
v -3.947937 0.000000 -0.856958
v -4.052063 0.000000 -0.856958
v -4.131828 0.000000 -0.923889
v -4.149909 0.000000 -1.026433
v -4.097847 0.000000 -1.116609
v -4.095887 0.014288 -1.114274
v -4.000000 0.014288 -1.149174
v -4.146908 0.014288 -1.025904
v -4.129189 0.014288 -0.925413
v -4.051021 0.014288 -0.859822
v -3.948979 0.014288 -0.859822
v -3.870811 0.014288 -0.925413
v -3.853092 0.014288 -1.025904
v -3.904113 0.014288 -1.114274
vn -0.0000 -0.0000 -1.0000
vn -0.0000 1.0000 -0.0000
vn -0.0000 -1.0000 -0.0000
vn -0.0000 -0.0000 1.0000
vn 1.0000 -0.0000 -0.0000
vn -1.0000 -0.0000 -0.0000
vn 0.6303 0.1965 0.7511
vn 0.3420 -0.0000 -0.9397
vn 0.8491 0.1965 -0.4902
vn 0.8660 -0.0000 -0.5000
vn -0.8491 0.1965 -0.4902
vn 0.9848 -0.0000 0.1736
vn -0.9656 0.1965 0.1703
vn 0.6428 -0.0000 0.7660
vn -0.0000 0.1965 0.9805
vn -0.3353 0.1965 -0.9214
vn -0.6428 -0.0000 0.7660
vn 0.3353 0.1965 -0.9214
vn 0.9656 0.1965 0.1703
vn -0.9848 -0.0000 0.1736
vn -0.8660 -0.0000 -0.5000
vn -0.6303 0.1965 0.7511
vn -0.3420 -0.0000 -0.9397
vt 0.548333 0.955000
vt 0.548333 0.965000
vt 0.538333 0.965000
vt 0.538333 0.955000
vt 0.211245 0.958415
vt 0.209988 0.957359
vt 0.211667 0.962115
vt 0.211667 0.967115
vt 0.210556 0.967115
vt 0.210556 0.962115
vt 0.210709 0.961453
vt 0.211530 0.960031
vt 0.209444 0.967115
vt 0.209444 0.962115
vt 0.206803 0.960031
vt 0.207624 0.961453
vt 0.208333 0.967115
vt 0.208333 0.962115
vt 0.207088 0.958415
vt 0.207222 0.967115
vt 0.207222 0.962115
vt 0.208346 0.957359
vt 0.206111 0.967115
vt 0.206111 0.962115
vt 0.209167 0.962015
vt 0.205000 0.967115
vt 0.205000 0.962115
vt 0.203889 0.967115
vt 0.203889 0.962115
vt 0.202778 0.967115
vt 0.202778 0.962115
vt 0.201667 0.967115
vt 0.201667 0.962115
s 0
usemtl palette1
f 3/1/1 6/1/1 8/2/1 1/2/1
f 1/2/2 2/3/2 4/4/2 3/1/2
f 8/2/3 6/1/3 5/4/3 7/3/3
f 2/3/4 7/3/4 5/4/4 4/4/4
f 4/4/5 5/4/5 6/1/5 3/1/5
f 1/2/6 8/2/6 7/3/6 2/3/6
f 30/5/7 42/5/7 41/6/7 31/6/7
f 11/7/8 12/8/8 14/9/8 13/10/8
f 9/11/9 44/11/9 43/12/9 29/12/9
f 13/10/10 14/9/10 16/13/10 15/14/10
f 34/15/11 38/15/11 36/16/11 35/16/11
f 15/14/12 16/13/12 18/17/12 17/18/12
f 33/19/13 39/19/13 38/15/13 34/15/13
f 17/18/14 18/17/14 20/20/14 19/21/14
f 31/6/15 41/6/15 40/22/15 32/22/15
f 19/21/4 20/20/4 22/23/4 21/24/4
f 35/16/16 36/16/16 37/25/16 10/25/16
f 21/24/17 22/23/17 24/26/17 23/27/17
f 10/25/18 37/25/18 44/11/18 9/11/18
f 29/12/19 43/12/19 42/5/19 30/5/19
f 23/27/20 24/26/20 26/28/20 25/29/20
f 10/25/3 9/11/3 29/12/3 30/5/3 31/6/3 32/22/3 33/19/3 34/15/3 35/16/3
f 37/25/2 36/16/2 38/15/2 39/19/2 40/22/2 41/6/2 42/5/2 43/12/2 44/11/2
f 25/29/21 26/28/21 28/30/21 27/31/21
f 32/22/22 40/22/22 39/19/22 33/19/22
f 27/31/23 28/30/23 12/32/23 11/33/23
