# Blender 4.5.2 LTS
# www.blender.org
mtllib tray_big.mtl
o tray_big
v 0.252721 -0.015434 1.199577
v 0.279795 -0.005444 1.182954
v 0.142090 -0.015434 1.108065
v 0.183672 -0.005445 1.103627
v 0.174569 -0.015435 1.172752
v 0.211759 -0.005443 1.159739
v 0.142090 -0.015434 1.038601
v 0.183672 -0.005445 1.043039
v 0.252721 -0.015434 0.947089
v 0.279795 -0.005444 0.963713
v 0.174569 -0.015435 0.973915
v 0.211759 -0.005443 0.986928
v 0.242208 0.008030 0.908397
v 0.240229 -0.001756 0.905242
v 0.121026 -0.001775 1.003903
v 0.125223 0.008049 1.004881
v 0.159370 0.008070 0.936521
v 0.156058 -0.001796 0.934275
v 0.125223 0.008049 1.141786
v 0.121026 -0.001775 1.142764
v 0.242208 0.008030 1.238269
v 0.240229 -0.001756 1.241425
v 0.159370 0.008070 1.210145
v 0.156058 -0.001796 1.212392
v 0.666871 -0.005444 1.182954
v 0.693946 -0.015434 1.199577
v 0.762995 -0.005445 1.103627
v 0.804577 -0.015434 1.108065
v 0.734907 -0.005443 1.159739
v 0.772098 -0.015435 1.172752
v 0.762995 -0.005445 1.043039
v 0.804577 -0.015434 1.038601
v 0.666871 -0.005444 0.963713
v 0.693946 -0.015434 0.947089
v 0.734907 -0.005443 0.986928
v 0.772098 -0.015435 0.973915
v 0.706438 -0.001756 0.905242
v 0.704459 0.008030 0.908397
v 0.821443 0.008049 1.004881
v 0.825641 -0.001775 1.003903
v 0.790609 -0.001796 0.934275
v 0.787297 0.008070 0.936521
v 0.825641 -0.001775 1.142764
v 0.821443 0.008049 1.141786
v 0.706438 -0.001756 1.241425
v 0.704459 0.008030 1.238269
v 0.790609 -0.001796 1.212392
v 0.787297 0.008070 1.210145
vn -0.8259 0.3828 0.4140
vn -0.3059 0.3280 0.8938
vn -0.8259 0.3828 -0.4140
vn -0.3059 0.3280 -0.8938
vn -0.9196 0.3929 -0.0000
vn -0.0000 0.3069 0.9518
vn 0.8259 0.3828 0.4140
vn 0.3059 0.3280 0.8938
vn 0.8259 0.3828 -0.4140
vn 0.3059 0.3280 -0.8938
vn 0.9196 0.3929 -0.0000
vn -0.3299 -0.9294 0.1657
vn 0.1708 0.9816 -0.0856
vn -0.0971 -0.9542 0.2829
vn 0.0661 0.9789 -0.1936
vn -0.3299 -0.9294 -0.1657
vn 0.1708 0.9816 0.0856
vn -0.0971 -0.9542 -0.2829
vn 0.0661 0.9789 0.1936
vn -0.5441 -0.8390 -0.0000
vn 0.2249 0.9744 -0.0000
vn -0.0000 0.9716 -0.2367
vn -0.0000 1.0000 -0.0000
vn -0.0000 0.9716 0.2367
vn -0.0000 -1.0000 -0.0000
vn -0.0000 0.3068 -0.9518
vn -0.0000 -0.9505 -0.3107
vn 0.3299 -0.9294 0.1657
vn -0.1708 0.9816 -0.0856
vn 0.0971 -0.9542 0.2829
vn -0.0661 0.9789 -0.1936
vn 0.3299 -0.9294 -0.1657
vn -0.1708 0.9816 0.0856
vn 0.0971 -0.9542 -0.2829
vn -0.0661 0.9789 0.1936
vn 0.5441 -0.8390 -0.0000
vn -0.2249 0.9744 -0.0000
vn -0.0000 -0.9505 0.3107
vt 0.381667 0.885000
vt 0.381667 0.882070
vt 0.379981 0.885000
vt 0.381667 0.877930
vt 0.381667 0.875000
vt 0.379981 0.875000
vt 0.381667 0.881379
vt 0.381162 0.884039
vt 0.379766 0.885000
vt 0.381162 0.875962
vt 0.381667 0.878621
vt 0.379766 0.875000
s 0
usemtl palette1
f 23/1/1 19/2/1 20/2/1 24/1/1
f 21/3/2 23/1/2 24/1/2 22/3/2
f 16/4/3 17/5/3 18/5/3 15/4/3
f 17/5/4 13/6/4 14/6/4 18/5/4
f 19/2/5 16/4/5 15/4/5 20/2/5
f 22/3/6 45/3/6 46/3/6 21/3/6
f 47/1/7 43/2/7 44/2/7 48/1/7
f 45/3/8 47/1/8 48/1/8 46/3/8
f 40/4/9 41/5/9 42/5/9 39/4/9
f 41/5/10 37/6/10 38/6/10 42/5/10
f 43/2/11 40/4/11 39/4/11 44/2/11
f 24/1/12 20/2/12 3/7/12 5/8/12
f 23/1/13 6/8/13 4/7/13 19/2/13
f 22/3/14 24/1/14 5/8/14 1/9/14
f 21/3/15 2/9/15 6/8/15 23/1/15
f 11/10/16 7/11/16 15/4/16 18/5/16
f 12/10/17 17/5/17 16/4/17 8/11/17
f 9/12/18 11/10/18 18/5/18 14/6/18
f 10/12/19 13/6/19 17/5/19 12/10/19
f 15/4/20 7/11/20 3/7/20 20/2/20
f 16/4/21 19/2/21 4/7/21 8/11/21
f 21/3/22 46/3/22 25/9/22 2/9/22
f 2/9/23 25/9/23 29/8/23 27/7/23 31/11/23 35/10/23 33/12/23 10/12/23 12/10/23 8/11/23 4/7/23 6/8/23
f 33/12/24 38/6/24 13/6/24 10/12/24
f 9/12/25 34/12/25 36/10/25 32/11/25 28/7/25 30/8/25 26/9/25 1/9/25 5/8/25 3/7/25 7/11/25 11/10/25
f 37/6/26 14/6/26 13/6/26 38/6/26
f 34/12/27 9/12/27 14/6/27 37/6/27
f 28/7/28 43/2/28 47/1/28 30/8/28
f 27/7/29 29/8/29 48/1/29 44/2/29
f 30/8/30 47/1/30 45/3/30 26/9/30
f 29/8/31 25/9/31 46/3/31 48/1/31
f 40/4/32 32/11/32 36/10/32 41/5/32
f 39/4/33 42/5/33 35/10/33 31/11/33
f 41/5/34 36/10/34 34/12/34 37/6/34
f 42/5/35 38/6/35 33/12/35 35/10/35
f 28/7/36 32/11/36 40/4/36 43/2/36
f 27/7/37 44/2/37 39/4/37 31/11/37
f 1/9/38 26/9/38 45/3/38 22/3/38
