# Blender 4.5.2 LTS
# www.blender.org
mtllib wall_small_4ways.mtl
o wall_small_4ways
v -2.500000 3.000000 -3.900000
v -2.500000 3.000000 -4.100000
v -3.500000 3.000000 -3.900000
v -3.500000 3.000000 -4.100000
v -2.500000 0.000000 -4.100000
v -2.500000 0.000000 -3.900000
v -3.500000 0.000000 -3.900000
v -3.500000 0.000000 -4.100000
v -2.900000 3.000000 -3.900000
v -2.900000 3.000000 -4.100000
v -3.100000 3.000000 -4.100000
v -3.100000 3.000000 -3.900000
v -2.900000 -0.000000 -4.100000
v -2.900000 -0.000000 -3.900000
v -3.100000 0.000000 -3.900000
v -3.100000 0.000000 -4.100000
v -2.900000 3.000000 -3.500000
v -3.100000 3.000000 -3.500000
v -2.900000 -0.000000 -3.500000
v -3.100000 0.000000 -3.500000
v -3.100000 3.000000 -4.500000
v -2.900000 3.000000 -4.500000
v -3.100000 0.000000 -4.500000
v -2.900000 -0.000000 -4.500000
vn -0.0000 1.0000 -0.0000
vn -0.0000 -1.0000 -0.0000
vn 1.0000 -0.0000 -0.0000
vn -1.0000 -0.0000 -0.0000
vn -0.0000 -0.0000 1.0000
vn -0.0000 -0.0000 -1.0000
vt 0.296667 0.955000
vt 0.301667 0.955000
vt 0.291667 0.955000
s 0
usemtl palette1
f 9/1/1 10/1/1 11/1/1 12/1/1
f 13/1/2 14/1/2 15/1/2 16/1/2
f 9/1/1 1/2/1 2/2/1 10/1/1
f 13/1/2 5/2/2 6/2/2 14/1/2
f 1/2/3 6/2/3 5/2/3 2/2/3
f 7/3/4 3/3/4 4/3/4 8/3/4
f 3/3/1 12/1/1 11/1/1 4/3/1
f 8/3/2 16/1/2 15/1/2 7/3/2
f 19/1/5 17/1/5 18/1/5 20/1/5
f 17/1/1 9/1/1 12/1/1 18/1/1
f 14/1/2 19/1/2 20/1/2 15/1/2
f 23/1/6 21/1/6 22/1/6 24/1/6
f 24/1/2 13/1/2 16/1/2 23/1/2
f 10/1/1 22/1/1 21/1/1 11/1/1
f 1/2/5 9/1/5 14/1/5 6/2/5
f 2/2/6 5/2/6 13/1/6 10/1/6
f 12/1/5 3/3/5 7/3/5 15/1/5
f 11/1/6 16/1/6 8/3/6 4/3/6
f 18/1/4 12/1/4 15/1/4 20/1/4
f 17/1/3 19/1/3 14/1/3 9/1/3
f 23/1/4 16/1/4 11/1/4 21/1/4
f 24/1/3 22/1/3 10/1/3 13/1/3
