# Blender 4.5.2 LTS
# www.blender.org
mtllib wall_small_corner.mtl
o wall_small_corner
v -6.500000 3.000000 -3.900000
v -6.500000 3.000000 -4.100000
v -6.500000 0.000000 -4.100000
v -6.500000 0.000000 -3.900000
v -6.900000 3.000000 -3.900000
v -7.100000 3.000000 -4.100000
v -7.100000 0.000000 -4.100000
v -6.900000 -0.000000 -3.900000
v -6.900000 3.000000 -3.500000
v -7.100000 3.000000 -3.500000
v -6.900000 -0.000000 -3.500000
v -7.100000 0.000000 -3.500000
vn -0.0000 1.0000 -0.0000
vn -0.0000 -1.0000 -0.0000
vn 1.0000 -0.0000 -0.0000
vn -0.0000 -0.0000 1.0000
vn -0.0000 -0.0000 -1.0000
vn -1.0000 -0.0000 -0.0000
vt 0.296667 0.955000
vt 0.301667 0.955000
s 0
usemtl palette1
f 5/1/1 1/2/1 2/2/1 6/1/1
f 7/1/2 3/2/2 4/2/2 8/1/2
f 1/2/3 4/2/3 3/2/3 2/2/3
f 11/1/4 9/1/4 10/1/4 12/1/4
f 9/1/1 5/1/1 6/1/1 10/1/1
f 8/1/2 11/1/2 12/1/2 7/1/2
f 1/2/4 5/1/4 8/1/4 4/2/4
f 2/2/5 3/2/5 7/1/5 6/1/5
f 10/1/6 6/1/6 7/1/6 12/1/6
f 9/1/3 11/1/3 8/1/3 5/1/3
