# Blender 4.5.2 LTS
# www.blender.org
mtllib wall_separator_alt.mtl
o wall_separator_alt
v -5.515829 3.000000 -2.962500
v -6.484171 3.000000 -2.962500
v -5.515829 0.000000 -2.962500
v -6.484171 0.000000 -2.962500
v -6.310343 3.000000 -2.962500
v -6.280440 3.000000 -2.962500
v -6.113215 3.000000 -2.962500
v -6.083612 3.000000 -2.962500
v -5.916388 3.000000 -2.962500
v -5.886785 3.000000 -2.962500
v -5.719560 3.000000 -2.962500
v -5.689657 3.000000 -2.962500
v -6.280440 0.000000 -2.962500
v -6.310343 0.000000 -2.962500
v -6.083612 0.000000 -2.962500
v -6.113215 0.000000 -2.962500
v -5.886785 0.000000 -2.962500
v -5.916388 0.000000 -2.962500
v -5.689657 0.000000 -2.962500
v -5.719560 0.000000 -2.962500
v -5.515829 3.000000 -3.037500
v -6.484171 3.000000 -3.037500
v -5.515829 0.000000 -3.037500
v -6.484171 0.000000 -3.037500
v -6.310343 3.000000 -3.037500
v -6.280440 3.000000 -3.037500
v -6.113215 3.000000 -3.037500
v -6.083612 3.000000 -3.037500
v -5.916388 3.000000 -3.037500
v -5.886785 3.000000 -3.037500
v -5.719560 3.000000 -3.037500
v -5.689657 3.000000 -3.037500
v -6.280440 0.000000 -3.037500
v -6.310343 0.000000 -3.037500
v -6.083612 0.000000 -3.037500
v -6.113215 0.000000 -3.037500
v -5.886785 0.000000 -3.037500
v -5.916388 0.000000 -3.037500
v -5.689657 0.000000 -3.037500
v -5.719560 0.000000 -3.037500
vn -0.0000 -0.0000 1.0000
vn -0.0000 -0.0000 -1.0000
vn 1.0000 -0.0000 -0.0000
vn -1.0000 -0.0000 -0.0000
vn -0.0000 1.0000 -0.0000
vt 0.291667 0.875000
vt 0.293593 0.875000
vt 0.293593 0.875000
vt 0.293740 0.875000
vt 0.295593 0.875000
vt 0.295594 0.875000
vt 0.295740 0.875000
vt 0.295740 0.875000
vt 0.297594 0.875000
vt 0.297740 0.875000
vt 0.299593 0.875000
vt 0.299593 0.875000
vt 0.299740 0.875000
vt 0.301667 0.875000
s 0
usemtl palette1
f 2/1/1 4/1/1 14/2/1 5/3/1
f 6/4/1 13/4/1 16/5/1 7/6/1
f 8/7/1 15/8/1 18/9/1 9/9/1
f 10/10/1 17/10/1 20/11/1 11/12/1
f 12/13/1 19/13/1 3/14/1 1/14/1
f 22/1/2 25/3/2 34/2/2 24/1/2
f 26/4/2 27/6/2 36/5/2 33/4/2
f 28/7/2 29/9/2 38/9/2 35/8/2
f 30/10/2 31/12/2 40/11/2 37/10/2
f 32/13/2 21/14/2 23/14/2 39/13/2
f 1/14/3 3/14/3 23/14/3 21/14/3
f 4/1/4 2/1/4 22/1/4 24/1/4
f 13/4/4 6/4/4 26/4/4 33/4/4
f 5/3/3 14/2/3 34/2/3 25/3/3
f 15/8/4 8/7/4 28/7/4 35/8/4
f 7/6/3 16/5/3 36/5/3 27/6/3
f 17/10/4 10/10/4 30/10/4 37/10/4
f 9/9/3 18/9/3 38/9/3 29/9/3
f 19/13/4 12/13/4 32/13/4 39/13/4
f 11/12/3 20/11/3 40/11/3 31/12/3
f 2/1/5 5/3/5 25/3/5 22/1/5
f 6/4/5 7/6/5 27/6/5 26/4/5
f 8/7/5 9/9/5 29/9/5 28/7/5
f 10/10/5 11/12/5 31/12/5 30/10/5
f 12/13/5 1/14/5 21/14/5 32/13/5
