# Blender 4.5.2 LTS
# www.blender.org
mtllib wall_large_2doors.mtl
o wall_large_2doors
v 3.666667 3.000000 -3.900000
v 0.666667 3.000000 -3.900000
v 3.666667 0.000000 -3.900000
v 0.666667 0.000000 -3.900000
v 1.166667 0.000000 -3.900000
v 3.166667 0.000000 -3.900000
v 1.166667 2.445350 -3.900000
v 3.166667 2.445350 -3.900000
v 3.666667 3.000000 -4.100000
v 0.666667 3.000000 -4.100000
v 3.666667 0.000000 -4.100000
v 0.666667 0.000000 -4.100000
v 1.166667 0.000000 -4.100000
v 3.166667 0.000000 -4.100000
v 1.166667 2.445350 -4.100000
v 3.166667 2.445350 -4.100000
vn -0.0000 -0.0000 1.0000
vn -0.0000 -0.0000 -1.0000
vn -0.0000 1.0000 -0.0000
vn -0.0000 -1.0000 -0.0000
vn 1.0000 -0.0000 -0.0000
vn -1.0000 -0.0000 -0.0000
vt 0.291667 0.955000
vt 0.294854 0.955000
vt 0.294831 0.955000
vt 0.298576 0.955000
vt 0.299065 0.955000
vt 0.301667 0.955000
s 0
usemtl palette1
f 2/1/1 4/1/1 5/2/1 7/3/1 8/4/1 6/5/1 3/6/1 1/6/1
f 10/1/2 9/6/2 11/6/2 14/5/2 16/4/2 15/3/2 13/2/2 12/1/2
f 2/1/3 1/6/3 9/6/3 10/1/3
f 3/6/4 6/5/4 14/5/4 11/6/4
f 1/6/5 3/6/5 11/6/5 9/6/5
f 4/1/6 2/1/6 10/1/6 12/1/6
f 5/2/4 4/1/4 12/1/4 13/2/4
f 7/3/5 5/2/5 13/2/5 15/3/5
f 8/4/4 7/3/4 15/3/4 16/4/4
f 6/5/6 8/4/6 16/4/6 14/5/6
