# Blender 4.5.2 LTS
# www.blender.org
mtllib wall_small.mtl
o wall_small
v -4.500000 3.000000 -3.900000
v -5.500000 3.000000 -3.900000
v -4.500000 0.000000 -3.900000
v -5.500000 0.000000 -3.900000
v -4.500000 3.000000 -4.100000
v -5.500000 3.000000 -4.100000
v -4.500000 0.000000 -4.100000
v -5.500000 0.000000 -4.100000
vn -0.0000 -0.0000 1.0000
vn -0.0000 -0.0000 -1.0000
vn -0.0000 1.0000 -0.0000
vn -0.0000 -1.0000 -0.0000
vn 1.0000 -0.0000 -0.0000
vn -1.0000 -0.0000 -0.0000
vt 0.291667 0.955000
vt 0.301667 0.955000
s 0
usemtl palette1
f 2/1/1 4/1/1 3/2/1 1/2/1
f 6/1/2 5/2/2 7/2/2 8/1/2
f 2/1/3 1/2/3 5/2/3 6/1/3
f 3/2/4 4/1/4 8/1/4 7/2/4
f 1/2/5 3/2/5 7/2/5 5/2/5
f 4/1/6 2/1/6 6/1/6 8/1/6
