# Blender 4.5.2 LTS
# www.blender.org
mtllib wall_small_windows.mtl
o wall_small_windows
v -3.500000 3.000000 -3.900000
v -4.500000 3.000000 -3.900000
v -3.500000 0.000000 -3.900000
v -4.500000 0.000000 -3.900000
v -3.500000 2.800000 -3.900000
v -3.500000 0.200000 -3.900000
v -4.500000 0.200000 -3.900000
v -4.500000 2.800000 -3.900000
v -3.500000 3.000000 -4.100000
v -4.500000 3.000000 -4.100000
v -3.500000 0.000000 -4.100000
v -4.500000 0.000000 -4.100000
v -3.500000 2.800000 -4.100000
v -3.500000 0.200000 -4.100000
v -4.500000 0.200000 -4.100000
v -4.500000 2.800000 -4.100000
vn -0.0000 -0.0000 1.0000
vn -0.0000 -0.0000 -1.0000
vn -0.0000 1.0000 -0.0000
vn -0.0000 -1.0000 -0.0000
vn 1.0000 -0.0000 -0.0000
vn -1.0000 -0.0000 -0.0000
vt 0.291667 0.955000
vt 0.301667 0.955000
s 0
usemtl palette1
f 7/1/1 4/1/1 3/2/1 6/2/1
f 2/1/1 8/1/1 5/2/1 1/2/1
f 15/1/2 14/2/2 11/2/2 12/1/2
f 10/1/2 9/2/2 13/2/2 16/1/2
f 2/1/3 1/2/3 9/2/3 10/1/3
f 3/2/4 4/1/4 12/1/4 11/2/4
f 6/2/5 3/2/5 11/2/5 14/2/5
f 8/1/6 2/1/6 10/1/6 16/1/6
f 1/2/5 5/2/5 13/2/5 9/2/5
f 4/1/6 7/1/6 15/1/6 12/1/6
f 5/2/4 8/1/4 16/1/4 13/2/4
f 7/1/3 6/2/3 14/2/3 15/1/3
