# Blender 4.5.2 LTS
# www.blender.org
mtllib wall_separator.mtl
o wall_separator
v -1.500000 3.000000 -3.850000
v -2.500000 3.000000 -3.850000
v -1.500000 0.000000 -3.850000
v -2.500000 0.000000 -3.850000
v -2.307318 3.000000 -3.850000
v -2.292681 3.000000 -3.850000
v -2.107318 3.000000 -3.850000
v -2.092682 3.000000 -3.850000
v -1.907318 3.000000 -3.850000
v -1.892681 3.000000 -3.850000
v -1.707318 3.000000 -3.850000
v -1.692682 3.000000 -3.850000
v -2.292681 0.000000 -3.850000
v -2.307318 0.000000 -3.850000
v -2.092682 0.000000 -3.850000
v -2.107318 0.000000 -3.850000
v -1.892681 0.000000 -3.850000
v -1.907318 0.000000 -3.850000
v -1.692682 0.000000 -3.850000
v -1.707318 0.000000 -3.850000
v -1.500000 3.000000 -3.900000
v -2.500000 3.000000 -3.900000
v -1.500000 0.000000 -3.900000
v -2.500000 0.000000 -3.900000
v -2.307318 3.000000 -3.900000
v -2.292681 3.000000 -3.900000
v -2.107318 3.000000 -3.900000
v -2.092682 3.000000 -3.900000
v -1.907318 3.000000 -3.900000
v -1.892681 3.000000 -3.900000
v -1.707318 3.000000 -3.900000
v -1.692682 3.000000 -3.900000
v -2.292681 0.000000 -3.900000
v -2.307318 0.000000 -3.900000
v -2.092682 0.000000 -3.900000
v -2.107318 0.000000 -3.900000
v -1.892681 0.000000 -3.900000
v -1.907318 0.000000 -3.900000
v -1.692682 0.000000 -3.900000
v -1.707318 0.000000 -3.900000
vn -0.0000 -0.0000 1.0000
vn 1.0000 -0.0000 -0.0000
vn -1.0000 -0.0000 -0.0000
vn -0.0000 1.0000 -0.0000
vt 0.291667 0.875000
vt 0.293593 0.875000
vt 0.293593 0.875000
vt 0.293740 0.875000
vt 0.295593 0.875000
vt 0.295594 0.875000
vt 0.295740 0.875000
vt 0.295740 0.875000
vt 0.297594 0.875000
vt 0.297740 0.875000
vt 0.299593 0.875000
vt 0.299593 0.875000
vt 0.299740 0.875000
vt 0.301667 0.875000
s 0
usemtl palette1
f 2/1/1 4/1/1 14/2/1 5/3/1
f 6/4/1 13/4/1 16/5/1 7/6/1
f 8/7/1 15/8/1 18/9/1 9/9/1
f 10/10/1 17/10/1 20/11/1 11/12/1
f 12/13/1 19/13/1 3/14/1 1/14/1
f 1/14/2 3/14/2 23/14/2 21/14/2
f 4/1/3 2/1/3 22/1/3 24/1/3
f 13/4/3 6/4/3 26/4/3 33/4/3
f 5/3/2 14/2/2 34/2/2 25/3/2
f 15/8/3 8/7/3 28/7/3 35/8/3
f 7/6/2 16/5/2 36/5/2 27/6/2
f 17/10/3 10/10/3 30/10/3 37/10/3
f 9/9/2 18/9/2 38/9/2 29/9/2
f 19/13/3 12/13/3 32/13/3 39/13/3
f 11/12/2 20/11/2 40/11/2 31/12/2
f 2/1/4 5/3/4 25/3/4 22/1/4
f 6/4/4 7/6/4 27/6/4 26/4/4
f 8/7/4 9/9/4 29/9/4 28/7/4
f 10/10/4 11/12/4 31/12/4 30/10/4
f 12/13/4 1/14/4 21/14/4 32/13/4
