# Blender 4.5.2 LTS
# www.blender.org
mtllib window_big.mtl
o window_big
v 6.000000 2.800000 -4.125000
v 8.000000 2.800000 -4.125000
v 6.000000 0.200000 -4.125000
v 8.000000 0.200000 -4.125000
v 7.950356 2.752743 -4.125000
v 6.049644 2.752743 -4.125000
v 7.950356 0.247257 -4.125000
v 6.049644 0.247257 -4.125000
v 6.000000 2.800000 -3.875000
v 8.000000 2.800000 -3.875000
v 6.000000 0.200000 -3.875000
v 8.000000 0.200000 -3.875000
v 7.950356 2.752743 -3.875000
v 6.049644 2.752743 -3.875000
v 7.950356 0.247257 -3.875000
v 6.049644 0.247257 -3.875000
vn -0.0000 -0.0000 -1.0000
vn -0.0000 -0.0000 1.0000
vn -0.0000 -1.0000 -0.0000
vn -0.0000 1.0000 -0.0000
vn 1.0000 -0.0000 -0.0000
vn -1.0000 -0.0000 -0.0000
vt 0.460000 0.963333
vt 0.460000 0.963333
s 0
usemtl palette1
f 5/1/1 6/1/1 1/2/1 2/2/1
f 8/2/1 7/2/1 4/2/1 3/2/1
f 6/1/1 8/2/1 3/2/1 1/2/1
f 7/2/1 5/1/1 2/2/1 4/2/1
f 13/1/2 10/2/2 9/2/2 14/1/2
f 16/2/2 11/2/2 12/2/2 15/2/2
f 14/1/2 9/2/2 11/2/2 16/2/2
f 15/2/2 12/2/2 10/2/2 13/1/2
f 6/1/3 5/1/3 13/1/3 14/1/3
f 7/2/4 8/2/4 16/2/4 15/2/4
f 8/2/5 6/1/5 14/1/5 16/2/5
f 5/1/6 7/2/6 15/2/6 13/1/6
f 2/2/4 1/2/4 9/2/4 10/2/4
f 3/2/3 4/2/3 12/2/3 11/2/3
f 1/2/6 3/2/6 11/2/6 9/2/6
f 4/2/5 2/2/5 10/2/5 12/2/5
